<?xml version="1.0" encoding="UTF-8"?>
<!DOCTYPE svg PUBLIC "-//W3C//DTD SVG 1.1//EN" "http://www.w3.org/Graphics/SVG/1.1/DTD/svg11.dtd">
<!-- Creator: CorelDRAW Home & Student 2018 (Nie do użytku komercyjnego) -->
<svg xmlns="http://www.w3.org/2000/svg" xml:space="preserve" width="32.112mm" height="20.9589mm" version="1.1" style="shape-rendering:geometricPrecision; text-rendering:geometricPrecision; image-rendering:optimizeQuality; fill-rule:evenodd; clip-rule:evenodd"
viewBox="0 0 2561.51 1671.85"
 xmlns:xlink="http://www.w3.org/1999/xlink">
 <defs>
  <style type="text/css">
   <![CDATA[
    .str0 {stroke:#383A52;stroke-width:23.93;stroke-linecap:round;stroke-linejoin:round;stroke-miterlimit:22.9256}
    .fil0 {fill:none}
   ]]>
  </style>
 </defs>
 <g id="Warstwa_x0020_1">
  <metadata id="CorelCorpID_0Corel-Layer"/>
  <g id="_133762176">
   <g>
    <g>
     <path class="fil0 str0" d="M24.33 726.02c275.92,-82.56 2027.93,-757.05 2061.72,-711.9 157.31,210.22 287.1,754.08 338.53,900.79 -266.12,80.27 -1781.99,639.36 -2180.19,744.97 -56.79,-189.8 -179.05,-542.85 -232.42,-721.21"/>
     <path class="fil0 str0" d="M946.64 507.04c-755.39,607.81 794.26,1103.05 701.57,274.47 -49.87,-445.96 -488.29,-403.38 -635.79,-221.32l84.67 -179.28c207.92,382.65 916.29,-266.06 910.54,-264.22 -1027.18,328.31 485.1,-89.17 -130.48,325.77 -125.47,84.57 160.64,-18.79 188.67,-4.36"/>
     <path class="fil0 str0" d="M428.73 1412.63c146,-43.68 244.12,-63.81 397.77,-116.84 124.02,-42.8 255.12,-107.01 376.84,-143.43"/>
    </g>
    <path class="fil0 str0" d="M1411.69 1337.31c33.29,-12.09 1145.84,-137.34 1137.96,-193.96 -27.65,-198.53 -54.55,-606.59 -125.66,-881.62l-141.13 29.65"/>
   </g>
   <path class="fil0 str0" d="M1059.74 730c-10.19,38.7 -46.55,122.24 18.7,177.86 45.02,38.37 92.37,-3.61 79.94,-30.93 -11.71,-25.71 -58.65,-23.93 -73.3,58.82 -5.27,29.85 19.81,58.53 38.12,71.33 48.4,33.86 63.83,39.49 108.7,86.64 27.89,29.27 131.43,3.76 152.48,-84.38 10.31,-43.19 67.06,-131.89 9.26,-139.03 -21.03,-2.59 -59.33,-121.5 -19.16,-121.5 60.74,0 31.1,93.84 16.68,81.68 -57.47,40.67 -65.12,-97.84 -72.21,-104.81 -86.44,-85.03 -260.36,220.43 -345.25,-78.36 -39.95,-140.65 196.72,-175.81 117.12,-86 -26.36,29.75 -3.25,95.03 58.41,15.08 58.02,-75.26 52.34,49.84 68.24,53.39 40.22,8.98 81.5,-100.08 131.61,-45.2 42.6,46.66 -103.06,82.51 101.48,80.06 118.76,-1.43 -26.85,115.31 25.32,130.97 24.86,7.47 92.99,21.16 48.72,65.43 -39.57,39.56 -43.81,-25.79 -59.61,70.92 -13.81,84.47 -58.62,10.14 -14,133.01 0.06,0.21 13.86,57.04 7,35.3"/>
   <path class="fil0 str0" d="M1188.2 840.39c75.25,118.73 -7.21,246.52 71.99,135.71 42.76,-59.82 106.45,-7.56 -0.64,64.13 -22.09,14.8 47.54,1.1 49.93,3.12"/>
   <path class="fil0 str0" d="M1218.27 835.9c8.33,-18.63 50.44,-56.28 71.78,-54.46"/>
   <path class="fil0 str0" d="M107.54 847.05c-4.54,-35.26 85.44,-99.16 10.63,74.73 -36.01,83.72 -0.14,18.18 61.69,-26.2 73.51,-52.76 6.71,-4.17 51.05,-5.15 50.63,-1.11 69.69,-129.86 5.61,-108.46 -57.48,19.2 -1.56,202.42 23.56,5.62 1.32,-10.31 9.1,26.87 39.86,-5.62 15.79,-16.7 -18.95,-4.59 -1.61,30.96 39.6,81.13 144.32,-116.88 55.64,-101.95 -31.15,5.25 -56.41,51.08 -55.4,79.72"/>
  </g>
 </g>
</svg>
