<?xml version="1.0" encoding="UTF-8"?>
<svg xmlns="http://www.w3.org/2000/svg" viewBox="23 92 758 495">
 <style>
  .fil0 {fill:none}
  .str0 {stroke:#383A52;stroke-width:2.5}
 </style>
  <path d="M 166,492 L 170.5,493.0 Q 175.0,494.0 175.5,496.5 Q 176.0,499.0 162.5,503.0 Q 149.0,507.0 144.5,507.0 Q 140.0,507.0 140.5,505.5 Q 141.0,504.0 152.5,498.5 L 164,493" class="fil0 str0"/>
  <path d="M 151,479 L 158.0,480.5 Q 165.0,482.0 166.5,485.0 Q 168.0,488.0 165.5,489.0 Q 163.0,490.0 154.5,487.0 Q 146.0,484.0 146.5,482.0 L 147,480" class="fil0 str0"/>
  <path d="M 645,433 L 647.5,433.5 Q 650.0,434.0 650.0,435.5 Q 650.0,437.0 641.5,448.0 Q 633.0,459.0 625.0,458.0 Q 617.0,457.0 610.0,447.5 Q 603.0,438.0 603.5,436.5 Q 604.0,435.0 613.5,434.5 L 623,434" class="fil0 str0"/>
  <path d="M 594,427 L 597.5,428.0 Q 601.0,429.0 599.5,434.0 Q 598.0,439.0 606.5,448.5 Q 615.0,458.0 614.5,459.5 Q 614.0,461.0 608.0,461.5 Q 602.0,462.0 593.0,447.0 Q 584.0,432.0 584.5,430.5 Q 585.0,429.0 589.0,429.0 L 593,429" class="fil0 str0"/>
  <path d="M 335,427 L 342.0,427.0 Q 349.0,427.0 350.0,429.0 Q 351.0,431.0 337.5,453.5 Q 324.0,476.0 321.0,478.0 Q 318.0,480.0 308.5,480.5 Q 299.0,481.0 284.0,457.5 Q 269.0,434.0 269.5,432.0 Q 270.0,430.0 294.0,429.0 L 318,428" class="fil0 str0"/>
  <path d="M 673,425 L 685.5,426.5 Q 698.0,428.0 704.0,430.5 Q 710.0,433.0 709.5,434.5 Q 709.0,436.0 690.5,433.5 L 672,431" class="fil0 str0"/>
  <path d="M 296,425 L 300.5,425.5 Q 305.0,426.0 304.5,427.5 Q 304.0,429.0 299.5,428.5 L 295,428" class="fil0 str0"/>
  <path d="M 658,424 L 661.0,423.5 Q 664.0,423.0 665.0,426.0 Q 666.0,429.0 658.5,444.5 Q 651.0,460.0 656.5,461.5 Q 662.0,463.0 661.0,465.0 Q 660.0,467.0 649.5,467.5 Q 639.0,468.0 626.5,466.5 Q 614.0,465.0 617.0,462.0 Q 620.0,459.0 627.0,459.5 Q 634.0,460.0 643.0,447.5 Q 652.0,435.0 651.0,433.5 Q 650.0,432.0 645.0,432.0 Q 640.0,432.0 640.5,430.0 Q 641.0,428.0 647.0,428.0 Q 653.0,428.0 655.5,426.5 L 658,425" class="fil0 str0"/>
  <path d="M 238,420 L 244.5,420.0 Q 251.0,420.0 254.0,423.0 Q 257.0,426.0 255.5,429.0 Q 254.0,432.0 268.0,456.5 Q 282.0,481.0 281.5,482.5 Q 281.0,484.0 271.5,483.5 Q 262.0,483.0 260.5,481.5 Q 259.0,480.0 256.5,471.0 Q 254.0,462.0 245.5,443.5 L 237,425" class="fil0 str0"/>
  <path d="M 257,416 L 261.5,416.5 Q 266.0,417.0 265.5,418.5 Q 265.0,420.0 260.5,419.5 L 256,419" class="fil0 str0"/>
  <path d="M 278,415 L 287.0,415.5 Q 296.0,416.0 295.5,417.5 Q 295.0,419.0 286.0,418.5 L 277,418" class="fil0 str0"/>
  <path d="M 379,413 L 385.0,413.5 Q 391.0,414.0 387.5,424.5 Q 384.0,435.0 372.0,460.0 Q 360.0,485.0 354.0,485.5 Q 348.0,486.0 362.0,451.0 L 376,416" class="fil0 str0"/>
  <path d="M 103,404 L 115.5,404.5 Q 128.0,405.0 127.5,406.5 Q 127.0,408.0 114.5,407.5 L 102,407" class="fil0 str0"/>
  <path d="M 375,403 L 381.0,403.0 Q 387.0,403.0 389.0,405.5 Q 391.0,408.0 390.5,410.0 Q 390.0,412.0 383.5,411.5 Q 377.0,411.0 375.5,408.5 L 374,406" class="fil0 str0"/>
  <path d="M 340,403 L 348.5,403.0 Q 357.0,403.0 358.5,406.5 Q 360.0,410.0 354.5,412.0 Q 349.0,414.0 298.5,414.0 Q 248.0,414.0 248.5,412.0 Q 249.0,410.0 252.5,407.5 Q 256.0,405.0 287.5,405.0 L 319,405" class="fil0 str0"/>
  <path d="M 129,403 L 142.0,403.5 Q 155.0,404.0 154.5,405.5 Q 154.0,407.0 141.0,406.5 L 128,406" class="fil0 str0"/>
  <path d="M 175,402 L 180.0,402.5 Q 185.0,403.0 184.5,404.5 Q 184.0,406.0 179.0,405.5 L 174,405" class="fil0 str0"/>
  <path d="M 226,401 L 230.5,401.5 Q 235.0,402.0 234.5,403.5 Q 234.0,405.0 229.5,404.5 L 225,404" class="fil0 str0"/>
  <path d="M 675,401 L 676.0,407.5 Q 677.0,414.0 676.0,409.0 L 675,404" class="fil0 str0"/>
  <path d="M 259,400 L 289.5,400.5 Q 320.0,401.0 319.5,402.5 Q 319.0,404.0 296.0,404.5 Q 273.0,405.0 264.0,404.5 Q 255.0,404.0 255.5,402.5 L 256,401" class="fil0 str0"/>
  <path d="M 396,398 L 461.0,401.0 Q 526.0,404.0 549.0,406.5 Q 572.0,409.0 573.0,411.5 Q 574.0,414.0 484.5,408.0 L 395,402" class="fil0 str0"/>
  <path d="M 170,396 L 184.0,397.0 Q 198.0,398.0 196.5,400.0 Q 195.0,402.0 181.0,401.5 Q 167.0,401.0 167.0,400.0 L 167,399" class="fil0 str0"/>
  <path d="M 351,395 L 353.0,395.5 Q 355.0,396.0 355.0,399.0 Q 355.0,402.0 348.5,401.0 Q 342.0,400.0 342.5,398.5 Q 343.0,397.0 345.5,397.0 L 348,397" class="fil0 str0"/>
  <path d="M 239,395 L 245.0,395.5 Q 251.0,396.0 250.5,397.5 Q 250.0,399.0 244.0,398.5 L 238,398" class="fil0 str0"/>
  <path d="M 114,395 L 127.0,395.5 Q 140.0,396.0 139.5,397.5 Q 139.0,399.0 141.5,397.0 Q 144.0,395.0 153.0,395.0 Q 162.0,395.0 163.0,398.5 Q 164.0,402.0 136.5,402.0 Q 109.0,402.0 109.0,401.0 L 109,400" class="fil0 str0"/>
  <path d="M 675,396 L 678.5,398.5 Q 682.0,401.0 685.0,406.5 Q 688.0,412.0 686.5,411.0 Q 685.0,410.0 684.5,406.5 Q 684.0,403.0 680.0,399.0 L 676,395" class="fil0 str0"/>
  <path d="M 214,394 L 219.0,394.5 Q 224.0,395.0 223.5,396.5 Q 223.0,398.0 218.0,397.5 L 213,397" class="fil0 str0"/>
  <path d="M 325,392 L 334.0,392.0 Q 343.0,392.0 344.0,394.5 Q 345.0,397.0 302.0,397.5 Q 259.0,398.0 259.5,396.5 Q 260.0,395.0 281.5,394.5 L 303,394" class="fil0 str0"/>
  <path d="M 512,383 L 514.5,383.5 Q 517.0,384.0 524.0,392.0 Q 531.0,400.0 530.5,402.0 Q 530.0,404.0 513.5,402.5 Q 497.0,401.0 497.0,399.0 Q 497.0,397.0 500.0,394.0 L 503,391" class="fil0 str0"/>
  <path d="M 609,363 L 610.5,364.5 Q 612.0,366.0 605.5,386.5 Q 599.0,407.0 596.5,408.0 Q 594.0,409.0 600.5,388.0 L 607,367" class="fil0 str0"/>
  <path d="M 598,356 L 600.0,356.0 Q 602.0,356.0 594.5,381.5 Q 587.0,407.0 581.5,408.0 Q 576.0,409.0 574.0,408.0 Q 572.0,407.0 572.0,405.5 Q 572.0,404.0 584.5,381.5 L 597,359" class="fil0 str0"/>
  <path d="M 620,344 L 622.0,345.0 Q 624.0,346.0 638.0,378.5 Q 652.0,411.0 652.0,414.5 Q 652.0,418.0 625.5,414.0 Q 599.0,410.0 608.5,379.0 L 618,348" class="fil0 str0"/>
  <path d="M 604,338 L 605.5,339.5 Q 607.0,341.0 593.0,364.0 Q 579.0,387.0 574.5,397.5 Q 570.0,408.0 560.5,407.0 Q 551.0,406.0 551.0,404.5 Q 551.0,403.0 559.5,394.5 Q 568.0,386.0 585.0,363.0 L 602,340" class="fil0 str0"/>
  <path d="M 627,328 L 629.0,329.5 Q 631.0,331.0 635.5,341.5 Q 640.0,352.0 639.5,353.5 Q 639.0,355.0 637.5,354.5 Q 636.0,354.0 631.0,342.5 L 626,331" class="fil0 str0"/>
  <path d="M 241,323 L 242.5,324.5 Q 244.0,326.0 228.0,352.5 Q 212.0,379.0 210.0,379.0 Q 208.0,379.0 223.5,352.0 L 239,325" class="fil0 str0"/>
  <path d="M 609,319 L 611.0,319.0 Q 613.0,319.0 612.0,323.5 Q 611.0,328.0 588.5,357.5 Q 566.0,387.0 561.5,391.5 Q 557.0,396.0 555.5,395.5 Q 554.0,395.0 581.5,357.5 L 609,320" class="fil0 str0"/>
  <path d="M 627,303 L 628.5,303.5 Q 630.0,304.0 664.0,362.0 Q 698.0,420.0 697.5,421.5 Q 697.0,423.0 688.5,422.0 Q 680.0,421.0 679.0,418.5 Q 678.0,416.0 677.5,418.0 Q 677.0,420.0 673.0,419.5 Q 669.0,419.0 647.5,367.5 L 626,316" class="fil0 str0"/>
  <path d="M 610,300 L 611.5,300.5 Q 613.0,301.0 612.0,308.0 Q 611.0,315.0 582.0,354.0 Q 553.0,393.0 549.5,399.5 Q 546.0,406.0 540.0,405.0 Q 534.0,404.0 532.5,399.5 Q 531.0,395.0 532.5,389.5 Q 534.0,384.0 569.5,344.5 L 605,305" class="fil0 str0"/>
  <path d="M 606,297 L 607.5,298.5 Q 609.0,300.0 578.0,333.5 Q 547.0,367.0 537.0,380.5 Q 527.0,394.0 521.5,387.0 Q 516.0,380.0 559.5,339.5 L 603,299" class="fil0 str0"/>
  <path d="M 616,291 L 618.0,291.0 Q 620.0,291.0 620.5,301.5 Q 621.0,312.0 623.5,322.5 Q 626.0,333.0 643.5,372.0 Q 661.0,411.0 662.0,416.5 Q 663.0,422.0 659.0,421.0 Q 655.0,420.0 638.0,379.0 Q 621.0,338.0 619.0,337.5 Q 617.0,337.0 605.5,371.5 Q 594.0,406.0 592.5,408.0 Q 591.0,410.0 589.0,409.5 Q 587.0,409.0 601.0,366.0 Q 615.0,323.0 614.0,322.5 Q 613.0,322.0 615.0,313.5 Q 617.0,305.0 616.0,299.0 L 615,293" class="fil0 str0"/>
  <path d="M 307,270 L 308.5,270.5 Q 310.0,271.0 319.5,301.0 Q 329.0,331.0 341.0,360.5 Q 353.0,390.0 352.5,391.5 Q 352.0,393.0 345.0,392.0 Q 338.0,391.0 304.5,392.0 Q 271.0,393.0 288.0,334.0 L 305,275" class="fil0 str0"/>
  <path d="M 276,271 L 278.0,271.0 Q 280.0,271.0 260.0,331.5 Q 240.0,392.0 239.0,393.0 Q 238.0,394.0 220.5,393.5 Q 203.0,393.0 214.5,376.0 Q 226.0,359.0 245.0,324.0 Q 264.0,289.0 270.0,280.5 L 276,272" class="fil0 str0"/>
  <path d="M 616,259 L 617.5,259.5 Q 619.0,260.0 619.5,263.0 Q 620.0,266.0 619.5,277.0 Q 619.0,288.0 616.0,287.0 Q 613.0,286.0 613.5,273.5 L 614,261" class="fil0 str0"/>
  <path d="M 337,259 L 338.5,259.5 Q 340.0,260.0 379.5,315.5 Q 419.0,371.0 427.5,380.5 Q 436.0,390.0 439.5,392.0 Q 443.0,394.0 457.0,393.0 Q 471.0,392.0 481.0,395.0 Q 491.0,398.0 490.5,399.5 Q 490.0,401.0 450.5,399.0 Q 411.0,397.0 402.5,397.5 Q 394.0,398.0 393.5,400.5 Q 393.0,403.0 391.0,402.5 Q 389.0,402.0 371.0,356.5 Q 353.0,311.0 348.5,295.5 Q 344.0,280.0 348.0,284.0 Q 352.0,288.0 384.0,339.0 Q 416.0,390.0 376.0,326.0 L 336,262" class="fil0 str0"/>
  <path d="M 301,254 L 302.5,254.5 Q 304.0,255.0 305.0,258.5 Q 306.0,262.0 287.0,326.5 Q 268.0,391.0 261.5,392.0 Q 255.0,393.0 262.5,366.0 Q 270.0,339.0 284.5,297.5 L 299,256" class="fil0 str0"/>
  <path d="M 290,250 L 292.0,251.0 Q 294.0,252.0 290.5,259.5 Q 287.0,267.0 285.0,267.0 Q 283.0,267.0 286.0,260.0 L 289,253" class="fil0 str0"/>
  <path d="M 288,232 L 290.0,232.0 Q 292.0,232.0 292.0,233.5 Q 292.0,235.0 279.5,259.0 Q 267.0,283.0 245.5,315.0 Q 224.0,347.0 211.5,370.5 Q 199.0,394.0 186.5,393.0 Q 174.0,392.0 200.0,353.5 Q 226.0,315.0 257.0,274.0 L 288,233" class="fil0 str0"/>
  <path d="M 292,201 L 294.0,201.0 Q 296.0,201.0 295.5,207.5 Q 295.0,214.0 231.0,303.5 Q 167.0,393.0 157.5,392.5 Q 148.0,392.0 218.0,299.0 L 288,206" class="fil0 str0"/>
  <path d="M 322,194 L 324.0,195.0 Q 326.0,196.0 388.0,273.5 Q 450.0,351.0 469.5,372.0 Q 489.0,393.0 488.5,394.5 Q 488.0,396.0 478.5,393.5 Q 469.0,391.0 457.0,392.5 Q 445.0,394.0 437.0,388.0 Q 429.0,382.0 379.0,312.5 Q 329.0,243.0 326.5,237.0 Q 324.0,231.0 322.5,218.0 L 321,205" class="fil0 str0"/>
  <path d="M 293,190 L 294.5,190.5 Q 296.0,191.0 295.0,194.5 Q 294.0,198.0 219.0,295.5 Q 144.0,393.0 131.0,392.5 Q 118.0,392.0 203.0,293.5 L 288,195" class="fil0 str0"/>
  <path d="M 294,179 L 295.5,179.5 Q 297.0,180.0 296.5,182.0 Q 296.0,184.0 209.0,284.5 Q 122.0,385.0 118.0,389.0 Q 114.0,393.0 105.0,392.5 Q 96.0,392.0 107.0,379.5 Q 118.0,367.0 146.5,339.5 Q 175.0,312.0 155.0,330.5 Q 135.0,349.0 133.5,347.5 Q 132.0,346.0 210.5,265.0 L 289,184" class="fil0 str0"/>
  <path d="M 321,171 L 334.0,183.5 Q 347.0,196.0 428.5,286.0 Q 510.0,376.0 511.0,379.0 Q 512.0,382.0 503.0,389.0 Q 494.0,396.0 483.5,386.0 Q 473.0,376.0 399.0,285.5 Q 325.0,195.0 322.5,188.5 L 320,182" class="fil0 str0"/>
  <path d="M 294,169 L 295.5,169.5 Q 297.0,170.0 295.5,174.0 Q 294.0,178.0 224.0,249.5 Q 154.0,321.0 122.0,356.5 Q 90.0,392.0 81.0,391.5 Q 72.0,391.0 90.5,370.5 Q 109.0,350.0 199.0,261.5 L 289,173" class="fil0 str0"/>
  <path d="M 311,112 L 314.0,113.5 Q 317.0,115.0 317.5,119.5 Q 318.0,124.0 317.5,151.5 Q 317.0,179.0 318.5,182.5 Q 320.0,186.0 321.0,201.0 Q 322.0,216.0 321.0,221.0 Q 320.0,226.0 322.0,230.0 Q 324.0,234.0 323.5,237.0 Q 323.0,240.0 331.0,256.0 Q 339.0,272.0 362.5,333.5 Q 386.0,395.0 386.0,399.0 Q 386.0,403.0 380.5,403.0 Q 375.0,403.0 373.5,401.5 Q 372.0,400.0 344.0,321.0 Q 316.0,242.0 313.0,226.5 Q 310.0,211.0 310.0,176.0 L 310,141" class="fil0 str0"/>
  <path d="M 305,112 L 307.0,112.5 Q 309.0,113.0 309.0,160.0 Q 309.0,207.0 310.5,218.5 Q 312.0,230.0 321.0,259.0 Q 330.0,288.0 348.5,337.0 Q 367.0,386.0 368.5,394.0 Q 370.0,402.0 365.0,402.0 Q 360.0,402.0 356.5,395.5 Q 353.0,389.0 329.0,319.5 Q 305.0,250.0 303.0,250.0 Q 301.0,250.0 299.0,254.0 Q 297.0,258.0 274.5,326.0 Q 252.0,394.0 247.0,393.5 Q 242.0,393.0 256.5,349.5 Q 271.0,306.0 286.0,272.5 Q 301.0,239.0 300.5,237.5 Q 300.0,236.0 297.5,239.0 Q 295.0,242.0 293.0,242.0 Q 291.0,242.0 296.5,229.5 Q 302.0,217.0 300.5,215.5 Q 299.0,214.0 301.0,209.0 Q 303.0,204.0 300.0,204.5 Q 297.0,205.0 297.0,200.5 Q 297.0,196.0 300.0,192.0 Q 303.0,188.0 300.0,188.5 Q 297.0,189.0 297.0,186.5 Q 297.0,184.0 300.5,179.0 Q 304.0,174.0 303.0,172.0 Q 302.0,170.0 303.0,165.5 Q 304.0,161.0 301.0,161.0 Q 298.0,161.0 298.5,142.0 Q 299.0,123.0 300.5,118.0 L 302,113" class="fil0 str0"/>
  <path d="M 306,105 L 307.5,104.5 Q 309.0,104.0 310.5,106.5 Q 312.0,109.0 310.5,110.5 Q 309.0,112.0 306.0,110.5 L 303,109" class="fil0 str0"/>
  <path d="M 305,105 L 302.0,109.0 Q 299.0,113.0 298.0,139.0 Q 297.0,165.0 251.5,208.5 Q 206.0,252.0 137.0,322.0 Q 68.0,392.0 63.0,392.5 Q 58.0,393.0 57.5,394.5 Q 57.0,396.0 45.0,396.5 Q 33.0,397.0 46.5,397.5 Q 60.0,398.0 60.0,399.5 Q 60.0,401.0 63.0,398.5 Q 66.0,396.0 75.0,396.5 Q 84.0,397.0 84.0,399.0 Q 84.0,401.0 89.5,398.0 Q 95.0,395.0 102.5,395.5 Q 110.0,396.0 107.0,400.0 Q 104.0,404.0 84.5,406.0 Q 65.0,408.0 157.0,407.0 Q 249.0,406.0 248.0,409.5 Q 247.0,413.0 243.5,414.5 Q 240.0,416.0 177.0,418.0 Q 114.0,420.0 80.0,422.5 Q 46.0,425.0 65.0,425.5 Q 84.0,426.0 159.0,422.5 Q 234.0,419.0 234.5,424.0 Q 235.0,429.0 240.0,438.5 Q 245.0,448.0 251.0,463.5 Q 257.0,479.0 256.5,481.0 Q 256.0,483.0 247.5,482.0 Q 239.0,481.0 220.5,487.5 Q 202.0,494.0 199.5,493.5 Q 197.0,493.0 197.5,491.5 Q 198.0,490.0 203.5,487.5 Q 209.0,485.0 209.0,483.0 Q 209.0,481.0 200.5,481.5 Q 192.0,482.0 182.5,485.5 Q 173.0,489.0 170.5,488.5 Q 168.0,488.0 168.0,486.0 Q 168.0,484.0 165.0,482.0 Q 162.0,480.0 155.0,479.5 Q 148.0,479.0 145.5,480.0 Q 143.0,481.0 144.0,483.0 Q 145.0,485.0 153.5,488.0 Q 162.0,491.0 161.5,492.5 Q 161.0,494.0 150.5,498.5 Q 140.0,503.0 133.0,502.0 Q 126.0,501.0 116.5,493.5 Q 107.0,486.0 102.0,484.5 Q 97.0,483.0 77.0,488.5 Q 57.0,494.0 49.5,494.0 Q 42.0,494.0 37.5,491.5 Q 33.0,489.0 34.5,490.5 Q 36.0,492.0 45.0,493.5 Q 54.0,495.0 69.0,490.0 Q 84.0,485.0 92.5,484.5 Q 101.0,484.0 112.0,492.0 Q 123.0,500.0 130.0,502.0 Q 137.0,504.0 135.5,506.5 Q 134.0,509.0 155.0,504.5 Q 176.0,500.0 177.0,498.0 Q 178.0,496.0 175.5,494.5 Q 173.0,493.0 173.0,491.0 Q 173.0,489.0 187.0,485.0 Q 201.0,481.0 204.5,481.5 Q 208.0,482.0 208.0,483.0 Q 208.0,484.0 199.5,488.5 Q 191.0,493.0 191.5,494.0 Q 192.0,495.0 202.5,493.5 Q 213.0,492.0 228.0,486.5 Q 243.0,481.0 244.5,481.5 Q 246.0,482.0 245.5,487.0 Q 245.0,492.0 246.5,495.5 Q 248.0,499.0 248.0,492.5 Q 248.0,486.0 250.0,484.5 Q 252.0,483.0 266.5,485.5 Q 281.0,488.0 283.5,487.0 Q 286.0,486.0 307.0,487.0 Q 328.0,488.0 306.5,486.5 Q 285.0,485.0 271.5,461.0 Q 258.0,437.0 257.5,433.5 Q 257.0,430.0 261.0,431.0 Q 265.0,432.0 267.5,434.5 Q 270.0,437.0 276.5,450.5 Q 283.0,464.0 290.0,473.0 Q 297.0,482.0 307.5,481.0 Q 318.0,480.0 319.5,482.0 Q 321.0,484.0 333.0,466.0 Q 345.0,448.0 349.0,439.5 Q 353.0,431.0 351.5,428.5 Q 350.0,426.0 325.0,425.0 Q 300.0,424.0 282.5,426.5 Q 265.0,429.0 260.5,425.5 Q 256.0,422.0 257.0,421.0 Q 258.0,420.0 284.0,419.5 Q 310.0,419.0 335.0,415.5 Q 360.0,412.0 361.0,407.5 Q 362.0,403.0 367.5,403.5 Q 373.0,404.0 374.5,409.5 Q 376.0,415.0 361.0,451.5 Q 346.0,488.0 353.0,488.0 Q 360.0,488.0 361.0,489.5 Q 362.0,491.0 368.0,489.5 Q 374.0,488.0 375.5,491.0 Q 377.0,494.0 376.0,498.0 Q 375.0,502.0 365.0,503.0 Q 355.0,504.0 319.0,500.5 Q 283.0,497.0 272.5,498.0 Q 262.0,499.0 279.0,501.0 Q 296.0,503.0 325.0,503.5 Q 354.0,504.0 364.0,506.0 Q 374.0,508.0 373.5,509.5 Q 373.0,511.0 322.5,515.0 Q 272.0,519.0 261.0,521.0 Q 250.0,523.0 280.0,520.0 Q 310.0,517.0 345.0,516.5 Q 380.0,516.0 368.5,515.5 Q 357.0,515.0 357.5,513.5 Q 358.0,512.0 373.0,512.0 Q 388.0,512.0 387.5,513.5 Q 387.0,515.0 384.5,515.0 Q 382.0,515.0 385.0,515.0 Q 388.0,515.0 389.5,512.5 Q 391.0,510.0 404.0,510.0 Q 417.0,510.0 419.5,511.0 Q 422.0,512.0 421.5,513.5 Q 421.0,515.0 413.0,517.0 Q 405.0,519.0 359.5,524.0 Q 314.0,529.0 297.5,533.0 Q 281.0,537.0 290.0,539.0 Q 299.0,541.0 379.5,541.0 Q 460.0,541.0 465.5,542.0 Q 471.0,543.0 469.5,545.0 Q 468.0,547.0 446.5,551.5 Q 425.0,556.0 418.5,559.5 Q 412.0,563.0 420.0,565.0 Q 428.0,567.0 474.5,566.5 Q 521.0,566.0 543.0,571.5 Q 565.0,577.0 553.5,573.0 Q 542.0,569.0 529.0,567.0 Q 516.0,565.0 469.5,565.5 Q 423.0,566.0 419.0,565.0 Q 415.0,564.0 415.0,562.0 Q 415.0,560.0 445.0,552.5 Q 475.0,545.0 471.0,543.0 Q 467.0,541.0 391.5,541.0 Q 316.0,541.0 301.0,539.5 Q 286.0,538.0 286.5,536.5 Q 287.0,535.0 292.5,533.5 Q 298.0,532.0 346.0,526.5 Q 394.0,521.0 409.0,517.5 Q 424.0,514.0 422.5,512.0 Q 421.0,510.0 403.0,510.0 Q 385.0,510.0 378.0,508.0 Q 371.0,506.0 374.5,503.0 Q 378.0,500.0 376.5,493.5 Q 375.0,487.0 369.5,487.0 Q 364.0,487.0 370.0,471.5 Q 376.0,456.0 378.0,454.0 Q 380.0,452.0 390.5,451.0 Q 401.0,450.0 400.5,452.5 Q 400.0,455.0 408.5,457.0 Q 417.0,459.0 441.0,458.5 Q 465.0,458.0 495.5,455.0 Q 526.0,452.0 524.5,454.0 Q 523.0,456.0 508.5,459.5 Q 494.0,463.0 506.5,460.5 Q 519.0,458.0 525.5,455.0 Q 532.0,452.0 526.5,451.0 Q 521.0,450.0 495.0,453.5 Q 469.0,457.0 449.5,458.0 Q 430.0,459.0 416.0,457.0 Q 402.0,455.0 403.0,453.0 Q 404.0,451.0 408.0,449.0 Q 412.0,447.0 395.5,448.5 Q 379.0,450.0 385.0,436.5 Q 391.0,423.0 391.5,419.0 Q 392.0,415.0 394.5,413.5 Q 397.0,412.0 397.0,408.0 Q 397.0,404.0 456.5,406.5 Q 516.0,409.0 585.5,415.5 Q 655.0,422.0 654.5,424.5 Q 654.0,427.0 643.0,427.5 Q 632.0,428.0 616.0,425.0 Q 600.0,422.0 573.0,419.5 Q 546.0,417.0 472.5,416.0 Q 399.0,415.0 487.5,419.5 Q 576.0,424.0 579.0,425.0 Q 582.0,426.0 584.0,432.0 Q 586.0,438.0 592.5,448.5 Q 599.0,459.0 598.5,461.0 Q 598.0,463.0 576.5,463.5 Q 555.0,464.0 555.5,462.5 Q 556.0,461.0 571.5,459.5 Q 587.0,458.0 582.5,456.5 Q 578.0,455.0 564.0,455.0 Q 550.0,455.0 559.5,455.0 Q 569.0,455.0 570.0,456.0 Q 571.0,457.0 570.5,458.5 Q 570.0,460.0 552.5,461.5 Q 535.0,463.0 532.5,464.5 Q 530.0,466.0 556.5,465.0 Q 583.0,464.0 587.5,464.5 Q 592.0,465.0 592.5,467.0 Q 593.0,469.0 615.0,469.5 Q 637.0,470.0 652.0,469.0 Q 667.0,468.0 675.5,464.0 Q 684.0,460.0 686.5,464.0 Q 689.0,468.0 692.5,468.0 Q 696.0,468.0 700.5,465.5 Q 705.0,463.0 709.0,466.0 Q 713.0,469.0 721.5,467.5 Q 730.0,466.0 750.5,467.5 Q 771.0,469.0 759.0,467.0 Q 747.0,465.0 730.0,466.5 Q 713.0,468.0 710.5,465.0 Q 708.0,462.0 698.5,464.5 Q 689.0,467.0 687.0,463.0 Q 685.0,459.0 676.0,463.0 Q 667.0,467.0 662.0,463.5 Q 657.0,460.0 663.5,446.5 Q 670.0,433.0 693.0,434.5 Q 716.0,436.0 716.0,433.5 Q 716.0,431.0 725.5,431.0 Q 735.0,431.0 719.5,428.0 Q 704.0,425.0 700.0,420.5 Q 696.0,416.0 660.5,354.5 Q 625.0,293.0 624.5,279.5 Q 624.0,266.0 621.5,260.0 Q 619.0,254.0 616.0,257.5 Q 613.0,261.0 613.0,275.0 Q 613.0,289.0 564.5,334.0 Q 516.0,379.0 514.5,379.0 Q 513.0,379.0 416.5,273.0 Q 320.0,167.0 319.0,140.0 Q 318.0,113.0 313.5,107.5 L 309,102" class="fil0 str0"/>
</svg>