<?xml version="1.0" encoding="UTF-8"?>
<!DOCTYPE svg PUBLIC "-//W3C//DTD SVG 1.1//EN" "http://www.w3.org/Graphics/SVG/1.1/DTD/svg11.dtd">
<!-- Creator: CorelDRAW Home & Student 2018 (Nie do użytku komercyjnego) -->
<svg xmlns="http://www.w3.org/2000/svg" xml:space="preserve" width="31.6138mm" height="31.7781mm" version="1.1" style="shape-rendering:geometricPrecision; text-rendering:geometricPrecision; image-rendering:optimizeQuality; fill-rule:evenodd; clip-rule:evenodd"
viewBox="0 0 1566.75 1574.89"
 xmlns:xlink="http://www.w3.org/1999/xlink">
 <defs>
  <style type="text/css">
   <![CDATA[
    .str0 {stroke:#383A52;stroke-width:14.87;stroke-linecap:round;stroke-linejoin:round;stroke-miterlimit:22.9256}
    .fil0 {fill:none}
   ]]>
  </style>
 </defs>
 <g id="Warstwa_x0020_1">
  <metadata id="CorelCorpID_0Corel-Layer"/>
  <g id="_1147785976">
   <path class="fil0 str0" d="M414.44 803.26c-25.86,7.83 -64.75,-18.2 -113.03,-40.86 -176.68,-82.95 -271.88,116.68 -105.4,104.27 40.09,-2.99 52.24,-21.24 51.69,-13.74 -2.81,38.96 -32.29,64.65 29.06,89.57 25.33,10.28 58.7,8.1 88.16,-32.97 33.52,-46.75 -19.25,76.29 80.44,11.51 31.7,-20.6 62.38,15.77 -13.6,50.57 -63.77,29.2 -0.47,87.32 67.34,85.87 38.5,-0.82 23.79,63.36 150.2,59.5 66.21,-2.02 -11.96,43.32 58.68,61.91 102.12,26.88 67.49,393.9 79.03,389.13"/>
   <path class="fil0 str0" d="M372.82 737.88c123.16,-91.2 143.82,12.78 68.66,35.53"/>
   <path class="fil0 str0" d="M484.24 524.99c0.01,8.09 -3.19,-10.19 -12.65,-31.59 -39.71,-89.87 -121.65,-41.24 -122.38,6.21 -4.81,314.77 283.4,134.15 -17.59,28.45 -56.58,-19.87 -164.22,4.61 -128.44,99.64m-100.1 10.57c-40.28,55.57 46.79,119.23 90.83,70.48 -64.49,54.27 -13.55,158.46 151.86,58.98"/>
   <path class="fil0 str0" d="M637.82 733.87c60.57,-23.17 86.05,-133.4 9.56,-155.73 -0.49,-0.14 59.59,5.98 95.63,-77.1 13.73,-31.66 47.83,-27.89 79.32,-87.5 37.8,-71.58 -265.93,-92.36 -256.86,59.2"/>
   <path class="fil0 str0" d="M554.19 661.22c-33.23,7.79 -50.65,30.61 -27.04,73.33 17.3,18.86 37.9,21.27 57.63,13.71"/>
   <path class="fil0 str0" d="M879.62 856c-96.63,-16.23 82.21,-83.65 -38.72,-120.64 -207.7,-63.54 -104.64,119.3 -67.47,42.71 37.94,-78.17 -93.13,-148.36 -166.19,-131.24"/>
   <path class="fil0 str0" d="M1068.5 768.46c58.77,-57.26 50.76,91.93 -93.6,114.78"/>
   <path class="fil0 str0" d="M1129.14 728.31c115.13,57.75 151.99,-112.03 63.63,-127.14 -64.97,-11.12 26.74,-5.15 -56.78,-94.38 -103.03,-110.08 -165.77,40.3 -157.58,22.86 73.69,-157.12 -237.12,-83 -144.18,55.21 81.82,121.69 122.53,-63.37 213.97,47.79 13.44,16.34 14.19,40.62 11.13,64.08"/>
   <path class="fil0 str0" d="M820.89 983.39c-21.52,32.98 -34.16,73 -28.13,100.95 10.57,48.88 145.88,-25.35 145.88,-15.52 0,127.67 89.96,-5.04 82.04,42.22 -21.03,125.32 177.15,94.84 113.81,-59.97m-19.15 -57.86c-68.12,-148.96 -103.33,-102.09 -96.31,-18.79m11.07 55.02c12.32,47.82 37.02,99.51 76.01,135.5 72.62,67.03 151.24,14.69 172.74,-80.12m8.65 -73.52c-2.75,-194.14 -249.84,-121.83 -129.38,-35.41 31.05,22.27 78.19,18.79 105.05,-71.81 21.11,-71.22 32.08,-237.88 -68.37,-244.04"/>
   <path class="fil0 str0" d="M565.73 892.52c-44.22,54.95 -62.53,135.99 29.64,165.42 49.71,15.86 245.63,6.53 327.44,-36.48"/>
   <path class="fil0 str0" d="M826.35 1567.06c0.92,-33.45 -8.22,-200.78 -6.37,-310.77m7.17 -109.1c30.96,-22.98 63.44,-31.08 93.18,-34.88m182.48 90.92c54.05,127.97 -84.16,159.34 -194.82,93.84"/>
   <path class="fil0 str0" d="M1112.53 326.34c62.59,-35.87 161.65,-72.17 234.86,-77.23 378.3,-26.2 -360.25,561.58 -412.33,601.33 -89.27,68.16 -301.08,204.77 -498.35,293.95 -571.1,258.17 -242.13,-48.4 -207.17,-73.59"/>
   <path class="fil0 str0" d="M346.02 430.95c-69.9,-17.84 -175.06,-26.34 -246.96,-11.65 -371.54,75.87 497.26,444.86 558.06,469.24 104.24,41.81 344.86,116.84 558.79,150.04 619.33,96.12 220.38,-111.36 179.96,-126.28"/>
   <path class="fil0 str0" d="M757.97 238.21c-32.57,-64.37 -95.36,-149.15 -153.73,-193.62 -301.62,-229.85 -7.78,667.15 13.87,728.99 37.1,106.01 138.94,336.56 254.71,519.5 335.15,529.61 228.87,92.67 213.51,52.42"/>
   <path class="fil0 str0" d="M499.94 215.23c-25.75,-29.7 -70.92,30.4 -33.25,45.46 22.47,8.98 52.86,-22.84 33.25,-45.46z"/>
   <path class="fil0 str0" d="M1439.55 391.17c-72.98,-49.03 -118.77,71.75 -31.63,63 29.64,-2.97 59.08,-44.56 31.63,-63z"/>
   <path class="fil0 str0" d="M992.12 1426.04c-39.85,-11.34 -38.66,36.08 -19.25,47.39 23.89,13.94 44.18,-11.95 35.13,-36.24"/>
   <path class="fil0 str0" d="M101.9 1162.22c11.79,-25.99 35.98,-19.93 45.73,-17.05 17.66,5.2 18.64,32.2 10.33,46.78 -10.61,18.6 -54.06,30.64 -56.78,-15.58"/>
   <path class="fil0 str0" d="M1333.4 1034.34c-97.43,0 16.9,119.98 21.11,13.44 0.21,-5.33 -0.39,-1.33 -1.92,-5.75"/>
  </g>
 </g>
</svg>
