<?xml version="1.0" encoding="UTF-8"?>
<!DOCTYPE svg PUBLIC "-//W3C//DTD SVG 1.1//EN" "http://www.w3.org/Graphics/SVG/1.1/DTD/svg11.dtd">
<!-- Creator: CorelDRAW Home & Student 2018 (Nie do użytku komercyjnego) -->
<svg xmlns="http://www.w3.org/2000/svg" xml:space="preserve" width="59.6325mm" height="42.6686mm" version="1.1" style="shape-rendering:geometricPrecision; text-rendering:geometricPrecision; image-rendering:optimizeQuality; fill-rule:evenodd; clip-rule:evenodd"
viewBox="0 0 2927.89 2094.98"
 xmlns:xlink="http://www.w3.org/1999/xlink">
 <defs>
  <style type="text/css">
   <![CDATA[
    .str0 {stroke:#383A52;stroke-width:14.73;stroke-linecap:round;stroke-linejoin:round;stroke-miterlimit:22.9256}
    .fil0 {fill:none}
   ]]>
  </style>
 </defs>
 <g id="Warstwa_x0020_1">
  <metadata id="CorelCorpID_0Corel-Layer"/>
  <g id="_1147128520">
   <path class="fil0 str0" d="M824.63 1611.09c-100.07,172.15 23.54,498.23 404.59,467.14 360.68,-29.42 388.31,-608.5 -12.55,-619.74 -2.25,-28.44 -0.53,-89.28 -7.5,-150.68m415.98 159.33c-3,24.06 -9.4,418.51 0,520.62 16.59,93.37 164.3,99.27 164.3,-3.36l0 -519.89c132.68,3.98 15.63,-20.05 -48.34,-18.3 -194.81,5.32 -132.8,-24.51 -43.82,-17.26 25.01,2.04 29.08,21.48 35.49,40.95 26.56,80.58 -31.87,102.04 -9.79,3.68 5.88,-26.18 1.12,-63.83 4.88,-113.62 23.24,-307.88 -608.84,-281.92 -606.71,-86.96l2.27 206.3c2.37,216.6 274.38,300.64 112.22,322.93 -112.42,15.48 -195.29,1.55 -255.02,-9.15 -287.38,-51.5 -177,-134 202.17,-144.35 64.8,-1.77 329.12,22.06 316.79,59.37 -17.25,52.2 -519.87,62.96 -652.98,-28.87 -117.57,-81.13 101.1,-225.71 216.94,-220.73 -4.07,-103.2 -2.91,-127.25 1.17,-150.68 10.11,-14.37 114.15,0.45 131.21,5.72 68.62,21.23 67.56,-13.31 44.42,-13.27 -68.98,0.11 -153.55,56.18 -211.39,-1.5"/>
   <path class="fil0 str0" d="M2017.01 692.81c-24.59,7.91 -11.41,12.39 19.96,14.53 31.37,2.15 80.93,1.97 129.1,0.57 48.16,-1.4 94.93,-4.03 120.71,-6.77 25.78,-2.74 30.58,-5.6 -5.19,-7.46 0,0 0,0 0,0 0,5.53 -0.1,11.01 -0.29,16.45 -0.19,5.44 -0.48,10.85 -0.84,16.23 -0.36,5.37 -0.81,10.72 -1.33,16.04 -0.52,5.32 -1.11,10.62 -1.75,15.89 -14.4,116.87 -19.23,216.38 -17,302.25 2.23,85.87 11.54,158.12 25.41,220.47 13.88,62.36 32.33,114.83 52.87,161.14 20.54,46.32 43.17,86.5 65.38,124.25 16.13,27.43 34.34,59.74 49.83,95.56 15.49,35.81 28.24,75.11 33.46,116.5 5.21,41.38 2.88,84.85 -11.79,129 -14.68,44.15 -41.71,88.99 -85.91,133.09 -39.92,14.47 -88.39,24.59 -140.19,31 -51.8,6.41 -106.95,9.1 -160.22,8.71 -53.28,-0.38 -104.68,-3.86 -149.02,-9.81 -44.34,-5.94 -81.6,-14.34 -106.57,-24.56 -20.53,-8.4 -39.88,-31.05 -55.84,-62.71 -15.95,-31.66 -28.51,-72.37 -35.43,-116.88 -6.93,-44.51 -8.22,-92.86 -1.67,-139.81 6.54,-46.95 20.96,-92.53 45.44,-131.51 57.08,-90.89 100.66,-164.89 133.9,-231.2 33.24,-66.31 56.13,-124.92 71.84,-185.03 15.71,-60.11 24.24,-121.73 28.74,-194.04 4.51,-72.31 5,-155.32 4.63,-258.22"/>
   <path class="fil0 str0" d="M1643.6 1795.33c-72.83,23.49 198.12,29.57 115.78,0"/>
   <path class="fil0 str0" d="M493.62 731.7c-72.83,23.49 198.12,29.57 115.78,0"/>
   <path class="fil0 str0" d="M421.93 7.36c89.45,0 178.9,0 268.35,0 -15.15,18.66 -37.83,36.63 -45.46,124.15 -7.63,87.52 0,310.11 0,396.96l0 260.55 0 260.55c40.27,66.45 96.59,140 156.15,218.11 59.58,78.11 122.41,160.78 175.69,245.46 53.29,84.68 97.04,171.37 118.46,257.54 67.17,270.21 -48.93,282.5 -189.11,295.8 -97.04,9.21 -223.48,13.82 -349.91,13.82 -126.43,0 -252.87,-4.61 -349.91,-13.82 -157.77,-14.96 -246.83,-30.1 -171.88,-313.12 23.33,-88.09 65.81,-173.51 116.55,-255.62 50.73,-82.12 109.73,-160.94 166.12,-235.84 56.38,-74.9 110.15,-145.88 150.41,-212.33l0 -260.56 0 -260.55c0,-86.85 7.63,-309.44 0,-396.95 -7.63,-87.52 -30.31,-105.49 -45.47,-124.15z"/>
   <path class="fil0 str0" d="M2248.43 1382.55c0.08,105.64 22.47,240.84 22.47,380.02 0,39.92 -9.38,116.36 -5.82,183.84 3.69,69.95 21.29,135.9 77.7,135.9 71.15,0 309.34,11.94 431.64,0 86.3,-8.42 92.09,-32.87 96.75,-117.85 11.81,-215.44 -105.88,-584.08 6.26,-579.66 63.26,2.49 -33.86,-13.48 -73.03,-13.48 -193.31,0 -309.6,-10.6 -506.92,4.88 -52.09,4.09 -182.02,-9.81 -49.04,6.35z"/>
   <path class="fil0 str0" d="M2248.43 1382.55c58.91,373.06 14.25,249.98 362.8,338.08 425.54,107.56 416.89,-110.06 -52.8,-39.31 -1.47,0.22 -441.88,50.08 -291.26,88.7 46.33,11.88 95.35,4.96 187.94,1.15"/>
   <path class="fil0 str0" d="M2568.01 1638.29c24.06,-91.69 244.03,-467.27 306.6,-558.68"/>
  </g>
 </g>
</svg>
