<?xml version="1.0" encoding="UTF-8"?>
<!DOCTYPE svg PUBLIC "-//W3C//DTD SVG 1.1//EN" "http://www.w3.org/Graphics/SVG/1.1/DTD/svg11.dtd">
<!-- Creator: CorelDRAW Home & Student 2018 (Nie do użytku komercyjnego) -->
<svg xmlns="http://www.w3.org/2000/svg" xml:space="preserve" width="41.9204mm" height="25.6901mm" version="1.1" style="shape-rendering:geometricPrecision; text-rendering:geometricPrecision; image-rendering:optimizeQuality; fill-rule:evenodd; clip-rule:evenodd"
viewBox="0 0 1107.35 678.62"
 xmlns:xlink="http://www.w3.org/1999/xlink">
 <defs>
  <style type="text/css">
   <![CDATA[
    .str0 {stroke:#383A52;stroke-width:7.92;stroke-linecap:round;stroke-linejoin:round;stroke-miterlimit:22.9256}
    .fil0 {fill:none}
   ]]>
  </style>
 </defs>
 <g id="Warstwa_x0020_1">
  <metadata id="CorelCorpID_0Corel-Layer"/>
  <path class="fil0 str0" d="M189 439.81c-21.54,-88.25 -200.47,-63.88 -184.06,49.77 4.76,32.99 32.98,64.55 93.15,77.61 85.69,18.61 388.98,15.79 471.04,-8.7 160.13,-47.81 43.61,-201.46 -63.98,-178.68 -113.19,23.96 -46.46,128.41 -2.31,-9.93 73.41,-229.98 -372.01,-333.77 -322.86,-8.41m76.27 275.67c14.87,30.19 38.92,49.77 51.41,28.75 14.97,-25.2 10.31,-244.53 10.78,-284.83 0.27,-23.1 -1.3,-30.52 -6.1,-8.07 -1.65,7.71 -28.05,85.31 -11,41.6 5.34,-13.69 13.74,-85.19 24.57,-45.79 3.23,11.76 22.47,56.28 19.9,65.34m215.22 77.15c64.11,39.81 202.34,41.87 254.76,38.93 78.98,-4.42 145.63,-12.25 183.33,-23.5 67.34,-20.1 123.17,-60.16 98.25,-142.68 -20.04,-66.35 -123.82,-109.11 -183.86,-96.4 -14.23,3.02 -8.05,2.26 -3.09,-13.28 91.61,-286.98 -383.99,-388.38 -436.7,-91.59 157.07,-5.76 216.38,172.39 143.67,172.39 -46.94,0 -36.08,-71.95 45.44,-71.21 163.85,1.51 113.4,225.69 114.49,340.44 0,0.09 -0.31,34.1 -2.15,31.43 -4.55,-4.14 -38.76,-88.49 -22.34,-32.82 19.89,67.44 24.06,56.23 55.81,-6.64 0.65,-1.29 12.01,-24.36 7.42,-20.11"/>
 </g>
</svg>
