<?xml version="1.0" encoding="UTF-8"?>
<!DOCTYPE svg PUBLIC "-//W3C//DTD SVG 1.1//EN" "http://www.w3.org/Graphics/SVG/1.1/DTD/svg11.dtd">
<!-- Creator: CorelDRAW Home & Student 2018 (Nie do użytku komercyjnego) -->
<svg xmlns="http://www.w3.org/2000/svg" xml:space="preserve" width="59.2038mm" height="43.4708mm" version="1.1" style="shape-rendering:geometricPrecision; text-rendering:geometricPrecision; image-rendering:optimizeQuality; fill-rule:evenodd; clip-rule:evenodd"
viewBox="0 0 4574.44 3358.81"
 xmlns:xlink="http://www.w3.org/1999/xlink">
 <defs>
  <style type="text/css">
   <![CDATA[
    .str0 {stroke:#383A52;stroke-width:23.18;stroke-linecap:round;stroke-linejoin:round;stroke-miterlimit:22.9256}
    .fil0 {fill:none}
   ]]>
  </style>
 </defs>
 <g id="Warstwa_x0020_1">
  <metadata id="CorelCorpID_0Corel-Layer"/>
  <g id="_1039432472">
   <path class="fil0 str0" d="M1499.25 3343.18c0,-105.5 25.25,-626.26 26.24,-630.28 1.04,-4.21 62.48,-1026.52 60.05,-1083.22 -21.22,-496.12 198.66,-76.18 -7.74,-54.94 -399.29,41.09 2.87,-136.13 32.4,-136.13 32.8,55.98 -11.9,138.34 102.67,4.05 0.65,-0.76 208.54,-63.52 230.17,20.61 46.75,181.77 -51.58,86.71 -228.58,122.75 -10.81,2.2 -252.53,21.23 -178.21,54.94 124.99,56.7 175.97,-168.66 166.42,296.91 -4.12,201.02 17.7,358.34 -0.53,583.97 -3.59,44.4 5.67,811.11 12.85,821.35 72.14,-17.78 156.73,3.43 284.08,0 43.3,-60.61 174.98,-1927.99 193.25,-2113.27 3.82,-38.86 10.1,-76.84 20.34,-112.88 73.02,-256.82 -408.98,60.55 -171,50.37 170.02,-7.28 215.47,81.9 209.57,-103.2 -1.43,-44.78 43.53,-17.08 44.2,-19.02 19.86,-6.88 265.49,-56.74 243.9,41.56 -58.41,265.87 -141.58,-3.99 -245.48,111.47 -23,25.56 -54.02,1006.78 -44.2,1111.05 11.6,123.29 13.79,994.32 27.3,1033.91 209.04,-33.12 385.12,18.23 629.35,0 74.28,-285.07 79.13,-1921.47 138.47,-2004.78 49.02,-68.83 -85.94,-101.47 112.53,-97.04 12.63,0.29 60.51,-67.8 -185.19,-67.8 -238.77,0 139.47,-126.22 138.6,-97.03 -10.48,349.5 85.34,-19.8 93.51,-21.66 52.23,-11.92 285.4,-27.98 255.1,50.89 -93.09,242.24 19.19,86.31 -253.24,154.1 -58.91,14.66 -60.77,1137.01 -53.37,1233.27 20.47,265.9 5.62,591.07 61.12,850.06 48.96,-5.52 97.91,-2.76 146.87,0"/>
   <path class="fil0 str0" d="M1585.13 1518.12c156.51,-60.24 663.11,-108.1 820.19,-72.82 66.29,14.88 477.36,83.53 488.51,178.21 7.95,67.45 -498.71,67.8 -564.41,67.8 -290.83,0 -491.7,-19.6 -744.29,-173.19z"/>
   <path class="fil0 str0" d="M1497.56 1484.23c47.12,-82.81 -123.26,-261.07 -163.15,-339.38 -40.1,-78.73 -255.89,-412.92 -358.02,-377.58 -49.84,160.62 292.74,618.69 498.21,689.81 12.42,4.3 29.3,16 22.96,27.14z"/>
   <path class="fil0 str0" d="M1486.94 1580.84c-47.58,11.39 -850.01,316.93 -636.98,389.42 354.85,120.77 473.29,-250.02 636.98,-389.42z"/>
   <path class="fil0 str0" d="M2135.9 1020.68c128.19,-134.41 105.82,-404.26 122.01,-586.76 23.42,-263.83 94.94,-683.13 -112,-204.98 -82.16,189.84 -35.74,578.35 -10.01,791.74z"/>
   <path class="fil0 str0" d="M2212.66 1117.03c416.46,235.17 660.64,262.12 1048.36,650.36 284.17,284.55 -380.13,11.13 -566,-145.47 -114.35,-96.34 -437.8,-449.76 -523.43,-502.69l41.07 -2.2z"/>
   <path class="fil0 str0" d="M2072.35 1167.09c-82.53,-64.28 -107.96,-36.49 -233.57,11.58 -96.06,36.78 -1093.28,445.1 -444.31,353.97 275.92,-38.74 477.91,-178.89 677.88,-365.55z"/>
   <path class="fil0 str0" d="M3066.36 1081.38c-136.56,-218.68 -395.18,-628.17 -645.81,-730.36 -108.19,-44.1 173.86,481.48 456.21,649.61 9.86,5.86 192.65,133.31 194.24,135.95"/>
   <path class="fil0 str0" d="M3157.29 1241.36c-100.97,-36.31 -20.56,68.37 20.07,191.08 34.92,105.41 421,899.62 460.7,866.44 166.52,-139.17 -484.23,-1147.37 -480.77,-1057.52z"/>
   <path class="fil0 str0" d="M3157.29 1076.53c-133.29,74.84 1065.48,-723.18 954.85,-476.19 -48.73,108.78 -578.1,300.22 -751.45,442.2 -63.33,51.88 -172.59,62.97 -191.07,84.22l-12.33 -50.23z"/>
   <path class="fil0 str0" d="M3078.96 2202.22c172.42,3.78 299.22,3.96 478.09,11.59 197.28,8.41 869.54,91.86 976.99,-18.58 128.59,-132.16 -212.16,-179.05 -257.94,-94.02 1.43,0.37 212.77,-128.56 -68.62,-154.71 -1.24,-0.11 101.25,-138.67 122.78,-283.04 20.85,-139.76 39.66,-366.94 -192.18,-256.2 -124.64,59.53 -203.38,439.23 -118.65,503.67 33.05,25.13 -334.92,-114.25 -205.22,165.35 38.82,83.67 -29.55,39.04 -180.28,15.24 -2.75,-0.43 -37.87,-145.94 -182.5,-83.86 -139.14,59.72 52.59,102.26 -23.66,134.84 -137.05,58.58 -98.31,271.27 -324.35,44.32 -83.22,-83.57 -2.53,178.48 -202.35,-102.61 -46.26,-65.07 -121.89,106.79 11.12,101.34"/>
   <path class="fil0 str0" d="M1357.56 2225.3c-381.48,-31.66 -1434.08,150.48 -1340.55,-149.02 63.44,-203.1 330.02,22.22 367.71,-24.66 109.93,-136.69 30.36,-433.76 142.29,-450.48 179.61,-26.81 90.96,221.05 60.58,288.64 -112.99,251.41 256.12,-34.2 122.22,224.53 -107.42,207.57 216.6,61.19 421.25,90.87 62.67,9.09 101.67,59.7 158.9,82.74 85.15,34.3 316.33,-41.99 67.61,-62.63z"/>
   <path class="fil0 str0" d="M739.96 2846.09c1131.2,-187.2 2262.38,-187.6 3393.58,-20.44"/>
  </g>
 </g>
</svg>
