<?xml version="1.0" encoding="UTF-8"?>
<!DOCTYPE svg PUBLIC "-//W3C//DTD SVG 1.1//EN" "http://www.w3.org/Graphics/SVG/1.1/DTD/svg11.dtd">
<!-- Creator: CorelDRAW Home & Student 2018 (Nie do użytku komercyjnego) -->
<svg xmlns="http://www.w3.org/2000/svg" xml:space="preserve" width="50.0292mm" height="43.1021mm" version="1.1" style="shape-rendering:geometricPrecision; text-rendering:geometricPrecision; image-rendering:optimizeQuality; fill-rule:evenodd; clip-rule:evenodd"
viewBox="0 0 1782.31 1535.53"
 xmlns:xlink="http://www.w3.org/1999/xlink">
 <defs>
  <style type="text/css">
   <![CDATA[
    .str0 {stroke:#383A52;stroke-width:10.69;stroke-linecap:round;stroke-linejoin:round;stroke-miterlimit:22.9256}
    .fil0 {fill:none}
   ]]>
  </style>
 </defs>
 <g id="Warstwa_x0020_1">
  <metadata id="CorelCorpID_0Corel-Layer"/>
  <g id="_1147792384">
   <g>
    <g>
     <path class="fil0 str0" d="M829.64 727.9c132.73,8.81 112.4,-48.5 119.71,-259.43 5.61,-161.97 -67.3,-118.87 -273.34,-131 -45.38,-2.67 -257.61,-2.18 -278.64,40.23 -21.5,43.33 34.29,9.81 89.04,-26.4 272.48,-180.2 174.39,64.66 -204.03,-48.18 -33.73,-55.91 -70.53,-193.29 1.18,-297.77 -104.72,44.34 -147.48,168.21 -175.99,291.98 0,0 -73.85,14.35 -82.96,25.85 -30.27,38.19 -14.95,189.7 -18.1,285.48 -3.33,101.45 37.6,108.55 215.22,117.3 82.13,4.04 523.15,-3.68 607.92,1.95z"/>
     <path class="fil0 str0" d="M196.81 598.96c-16.39,-138.14 229,-245.13 40.46,12.19 -46.32,63.22 96.09,-205.79 91.7,-86.99 -2.35,63.82 -30.41,66.41 49.48,1.55 14.1,-11.45 -33.07,88.52 61.47,10.23 26.79,-22.18 -18.79,63.45 67.73,11.18 79.64,-48.11 -175.76,-38.05 98.14,-34.02 6.53,0.09 40.14,11.34 8.64,19.44"/>
     <path class="fil0 str0" d="M705.04 432.26c67.56,-24.96 69.23,22.12 -11.78,74.8 -32.87,21.37 -32.73,33.82 -21.07,40.4"/>
     <path class="fil0 str0" d="M690.83 590.65c-0.52,1.69 -1.45,3.06 -2.94,3.98"/>
    </g>
    <g>
     <path class="fil0 str0" d="M940.9 525.29c-126.78,1.74 -99.84,104.98 -108.97,289.37 -7.82,157.94 179.11,134.84 291.78,139.83 48.47,2.15 369.98,-10.34 392.44,-55.61 13.91,-28.04 -54.25,-15.03 -114.4,5.85 -336.28,116.72 -54.7,27.14 58.28,93.52 41.59,24.44 80.63,181.51 4.09,293.04 109.02,-45.9 145.3,-159.46 160.45,-284.83 4.39,-36.32 14.09,-42.44 33.06,-43 19.19,-0.56 41.46,-0.4 60.8,0.11 29.6,0.8 44.06,1.49 49.25,-48.8 11.74,-113.78 17.35,-322.15 -14.1,-360.92 -12.17,-15 -47.18,-22.53 -88.75,-26.08 -229.63,-19.64 -488.21,-5.73 -723.92,-2.49z"/>
     <path class="fil0 str0" d="M972.23 675.41c-11.09,-49.86 158.86,-150.26 65.78,43.23 -27.36,56.88 23.82,-163.65 54.4,-73.66 24.51,72.14 73.43,-55.72 59.32,-5.12 -18.63,66.79 99.07,-33.5 65.38,-13.53 -16.17,9.58 14.12,40.51 77.56,-3.9 0.42,-0.29 5.18,54.07 59.11,8.82 36.54,-30.66 -45.32,-0.43 16.09,-2.76 8.1,-0.31 48.76,-16.48 5.32,44.57"/>
     <path class="fil0 str0" d="M1493.01 642.42c-30.71,-14.99 22.81,-60.89 25.72,-5.32 2.62,50.08 49.54,-22.02 62.48,-6.46 22.09,26.55 20.45,-15.23 64.97,-0.61 8.19,2.69 9.95,2.33 18.85,2.96"/>
     <path class="fil0 str0" d="M1170.17 786.16c30.87,-126.2 116.5,2.63 25.72,43.77 -30.29,13.72 25.17,-118.16 85.04,-52.18 32.16,35.44 43.88,-83.55 -1.96,-29.49 -28.59,33.73 57.29,51.3 86.25,-7.47 -84,13.58 48.97,58.48 46.46,15.55 -4.22,35.77 29.51,50.67 22.22,-3.77 -1.24,-9.29 67.64,-91.87 52.65,17.51 -2,14.55 -4.18,23.42 6.46,13.73"/>
     <path class="fil0 str0" d="M1580.2 701.33c-1.38,28.29 -7.07,46.89 -7.07,77.77"/>
     <line class="fil0 str0" x1="1587.27" y1="826.22" x2="1577.84" y2= "828.58" />
    </g>
   </g>
   <g>
    <path class="fil0 str0" d="M925.04 876.99c139.07,0 119.88,78.27 113.84,270.04 -4.32,137.27 -63.47,132.54 -169.76,128.22 -122.52,-4.98 -387.62,-4.87 -514.07,-1.65 -120.16,3.05 -96.05,34.45 14.69,6.33 121.58,-30.87 366.85,-71.71 227.91,-2.78 -135.13,67.04 -106.51,260.17 -106.51,257.87 0,-114.1 -31.31,-284.43 -187,-281.13 -70.25,1.49 -71.87,-16.73 -78.99,-116.79 -16.04,-225.54 -20.82,-258.35 148.84,-260.1 169.95,-1.76 383.8,0 551.04,0z"/>
    <path class="fil0 str0" d="M494.41 1096.3c53.62,-50.16 96.9,-44.07 101.26,-144.22 2.37,-54.54 57.89,-52.13 24.95,85.01 -3.93,16.38 19.3,-12.9 86.77,-12.9 101.33,0 -275.03,32.05 -28.24,32.05 100.12,0 -187.96,3.86 -30.29,23.36 72.97,9.02 -49.04,-8.4 -64.33,30.29 29.89,37 98.68,-36.83 112.86,-5.57 21.6,47.63 15.5,-156.88 31.36,-22.28 15.07,127.95 -91.03,53.09 -223.89,72.8 -2.38,0.36 -3.62,3.39 -5.11,5.57"/>
   </g>
  </g>
 </g>
</svg>
