<?xml version="1.0" encoding="UTF-8"?>
<!DOCTYPE svg PUBLIC "-//W3C//DTD SVG 1.1//EN" "http://www.w3.org/Graphics/SVG/1.1/DTD/svg11.dtd">
<!-- Creator: CorelDRAW Home & Student 2018 (Nie do użytku komercyjnego) -->
<svg xmlns="http://www.w3.org/2000/svg" xml:space="preserve" width="26.4051mm" height="12.6063mm" version="1.1" style="shape-rendering:geometricPrecision; text-rendering:geometricPrecision; image-rendering:optimizeQuality; fill-rule:evenodd; clip-rule:evenodd"
viewBox="0 0 1720.86 821.57"
 xmlns:xlink="http://www.w3.org/1999/xlink">
 <defs>
  <style type="text/css">
   <![CDATA[
    .str0 {stroke:#383A52;stroke-width:19.55;stroke-linecap:round;stroke-linejoin:round;stroke-miterlimit:22.9256}
    .fil0 {fill:none}
   ]]>
  </style>
 </defs>
 <g id="Warstwa_x0020_1">
  <metadata id="CorelCorpID_0Corel-Layer"/>
  <g id="_1147786120">
   <path class="fil0 str0" d="M79.34 587.1c-50.31,65.95 -55.21,109.29 -29.9,118.72 243.32,90.65 458.5,88.72 675.25,105.54 57.83,4.48 94.92,-25.44 94.93,-84.16 0,-78.4 -95.43,-628.78 -94.9,-631.23 3.88,-17.95 -26.88,-53.77 -42.8,-62.19 -3.04,-1.61 -564.46,-31.51 -592.04,-12.01 0.44,0.87 -37.24,188.22 -39.4,198.33 -14.51,67.95 -38.01,238.66 -32.47,304.52 2.23,26.57 -20.22,128.32 0.89,139.48 36.54,19.31 110.11,-64.1 168.73,-91.01 60.65,-27.83 145.77,-106.72 189.37,-127.43 52.82,-25.09 192.88,-154.51 219.01,-166.1 19.65,-38.76 -51.35,-62.42 -90.71,-85.3 -7.7,-4.47 -336.32,-111.89 -337.58,-110.56 -18.27,-7.61 3.6,-6.75 27.69,4.32 102.38,47.06 188.91,37.51 280.7,95.85 156.23,99.35 130.08,243.42 207.97,-74.52m-476.54 515.95c17.61,-62.03 174.29,-96.73 185.39,-102.87 71.02,-39.33 46.25,-45.93 74.36,-64.06 66.74,-43.05 -57.98,243.69 16.74,227.72 15.21,-3.26 100,-244.11 137.35,-231.41 8.07,2.74 -23.57,126.88 -23.01,165.5 0.05,2.99 13.04,192.07 41.92,136.91 7.86,-15.02 17.86,-32.21 29.71,-17.97 81.6,-35.36 51.58,-6.51 66.46,-9.2 22.54,-4.06 -8.37,-82.46 -16.16,-96.51 -16.44,-29.63 -74.58,-217.23 -72.29,-257.39l-1.06 -3.9"/>
   <path class="fil0 str0" d="M1034.78 455.12c38.46,-91.44 40.87,-96.03 67.43,-158.93 31.94,-40.42 71.73,-74.21 105.04,-108.91 24.87,-25.94 92.43,-98.74 123.29,-115.65 45.65,-12 91.29,-20.89 136.93,-27.38 6.51,75.8 -112.76,227.97 -178.17,272.7 -51.97,35.54 -195.19,167.32 -250.25,178.78 -4.31,29.93 -8.75,79.22 -7.9,210.57l178.17 -14.85 166.66 -119.6 174.59 -208.1 87.73 -173.4c7.2,-22.08 50.78,-194.7 0.98,-179.76 -119.41,46.52 -171.09,26.41 -130.9,77.96l79.93 102.53c85.58,134.75 82.49,350.63 122.76,507.63 0,-177.41 -24.01,-179.7 -5.95,-360.87 1.91,-19.19 9.22,-245.74 -14.85,-225.43"/>
   <path class="fil0 str0" d="M1183.86 720.54c40.36,-10.8 493.44,-10.71 465.41,-28.15 -150.52,-71.19 -236.04,-90.31 -286.31,-107 -9.23,-5.81 -84.11,-206.71 -70.7,-265.7 43.55,-10.36 217.36,24.13 258.03,44.77 16.74,35.24 72.13,190.94 99.7,254.53"/>
   <path class="fil0 str0" d="M1144.51 431.6c10.26,63.5 56.44,223.28 64.82,259.86"/>
  </g>
 </g>
</svg>
