<?xml version="1.0" encoding="UTF-8"?>
<!DOCTYPE svg PUBLIC "-//W3C//DTD SVG 1.1//EN" "http://www.w3.org/Graphics/SVG/1.1/DTD/svg11.dtd">
<!-- Creator: CorelDRAW Home & Student 2018 (Nie do użytku komercyjnego) -->
<svg xmlns="http://www.w3.org/2000/svg" xml:space="preserve" width="56.3511mm" height="36.1734mm" version="1.1" style="shape-rendering:geometricPrecision; text-rendering:geometricPrecision; image-rendering:optimizeQuality; fill-rule:evenodd; clip-rule:evenodd"
viewBox="0 0 5238.01 3362.43"
 xmlns:xlink="http://www.w3.org/1999/xlink">
 <defs>
  <style type="text/css">
   <![CDATA[
    .str0 {stroke:#383A52;stroke-width:27.89;stroke-linecap:round;stroke-linejoin:round;stroke-miterlimit:22.9256}
    .fil0 {fill:none}
   ]]>
  </style>
 </defs>
 <g id="Warstwa_x0020_1">
  <metadata id="CorelCorpID_0Corel-Layer"/>
  <g id="_1035383616">
   <path class="fil0 str0" d="M3140.21 1324.07c0,-227.14 213.28,-269.28 359.96,-234.94 63.25,14.8 20.15,-236.49 -71.87,-284.72 -39.88,-20.91 -131.01,-7.94 -155.82,71.54 -20.1,64.38 -24.56,242.12 52.04,242.12 165.3,0 219.63,55.63 312.25,19.58 81.21,-31.61 -44.51,-45.74 147.07,-88.83m1304.34 -223.81c20.01,-70.85 25.79,-190.28 -83.19,-151.52 -102.28,36.37 -254,25.23 -362.93,5.98 -34.79,-6.14 -74.19,-8.7 -120.57,-3 -149.38,18.37 -1240.34,-71.46 -1240.34,-18.1 -73.73,189.41 -1461.44,125.7 -1201.59,-36.11 463.91,-288.88 1076,-78.77 1177.74,-9.43"/>
   <path class="fil0 str0" d="M2006.13 684.38c-35.6,-1.04 -822.51,139.37 -996.66,161.84 -218.58,28.2 -442.23,69.67 -600.04,130.84 -149.25,57.87 -438.44,-153.27 -390.31,149.68 37.73,237.46 481.89,67.15 629.65,76.97 282.59,18.79 1004.69,1.42 1227.26,112.48 195.38,97.48 32.54,267.16 278.3,317.21 80.79,16.44 569.94,174.04 597.56,30.8 -7.88,-1.65 -15.76,-3.3 -23.63,-4.95"/>
   <path class="fil0 str0" d="M2621.96 1308.88c320.84,419.79 546.74,626.2 595.23,1765.1 4.39,103.04 -19.52,161.41 4.74,215.41 25.59,56.96 127.69,111.47 286.85,-34.01 151.97,-163.29 351.63,-276.88 484.26,-452.86 32.65,-43.32 46.83,-80.53 40.55,-125.37 0,-239.69 -40.75,-497.19 -75.81,-700.39 -20.22,-117.11 -155.72,-771.97 -260.28,-771.97"/>
   <path class="fil0 str0" d="M1581.12 1300.21c-123.35,391.25 -273.76,917.6 -225.73,1534.16 7.55,96.95 151.32,149.37 301.57,-3.1 70.15,-71.2 201.45,-140.41 258.1,-159.53"/>
   <path class="fil0 str0" d="M3140.21 1324.07c-0.19,0.15 -260.14,168.83 -59.56,363.55 90.57,87.94 425.86,125.27 577,2.22 187.85,-152.93 -3.46,-365.34 -61.93,-346.98 -4.05,-26.46 -1.76,-68.29 -1.76,-127.75"/>
   <path class="fil0 str0" d="M3584.05 932.1c546.67,-33.43 1093.34,-66.84 1640.01,-100.26 -17.52,1.56 -325.64,97.06 -451.03,86.73 -9.98,-0.82 -166.31,17 -164.8,17.35 -349.84,28.92 -531.64,38.31 -881.47,67.22 -80.44,0 -135.51,-0.45 -175.07,-1.6m-339.92 -48.27c-595.78,13.25 -1214.05,104.26 -1806.29,171.3 -16.33,29.16 19.19,51.82 95.41,69.39 387.42,5.78 811.71,5.06 1199.13,10.84 329.21,59.96 467.5,-96.65 576.61,-124.72"/>
   <path class="fil0 str0" d="M2428.59 475.52c59.47,-168.67 -458.44,153.04 -397.19,-147.5 18.92,-92.8 371.5,-175.64 163.32,-309.28 -73.96,-47.47 -201.44,266.65 167.03,266.65 0,32.49 -1.94,109.98 -1.94,140.37 0,8.27 -181.18,4.17 -292.51,4.58 -184.43,0.67 -80.86,217.13 -21.69,217.13"/>
   <path class="fil0 str0" d="M2257.28 120.59c407.79,-8.67 815.58,-17.35 1223.37,-26.01 -104.8,12.54 -209.59,25.08 -314.38,37.62 -284.31,34.01 -583.47,115.13 -863.07,40.22 -63.73,-17.08 -127.46,-34.16 -191.19,-51.24 -156.73,2.7 -313.46,5.39 -470.18,8.09 -263.1,20.24 -526.2,40.48 -789.3,60.71 -1.27,22.31 92.14,34.09 208.17,43.37 213.95,8.67 427.9,17.35 641.85,26.03 149.53,12.57 259.79,-14.02 407.65,-52.04"/>
   <path class="fil0 str0" d="M3136.82 1752.42c95.26,569.71 196.39,918.33 196.39,1508.05"/>
   <path class="fil0 str0" d="M3754.41 1671.06c100.07,219.95 166.38,757.6 159.43,1007.6 -1.86,67.2 0.05,82.16 -55.18,129.97 -132.39,114.58 -488.45,371.14 -526.09,371.97"/>
   <path class="fil0 str0" d="M1823.98 1373.94c-235.89,272.58 -294.37,573.43 -328.84,909.38 -5.87,57.26 -25.46,481.39 -0.75,508.77 199.5,-106.97 398.99,-213.95 598.49,-320.93"/>
   <path class="fil0 str0" d="M2153.58 2158.91c0,82.86 0,165.71 0,242.87"/>
   <path class="fil0 str0" d="M2092.87 2471.16c-30.23,39.49 -229.29,279.04 -9.42,410.64 199.87,119.64 373.55,-287.32 22.92,-360.85 -90.46,-18.96 338.82,-98.7 -3.36,-59.2 -24.3,-129.72 296.61,-126.57 373.71,-70.88 66.38,47.95 42.03,-84.13 27.47,-118.22"/>
   <path class="fil0 str0" d="M2292.36 2852.8c60.84,-10.85 85.19,51.29 234.94,-41.14 1.06,-0.66 -176.37,109.83 -78.81,-202.47 12.79,-40.92 365.41,-77.1 245.03,4.41 -180.03,121.91 114.38,449.4 130.11,50.55 6.43,-163.29 -318.97,60.59 -65.85,-148.13 64.43,-53.13 191.58,-2.92 60.91,-49.87 -33.56,-12.07 -289.09,158.91 -112.22,22.36 54.52,-42.09 146.46,-41.63 155.17,-96.62 3.96,-24.95 4.8,-55.16 3.93,-147 -0.4,-43.32 -33.79,11.42 -93.18,-86.73 -55.6,-91.9 133.9,-450.97 -16.04,-344.09 -1.19,0.84 -425.72,18.21 -184.2,146.08 201.2,106.51 321.54,-82.53 -36.18,9.42 -75.54,376.98 379.84,108.83 138.36,155.32 -232.44,44.76 -20.68,-72.87 -323.48,-86.68 -178.85,-8.15 -40.17,-59.76 -30.98,-104.09 20.2,0 24.15,45.14 199.49,33.21 14.71,-1 -7.97,0.74 -18.83,0.74"/>
   <path class="fil0 str0" d="M2634.58 2169.91c-25.39,114.18 -98.17,111.03 -238.13,93.82 -131.48,-16.16 90.95,-89.75 -208.91,-138.77 -43.45,-7.11 -284.99,-116.76 -131.59,-216.85 445.16,-290.47 76.08,30.07 393.29,-76.57 67.97,-22.86 -107.35,56.8 -245.84,-52.79 -0.79,-0.62 -231.95,-18.43 -231.95,52.79 0,225.3 10.33,116.96 69.39,127.88 -85.41,146.93 -251.54,117.87 -251.54,52.04 0,-61.05 -19.6,-320.92 19.59,-320.92 59.78,0 295.45,28.85 310.02,-17.35"/>
   <path class="fil0 str0" d="M2114.19 1697.04c71.99,62.55 471.96,75.17 580.21,80.04 33.8,1.52 47.97,7.58 79.18,-9.72 -13.24,48.36 21.77,72.62 64.49,85.43 84.03,25.2 116.41,-9.43 100.31,121.8 -4.52,36.84 -123.92,107.65 -141.12,110.6"/>
   <path class="fil0 str0" d="M15.55 1099.6c20.3,70.24 429.93,117.5 529.37,12.65 24.76,-26.13 41.36,-32.63 58.05,-30.09 32.08,4.9 66.59,60.02 155.94,40.25 76.17,-16.85 410.71,-23.99 706.9,-33.48"/>
   <path class="fil0 str0" d="M3009.77 1492.88c70.88,194.74 708.33,125.51 723.99,3.16"/>
  </g>
 </g>
</svg>
