<?xml version="1.0" encoding="UTF-8"?>
<!DOCTYPE svg PUBLIC "-//W3C//DTD SVG 1.1//EN" "http://www.w3.org/Graphics/SVG/1.1/DTD/svg11.dtd">
<!-- Creator: CorelDRAW Home & Student 2018 (Nie do użytku komercyjnego) -->
<svg xmlns="http://www.w3.org/2000/svg" xml:space="preserve" width="21.3888mm" height="20.8395mm" version="1.1" style="shape-rendering:geometricPrecision; text-rendering:geometricPrecision; image-rendering:optimizeQuality; fill-rule:evenodd; clip-rule:evenodd"
viewBox="0 0 174.93 170.44"
 xmlns:xlink="http://www.w3.org/1999/xlink">
 <defs>
  <style type="text/css">
   <![CDATA[
    .str0 {stroke:#383A52;stroke-width:2.45;stroke-linecap:round;stroke-linejoin:round;stroke-miterlimit:22.9256}
    .fil0 {fill:none}
   ]]>
  </style>
 </defs>
 <g id="Warstwa_x0020_1">
  <metadata id="CorelCorpID_0Corel-Layer"/>
  <g id="_1259875552">
   <path class="fil0 str0" d="M127.05 114.47c0,-14.5 6.33,-109.48 -7.39,-109.48 -13.32,0 -118.43,-6.7 -118.43,-2.2 0,13.26 2.3,78.7 3.27,122.15 0.25,11.11 1.98,38.16 17.13,40.88 16.95,3.04 17.1,-29.54 17.1,-42.77 0.37,-0.29 116.29,-0.71 116.2,1.34 -0.93,21.87 -3.48,44.13 -31.34,43.94 -15.92,-0.11 -52.4,2.97 -71.37,-1.68"/>
   <path class="fil0 str0" d="M50.1 42.47c-11.72,-12.9 -41.56,12.7 -9.31,20.3 31.79,7.49 3.92,35.01 -14.19,17.31"/>
   <path class="fil0 str0" d="M39.94 86.9c0.17,1.3 0.45,5.53 0.27,7.71"/>
   <path class="fil0 str0" d="M74.96 43.35c13.26,0.87 16.39,0.65 29.55,0.88"/>
   <path class="fil0 str0" d="M104.52 53.37c-13.26,-0.87 -16.39,-0.65 -29.55,-0.88"/>
   <path class="fil0 str0" d="M74.7 60.28c5.99,-0.59 14.66,0.98 22.17,0.45"/>
   <path class="fil0 str0" d="M39.4 38.67c-0.08,-2.88 0.41,-4.39 0.41,-7.57"/>
   <path class="fil0 str0" d="M79.14 106.56c75.29,-1.72 89.87,-74.77 94.56,-74.45 -0.85,5.24 -49.6,36.9 -10.14,1.02 10.91,-9.92 9.76,22.67 7.21,27.12"/>
  </g>
 </g>
</svg>
