<?xml version="1.0" encoding="UTF-8"?>
<!DOCTYPE svg PUBLIC "-//W3C//DTD SVG 1.1//EN" "http://www.w3.org/Graphics/SVG/1.1/DTD/svg11.dtd">
<!-- Creator: CorelDRAW Home & Student 2018 (Nie do użytku komercyjnego) -->
<svg xmlns="http://www.w3.org/2000/svg" xml:space="preserve" width="68.6848mm" height="32.6497mm" version="1.1" style="shape-rendering:geometricPrecision; text-rendering:geometricPrecision; image-rendering:optimizeQuality; fill-rule:evenodd; clip-rule:evenodd"
viewBox="0 0 5729.92 2723.75"
 xmlns:xlink="http://www.w3.org/1999/xlink">
 <defs>
  <style type="text/css">
   <![CDATA[
    .str0 {stroke:#383A52;stroke-width:25.03;stroke-linecap:round;stroke-linejoin:round;stroke-miterlimit:22.9256}
    .fil0 {fill:none}
   ]]>
  </style>
 </defs>
 <g id="Warstwa_x0020_1">
  <metadata id="CorelCorpID_0Corel-Layer"/>
  <g id="_1141890640">
   <path class="fil0 str0" d="M165.2 2608.2c370.16,103.39 4050.86,152.86 4785.19,33.29 63.75,-10.38 113.74,-26.69 172.05,-99.59 -38.97,-0.16 -4918.54,-1.69 -5109.93,0 217.11,-171.94 452.15,-249.74 680.51,-322.08l3702.4 10.82c110.41,0.32 246.73,-1.33 264.29,49.9 6.5,-237.61 26.11,-519.14 40.29,-937.57m0 -286.36c13.03,-384.69 21.47,-620.5 10.94,-852.87 -4.12,-91.06 -10.93,-142.35 -109.69,-155.26 -531.2,-69.45 -3306.63,-26.28 -3875.12,28.4 -130.26,12.53 -111.23,35.36 -115.57,165.57 -14.13,423.43 -33.14,1789.12 -1.15,1977.38"/>
   <path class="fil0 str0" d="M662.35 2162.43c-17.72,-391.86 -1.59,-1486.39 10.79,-1857.42 4.34,-130.21 -14.67,-153.05 115.57,-165.57 568.48,-54.66 3218.78,-97.82 3749.98,-28.4 98.73,12.91 105.56,64.22 109.69,155.26 11.04,243.8 1.62,505.25 -12.06,894.62m0 267.18c-13.55,385.37 -31.28,631.57 -37.48,858.43l269.84 176.4"/>
   <path class="fil0 str0" d="M965.94 502.36c-4.64,126.24 -24.66,1142.97 -7.02,1522.13"/>
   <path class="fil0 str0" d="M931.76 1981.98c398.77,3.84 1558.7,7.6 1570.24,-7.17"/>
   <path class="fil0 str0" d="M1118.56 947.06c18.06,-2.64 135.8,-10.01 144.95,0 13.32,19.22 -12.56,859.77 0,951.64 1.2,4.45 -124.38,0 -144.95,0 9.17,-292.35 -3.15,-815.59 0,-925.47"/>
   <path class="fil0 str0" d="M1920.72 1132.16c-3.15,109.87 9.17,474.19 0,766.54 20.57,0 146.15,4.45 144.95,0 -12.56,-91.87 13.32,-773.49 0,-792.71 -9.15,-10.02 -126.89,-2.64 -144.95,0"/>
   <path class="fil0 str0" d="M1533.26 681.74c-18.06,-3.38 -135.8,-12.8 -144.95,0 -13.32,24.58 12.57,1098.98 0,1216.41 -1.2,5.7 124.38,0 144.95,0 -9.17,-373.69 3.16,-1042.5 0,-1182.94"/>
   <path class="fil0 str0" d="M1798.05 1264.85c3.15,140.44 -9.17,259.61 0,633.3 -20.57,0 -146.16,5.7 -144.95,0 12.56,-117.44 -13.32,-600.36 0,-624.93 9.14,-12.8 116.87,-10.29 134.93,-6.91"/>
   <path class="fil0 str0" d="M2311.39 1140.14c3.15,167.99 -9.17,310.53 0,757.51 -20.57,0 -146.16,6.82 -144.95,0 12.56,-140.46 -13.32,-718.12 0,-747.5 9.14,-15.31 116.87,-12.31 134.93,-8.28"/>
   <path class="fil0 str0" d="M4077.88 498.4c55.44,-12.63 110.64,0.54 152.76,39.3 42.18,38.82 49.53,92.57 28.66,139.26 -50.73,113.49 -226.9,131.21 -302.13,24.94 -61.65,-87.1 -46.12,-227.55 132.48,-247.15 159.02,-17.44 251.84,101.7 225.58,210.33 -32.32,133.69 -196.55,155.78 -311.33,132.18"/>
   <g>
    <path class="fil0 str0" d="M3185.13 218.67c-165.47,17.67 -180.32,341.18 72.42,319.95 214.22,-18.01 234.11,-334.44 16.61,-333.08 -3.61,16.46 -2.43,46.43 -2.43,63.94"/>
    <path class="fil0 str0" d="M3219.12 234.67c0,75.36 -3.83,245.54 -4,253.86"/>
    <path class="fil0 str0" d="M3173.65 308.62c158.39,-23.18 94.59,59.58 37.47,59.96 137.83,-8.95 96.89,93.08 -19.99,71.97"/>
    <path class="fil0 str0" d="M3254.23 481.53c0,0.44 0,1.56 0,10.71"/>
   </g>
   <path class="fil0 str0" d="M4002.14 620.15c5.15,-1.74 58.1,-12.38 75.33,-12.34"/>
   <path class="fil0 str0" d="M4027.69 566.86c220.75,-41.97 200.02,111.3 56.98,127.84 -17.39,2.01 -42.66,1.79 -45.35,-6.35 -1.12,-3.4 0.21,-28.68 5.5,-39.11"/>
   <path class="fil0 str0" d="M3406.52 824.14c163.98,3.9 269.32,333.41 -41.85,330.47 -190.71,-1.8 -196.52,-336.15 41.85,-330.47z"/>
   <path class="fil0 str0" d="M3457.35 1043.37c-115.19,36.01 -101.54,87.21 -105.54,-113.68 -7.32,-2.83 70.23,-27.69 71.97,-27.98"/>
   <path class="fil0 str0" d="M3334.57 1008.9c40.59,-15.08 75.76,-41.71 88.66,-36.84"/>
   <path class="fil0 str0" d="M3872.05 543.38c-83.5,-2.81 -306.96,-93.45 -391.81,-103.95"/>
   <path class="fil0 str0" d="M3252.35 595.35c15.37,55.08 33.34,131.91 56.24,192.32"/>
   <path class="fil0 str0" d="M3888.04 755.27c-62.48,19.7 -216.28,118.79 -303.69,133.59"/>
   <path class="fil0 str0" d="M3860.05 631.33c-60.56,23.15 -161.12,34.47 -235.44,42.96"/>
   <path class="fil0 str0" d="M3407.76 529.1c7.01,7.56 99.9,99.53 105.96,105.16"/>
   <path class="fil0 str0" d="M3476.24 805.75c25.75,-36.23 42.21,-57.73 62.45,-87.65"/>
   <path class="fil0 str0" d="M3558.96 600.85c49.79,5.63 65.22,40.32 58.65,69.73 -13.39,60.06 -104.52,56.64 -117.07,8.44 -15.31,-58.74 69.93,-74.03 91.64,-39.69"/>
   <path class="fil0 str0" d="M2671.2 224.72c-48.35,725.35 -24.5,1180.5 -24.5,1809.94"/>
   <path class="fil0 str0" d="M2795.68 1308.56c572.88,0 1146.45,-11.03 1721.65,-11.03"/>
   <g>
    <circle class="fil0 str0" cx="2835.57" cy="1482.58" r="28.81"/>
    <circle class="fil0 str0" cx="2835.57" cy="2022.27" r="70.27"/>
    <path class="fil0 str0" d="M2837.87 1549.97c0,116.95 -3.63,235.26 -4.6,352.51"/>
    <path class="fil0 str0" d="M2806.64 1782.67c17.28,-1.42 39.43,3.68 57.86,2.17"/>
   </g>
   <line class="fil0 str0" x1="3065.78" y1="1501.28" x2="3383.07" y2= "1501.28" />
   <path class="fil0 str0" d="M3067.42 1572.41c77.88,-6.78 344.38,5.51 438.69,5.51"/>
   <path class="fil0 str0" d="M3067.42 1641.38c130.82,0 262.9,-2.76 394.54,-2.76"/>
   <path class="fil0 str0" d="M3067.42 1967.24c70.19,-6.44 407.49,2.75 513.19,2.75"/>
   <path class="fil0 str0" d="M3067.42 2028.12c140.53,0 281.19,-2.76 422.13,-2.76"/>
   <path class="fil0 str0" d="M3489.54 1900.08c-140.53,0 -281.19,2.76 -422.13,2.76"/>
   <path class="fil0 str0" d="M3067.42 2083.81c122.52,0 263.95,2.52 384.52,2.52"/>
   <path class="fil0 str0" d="M3451.93 1844.4c-122.52,0 -263.95,-2.52 -384.52,-2.52"/>
   <path class="fil0 str0" d="M3765.21 2053.49c11.42,-36.62 313.86,-440.73 326.17,-404.72 28.17,82.29 -3.34,130.7 9.1,128.94 25.78,-3.65 78.26,-145.22 104.8,-106.39 20.92,30.61 -20.16,116.62 -10.35,122.73 4.22,2.63 25.21,-42.14 52.64,-58.73 20.56,36 -9.44,149.52 19.01,144.41 16.06,-2.88 50.77,-43.57 123.69,-157.34 64.34,-100.37 461.49,-787.45 426.69,-627.25 -28.04,129.06 -30.42,171.42 -21.39,177.77 12.99,9.13 49.68,-56.27 67.55,-44.82 7.81,5.01 12.05,24.84 9.08,72.16 -6.37,101.56 56.24,-73.42 85.77,-34.99 9.41,12.25 15.68,46.22 15.68,117.76 53.62,-79.25 81.41,-209.99 90.47,-200.87 4.98,5.01 4.3,52.21 -0.83,173.28 -1.4,33.21 313.07,-508.29 282.05,-438.7 -0.44,1.01 0.48,105.27 20.63,118.34 9.14,-13.78 37.31,-56.81 56.49,-81.3 7.87,24.69 6,52.98 16.96,70.73 30.18,2.73 55.22,-124.38 277.99,-287.29 -66.16,8.96 -140.89,33.34 -180.24,47.02"/>
   <path class="fil0 str0" d="M5678.57 902.27c12.49,-40.98 21.38,-75.72 30.35,-121.4"/>
  </g>
 </g>
</svg>
