<?xml version="1.0" encoding="UTF-8"?>
<!DOCTYPE svg PUBLIC "-//W3C//DTD SVG 1.1//EN" "http://www.w3.org/Graphics/SVG/1.1/DTD/svg11.dtd">
<!-- Creator: CorelDRAW Home & Student 2018 (Nie do użytku komercyjnego) -->
<svg xmlns="http://www.w3.org/2000/svg" xml:space="preserve" width="50.7717mm" height="35.1784mm" version="1.1" style="shape-rendering:geometricPrecision; text-rendering:geometricPrecision; image-rendering:optimizeQuality; fill-rule:evenodd; clip-rule:evenodd"
viewBox="0 0 1088.82 754.42"
 xmlns:xlink="http://www.w3.org/1999/xlink">
 <defs>
  <style type="text/css">
   <![CDATA[
    .str0 {stroke:#383A52;stroke-width:6.43;stroke-linecap:round;stroke-linejoin:round;stroke-miterlimit:22.9256}
    .fil0 {fill:none}
   ]]>
  </style>
 </defs>
 <g id="Warstwa_x0020_1">
  <metadata id="CorelCorpID_0Corel-Layer"/>
  <g id="_1143597000">
   <g>
    <path class="fil0 str0" d="M538.49 591.9c-5.03,-118.21 -14.69,-248.35 -10.81,-358.12 2.86,-80.75 34.73,-155.1 104.59,-190.29 22.88,-11.53 127.65,-41.07 149.96,-40.27 19.09,0.68 32.37,10.94 28.36,43.55 -3.98,32.38 -29.71,-3.84 -26.83,156.09 0.46,25.32 -3.52,30.15 -18.23,39.22 -58.16,35.85 -225.39,26.61 -224.92,-3.63 0.57,-36.58 188.03,-22.58 224.58,-8.15 11.32,4.47 15.46,10.35 16.18,19.78 4.92,63.96 3.28,210.43 -1.4,315.8"/>
    <path class="fil0 str0" d="M502.35 704.33c-6.59,68.14 -87.5,-48.06 -16.9,-23.81 43.65,14.99 13.39,37.15 24.65,4.68 1.84,-0.63 59,22.32 38.27,-18.72 -25.97,-51.39 -102.54,50.04 -34.43,25.42 24.49,-8.85 7.85,-113.8 49.72,-54.4 -6.76,-38.34 66.65,-15.75 11.8,15.92 -18.9,-11.36 45.49,-5.82 34.43,-22.21 -17.02,-25.22 17.93,-35.95 17.53,-36.66 -11.3,-20.23 45.52,-34.29 25.07,14.88 0.75,-1.02 36.27,-21.5 11.59,34.64 -0.33,0.74 57.55,8.61 23.6,27.86 -1.24,0.7 50.38,-28.21 29.96,27.72 -0.4,1.1 49.28,8.01 11.6,26.68 -5.71,2.83 -78.3,18.95 -50.7,-36.66 15.78,-31.79 -44,-28.49 -44,-12.64 57.24,17.75 -33.16,-63.82 -17.74,3.07 9.96,43.22 40,-32.17 -9.57,-4.88 -57.37,31.57 82.98,39.56 -8.73,51.33 -2.51,0.32 -52.77,-74.22 -59.71,-27.31 -7.49,50.63 71.83,-42.69 -4.05,-10.2 -23.22,9.94 -19.15,72.2 110.2,5.93 3.55,-1.82 4.05,9.28 4.05,9.36"/>
    <path class="fil0 str0" d="M359.32 458.14c21.04,31.98 11.96,50.59 -9.13,57.3 -22.71,7.23 -54.92,-9.83 -82.76,-1.56 -34.89,10.36 -60.57,51.82 -25.18,131.26 21.14,47.46 97.68,155.47 142.11,80.11 21.42,-36.34 -60.12,16.27 54.91,16.27 24.24,0 -11.02,-21.01 22.77,-11.84m-94.95 -209.69c39.31,4.15 50.83,-17.95 79.47,-12.91 90.09,15.84 64.01,112.81 51.33,136.03"/>
    <path class="fil0 str0" d="M810.26 579.96c-31.58,0 -56.2,17.56 -68.2,39.85 -19.88,36.95 -5.09,86.9 70.13,91.45 26.69,1.61 56.43,-14.45 70.51,-38.69 32.33,-55.69 -13.72,-92.62 -72.44,-92.62z"/>
    <path class="fil0 str0" d="M849.24 571.78c11.68,-32.7 80.61,-59.68 127.93,-11.19 16.67,17.08 30.53,51.01 9.06,79.72 -18.98,25.39 -74.9,43.74 -100.79,29.26"/>
    <path class="fil0 str0" d="M1031.94 607.77c-35.96,-3.86 -84.3,-15.32 -93.2,44.66 -14.03,94.56 159.54,107.96 146.15,-1.12 -4.61,-37.59 -82.22,-45.49 -28.84,-2.16 20.8,16.89 -3.86,68.09 -24.37,2.07 -5.41,-17.41 -6.03,3.27 -7.57,18.87 -2.98,30.21 -31.08,17.63 -26.17,-0.79 1.45,-5.42 4.93,-11.7 10.85,-18.26 2.44,-2.7 -7.63,-8.82 -16.71,-15.01 -21.04,-14.34 -11.2,-23.47 2.58,-12.96 10.74,8.19 28.94,26.6 28.94,-6.99"/>
    <path class="fil0 str0" d="M797.72 544.78c-1.49,-4.77 51.4,-68.39 59.6,-83.31 10.43,-18.98 49.79,-86.51 38.17,-106.38 -10.2,2.2 30.78,22.87 41.51,-20.6 8.07,-32.7 -91.79,-23.55 -56.83,23.06 3.1,4.13 7.56,5.83 12.4,5.83"/>
    <path class="fil0 str0" d="M810.67 546.85c20.63,-54.2 102.03,-63.95 111.52,-110.82 1.89,-9.33 6.22,11.31 19.09,-8.25 18.34,-27.87 -69.15,-26.26 -39.91,6.13 4.75,5.26 10.93,4.02 16.06,2.55"/>
    <path class="fil0 str0" d="M844.56 426.61c-12.99,-1.79 -20.53,7.04 -17.65,14.48 4.33,11.2 28,9.25 32.96,-7.22 2.42,-8.05 -0.38,-16.72 -16.27,-16.72"/>
    <path class="fil0 str0" d="M812.75 377.9c-11.51,0 -8.56,28.26 27.09,17.12 12.92,-4.02 16.15,-13.31 8.15,-25.53 -6.62,-10.11 -27.39,-14.7 -34.98,-4.48 -4.14,10.04 21.57,2.78 13.86,23.64 -7.29,19.74 -0.56,25.67 -10.88,50.54 -6.33,15.26 -9.38,34.44 -20.74,50.66 -2.42,3.45 -1.18,5.05 -5.83,10.36"/>
    <path class="fil0 str0" d="M840.06 448.14c-10.66,17.22 -15.33,40.36 -32.11,60.32 -6.47,7.7 -12.79,14.12 -19.04,21.81"/>
    <path class="fil0 str0" d="M914.33 477.66c-29.4,-0.99 -50.19,36.79 5.32,24.96 5.66,-1.21 34.31,3.6 26.43,-15.24 -4.37,-10.45 -22.5,-9.41 -31.75,-9.72z"/>
    <path class="fil0 str0" d="M962.01 441.12c-23.54,0 -36.05,24.11 -6.83,19.31 1.72,-0.28 28.49,14.31 29.63,-12.05 0.35,-8.18 -13.36,-7.77 -18.66,-7.77"/>
    <path class="fil0 str0" d="M972.06 505.49c13.06,2 24.02,8.36 24.38,21.98 0.22,8.34 -26.33,6.11 -32.88,4.5 -10.06,-2.47 -11.93,7.28 -23.53,-6 -21.23,-24.32 16.79,-22.81 32.02,-20.49z"/>
    <path class="fil0 str0" d="M912.25 510.06c-30.2,19.92 -58.34,9.11 -62.19,12.05 -18.05,13.8 -22.72,44.66 -23.32,44.96"/>
    <path class="fil0 str0" d="M955.18 460.43c-3.11,8.55 -6.03,17.74 -14.96,20.88"/>
    <path class="fil0 str0" d="M955.27 383.08c-20.51,1.92 -3.2,27.61 31.1,30.06 58.58,4.19 17.35,-71.51 -35.58,-37.32 -27.88,18.02 24.47,44.27 32.99,21.77 1.37,-3.64 -17.89,-3.39 -31.18,34.07"/>
    <path class="fil0 str0" d="M346.94 486.75c-58.78,-16.45 -96.05,-154.56 -82.28,-213.04 6.39,-27.16 6.47,-55.72 14.2,-80.56 8.86,0.01 -7.01,80.34 12.2,51.92 15.24,-22.54 -7.08,-84.69 22.36,-25.74 13.91,27.84 45.7,32.66 1.66,-23.93 -16.82,-21.62 84.77,23.87 46.11,-12.17 -29.04,-27.07 -54.89,19.26 -80.76,-19.52 -40.34,-60.47 1.37,-23.01 16.08,8.97 0.99,2.16 1.17,1.52 1.72,3.11"/>
    <path class="fil0 str0" d="M346.94 205.85c32.24,28.67 43.48,40.84 57.81,64.28 11.12,18.2 25.66,48.61 43.43,64.15 14.78,12.93 44.44,9.77 69.59,42.06"/>
    <path class="fil0 str0" d="M64.72 638.79c-1.78,-0.77 -82.74,-43.21 -56.42,-19.79 20.25,18.02 67.39,15.21 48.89,20.05 -20.62,5.4 -71.33,78.16 3.02,7.25 15.77,-15.04 -29.47,-16.2 -24.61,-49.07 2.16,-14.59 50.61,43.73 40.51,44.57 -17.46,1.46 -21.65,57.69 12.88,1.39 0.18,-0.29 -33.61,-38.97 -9.51,-37.67 9.38,0.5 20.68,32.36 8.03,50.02 -21.07,29.41 38.76,31.62 16.32,-8.47 -1.98,-3.54 4.78,1.5 19.72,5.81 19.46,5.6 40.82,7.75 59.07,16.73"/>
    <path class="fil0 str0" d="M158.04 610.81c-1.7,-0.94 -84.71,-39.22 -50.09,-32.64 26.63,5.06 53.15,44.13 45.71,26.52 -8.3,-19.64 18.45,-104.19 7.59,-2.03 -2.3,21.68 -30.81,-13.48 -53.9,10.43 -10.24,10.6 65.52,13.44 60.03,4.92 -9.49,-14.73 32.52,-52.35 8.96,9.36 -0.12,0.32 -51.38,-2.87 -35.66,15.44 6.12,7.13 38.26,-3.35 44.54,-24.15 10.46,-34.64 48.69,11.43 3.24,18.1 -4.02,0.59 4.11,2.87 16.63,12.09 16.31,12.01 31.04,27.62 49.28,36.61"/>
    <path class="fil0 str0" d="M91.81 711.87c-44.29,1.67 -36.04,-71.66 10.83,-0.21 0.93,1.42 -13.44,-5.91 -26.02,21.51 -12.67,27.6 52.05,-15.53 39.97,-19.49 -39.72,-13.04 11.04,-55.54 14.56,-1.72 0.02,0.3 -35.36,38.14 2.42,28.11 33.91,-9 -32.26,-70.09 5.01,-62.49 10.77,2.2 20.97,36.89 4.59,34.79 35.43,15.13 112.78,21.34 149.62,21.92"/>
    <path class="fil0 str0" d="M195.09 682.23c-67.67,0 26.66,33.88 6.9,7.52 -28.14,-37.55 34.57,-15.72 6.84,2.07 -24.24,15.55 29.84,38.28 9.74,2.93 -12.11,-21.29 33.25,-16.76 7.26,4.74 -0.38,0.31 33.88,15.16 39.74,19.01"/>
   </g>
   <path class="fil0 str0" d="M704.07 419.11c-5.73,28.75 -32.86,54.22 -41.04,67.33 -1.57,-88.81 43.83,-92.14 73.25,-111.47 17.35,66.57 -15.6,87.68 -53.89,122.37 -19.87,18.01 -29.79,11.67 -35.16,-5.48 -9.78,-31.26 12.33,-63.62 12.33,-97.77 1.76,-66.15 -67.73,-57.56 -86.63,-82.63 -4.83,-6.4 -22.67,32.29 -5.04,65.94 8.88,16.95 30.89,35.48 70.33,32.73 -1.88,-47.01 -43.28,-30.33 -48.66,-58.56"/>
  </g>
 </g>
</svg>
