<?xml version="1.0" encoding="UTF-8"?>
<!DOCTYPE svg PUBLIC "-//W3C//DTD SVG 1.1//EN" "http://www.w3.org/Graphics/SVG/1.1/DTD/svg11.dtd">
<!-- Creator: CorelDRAW Home & Student 2018 (Nie do użytku komercyjnego) -->
<svg xmlns="http://www.w3.org/2000/svg" xml:space="preserve" width="51.9583mm" height="23.1543mm" version="1.1" style="shape-rendering:geometricPrecision; text-rendering:geometricPrecision; image-rendering:optimizeQuality; fill-rule:evenodd; clip-rule:evenodd"
viewBox="0 0 1013.62 451.7"
 xmlns:xlink="http://www.w3.org/1999/xlink">
 <defs>
  <style type="text/css">
   <![CDATA[
    .str0 {stroke:#383A52;stroke-width:5.85;stroke-linecap:round;stroke-linejoin:round;stroke-miterlimit:22.9256}
    .fil0 {fill:none}
   ]]>
  </style>
 </defs>
 <g id="Warstwa_x0020_1">
  <metadata id="CorelCorpID_0Corel-Layer"/>
  <g id="_1147056856">
   <path class="fil0 str0" d="M1010.69 2.92c-65.48,10.98 -123.36,53.38 -222.22,65.91 -16.1,2.04 -200.59,44.95 -179.57,53.79 87.48,36.75 89.44,55.96 82.95,151.95 -4.08,60.41 -102.76,84.55 -37.76,12.26 30.67,-34.1 30.26,-40.19 20.86,-86.33 -5.04,-24.72 -56.46,-77.55 -84.79,-84.21 -40.68,-9.56 -180.82,6.55 -183.91,62.24 -0.37,6.77 -9.17,41.98 -8.7,64.22 0.45,21.3 14.88,26.05 42.35,-8.16 22.89,-28.5 3.21,-72.12 -2.94,-49.3 -1.69,6.25 8.58,25.64 25.69,25.99 19.51,0.39 41.42,-9.7 35.97,-29.08 -1.98,0 -10.12,15.86 3.06,30.55 7.73,8.62 53.05,35.69 66.41,39.04 29.95,7.51 59.65,-36.78 7.01,-36.78 -16.61,-0.02 -48.23,23.81 8.59,62.12 40.28,27.16 38.59,108.73 -11.54,83.63 -3.26,-1.63 -16.45,-11.61 -15.85,-10.52 2.02,3.7 30.21,31.52 0.65,50.26 -31.7,20.09 -77.58,-65.9 -39.3,-29.16 13.76,13.21 29.48,60.78 -30.13,47.03 -0.07,-0.36 5.25,55.64 -49.44,16.08 -26.58,-19.24 -16.24,-38.5 5.95,-41.22 18.44,-2.26 13.28,-17.05 20.64,-23.86 8.75,-8.09 19.54,-9.33 19.19,-21.25 -0.48,-16.08 31.68,-26.94 32.65,-38.41m-10.47 -199.29c-9.35,-8.03 -25.49,-12.84 -53.03,-12.84 -120.64,0 -88.99,61.41 -163.49,52.24 -45.4,-5.59 -91.01,-18.1 -130.12,-43.79 111.75,-18.44 84.47,104.83 -26.34,-11.55 -37.17,-39.04 -35.93,89.1 -85.78,142.11 -18.08,19.23 -76.99,94.2 -20.28,94.2 90.63,0 81.37,1.64 165.61,-23.37 3.17,-13.74 72.39,-229.68 7.77,-103.81 -8.49,16.54 -32.43,115.17 2.94,113.66 50.98,-2.18 112.87,67.13 179.28,80.97 71.07,14.81 19.22,94.65 -11.39,17.33 -10.23,21.78 -55.83,9.96 -48.25,-18.04 5.65,7.87 -48.25,38.82 -38.52,-26.19"/>
   <path class="fil0 str0" d="M946.89 300.35c-93.6,-2.19 -179.75,42.25 -272.08,42.25 64.26,-36.18 79.94,-107.42 73.25,-178.84l-7.34 -18.88"/>
  </g>
 </g>
</svg>
