<?xml version="1.0" encoding="UTF-8"?>
<svg xmlns="http://www.w3.org/2000/svg" xml:space="preserve" width="22.8389mm" height="30.4086mm" version="1.1" style="shape-rendering:geometricPrecision; text-rendering:geometricPrecision; image-rendering:optimizeQuality; fill-rule:evenodd; clip-rule:evenodd"
viewBox="0 0 203.01 270.29">
 <defs>
  <style type="text/css">
   .str0 {stroke:#2B2A29;stroke-miterlimit:22.9256}
   .fil0 {fill:none}
  </style>
 </defs>
 <g id="Warstwa_x0020_1">
  <!-- Path 1: Base/socket swirls (segments 1-7) -->
  <path class="fil0 str0" d="M171.36 269.43c21.65,-25.48 -49.01,11.98 -29.65,-6.71 32.59,-31.46 62.33,-18.68 22.73,-8.92 -25.38,6.25 -57.29,2.93 -6.36,-11.79 43.81,-12.66 20.16,-15.46 -5.67,-6.13 -25.53,9.22 -34.82,4.89 1.74,-5.71 25.16,-7.29 25.12,-26.08 -8.08,-12.78 -22.39,8.97 -18.07,-4.78 4.36,-28.81"/>
  <!-- Path 2: Stem (segment 8) -->
  <path class="fil0 str0" d="M150.43 188.58c13.15,-14.09 -58.05,-22.26 -42.59,-81.46"/>
  <!-- Path 3: Filament area (segments 9-13) -->
  <path class="fil0 str0" d="M107.84 107.12c4.89,-18.74 19.35,-32.8 21.14,-34.65 12.7,-13.12 21.18,10.29 -18.04,8.03 -7.34,-0.42 -14.71,2.44 -32.78,9.55 -67.17,26.44 -17.19,-30.04 -4.53,8.94 1.74,5.36 11.24,11.8 31.52,19.21"/>
  <!-- Path 4: Bulb glass outline (segments 14-17) -->
  <path class="fil0 str0" d="M105.15 118.20c67.3,24.61 -46.64,66.51 33.13,48.3 51.04,-11.65 78.07,-66.97 55.15,-113.38 -17.42,-35.28 -61.28,-60.39 -116.63,-49.07 -65.53,13.4 -99.82,89.14 -55.55,141.48"/>
  <!-- Path 5: Return stroke (segments 18-19) -->
  <path class="fil0 str0" d="M21.25 145.53c39.49,46.68 83.43,31.45 95.87,54.47 5.06,9.36 2.24,33.84 19.52,27.95"/>
 </g>
</svg>