<?xml version="1.0" encoding="UTF-8"?>
<!DOCTYPE svg PUBLIC "-//W3C//DTD SVG 1.1//EN" "http://www.w3.org/Graphics/SVG/1.1/DTD/svg11.dtd">
<!-- Creator: CorelDRAW Home & Student 2018 (Nie do użytku komercyjnego) -->
<svg xmlns="http://www.w3.org/2000/svg" xml:space="preserve" width="51.4642mm" height="42.2177mm" version="1.1" style="shape-rendering:geometricPrecision; text-rendering:geometricPrecision; image-rendering:optimizeQuality; fill-rule:evenodd; clip-rule:evenodd"
viewBox="0 0 1060.36 869.84"
 xmlns:xlink="http://www.w3.org/1999/xlink">
 <defs>
  <style type="text/css">
   <![CDATA[
    .str0 {stroke:#383A52;stroke-width:6.18;stroke-linecap:round;stroke-linejoin:round;stroke-miterlimit:22.9256}
    .fil0 {fill:none}
   ]]>
  </style>
 </defs>
 <g id="Warstwa_x0020_1">
  <metadata id="CorelCorpID_0Corel-Layer"/>
  <g id="_1146205424">
   <path class="fil0 str0" d="M247.59 101.51c-1.15,4.18 -0.91,27.78 -0.56,35.43 6.29,139.43 4.72,582.28 0,710.93l275.02 5.74c-0.42,-10.86 -0.61,0.03 -0.61,-44.28 0,-240.12 2.29,-480.54 3.44,-720.69l52.79 12.62 165.25 118.2c10.82,8.09 7.91,5.05 8.03,22.95 0,103.28 -0.72,122.95 -1.01,226.37m0 161.22c-0.25,89.97 -0.18,102.48 0.97,192.43l-176.7 44.28c-33.65,-2.65 -282.92,-5.06 -359.2,-10.43 4.21,-241.66 -1.27,-499.59 0,-744.03 7.94,-5.9 19.33,-11.11 31.91,-16.95 62.34,1.17 267.77,-7.09 270.96,-6.94"/>
   <path class="fil0 str0" d="M248.43 151.7c4.3,-5.67 247.68,-11.42 273.43,-11.42 4.11,2.39 28.3,-5.76 7.23,15.31 -4.44,4.45 -149.77,5.73 -212.86,9.07 -13.04,0.69 -22.57,1.47 -26.61,2.38 -67.11,15.14 -71.32,-4.95 -16.07,7.42 1.1,38.63 -15.67,24.13 64.27,25.49 41.73,0.71 84.49,0.64 125.84,-3.54 58.36,-5.9 33.67,-1.48 35.97,25.34 -19.67,0 -226.98,13.65 -226.98,6.89 0,-7.39 0.13,-13.26 0.91,-19.51"/>
   <path class="fil0 str0" d="M263.94 408.49c71.68,-0.98 185.87,0.19 253.36,-2.43 17.73,-0.69 14.38,2.41 0.75,2.41 -5.93,5.28 -12.6,8.43 -19.94,10.14 -55.53,-1.36 -164.51,-2.3 -234.26,0m-39.81 25.36c2.06,25.46 -1.99,78.25 0,107.36 3.62,0.08 12.57,-0.25 14.34,-0.58 -0.41,-30.07 0.32,-95.34 0.32,-113.68 -16.16,2.96 -24.42,-4.96 -6.83,-7.24 10.37,-1.35 27.46,-1.22 43.36,-1.27 56.6,-0.16 183.74,-1.5 233.2,-0.8"/>
   <path class="fil0 str0" d="M452.39 653.26c6.57,-2.21 35.71,-3.26 48.68,-3.02 -8.03,25.74 -3.23,177.9 -8.09,188.63 -22.27,-0.89 -28.43,-1.05 -33.18,-0.71 0.33,-35.13 0.48,-160.21 0.63,-183.18l-8.04 -1.73z"/>
   <path class="fil0 str0" d="M399.7 699.03c-0.45,-13.77 0.07,-23.55 0.11,-35.33"/>
   <path class="fil0 str0" d="M279.02 657.85c1.84,40.21 2.38,179.57 2.16,180.29 -0.82,0 -24.68,-5.79 -1.31,-4.72 18.18,0.83 31.95,4.86 37.12,3.31 -1.08,-26.93 -6.87,-178.33 -2.96,-183.31 17.91,-2.94 45.84,-1.05 63.86,-1.05 23.73,0 4.83,-8.99 4.38,6.51 -2.55,4.2 3.06,129.38 0.13,179.35 -0.6,0.19 -40.75,-0.25 -41.07,-0.35 -3.64,-1.24 -3.28,-14.04 -3.27,-53.79 101.82,0 20.12,-8.33 1.25,-17.71 -1.45,-0.72 -0.13,-89.46 -0.11,-104.9"/>
   <path class="fil0 str0" d="M403.23 655.55c-24.01,-6.97 26.71,-2.3 43.61,-2.3 -23.7,-2.03 -12.62,44.91 -12.62,59.97 0,12.31 -1.27,102.26 -3.66,125.43 -19.67,-1.1 -27.99,0.46 -30.84,-0.48 -1.14,-0.26 -0.14,-13.91 -0.14,-55.25 2.75,0 58.02,1.41 37.69,-0.81 -7.09,-0.77 -35.06,-0.17 -36.21,-0.78 -1.85,-0.99 -1.68,-3.29 -1.55,-8.34 0.19,-7.28 0.65,-17.04 0.29,-40.56 0.05,-18.7 -0.59,-25.02 2.07,-26.11 3.62,-1.48 13.36,0.55 39.24,0.45 23.11,-0.29 33.21,1.32 61.01,1.32 -3.66,0.84 -2.3,21.77 -2.3,25.49 -9.38,-1.53 -36.14,-3.87 -42.65,0 0,12.56 -0.46,16.37 0.65,17.11 1.3,0.87 8.59,-2.47 34.07,-0.86"/>
   <path class="fil0 str0" d="M454.77 795.68c0.09,-0.04 43.15,-0.44 45.77,-0.44"/>
   <path class="fil0 str0" d="M455.31 536.3c0.09,-0.04 43.15,-0.44 45.77,-0.44"/>
   <path class="fil0 str0" d="M272.42 541.44c0.09,-0.04 43.15,-0.44 45.77,-0.44"/>
   <path class="fil0 str0" d="M337.79 539.23c0.09,-0.04 43.15,-0.44 45.77,-0.44"/>
   <path class="fil0 str0" d="M276.45 795.68c0.09,-0.04 43.15,-0.44 45.77,-0.44"/>
   <path class="fil0 str0" d="M280.62 737.38c0.07,-0.04 31.19,-0.44 33.09,-0.44"/>
   <path class="fil0 str0" d="M276.45 679.08c0.09,-0.04 43.15,-0.44 45.77,-0.44"/>
   <path class="fil0 str0" d="M337.42 709.63c0.09,-0.04 43.15,-0.44 45.77,-0.44"/>
   <path class="fil0 str0" d="M286.9 488.95c1.08,-0.01 24.43,0.64 24.63,-0.06 1.04,-19.19 -1.46,-30.05 -0.25,-37.18 -4.12,-0.4 -15.38,0.59 -28.21,1.19 -0.86,3.06 -0.51,34.23 -0.51,44.55 7.25,0.76 27.96,0.27 30.5,0.12 0.06,28.69 2.05,118.13 1.81,135.02 -0.37,-29.53 2.34,-41.32 1.18,-42.3 -0.93,-0.98 -13.24,-0.17 -33.96,-0.17 0,15.27 -3.51,31.84 -3.03,46.87 0.33,10.47 -0.52,-135.08 0.03,-188.38 15.03,-0.55 96.09,-1.86 104.63,-0.78 0,48.61 8.51,141.29 -0.1,183.52 -0.08,0.37 -50.4,2.95 -50.4,0.2 0,-42.85 -1.58,-34.53 45.91,-34.53 0,-37.65 7.4,-22.27 -39.02,-24.1 -9.78,-0.39 -6.71,-120.36 2.3,-119.25 33.7,4.14 30.99,-15.07 30.99,34.33 -98.37,0 68.91,-7.88 68.47,-11.48 -5.05,-41.05 10.11,-29.35 -39.78,-29.35 0,60.13 3.05,90.76 -0.28,153.3 -7.34,59.64 7.12,-1.08 5.84,-16.07 35.31,0 28.18,-8.62 28.18,44.76 0.27,0.02 61.96,0 68.4,0 0,-9.88 0.06,-51.16 -9.18,-47.35 -6.77,2.79 -34.43,10.29 -34.43,-0.85 0,-17.08 -4.55,-131.95 3.06,-135.8 14.12,-2.88 27.54,-2.08 33.39,0.25 0.84,8.21 0.27,27.68 0.27,55.22 -29.74,-3.67 -72.9,-7.17 -104.39,5.85 0,2.07 72.95,6.66 39.84,10.9 -0.38,0.05 0.53,39.82 -0.94,53.56"/>
   <path class="fil0 str0" d="M575.37 88.64c-5.15,19.71 14.36,630.95 11.48,721.54 -2.75,86.45 2.92,60.01 -53.18,12.16 -0.31,-0.27 -11.41,-91 8.37,-91 11.34,0 21.22,-1.14 23.37,0.11 4.57,11.78 1.69,82.81 1.55,99.68 -11.78,-10.98 -21.04,-11.42 -25.4,-15.93 -1.67,-79.57 -0,-151.3 -2.6,-230.53 7.26,0.75 20.26,1.45 26.61,1.7 2.32,41.49 -0.37,63 0,113.32 -7.03,0 -40.14,-2.27 -37.41,3.44"/>
   <path class="fil0 str0" d="M538.83 551.28c-0.9,-54.73 0.77,-96.65 0,-116.85 12.63,1.92 22.13,2.93 26.21,4.17 0.7,20.97 0.92,68.62 0,112.69 -9.83,0 -20.29,0.33 -26.21,0z"/>
   <path class="fil0 str0" d="M539.12 277.91c-0.22,11.4 -0.79,102 0,115.35"/>
   <path class="fil0 str0" d="M544.97 280.92c9.16,0.91 14.17,1.43 20.06,3.08 1.31,8.51 0.2,97.27 -0.29,115.03 -0.03,1.24 -26.37,-2.39 -27.71,-2.39"/>
   <path class="fil0 str0" d="M538.65 117.62c-0.01,7.91 -1.15,111.29 0.37,127.06 10.35,1.65 15.95,2.84 26.48,5 0,-10.04 -0.11,-114.87 -0.57,-125.79 -2,0.4 -17.33,-5.41 -21.69,-5.41"/>
   <path class="fil0 str0" d="M224.04 135.22c2.06,25.46 -1.99,83.8 0,112.92 3.62,0.08 12.57,-3.03 14.34,-3.36 -0.41,-30.07 0.32,-100.89 0.32,-119.23l-14.66 5.47"/>
   <path class="fil0 str0" d="M224.04 288.21c2.06,25.46 -1.99,82.41 0,111.53 3.62,0.08 12.57,-1.64 14.34,-1.97 -0.41,-30.07 0.32,-99.5 0.32,-117.84l-14.66 4.08"/>
   <path class="fil0 str0" d="M224.04 588.72c2.06,25.46 -1.99,81.02 0,110.14 3.62,0.08 12.57,-0.25 14.34,-0.59 -0.41,-30.07 0.32,-95.34 0.32,-113.68l-14.66 -0.08"/>
   <path class="fil0 str0" d="M238.13 736.24c-2.06,25.46 1.99,81.03 0,110.14 -3.62,0.08 -12.57,-0.25 -14.34,-0.58 0.41,-30.07 -0.32,-95.34 -0.32,-113.68l14.66 -0.09"/>
   <path class="fil0 str0" d="M436.51 125.36c9.86,-2.04 20.86,-1.15 32.13,-1.15"/>
   <path class="fil0 str0" d="M271.26 124.21c-23.35,-5.56 23.04,16.74 4.3,-2 -2.87,-2.87 -28.26,6.24 16.36,0.75 24.95,-3.07 8.19,1.05 9.38,4.49 11.73,4.06 23.08,-10.06 46.86,-0.95"/>
   <path class="fil0 str0" d="M414.37 106.42c2.23,8.21 2,13.35 1.18,18.94 -17.23,2.17 -50.86,4.41 -50.77,0.43 0.21,-8.44 -2.25,-16.75 0.75,-18.41 3.22,-1.79 40,-0.4 48.84,-0.96z"/>
   <path class="fil0 str0" d="M270.24 246.3c33.3,-1.92 66.45,-1.92 98.12,-2.95 47.96,-1.55 92.46,-3.8 140.67,-5.5m-238.79 161.13c33.3,-1.53 66.45,-1.12 98.12,-1.77 47.96,-0.99 92.46,-2.71 140.67,-3.84m-240.18 -8.26c78.91,-2.94 159.48,-2.37 238.8,-3.53m-237.41 -10.35c78.91,-3.32 157.4,-3.14 236.71,-4.69m-238.1 -9.19c78.91,-3.35 158.79,-3.19 238.1,-4.77m-236.71 -9.12c78.91,-3.85 158.09,-4.21 237.41,-6.29m-236.02 -7.59c78.91,-3.51 158.09,-3.54 237.41,-5.28m-240.18 -8.6c78.91,-3.54 158.09,-3.59 237.41,-5.35m-236.02 -8.53c14.87,-0.76 28.6,-1.14 43.59,-1.39 35.14,-0.6 70.08,-1.25 105.21,-2.46 29.73,-1.02 56.32,-2.14 87.21,-3.02m-234.63 -7c78.91,-3.83 156.71,-4.17 236.02,-6.23m-237.41 -7.65c47.73,-2.18 94.8,-1.51 142.75,-2.86 31.81,-0.9 60.28,-1.94 93.27,-2.71m-237.41 -8.31c33.31,-1.92 114.85,-1.92 146.52,-2.95 47.96,-1.55 44.06,-3.8 92.28,-5.5"/>
   <path class="fil0 str0" d="M667.25 480.96c83.05,0.64 180.5,1.84 258.35,-1.11 251.06,-9.52 77.38,-158.31 15.7,-108.33 -12.73,10.31 133.47,27.31 83.76,-105.35 -16.75,-44.7 -63.87,9.45 -63.28,-58.43 0.38,-43.9 -127.96,-62.91 -59.37,108.84 11.97,29.99 -85.3,-107.83 -103.87,7.06 -8.06,49.89 9.34,-18.91 -41.91,-12.97 -8.07,0.94 -29.92,18.46 -29.92,36.63"/>
   <path class="fil0 str0" d="M760.43 676.43l88.81 0 47.92 -25.55c24.85,-0.07 46.12,-1.43 74.57,-0.2"/>
   <path class="fil0 str0" d="M760.43 643.23c15.52,0 31.04,0 46.55,0 16.13,-10.77 32.06,-19.94 47.92,-28.57 23.72,-2.03 48.03,-1.07 72.05,-1.6 2.63,0.09 4.76,-8.55 11.55,-5.17 3.8,1.89 3.6,7.57 1.94,9.76 -1.44,1.9 -8.76,2.18 -9.24,-0.67"/>
   <path class="fil0 str0" d="M829.62 659.83c18.47,-9.62 30.25,-19.35 47.92,-28.57 25.02,-0.53 49.15,-2.16 75.07,-1.6 2.93,8.12 12.33,6.7 13.77,1.52 1.49,-5.34 -4.53,-13.51 -12.6,-6.41"/>
   <path class="fil0 str0" d="M873.19 782.62c12.14,-5.89 13.35,17.46 0.52,12 -1.88,-0.8 -3.57,-2.45 -4.55,-5.15 -25.92,-0.56 -25.9,-0.45 -50.92,0.09 -24.41,-17.89 -35.84,-23.53 -47.92,-31.79 -3.04,0.89 -49.81,-0.49 -59.38,-0.49"/>
   <path class="fil0 str0" d="M886.62 739.7c25.02,-0.53 21.96,-2.16 47.88,-1.6 2.92,8.12 12.33,6.69 13.77,1.52 1.49,-5.33 -4.54,-13.51 -12.6,-6.41"/>
   <path class="fil0 str0" d="M977.92 668.54c8.07,-7.1 14.1,1.07 12.6,6.41 -1.44,5.17 -10.85,6.6 -13.77,-1.52 -25.92,-0.56 -50.05,1.07 -75.07,1.6 -17.67,9.23 -29.45,18.95 -47.92,28.58 -11.06,-1.08 -25.33,0.18 -36.75,0.29 -11.08,0.11 -22.54,0.88 -33.6,1.58 -2.51,0.16 -22.71,-0.22 -24.92,-0.84l-0.22 -0.03"/>
   <path class="fil0 str0" d="M903.97 768.38c8.07,7.1 14.09,-1.08 12.6,-6.41 -1.44,-5.17 -10.85,-6.6 -13.77,1.52 -25.92,0.56 -50.04,-0.31 -75.07,-0.84 -17.67,-9.23 -29.45,-20.46 -47.91,-30.08 -11.06,1.08 -58.54,-0.18 -69.95,-0.29"/>
   <path class="fil0 str0" d="M938.69 694.95c8.07,-7.1 14.08,1.08 12.6,6.41 -1.43,5.16 -10.85,6.6 -13.77,-1.52 -25.92,-0.56 -10.81,0.31 -35.83,0.84 -17.67,9.23 -29.45,18.95 -47.92,28.58 -11.06,-1.08 -19.3,0.18 -30.71,0.29"/>
   <path class="fil0 str0" d="M981.35 655.73c5.8,0.12 7.48,-2.29 6.52,-7.79 -0.65,-3.75 -5.76,-4.36 -8.39,-3.4 -4.37,1.59 -4.58,11.05 1.87,11.19z"/>
   <path class="fil0 str0" d="M816.14 735.34c5.8,0.12 7.48,-2.29 6.53,-7.8 -0.65,-3.75 -5.76,-4.35 -8.4,-3.39 -4.37,1.59 -4.58,11.05 1.87,11.19z"/>
   <path class="fil0 str0" d="M878.48 745.44c5.3,2.49 10.75,-5.4 6.8,-9.62 -4.79,-5.12 -13.46,0.65 -9.95,6.69"/>
   <path class="fil0 str0" d="M762.27 588.69c1.1,-1.3 3.24,-0.98 4.79,-1.63 1.55,-0.64 3.04,-1.39 4.48,-2.22 1.44,-0.83 2.81,-1.76 4.12,-2.77 1.31,-1.01 2.09,-3 3.72,-3.27 1.02,-0.17 8.75,9.99 10.01,10.01 2.47,0.04 14.81,-21.33 13.54,-23.45 -0.54,-0.89 -12.85,-2.71 -13.66,-3.66 1.05,-2.47 1.18,-14.24 0.56,-17.36 -0.16,-0.81 -1.08,-1.77 -0.56,-2.39 0.85,-1 13.13,-2.78 13.66,-3.66 0.99,-1.66 -10.76,-23.5 -13.54,-23.45 -1.26,0.02 -8.99,10.18 -10.01,10.01 -0.4,-0.07 -5.99,-4.96 -7.84,-6.03 -1.92,-1.12 -8.98,-3.52 -9.27,-3.85 -0.67,-0.79 4.28,-12.55 3.66,-13.66 -0.96,-1.72 -25.84,-2.22 -27.08,0 -0.61,1.11 4.69,13.62 3.66,13.66 -1.79,0.08 -16.86,8.87 -17.11,9.89 -0.25,1.01 -8.75,-9.99 -10.01,-10.01 -2.47,-0.04 -14.81,21.33 -13.54,23.45 0.53,0.89 12.81,2.66 13.66,3.66 0.53,0.62 -0.4,1.59 -0.56,2.39 -0.56,2.82 -0.6,15.33 0.56,17.36 -0.85,1 -13.13,2.78 -13.66,3.66 -1.27,2.12 11.07,23.49 13.54,23.45 1.26,-0.02 9.96,-11.04 10.01,-10.01 0.09,2.03 15.3,10.64 17.11,9.88 0.95,-0.4 -4.28,12.56 -3.66,13.66 1.2,2.16 25.88,2.16 27.08,0 0.61,-1.11 -4.33,-12.88 -3.66,-13.66zm4.14 -42.79c-3.26,-7.71 -11.15,-13.14 -20.93,-8.89 -12.43,5.41 -11.12,24.36 0.99,28.83 11.85,4.37 25.23,-7.42 19.94,-19.94z"/>
   <path class="fil0 str0" d="M284.98 79.35c-0.48,-123.9 -309.67,-103.23 -188.16,109.17 6.78,11.86 14.91,24.31 24.51,37.38 26.05,-34.37 -77.79,-38.8 -62.11,24.87 10.08,40.95 38.47,-12.25 -8.57,-4.48 -52.66,8.69 -65.98,97.1 -17.7,128.06 19.86,12.74 50.85,18.77 96.66,11.82 34.31,-4.6 54.83,12.74 4.34,11.56 -83.89,-1.97 -136.98,105.04 -17.56,100.01 37.46,-1.58 79.2,-11.12 94.02,-9.12"/>
  </g>
 </g>
</svg>
