<?xml version="1.0" encoding="UTF-8"?>
<svg xmlns="http://www.w3.org/2000/svg" xml:space="preserve" width="40mm" height="40mm" version="1.1" style="shape-rendering:geometricPrecision; text-rendering:geometricPrecision; image-rendering:optimizeQuality; fill-rule:evenodd; clip-rule:evenodd"
viewBox="0 0 1500 1500">
 <defs>
  <style type="text/css">
   <![CDATA[
    .str0 {stroke:#383A52;stroke-width:14;stroke-linecap:round;stroke-linejoin:round;stroke-miterlimit:22.9256}
    .fil0 {fill:none}
   ]]>
  </style>
 </defs>
 <g id="jednorozec">
  <!-- Horn -->
  <path class="fil0 str0" d="M680 180 c-15,-60 -5,-120 30,-170 c8,55 20,110 15,170"/>
  <path class="fil0 str0" d="M688 60 c12,35 22,75 25,120"/>
  <path class="fil0 str0" d="M695 90 c-8,30 -12,65 -10,100"/>
  <!-- Head top / forehead -->
  <path class="fil0 str0" d="M680 180 c-60,10 -120,50 -160,110 c-30,45 -45,100 -40,155"/>
  <path class="fil0 str0" d="M725 180 c55,15 110,55 145,115 c25,45 35,95 30,150"/>
  <!-- Ear left -->
  <path class="fil0 str0" d="M590 230 c-30,-35 -55,-30 -60,5 c-3,25 15,45 40,55"/>
  <!-- Ear right -->
  <path class="fil0 str0" d="M790 245 c25,-40 55,-38 62,0 c4,25 -12,48 -38,58"/>
  <!-- Eye left -->
  <path class="fil0 str0" d="M560 390 c-8,-20 5,-42 28,-45 c23,-3 42,12 42,33 c0,20 -15,35 -35,37 c-20,2 -30,-8 -35,-25"/>
  <!-- Eye right -->
  <path class="fil0 str0" d="M810 385 c8,-20 -5,-42 -28,-45 c-23,-3 -42,12 -42,33 c0,20 15,35 35,37 c20,2 30,-8 35,-25"/>
  <!-- Eye details - lashes -->
  <path class="fil0 str0" d="M548 375 c-8,-5 -15,-2 -18,5"/>
  <path class="fil0 str0" d="M822 370 c8,-5 15,-2 18,5"/>
  <!-- Nostril -->
  <path class="fil0 str0" d="M640 500 c-5,8 0,18 12,18 c10,0 15,-8 12,-16"/>
  <path class="fil0 str0" d="M745 498 c5,8 0,18 -12,18 c-10,0 -15,-8 -12,-16"/>
  <!-- Muzzle / mouth -->
  <path class="fil0 str0" d="M480 445 c-15,40 -10,85 15,120 c30,42 75,68 130,78"/>
  <path class="fil0 str0" d="M900 445 c15,40 10,85 -15,120 c-30,42 -75,68 -130,78"/>
  <path class="fil0 str0" d="M625 643 c25,10 55,14 80,10 c25,-4 50,-14 70,-28"/>
  <!-- Cheek lines -->
  <path class="fil0 str0" d="M480 445 c-25,5 -50,25 -60,55"/>
  <path class="fil0 str0" d="M900 445 c25,5 50,25 60,55"/>
  <!-- Mane - flowing from top of head -->
  <path class="fil0 str0" d="M590 230 c-70,20 -130,60 -170,120 c-50,75 -65,165 -45,250 c10,40 30,75 55,105"/>
  <path class="fil0 str0" d="M540 260 c-80,35 -140,100 -160,185 c-15,60 -5,120 25,170"/>
  <path class="fil0 str0" d="M510 290 c-90,50 -150,130 -155,225 c-3,55 15,108 48,150"/>
  <!-- Mane waves - decorative curves -->
  <path class="fil0 str0" d="M420 350 c-30,15 -25,55 5,60 c20,3 35,-15 25,-35"/>
  <path class="fil0 str0" d="M380 430 c-35,10 -32,55 0,62 c22,5 38,-12 30,-38"/>
  <path class="fil0 str0" d="M370 530 c-30,18 -22,55 8,58 c22,2 35,-18 25,-40"/>
  <!-- Neck -->
  <path class="fil0 str0" d="M430 705 c-20,50 -30,110 -25,175 c5,65 25,125 55,180"/>
  <path class="fil0 str0" d="M960 500 c30,60 45,130 42,205 c-3,75 -25,145 -62,205"/>
  <!-- Body -->
  <path class="fil0 str0" d="M460 1060 c-10,30 -5,65 15,95 c30,45 80,75 140,90"/>
  <path class="fil0 str0" d="M940 910 c40,35 70,85 80,145 c10,55 5,110 -15,160"/>
  <path class="fil0 str0" d="M615 1245 c60,10 130,8 195,-5 c65,-15 125,-40 175,-78"/>
  <!-- Chest / belly line -->
  <path class="fil0 str0" d="M460 1060 c5,-50 20,-95 50,-135 c25,-30 55,-55 90,-72"/>
  <path class="fil0 str0" d="M985 1162 c15,-35 25,-75 22,-115 c-3,-45 -20,-88 -47,-125"/>
  <!-- Front left leg -->
  <path class="fil0 str0" d="M510 1120 c-15,55 -25,115 -20,175 c5,50 15,95 8,140 c-5,30 2,55 25,65"/>
  <path class="fil0 str0" d="M523 1500 c15,-5 22,-20 20,-40"/>
  <!-- Front right leg -->
  <path class="fil0 str0" d="M620 1155 c-5,55 -8,115 0,175 c8,50 5,100 -10,145 c-8,28 0,50 22,58"/>
  <path class="fil0 str0" d="M632 1533 c12,-5 18,-20 16,-38"/>
  <!-- Hind left leg -->
  <path class="fil0 str0" d="M830 1210 c15,50 22,105 18,160 c-3,45 5,90 25,130 c10,25 5,50 -15,60"/>
  <path class="fil0 str0" d="M858 1560 c-15,-3 -22,-18 -20,-38"/>
  <!-- Hind right leg -->
  <path class="fil0 str0" d="M940 1170 c25,50 40,105 38,165 c-2,50 8,100 30,140 c12,22 8,48 -12,58"/>
  <path class="fil0 str0" d="M996 1533 c-15,-2 -23,-15 -22,-35"/>
  <!-- Hooves -->
  <path class="fil0 str0" d="M498 1455 c-10,12 -8,28 5,35 c18,10 38,8 48,-5"/>
  <path class="fil0 str0" d="M605 1480 c-10,12 -8,28 5,35 c18,10 38,8 48,-5"/>
  <path class="fil0 str0" d="M838 1500 c10,12 8,28 -5,35 c-18,10 -38,8 -48,-5"/>
  <path class="fil0 str0" d="M958 1475 c10,12 8,28 -5,35 c-18,10 -38,8 -48,-5"/>
  <!-- Tail -->
  <path class="fil0 str0" d="M1005 1015 c40,-30 85,-45 130,-35 c55,12 95,55 105,110 c8,40 -5,80 -35,105 c-25,20 -55,25 -85,15"/>
  <path class="fil0 str0" d="M1135 980 c35,5 65,30 75,65 c10,40 -5,80 -40,95"/>
  <path class="fil0 str0" d="M1100 1030 c25,10 45,35 48,65 c3,30 -12,58 -38,70"/>
  <!-- Tail flowing strands -->
  <path class="fil0 str0" d="M1200 1090 c20,30 15,65 -10,85 c-20,15 -45,10 -55,-10"/>
  <path class="fil0 str0" d="M1170 1150 c15,25 8,55 -15,68 c-18,10 -40,2 -48,-18"/>
  <!-- Star/sparkle on forehead -->
  <path class="fil0 str0" d="M700 210 c2,-12 5,-8 3,5 c-2,12 -5,8 -3,-5"/>
  <path class="fil0 str0" d="M690 205 c12,2 8,5 -5,3 c-12,-2 -8,-5 5,-3"/>
 </g>
</svg>