<?xml version="1.0" encoding="UTF-8"?>
<!DOCTYPE svg PUBLIC "-//W3C//DTD SVG 1.1//EN" "http://www.w3.org/Graphics/SVG/1.1/DTD/svg11.dtd">
<!-- Creator: CorelDRAW Home & Student 2018 (Nie do użytku komercyjnego) -->
<svg xmlns="http://www.w3.org/2000/svg" xml:space="preserve" width="103.753mm" height="28.8054mm" version="1.1" style="shape-rendering:geometricPrecision; text-rendering:geometricPrecision; image-rendering:optimizeQuality; fill-rule:evenodd; clip-rule:evenodd"
viewBox="0 0 4150.8 1152.41"
 xmlns:xlink="http://www.w3.org/1999/xlink">
 <defs>
  <style type="text/css">
   <![CDATA[
    .str0 {stroke:#383A52;stroke-width:12;stroke-linecap:round;stroke-linejoin:round;stroke-miterlimit:22.9256}
    .fil0 {fill:none}
   ]]>
  </style>
 </defs>
 <g id="Warstwa_x0020_1">
  <metadata id="CorelCorpID_0Corel-Layer"/>
  <path class="fil0 str0" d="M359.06 201.11c265.3,-116.98 1640.93,-40.87 1673.87,-33.07 112.57,26.65 585.06,96.42 458.55,-30.08 -46.76,-46.76 -160.14,-130.84 -208.08,-131.96 -47.93,-1.12 -240.12,147.53 -198.47,147.53 378.22,0 1464.68,118.61 1781.72,246.51 37.7,15.21 50.36,22.39 52.39,86.48 -683.05,-195.22 -3975.25,-385.19 -3913.3,-187.17 14.98,47.9 506.3,387.18 613.56,462.9 69.44,49.03 104.49,56.35 154.19,63.59 783.4,27.48 2835.77,-60.9 2780.73,-10.05 -23.66,21.86 58.5,45.15 -78.63,64.43 -262.58,36.91 -2599.6,64.6 -2905.6,2.25 -6.4,-1.3 12.39,147.24 52.07,198.49 364.2,126.86 2919.08,26.74 2900.15,0 -33.86,-47.82 34.16,-147.18 -35.42,-120.18 -103.26,40.07 -2433.54,62.51 -2771.29,20.95 -10.06,16.5 -149.24,-102.43 -72.14,-108.62 58.5,-4.7 121.09,-49.86 168.14,-69.05"/>
  <path class="fil0 str0" d="M91.54 402.7c-14.59,-35.72 17.05,-61.75 73.86,-70.08 780.34,-114.51 2669.44,73.44 3478.34,188.56 42.75,6.08 523.53,83.47 500.43,120.56 -52.58,84.43 -93.75,32.11 -230.59,5.44 -748.65,-145.91 -1499.48,-197.84 -2261.14,-232.68 -349.86,-16 -1072.4,-48.63 -1412.24,-23.39 -56.3,4.18 -101.95,23.24 -104.45,73.4 101.94,-125.4 3169.97,127.52 3762.25,235.98 51.01,9.34 -61.43,100.71 -74.96,139.77 44.78,3.54 -316.19,-99.59 -324.63,-36.67 -10.87,-47.18 -20.04,103.31 58.03,-20.34 73.7,-116.72 -67.12,-114.03 -28.01,-99.26 17.56,6.63 110.13,-84.46 -59.09,-72.06 126.21,-59.81 28.66,-118.97 -99.96,-96.72 -2.14,0.37 129.53,-122.58 -6.48,-151.99 -164.81,-35.64 -35.21,229.74 -99.84,216.3 -21.77,-4.52 -234.38,-65.54 -212.88,17.07 13.55,52.07 116.83,23.01 -0.35,-13.71 -75.73,-23.74 -190.35,85.84 -160.56,99.61 -174.4,-91.94 -217.21,221.57 -37.62,146.38 133.17,-55.75 117.94,20.32 68.53,19.74 -38.13,-0.45 -148.14,-16.61 -128.96,60.25 18.76,75.14 186.4,19.36 97.88,20.08 -45.51,0.37 2.12,120.04 86.3,28.88 4.52,-4.89 -12.5,-165.31 97,-104.36 71.9,40.02 16.42,190.64 86.65,83.29 24.44,-37.36 -3.27,190.72 8.45,193.43 0,-31.57 -2.56,7.29 -4.05,16.21 20.61,-44.95 -10.25,-162.22 2.79,-216.75 15.44,-64.59 37.42,-143.24 105.08,-172.71 56.67,-24.69 40.32,64.56 -37.04,58.57 -29.16,-2.25 -95.53,-95.55 36.35,-96.2 53.59,-0.26 149.8,37.03 151.62,83.2 0.69,17.59 -86.51,65.56 -36.85,96.72 16.02,10.05 67.11,3.19 79.39,-12.65"/>
  <path class="fil0 str0" d="M2480 95.27c-48.29,-15.07 -236.29,-20.26 -289.69,-20.26 -24.78,0 -87.43,4.93 -87.11,4.8 11.86,-4.62 57.16,-12.41 27.61,21.79 -96.78,111.99 78.94,-29.19 64.31,-10.88 -72.08,90.15 6.47,39.95 43.47,4.8 28.84,-27.4 5.3,4.81 3.47,29.46 -3.08,41.63 15.4,7.22 27.26,-4.31 12.08,-11.74 12.55,-53.44 15.11,-13.25 1.14,17.95 24.61,74.26 29.54,-7.85 2.14,-35.49 94.83,121.87 60.61,20.67 -22.75,-67.26 56.19,27.5 75.04,30.73 0.24,1.02 -14.22,-37.8 -10.13,-49.63 10.48,0 60.93,23.38 60.77,24.31"/>
  <line class="fil0 str0" x1="103.74" y1="327.22" x2="225.29" y2= "420.41" />
  <line class="fil0 str0" x1="150.34" y1="315.06" x2="282.01" y2= "410.28" />
  <line class="fil0 str0" x1="203.01" y1="304.93" x2="342.78" y2= "412.3" />
  <line class="fil0 str0" x1="271.88" y1="298.86" x2="405.59" y2= "412.3" />
  <path class="fil0 str0" d="M342.41 296.6c40.85,39.74 83.98,79.74 124.07,122.01"/>
  <path class="fil0 str0" d="M416.36 296.84c40.85,39.74 83.98,79.74 124.07,122.01"/>
  <path class="fil0 str0" d="M497.13 298.98c43.69,36.6 89.66,73.29 132.78,112.47"/>
  <path class="fil0 str0" d="M601.93 291.41c40.07,40.53 82.4,81.38 121.65,124.43"/>
  <path class="fil0 str0" d="M717.41 292.93c38.74,40.53 79.74,81.37 117.58,124.42"/>
  <path class="fil0 str0" d="M837.51 296.4c36.59,40.53 75.43,81.38 110.99,124.43"/>
  <path class="fil0 str0" d="M974.12 300.57c36.59,40.53 75.43,81.37 110.99,124.42"/>
  <path class="fil0 str0" d="M1110.54 294.88c36.59,40.53 75.43,81.38 111,124.43"/>
  <path class="fil0 str0" d="M1266.45 304.55c29.8,40.53 61.79,81.38 90.15,124.43"/>
  <path class="fil0 str0" d="M1435.48 323.93c27.69,40.54 57.56,81.38 83.67,124.43"/>
  <path class="fil0 str0" d="M1605 325.7c21.39,42.9 45.02,86.13 64.25,131.69"/>
 </g>
</svg>
