<?xml version="1.0" encoding="UTF-8"?>
<!DOCTYPE svg PUBLIC "-//W3C//DTD SVG 1.1//EN" "http://www.w3.org/Graphics/SVG/1.1/DTD/svg11.dtd">
<!-- Creator: CorelDRAW Home & Student 2018 (Nie do użytku komercyjnego) -->
<svg xmlns="http://www.w3.org/2000/svg" xml:space="preserve" width="20.8447mm" height="30.6344mm" version="1.1" style="shape-rendering:geometricPrecision; text-rendering:geometricPrecision; image-rendering:optimizeQuality; fill-rule:evenodd; clip-rule:evenodd"
viewBox="0 0 900.89 1323.99"
 xmlns:xlink="http://www.w3.org/1999/xlink">
 <defs>
  <style type="text/css">
   <![CDATA[
    .str0 {stroke:#383A52;stroke-width:12.97;stroke-linecap:round;stroke-linejoin:round;stroke-miterlimit:22.9256}
    .fil0 {fill:none}
   ]]>
  </style>
 </defs>
 <g id="Warstwa_x0020_1">
  <metadata id="CorelCorpID_0Corel-Layer"/>
  <g id="_1039426040">
   <path class="fil0 str0" d="M334.53 507.75c5.95,7.03 17.58,5.35 25.96,8.83 8.39,3.49 16.51,7.53 24.28,12.05 7.79,4.52 15.25,9.55 22.35,15.01 7.1,5.47 11.34,16.25 20.17,17.71 5.54,0.92 47.45,-54.17 54.27,-54.27 13.4,-0.19 80.31,115.68 73.43,127.18 -2.91,4.85 -69.72,14.69 -74.09,19.85 5.71,13.38 6.4,77.22 3.03,94.16 -0.87,4.38 -5.88,9.62 -3.03,12.98 4.63,5.44 71.22,15.05 74.09,19.85 5.38,9 -58.36,127.42 -73.43,127.19 -6.81,-0.1 -48.73,-55.2 -54.27,-54.27 -2.16,0.36 -32.48,26.89 -42.51,32.72 -10.44,6.06 -48.72,19.08 -50.25,20.88 -3.62,4.27 23.19,68.08 19.85,74.09 -5.19,9.32 -140.15,12.05 -146.85,0 -3.33,-6 25.45,-73.86 19.85,-74.09 -9.69,-0.41 -91.43,-48.11 -92.76,-53.6 -1.33,-5.45 -47.45,54.17 -54.27,54.27 -13.4,0.21 -80.31,-115.68 -73.43,-127.19 2.87,-4.8 69.47,-14.42 74.09,-19.85 2.85,-3.37 -2.16,-8.61 -3.03,-12.97 -3.03,-15.31 -3.22,-83.12 3.03,-94.17 -4.6,-5.43 -71.22,-15.07 -74.09,-19.85 -6.88,-11.5 60.03,-127.38 73.43,-127.18 6.81,0.1 54.02,59.89 54.27,54.27 0.47,-11.01 82.98,-57.71 92.76,-53.6 5.16,2.17 -23.19,-68.09 -19.85,-74.09 6.51,-11.7 140.34,-11.7 146.85,0 3.33,6 -23.48,69.82 -19.85,74.09zm22.43 232.05c-17.67,41.84 -60.5,71.28 -113.5,48.21 -67.39,-29.33 -60.31,-132.12 5.37,-156.33 64.27,-23.69 136.81,40.26 108.13,108.12z"/>
   <path class="fil0 str0" d="M712.74 1116.15c1.31,147.05 -140.46,142.67 -149.7,145.82 -4.83,1.64 2.1,51.93 -0.72,54.76 -5.28,5.3 -98.43,-17.99 -100.91,-28.46 -1.13,-4.73 24.46,-48.95 28.01,-47.09 -23.74,-13.75 -115.09,-83.16 -51.43,-202.52 1.89,-3.54 -45.82,-23.32 -47.09,-28.02 -2.49,-9.23 65.94,-75.89 75.11,-73.16 3.82,1.14 22.18,45.54 26.76,47.78 2.83,1.39 5.62,-2.93 8.44,-4.37 39.19,-20.05 147.47,-56.64 192.69,61.1 1.43,3.73 43.04,-28.01 47.78,-26.75 9.24,2.45 32.76,95.06 25.81,101.62 -3.57,3.36 -52.44,-3.98 -54.75,-0.72zm-85.1 59.93c-36.64,34.13 -93.04,44.48 -135.99,-2.63 -54.62,-59.9 -1.14,-160.18 75.88,-154.95 75.37,5.13 119.56,102.19 60.11,157.59z"/>
   <path class="fil0 str0" d="M695.45 451.97c5.17,-6.82 16.06,-5.84 23.66,-9.5 7.62,-3.66 14.95,-7.81 21.95,-12.4 7.01,-4.59 13.68,-9.63 20,-15.06 6.32,-5.43 9.72,-15.65 17.84,-17.46 5.1,-1.13 46.77,47.92 53.1,47.68 12.46,-0.49 68.78,-111.44 61.82,-121.77 -2.94,-4.36 -65.47,-10.15 -69.79,-14.72 4.63,-12.71 2.07,-72.02 -1.91,-87.58 -1.03,-4.02 -5.94,-8.64 -3.46,-11.9 4.02,-5.28 65.38,-17.54 67.8,-22.14 4.55,-8.62 -60.56,-115.39 -74.54,-114.42 -6.32,0.44 -42.48,53.69 -47.67,53.11 -2.02,-0.22 -31.51,-23.35 -41.11,-28.26 -9.99,-5.11 -46.19,-15.28 -47.7,-16.87 -3.57,-3.78 18.12,-64.38 14.72,-69.79 -5.28,-8.39 -130.74,-4.17 -136.36,7.35 -2.79,5.74 27.33,67.31 22.14,67.81 -8.98,0.86 -82.48,49.25 -83.45,54.41 -0.96,5.13 -46.77,-47.92 -53.1,-47.67 -12.45,0.48 -68.78,111.43 -61.82,121.77 2.9,4.32 65.23,9.91 69.79,14.72 2.82,2.98 -1.57,8.1 -2.16,12.2 -2.05,14.37 1.16,77.34 7.52,87.29 -4,5.27 -65.38,17.55 -67.8,22.14 -5.82,11.03 62.11,115.27 74.54,114.42 6.32,-0.44 47.17,-58.31 47.67,-53.11 0.99,10.2 79.93,49.44 88.81,45.13 4.68,-2.27 -18.12,64.38 -14.72,69.79 6.63,10.54 130.9,3.84 136.36,-7.35 2.79,-5.74 -25.3,-63.66 -22.14,-67.81zm9.21 -216.59c-18.5,-37.96 -59.74,-63.15 -107.8,-39.08 -61.11,30.61 -49.39,125.7 12.81,144.89 60.86,18.78 125.02,-44.23 94.99,-105.81z"/>
  </g>
 </g>
</svg>
