<?xml version="1.0" encoding="UTF-8"?>
<!DOCTYPE svg PUBLIC "-//W3C//DTD SVG 1.1//EN" "http://www.w3.org/Graphics/SVG/1.1/DTD/svg11.dtd">
<!-- Creator: CorelDRAW Home & Student 2018 (Nie do użytku komercyjnego) -->
<svg xmlns="http://www.w3.org/2000/svg" xml:space="preserve" width="43.9399mm" height="88.851mm" version="1.1" style="shape-rendering:geometricPrecision; text-rendering:geometricPrecision; image-rendering:optimizeQuality; fill-rule:evenodd; clip-rule:evenodd"
viewBox="0 0 744.73 1505.91"
 xmlns:xlink="http://www.w3.org/1999/xlink">
 <defs>
  <style type="text/css">
   <![CDATA[
    .str0 {stroke:#383A52;stroke-width:5.08;stroke-linecap:round;stroke-linejoin:round;stroke-miterlimit:22.9256}
    .fil0 {fill:none}
   ]]>
  </style>
 </defs>
 <g id="Warstwa_x0020_1">
  <metadata id="CorelCorpID_0Corel-Layer"/>
  <path class="fil0 str0" d="M2.54 1497.34l194.46 0 -5.21 -1040.34c-0.15,0.49 -11.54,79.96 15.63,40.26 39.2,-57.28 40.99,-52.09 125.01,-52.09 45.67,0 90.02,1.74 136.57,1.74 -15.14,0 -90.98,-99.24 -71.04,-147.58 4.21,-10.2 4.77,-20.37 3.54,-29.64 -1.23,-9.27 -4.26,-17.63 -7.22,-24.2l-58.33 -242.95 -41.93 242.95c-4.04,22.18 -6.73,46.18 -6.73,69.47 0,13.38 -0.21,32.8 -15.63,12.15l0 -81.62"/>
  <line class="fil0 str0" x1="262.98" y1="275.02" x2="419.24" y2= "273.29" />
  <path class="fil0 str0" d="M742.18 1495.6c-19.99,-14.4 -186.14,-5.47 -218.76,-1.59 -28.52,3.39 -171.74,-1.99 -151.06,3.32 20.84,5.36 144.91,14.19 135.87,-10.42 -10.54,-28.69 -12.56,-161.47 -21.28,-161.47 -81.13,0 -213.72,6.58 -290.66,-2.88 -12.81,-1.57 -19.34,-7.73 -11.89,-24.9 14.24,-32.83 -12.97,-20.84 62.95,-20.84 19.31,0 222.61,10.89 218.17,-0.86 -7.99,-21.18 -0.78,-104.35 -2.76,-140.14m-224.8 127.87c-0.2,-2.5 -0.93,-121.56 -1.11,-123.63 -1.51,-17.22 -3.22,-20.22 -19.02,-13 -2.64,1.21 -19.29,-32.29 -0.06,-49.74 29.74,-3.51 112.18,0.28 151.31,-0.54 66.54,-1.39 132.42,-2.71 132.19,7.53 -0.72,32.32 -4.67,30.05 -9.55,29.43 -24.52,-3.13 -179.72,1.22 -211.93,2.84 -72.17,3.65 -40.81,-27.31 -40.81,-155.67m234.07 104.83c-3.83,-124.35 6.53,-151.19 -32.77,-151.95 -61.69,-1.19 -158.18,0.16 -217.22,4.14 -46.11,3.11 -68.52,20.3 4.03,20.3 15.71,0 247.59,1.73 266,-11.33 -4.96,-44.94 -6.16,-175.59 -9.16,-199.92 -26.9,3.94 -265.63,3.1 -317.33,2.93"/>
  <path class="fil0 str0" d="M339.37 573.6c-145.31,-9 16.84,171.45 72.92,59.62 44.08,-87.88 -160.11,-116.13 -121.24,-2.75 18.25,53.25 82.67,13.9 66.17,-44.48 -3.48,-1.09 -25.75,10.82 -25.75,26.72 18.18,-1.55 92.97,16.57 92.97,33.56 0,41.37 64.33,34.75 -50.35,34.75 -14.79,0 -175.34,-3.57 -173.77,12.9 4.82,50.68 4.61,54.14 29.67,54.31 69.5,0.47 167.58,-5.35 230.91,-0.73"/>
  <path class="fil0 str0" d="M207.42 497.26c17.69,-9.59 6.95,1.27 6.95,50.8 0,44.42 -6.8,-43.76 -6.8,-5.95 70.31,13.18 186.99,-9.69 262.27,5.66 7.66,82.4 -4.6,150.02 1.31,167.65m4.77 -174.28c40.31,11.9 -37.78,-31.91 -35.84,23.69 0.68,19.47 -3.96,149.49 -6.5,147.88 -7.09,-4.51 -191.45,0.62 -175.22,-3.92 -11.19,-18.18 -14.78,-205.19 -12.88,-247.34m136.33 -2.61c10.75,0.22 81.01,-1.05 82.55,5.28 4.3,17.76 2.93,40.55 2.93,58.96 3.42,0 19.53,3.48 19.53,-2.24 0,-40.44 -3.91,-75.63 -3.91,-110.61"/>
  <path class="fil0 str0" d="M228.26 375.72c-32.86,123.91 14.44,38.59 36.31,64.84 -0.59,0.92 -59.38,3.1 -5.06,-50.53 19.83,-19.57 13.88,-39.12 17.14,-39.99 4.15,-1.11 34.18,3.98 101.36,3.98 10.69,0 30.01,0.03 39.5,-3.9"/>
  <path class="fil0 str0" d="M216.1 617.93c0,33.59 0.62,55.01 2.83,94.85 3.67,66.21 -3.96,137.9 0,208.99 3.57,64.11 -0.74,327.14 0,394.05 0.23,21.04 -4.86,128.15 2.68,149.96 9.33,27 17.97,2.57 19.04,-22.42 2.93,-68.57 0.42,-93.88 2.36,-105.91m213.85 7.97c2.05,38.59 -5.69,94.4 6.49,125.53 2.76,7.05 7.36,-4.09 13.34,-20.8 11.64,-32.53 22.27,-94.93 23.51,-126.02 69.77,-8.77 -10.18,14.39 -1.09,-15.41 0.49,-1.62 20.86,-26.53 19.05,-30.46 -2.77,-6.02 -28.37,7.67 -28.43,-1.23 -0.35,-48.12 4.38,-132.22 0.63,-152.14"/>
  <path class="fil0 str0" d="M287.3 956c0,11.74 0.09,82.71 0.26,110.3"/>
  <path class="fil0 str0" d="M287.3 1137.53c0,13.11 0.09,92.42 0.26,123.25"/>
  <path class="fil0 str0" d="M287.3 1343.41c0,14 0.09,98.64 0.26,131.55"/>
  <path class="fil0 str0" d="M327.04 775.57c0,11.74 0.09,82.71 0.26,110.3"/>
  <path class="fil0 str0" d="M314.95 468.11c0,6.59 0.06,46.48 0.17,61.98"/>
  <path class="fil0 str0" d="M420.41 468.11c0,6.59 -0.06,46.48 -0.17,61.98"/>
  <path class="fil0 str0" d="M251.77 775.57c0,11.74 0.09,82.71 0.26,110.3"/>
  <path class="fil0 str0" d="M262.4 468.11c0,6.59 0.06,46.48 0.17,61.98"/>
  <path class="fil0 str0" d="M374.74 956c0,11.74 0.09,82.71 0.26,110.3"/>
  <path class="fil0 str0" d="M374.74 1137.53c0,13.11 0.09,92.42 0.26,123.25"/>
  <path class="fil0 str0" d="M374.74 1343.41c0,14 0.09,98.64 0.26,131.55"/>
  <path class="fil0 str0" d="M414.49 775.57c0,11.74 0.09,82.71 0.26,110.3"/>
  <path class="fil0 str0" d="M367.51 468.11c0,6.59 0.06,46.48 0.17,61.98"/>
  <path class="fil0 str0" d="M329.13 956c0,11.74 0.09,82.71 0.26,110.3"/>
  <path class="fil0 str0" d="M329.13 1137.53c0,13.11 0.09,92.42 0.26,123.25"/>
  <path class="fil0 str0" d="M329.13 1343.41c0,14 0.09,98.64 0.26,131.55"/>
  <path class="fil0 str0" d="M368.88 775.57c0,11.74 0.09,82.71 0.26,110.3"/>
  <path class="fil0 str0" d="M341.23 468.11c0,6.59 0.06,46.48 0.17,61.98"/>
  <path class="fil0 str0" d="M394.13 468.11c0,6.59 -0.06,46.48 -0.17,61.98"/>
  <path class="fil0 str0" d="M293.61 775.57c0,11.74 0.09,82.71 0.26,110.3"/>
  <path class="fil0 str0" d="M288.68 468.11c0,6.59 0.06,46.48 0.17,61.98"/>
  <path class="fil0 str0" d="M446.69 468.11c0,6.59 -0.06,46.48 -0.17,61.98"/>
  <path class="fil0 str0" d="M416.58 956c0,11.74 0.09,82.71 0.26,110.3"/>
  <path class="fil0 str0" d="M416.58 1137.53c0,13.11 0.09,92.42 0.26,123.25"/>
  <path class="fil0 str0" d="M416.58 1343.41c0,14 0.09,98.64 0.26,131.55"/>
  <path class="fil0 str0" d="M456.32 775.57c0,11.74 0.09,82.71 0.26,110.3"/>
 </g>
</svg>
