<?xml version="1.0" encoding="UTF-8"?>
<!DOCTYPE svg PUBLIC "-//W3C//DTD SVG 1.1//EN" "http://www.w3.org/Graphics/SVG/1.1/DTD/svg11.dtd">
<!-- Creator: CorelDRAW Home & Student 2018 (Nie do użytku komercyjnego) -->
<svg xmlns="http://www.w3.org/2000/svg" xml:space="preserve" width="93.5003mm" height="57.1487mm" version="1.1" style="shape-rendering:geometricPrecision; text-rendering:geometricPrecision; image-rendering:optimizeQuality; fill-rule:evenodd; clip-rule:evenodd"
viewBox="0 0 6844.42 4183.4"
 xmlns:xlink="http://www.w3.org/1999/xlink">
 <defs>
  <style type="text/css">
   <![CDATA[
    .str0 {stroke:#383A52;stroke-width:21.96;stroke-linecap:round;stroke-linejoin:round;stroke-miterlimit:22.9256}
    .fil0 {fill:none}
   ]]>
  </style>
 </defs>
 <g id="Warstwa_x0020_1">
  <metadata id="CorelCorpID_0Corel-Layer"/>
  <g id="_687291128">
   <path class="fil0 str0" d="M2375.55 237.67c159.6,-101.89 265.81,-106.81 338.38,-76.74 98.89,40.97 120.54,140.47 208.41,187.24 42.38,22.58 -16.47,118.65 -78.38,163.34 -105.77,76.39 -39.65,428.38 -165.74,472.03 -392.22,135.74 -421.72,630.85 -515.92,13.37 -9.94,-65.2 57.98,-164.1 61.91,-256.59 8.31,-194.73 -480.72,-131.11 82.78,-551.39 1.96,-1.46 49.48,-430.91 -509.29,48.62 -129.97,111.55 -472.5,-189.37 -472.5,142.44 357.08,29.89 457.31,-113.65 504.24,232.57 39.06,-17.17 88.61,-99.23 157.25,-145.68 163.05,-110.34 375.35,-220.59 388.86,-229.22z"/>
   <path class="fil0 str0" d="M1217.99 847.63c41.13,-119.92 133.38,124.23 283.78,40.54 267.19,-148.71 178.65,106.78 -19.69,214.38 -56.56,30.69 -153.26,114.02 -141.23,190.16 7.72,48.88 92.09,64.37 114.21,103.79 62.56,111.37 107.4,189.03 118.21,67.27 3.76,-42.31 79.31,-79.2 90.87,-231.49 1.87,-24.81 83.49,-162.85 169.22,97.86 5.57,16.96 65.08,-95.26 84.81,-81.58 27,18.71 22.38,158.62 36.22,174.93 46.74,55.06 99.25,64.15 82.74,112.19 -12.39,36.08 -114.25,34.07 -181.68,62.68 -193.9,82.29 245.48,219.1 -183.61,191.81 -58.34,-3.71 -70.24,151.15 -150.15,205.9 -77,52.76 -75.34,194.69 -92.64,287.02 -7.53,0 -485.25,-403.01 -387.93,74.54 9.74,47.76 273.59,45.59 347.15,301.43 97.75,339.88 -207.48,48.57 177.89,515.15 233.68,282.93 -242.16,398.7 168.03,998.22 6.79,-199.8 188.35,-431.93 356.39,-647.96 27.91,-35.91 -5.73,-89.39 20.56,-124.18 32.63,-43.15 124.64,-67.33 151.8,-108 36.94,-55.33 9.68,-115.21 29.33,-164.1 58.31,-145.1 80.06,-250.2 -158.27,-301.84 -255.01,-55.25 -166.54,-435.79 -745.73,-167.3 -57.51,26.65 -500.61,-275.88 -666.6,-555.93 -15.26,-25.77 101.19,238.81 80.52,216.77 -122.34,-130.37 -224.22,-281.46 -255.28,-429.46 -18.06,-86.11 56.29,-218 59.06,-376.38 5.02,-286.07 -88.84,-593.52 -428.38,-411.59 -251.72,0 -172.56,-180.63 -60.05,-343.04 13.33,-19.27 -11.95,-90.62 3.2,-109.19 30.83,-37.81 130.84,52.64 127.29,4.66 -13.66,-184.57 113.38,-274.82 283.36,-208.57 70.42,27.44 89.67,141.21 226.42,167.34 20.04,3.83 32.03,33.85 57.32,51.59 13.09,-78.38 398.47,130.89 273.14,-92.17 -41.15,-73.26 23.68,-138.47 83.2,-152.26 12.37,-59.65 39.3,127.29 144.74,123.12 108.4,-4.28 -17.86,103.57 86.8,122.52 62.85,11.39 -113.17,140.43 97.59,105.43 112.81,-18.73 365.59,66.14 298.12,249.74 -75.45,205.27 269.5,143.29 230.95,-7.5 -47.33,-185.03 -182.92,-412.89 -401.72,-405.63 -171.66,5.7 -65.9,290.48 30.88,75.98 102.34,-226.83 -293.64,-417.68 -525.77,36.03 -27.4,53.54 69.37,172.49 84.94,127.13z"/>
   <path class="fil0 str0" d="M6083.3 997.96c23.67,-34.37 154.68,-54.06 198.19,-54.06 -128.03,-97.58 251.21,-267.41 98.52,-22.22 -68.63,110.2 71.55,239.15 142.9,318 134.16,148.31 27.78,-418.8 57.95,-454.31 76.02,-89.49 79.12,89.24 89.47,-52.6 11.08,-151.65 233.32,-48.23 57.95,-275.29 -1.32,-1.73 -39.65,-109.66 62.2,-36.97 30.02,21.44 116.96,-315.81 -97.29,-196.94 -130.1,72.16 -288.33,-165.03 -408.41,91.52 -24.43,52.19 -119.12,28.37 -205.08,51.67 -59.6,16.16 95.84,-133.34 -148.04,-19.76 -43.8,20.39 -151.69,-89.34 -395.12,-6.07 -58,19.85 140.55,33.36 -50.45,113.86 -84.57,35.64 6.18,86.97 -144.74,0 -146.92,-84.67 -183.5,74.73 -212.59,74.73 -148.01,0 -63.75,-45.03 -233.89,10.2 -102.24,33.2 81.5,-218.31 -188.93,-144.45 -49.46,13.52 -103.85,-177 -106.85,-34.79 -3.09,147.37 -194.7,173.5 -205.39,320.38 -6.18,84.79 -172.84,18.59 -180.47,81.32 -6.72,55.19 70.65,220.49 -61.27,132.2 -99.12,-66.37 -29.66,84.91 -139.69,100.89 -58.25,8.45 -268.11,202.55 -315.55,155.25 -38.47,-38.37 61.38,-117.8 80.51,-62.49 -32.68,-26.82 66.96,-136.93 -129.72,-136.93 -81.4,0 -101.36,-109.72 -219.8,-2.16 -53.9,48.94 -450.56,505.83 -187.36,438.15 135.36,-34.81 -27.67,-78.18 92.45,55.29 26.03,28.91 116.85,-44.4 70.63,-156.18 -37.1,-89.72 221.11,-273.5 106.86,-111.7 -32.52,46.07 -87.01,166.64 43.55,112.63 39.86,-16.51 136.4,29.66 52.61,34.79 -99.96,6.13 -6.28,141.39 -249.86,158.56 -78.96,5.57 -404.5,319.07 -404.5,41.49 0,-356.59 118.58,6.9 209.29,88.52 63.26,56.92 -248.87,73.17 -95.22,130.66 135.13,50.55 -148.44,66.35 -171.72,97.29 -61.86,82.17 108.46,220.07 161.52,151.02 74.64,-97.05 81.45,-259.89 263.98,-174.81 159.04,74.15 79.91,199.79 164.81,134.57 45.81,-35.19 -120.6,-247.72 -9.67,-181.71 32,19.05 82.66,342.62 142.69,117.77 17.94,-67.18 -12.54,96.98 105.11,99.66 131.73,2.99 254.33,199.21 -78.02,105.73 -139.87,-39.35 -212.86,136.28 -261.61,-48.7 -29.46,-111.83 -342.4,4.69 -427.54,11.43 -58.54,4.64 42.6,83.15 -109.85,137.22 -81.03,28.75 -219.53,499.42 91.52,514.96 176.86,8.84 169.91,-11.49 302.99,-17.7 93.03,-4.35 -11.02,137.96 114.38,284.96 33.27,38.99 22.85,87.81 8.13,133.01 -103.67,121.13 32.31,288.09 91.01,397.85 7.77,14.51 54.72,155.31 60.32,139.03 103.9,-49.39 92.63,-64.97 180.47,-100.57 71.92,-29.14 48.6,-186.5 294.19,-251.07 74.44,-19.57 -121.24,266.77 -122.41,117.8 -1.84,-234.44 143.24,-218.92 91.88,-389.21 -60.13,-199.31 372.97,-367.26 213.44,-444.74 -170.88,-83 -196.77,-244.8 -311.67,-352.19 -73.63,-68.83 22.77,503.03 331.7,267.41 140.26,-106.96 353.98,-152.27 17.5,-214.29 -120.07,-22.13 -118.42,-172.94 -68.77,-117.67 155.14,172.73 420.04,-6.3 530.6,278.39 18.64,48 70.63,213.53 106.05,193.64 108.69,-61.06 233.54,-444.71 357.22,-183.77 22.9,48.28 84.48,-59.3 95.24,84.72 2.72,36.2 -204.81,104.33 63.31,382.77 41.48,43.08 90.21,193.49 102.43,-77.71 4.32,-95.65 -180.25,-377.98 -58.57,-244.22 93.15,102.4 157.03,-77.76 89.15,-161.82 -120.13,-148.78 452.73,-2.37 243.58,-378.24 -29.9,-53.73 -145.45,-462.91 78.97,-137.53 72,104.39 293.24,61.1 287.95,-172.76 -5.77,-254.97 204.46,-110.31 76.81,-33.56 -65.62,39.45 85.4,231.49 -170.5,266.64 -54.01,7.42 -60.79,-225.1 31.51,-325.83 71.25,-77.76 151.17,-316 79.89,-404.08 -116.78,-144.3 26.67,-247.89 29.13,-246.87z"/>
   <path class="fil0 str0" d="M5495.98 3680.57c149.21,-39.76 351.42,-178.36 428.17,14.97 20.79,52.36 24.57,102.12 50.2,115.67 327.63,173.02 -117.96,181.75 113.16,7.55 41.05,-30.96 98.92,-81.39 189.15,-141.44 318.33,-211.86 -67.24,-358.52 -67.24,-654.35 0,-7.48 -128.94,69.73 -96.97,226.68 1.99,9.82 -78.74,-74.59 -93.98,-154.92 -9.27,-48.8 -133.14,-14.3 -183.46,36.02 -204.34,204.34 -250.97,130.75 -338.09,196.15 -8.58,6.42 14.79,226.33 -7.2,279.81 -5.87,14.25 -1.8,76.03 6.27,73.87z"/>
  </g>
 </g>
</svg>
