<?xml version="1.0" encoding="UTF-8"?>
<!DOCTYPE svg PUBLIC "-//W3C//DTD SVG 1.1//EN" "http://www.w3.org/Graphics/SVG/1.1/DTD/svg11.dtd">
<!-- Creator: CorelDRAW Home & Student 2018 (Nie do użytku komercyjnego) -->
<svg xmlns="http://www.w3.org/2000/svg" xml:space="preserve" width="33.7963mm" height="93.3822mm" version="1.1" style="shape-rendering:geometricPrecision; text-rendering:geometricPrecision; image-rendering:optimizeQuality; fill-rule:evenodd; clip-rule:evenodd"
viewBox="0 0 1594.94 4406.96"
 xmlns:xlink="http://www.w3.org/1999/xlink">
 <defs>
  <style type="text/css">
   <![CDATA[
    .str0 {stroke:#383A52;stroke-width:14.16;stroke-linecap:round;stroke-linejoin:round;stroke-miterlimit:22.9256}
    .fil0 {fill:none}
   ]]>
  </style>
 </defs>
 <g id="Warstwa_x0020_1">
  <metadata id="CorelCorpID_0Corel-Layer"/>
  <g id="_1143298944">
   <path class="fil0 str0" d="M849.88 1239.59c-1.88,6.35 -3.35,18.74 -4.88,26.22 -9.68,47.17 -52.36,66.81 -101.43,76.39 -15.55,3.03 -54.86,9.19 -61.67,4.68 -0.83,-0.55 -35.74,-93.89 -35.55,-98.55 2.21,-51.94 -38.84,-62 5.1,-117.48 21.69,-27.38 25.41,-36.48 24.99,-43.01m-7.23 -13.23c0.19,3.94 17.79,22.51 40.81,33.68 41.11,19.95 104.57,39.05 149.83,25.48 10.46,-3.13 10.07,-20.76 -65.86,-11.45 -29.04,3.56 32.55,37.34 47.14,66.69 38.36,77.17 96.46,-52.11 119.44,8.02 10.4,27.21 -8.67,-21.32 -3.21,35.39 3.14,32.63 6.14,58.5 6.14,92.08 -4.11,0.35 -38.58,-0.85 -38.71,-1.25 -8.49,-27.37 8.55,-103.22 4.78,-119.66 -44.33,82.34 -46.46,215.03 35.61,271.57 1.41,0.97 0.82,2.69 0.82,4.18 -43.59,-28.76 3.13,63.07 39.55,19.32 40.58,-48.75 -155.25,-32.84 -101.32,53.08 32.73,52.15 206.49,-7.65 211.63,42.03 -30.53,10.47 -114.01,-56.17 -4.99,32.68 17,13.86 140.94,173.5 152.33,172.53"/>
   <path class="fil0 str0" d="M632.47 1187.9c32.04,-66.59 48.68,37.4 31.15,67.92 21.27,16.53 18.56,-24.24 36.9,0.47 11.31,15.24 21.47,-21.92 7.01,-24.19"/>
   <path class="fil0 str0" d="M686.31 1219.61c0,-17.76 2.15,-42.21 5.8,-57.78 10.88,-23.64 38.95,-28.08 72.05,7.52 11.71,12.6 37.07,12.18 42.02,-2.18"/>
   <path class="fil0 str0" d="M700.04 1168.26c-1.6,16.03 13.1,23.42 22.36,22.14 12.97,-1.8 7.35,-20.44 26.34,-15.91"/>
   <path class="fil0 str0" d="M668.39 1192.95c-18.29,-4.88 -21.21,2.28 -20.78,22.91"/>
   <path class="fil0 str0" d="M681.51 1261.94l-2.69 32.59c3.89,-31.42 86.83,-11.71 35.89,5.92 -72.51,25.1 -12.19,-19.06 11.56,15.3 10.35,32.22 8.11,66.99 3.32,100.05"/>
   <path class="fil0 str0" d="M650 1260.63c-20.83,-5.06 -37.06,-38.86 -30.6,-78.59 -7.9,-9.76 -22.96,-69.94 -3.94,-93.65 111.33,-138.72 264.04,35.2 341.81,101.36 14.85,12.63 4.9,0.99 3.64,-22.27 -3.92,-72.4 -134.91,-184.43 -207.17,-195.11 -91.33,-13.5 -120.26,-1.31 -155.76,84.91 -3.76,9.12 5.43,32.01 10.92,39.96"/>
   <polyline class="fil0 str0" points="944.78,1103.49 1105.86,1048.55 901.28,1064.48 "/>
   <path class="fil0 str0" d="M842.69 1014.41c13.35,-20.14 142.26,-89.96 143.3,-94.48 -3.37,15.4 -83.55,104.77 -98.65,119.87"/>
   <path class="fil0 str0" d="M753.74 972.38c13.62,-28.65 35.48,-152.25 43.73,-171.06 -0.53,42.83 4.97,99.44 4.97,148.59 0,5.26 1.68,22.87 -1.25,18.73"/>
   <path class="fil0 str0" d="M666.38 972.61c-0.49,-3.32 -1.41,-4.03 -1.3,-6.47 1.5,-34.88 -101.13,-168.55 -103.64,-183.55 8.1,-0.69 124.87,132.55 133.92,150.77 0.52,1.05 12.63,15.9 5.92,7.81"/>
   <path class="fil0 str0" d="M628.87 978.62c-27.14,8.45 -130.86,-53.06 -167.32,-62.43 -9.15,-2.35 -19.92,-7.64 -31.22,-11.24l169.82 103.64"/>
   <path class="fil0 str0" d="M597.98 1057.29c-14.99,-2.42 -63.7,13.25 -85.23,16.12 -0.77,0.1 -50.93,20.47 -51.19,20.09l147.34 3.75"/>
   <path class="fil0 str0" d="M607.86 1138.54c-15.78,-5.8 -29.02,7.4 -49.12,13.64 -12.67,3.93 -31.79,16.37 -40.99,18.73"/>
   <path class="fil0 str0" d="M883.6 1243.33c-36.05,-6.48 -19.07,52.83 12.92,21.66 1.93,-1.88 -0.3,-1.78 -1.68,-1.68"/>
   <path class="fil0 str0" d="M1000.99 1531.76c81.68,-27.23 178.39,64.29 199.78,137.35"/>
   <path class="fil0 str0" d="M904.24 1551.73c-37.33,-3.5 -89.29,60.87 -120.51,87.19 -130.9,110.36 -366.5,455.37 -387.93,624.32 -10.39,81.91 -18.38,180.54 -24.12,262.43"/>
   <path class="fil0 str0" d="M895.11 1528.41c-74.87,14.04 -364.08,311.19 -415.06,388.58 -0.56,0.84 -172.03,243.54 -118.59,197.28 29,-25.09 -14.5,60.65 -20.41,107.39 -18.97,150.23 -2.67,91.36 -11.63,-38.75 -8.9,-129.16 23.13,-195.38 97.83,-307.17 1.26,-1.89 194.81,-209.8 130.07,-154.41 -44.59,38.16 -75.72,116.15 -45.38,34.97 10.48,-28.06 227.12,-222.41 261.64,-232.03 221.22,-61.67 -58.15,50.18 -87.26,-1.07 -48.97,-86.22 58.02,-80.28 18.13,-106.1 -47.93,-31.01 13.11,-29.07 -79.92,-59.29 -14.07,-4.57 -4.8,-16.48 -55.15,-36.46 -41.05,-16.29 24.71,-131.22 -82.41,-40.38 -53.84,45.66 -117.76,246.28 -98.03,311.59 2.75,9.08 62.45,-120.82 62.43,-186.87 -0,-35.46 77.35,-105.26 7.91,0.79 -69.7,106.47 -17.43,238.34 30.4,-10.2 17.24,-89.6 78.59,-77.25 -19.98,83.48 -89.94,146.65 -97.39,414.83 -40.81,173.53 29.25,-124.72 72.3,-125.88 15.63,10.63 -42.45,320.15 -6.49,36.47 27.47,-20.93 6.59,-6.36 13.85,-12.35 21.62,-17.18 64.89,-40.36 100.92,-171.61 115.31,-245.73 1.01,-5.23 3.58,-12.57 5,-18.12"/>
   <path class="fil0 str0" d="M540 1246.54c-26.36,-20.3 1.09,-130.36 -91.12,20.29 -48.08,78.56 -71.25,216.16 -99.44,302.78 -21.2,-30.89 -19.12,-212.9 14.25,-248.64 55.74,-59.7 -69.84,195.72 -77.14,170.37 -1.93,-6.71 39.42,-133.62 46.39,-166.64 8.39,-39.72 107.99,-194.59 133.64,-202.49 -27.28,-49.75 -27.41,-114.12 -42.17,-146.49 -62,-136.04 -142.33,-342.33 -140.13,-367.95 -5.69,-24.86 -16.41,-66.06 -46.27,-91.05 -26.68,-22.34 -61.56,-65.88 -88.45,-79.25 -32.83,-16.31 -30.37,23.36 -17.39,38.31 16.98,19.57 53.43,29.75 50.35,102.02 -0.53,12.5 21.28,80.59 59.31,67.43"/>
   <path class="fil0 str0" d="M190.53 622.24c-4.17,31.49 8.06,40.33 -5.34,55.74 -20.1,-21.84 -116.99,4.61 -78.86,12.5 4.01,25.42 108.92,-29.24 84.49,42.17 -4.3,12.59 -12.39,29.1 -25.41,50.64 -31.86,52.71 -45.2,-64.88 -49.74,-71.25 -17.85,-11.77 -17.48,-26.18 -7.92,-40.51 -0.29,-37.04 4.07,-70.43 1.93,-85.83 -27.63,-36.1 8.05,-1.19 21.6,-28.52 19,-38.3 -101.19,-15.31 -6.85,-19.33 38.24,-1.63 19.77,-34.3 3.71,-35.84 -54.97,-5.27 -38.51,-14.43 -36.39,-14.53 58.16,-2.94 26.75,-35.78 2.71,-35.78 2.27,-0.18 6.49,0.23 9.28,0.23l0.78 -28.41"/>
   <path class="fil0 str0" d="M206.82 459.29c10.1,-43.24 -21.21,-28.81 8.77,-39.47 56.09,-19.94 -78.64,-95.91 -126.97,-22.05 -11.54,17.64 0.31,21.99 18.11,21.69 19.84,-0.34 64.6,-6.48 82.64,13.5"/>
   <path class="fil0 str0" d="M88.62 397.77c-1.38,-7.23 -3.35,-17.71 -11.14,-18.99 -23.45,-3.86 -106.11,-25.93 -36.76,-69.39 29.28,-18.35 80.83,-20.85 130.32,-16.57 39.06,3.37 76.85,10.98 101.4,18.35 35.69,10.71 58.3,48.62 -6.3,68.69 -0.19,0.06 -30.63,-6.37 -44.31,11.88"/>
   <path class="fil0 str0" d="M29.96 309.46c-7.9,-25.9 -17.4,-40.84 -18.2,-56.15 -0.54,-10.36 41.89,-32.62 92.7,-32.62 23.67,0 225.11,11.84 196.9,46.84 -13.07,16.21 -8.25,35.16 -13.34,44.31"/>
   <path class="fil0 str0" d="M119.42 221.19c7.79,-10.55 -42.14,-45.35 59.96,-37.97 3.55,0.25 31.31,10.34 31.84,13.74"/>
   <path class="fil0 str0" d="M119.94 190.37c-117.9,-108.09 72.29,-143.4 66.31,-183.29 -20.6,25.02 -46.71,108.77 0.84,38.79 51.05,-75.14 2.16,15.06 8.92,20.83"/>
   <path class="fil0 str0" d="M151.91 155.75c7.93,-107.22 90.65,-76.33 127.12,-99.73 16.07,-10.31 30.37,-25.86 37.16,-34.05 0.45,21.65 -1.24,36.43 -4.18,46.79 -9,31.8 -36,32.17 -42.71,52.36 -16.63,50.04 -40.58,52.75 -53.4,68.67"/>
   <path class="fil0 str0" d="M186.67 706.76c2.15,0.92 35.79,280.88 47.01,322.4 12.81,47.37 28.88,97.31 68.07,128.65 40.54,32.42 -30.97,-30.27 1.85,49.3 4.02,9.74 23.65,76.83 25.61,87.41"/>
   <path class="fil0 str0" d="M1011.41 1574.08c-22.73,48.01 205.45,521.88 124.44,555.37 -6.47,-3.73 -3.39,-3.57 -9.99,-5.85"/>
   <path class="fil0 str0" d="M1045.95 1923.82c21.46,61.99 64.22,311.88 64.93,312.94 63.38,95.52 -139.96,-608.84 -139.85,-612.62 -2.03,136 29.97,312.11 29.97,486.18 0,142.32 5.66,402.03 -31.25,529 -24.76,85.18 90.95,79.05 96.61,192.22 1.47,29.48 75.5,16.48 104.03,156.54 2.63,12.89 -7.55,-368.32 -44.52,-504.88"/>
   <path class="fil0 str0" d="M981.02 2772.9c0,8.97 0.84,364.97 28.68,275.98 45.33,-144.86 131.06,127.96 87.48,-90.76 -12,-60.2 35.52,-32.36 28.68,168.53 -3.53,103.64 43.34,-29.11 -94.9,-29.11"/>
   <path class="fil0 str0" d="M697.55 1727.23c62.7,98.15 -76.14,399.18 -76.14,601.15 0,-131.76 187.94,-130.92 194.79,-304.67 0.07,-1.66 -134.68,-64.25 -68.64,-109.02 123.64,-83.81 142.79,131.32 137.71,115.73 -20.05,-61.52 -149.18,-102.54 -33.68,-17.98 53.67,39.29 -34.68,74.64 98.18,167.82 166.98,117.09 -141.01,4.08 16.7,152.69 10.89,10.26 13.14,33.56 17.7,41.55l15.2 1.45"/>
   <path class="fil0 str0" d="M878.65 2107.35c-59.23,-71.17 -32.48,44.78 -32.48,135.69 0,222.56 -11.15,427.65 28.68,647.15 6.91,38.07 29.72,182.78 31.25,207.35 35.9,32.73 71.59,152.47 69.93,194.79 -0.69,17.59 31.16,38.71 19.98,59.93"/>
   <path class="fil0 str0" d="M1030.96 3097.55c-28.5,18.2 -3.24,219.59 -36.24,309.23 -23.84,64.76 124.41,54.1 39.53,123.58 -1.29,1.05 126,215.22 77.92,39.96 -27.16,-99.01 178.3,-168.11 -6.28,-168.11 0,-46.1 5,-92.57 5,-139.85"/>
   <path class="fil0 str0" d="M1220.76 2533.16c0,159.3 21.02,322.02 14.98,499.45 -1.57,46.05 36.35,161.15 9.99,164.39 -142.73,17.57 70.71,92.71 -14.56,115.31 -88.43,23.43 91.21,5.26 20.84,81.2 -23.36,25.2 74.35,574.63 -15.84,352.04 -3.21,-7.92 -63.57,-109.89 -70.35,-118.59"/>
   <path class="fil0 str0" d="M713.72 1793.4c-99.3,165.94 -248.63,549.62 -272.12,745.18 -26.01,216.57 -48.11,137.41 -54.94,429.1"/>
   <path class="fil0 str0" d="M456.59 3292.33c-66.82,-223.29 -21.84,-68.49 -0.43,-168.53 -10.69,-5.01 -88.98,114.89 -44.95,-181.51 3.73,-25.12 109.82,-149.84 120.3,-224.33 0.53,-3.77 102.81,-277.01 71.2,-116.87 -18.68,94.64 -51.23,508.9 -51.23,621.32"/>
   <path class="fil0 str0" d="M891.68 2993.7c-51.33,-43.05 -100.54,93.58 -297.74,188.32 -71.65,34.42 -3.53,77.65 67.43,108.6 197.73,86.24 -364.08,228.82 -193.54,272.67"/>
   <path class="fil0 str0" d="M691.34 2338.37c0,193.32 3.82,407.82 19.98,599.35"/>
   <path class="fil0 str0" d="M621.41 2328.38c-111.88,2.34 -77.61,94.89 -92.9,240.46l-11.99 114.16"/>
   <path class="fil0 str0" d="M464.7 3547.05c-5.8,103.82 -56.3,338.83 -144.84,409.56"/>
   <path class="fil0 str0" d="M954.64 3189.84c-66.1,96.49 5.78,398.52 10.96,532.03 0.02,0.61 21.07,148.48 25.4,149.84"/>
   <path class="fil0 str0" d="M801.21 3896.67c2.13,-44.99 8.3,-95.17 10.42,-138.28 6.95,-141.4 44.62,-562.99 -35.21,-649.42 -13.58,146.78 18.61,403.98 9.37,596.19 -2.51,52.24 -8.14,136.92 -19.55,186.51"/>
   <path class="fil0 str0" d="M547.94 3507.1c0,146.95 25.18,195.93 -2.77,357.04l-3.68 72.49 19.32 -20.84c42.02,-41.2 88.88,-9.57 90.06,-19.16 -130.48,-84.82 -10.04,-125.36 89.89,-101.92 99.74,23.4 -295.1,77.15 -112.59,-18.77 176.27,-92.63 87.23,-438.85 87.23,-588.5"/>
   <path class="fil0 str0" d="M871.14 3142.5c0,236.78 3.95,522.63 39.95,754.18"/>
   <path class="fil0 str0" d="M512.14 3518.49c0.97,25.01 -3.41,140.49 -5.6,182.83 -2.43,46.97 -30.98,143.97 -44.95,190.37"/>
   <path class="fil0 str0" d="M1051.64 3578.18c12.45,121.1 36.26,240.94 78.7,358.72"/>
   <path class="fil0 str0" d="M998.25 3452.4c0.39,136.13 12.27,270.84 42.97,403.22 -3.91,22.72 59.55,15.38 59.55,46.2 -36.25,9.28 -135.18,-44.55 -132.47,-7.49 0.34,4.7 106.19,26.89 113.73,48.7"/>
   <path class="fil0 str0" d="M1165.82 3626.97c-38.75,123.12 17.32,221.73 59.93,349.62"/>
   <path class="fil0 str0" d="M67.01 4131.42l-5 -104.89 59.93 -24.97 646.83 -90.12c8.87,51.73 -3.86,89.84 7.46,130.08"/>
   <path class="fil0 str0" d="M801.21 3910.41c12.64,1.97 94.31,9.81 101.94,12.46 3.53,17.01 -2.92,118.07 -5.17,123.02"/>
   <path class="fil0 str0" d="M911.09 3896.67c57.25,16.3 609.34,162.3 609.34,164.82 0,15.76 -4.32,117.22 -9.99,114.88"/>
   <path class="fil0 str0" d="M503.33 2921.56c-50.05,-5.21 -31.76,59.85 -31.76,122.75 0,151.3 -29.97,299.76 -29.97,437.81"/>
   <polyline class="fil0 str0" points="1510.44,4176.37 897.98,4045.89 776.24,4041.52 7.08,4151.4 37.05,4231.31 37.05,4346.18 "/>
   <polyline class="fil0 str0" points="1550.4,4399.88 1547.9,4280.01 1587.86,4207.59 1510.44,4176.37 "/>
   <path class="fil0 str0" d="M963.74 1233.83c30.57,20.72 52.82,64.33 23.62,95.57 -18.39,19.67 5.1,33.12 5.1,45.93 0,13.56 -12.14,24.21 -25.03,28.15 -6.61,2.02 -32.28,-41.99 -31.79,-57.28 0.42,-13.12 21.06,34.03 21.28,43.54 0.32,13.83 26.93,54.11 37.57,67.59 27.31,34.6 25.94,34.7 59.93,37.4 6.36,0.5 17.97,16.13 20.44,21.91"/>
   <path class="fil0 str0" d="M1052.78 1638.64c53.43,68.63 99.89,184.32 99.89,273.63 0,-80.16 -23.76,-311.08 23.12,-86.76 17.91,85.72 -50.5,244.51 -7.49,136.92 14.9,-37.27 104.97,-128.51 43.67,-37.46 -1.32,1.96 -91.27,175.22 -38.67,100.32 4.12,-5.86 4.35,-4.24 4.35,0.43"/>
   <path class="fil0 str0" d="M1211.37 2035.09c1.07,-3.26 -4.79,5.63 -6.81,7.03 -16.5,11.34 3.46,41.37 12.02,50.87 32.17,35.72 44.16,43.27 82.2,70.71 19.26,-5.05 19.66,5.02 46.84,-18.11 17.32,-14.74 -40,51.52 -27.79,49.84 44.24,-6.09 0.22,13.54 20.3,12.6"/>
   <path class="fil0 str0" d="M1270.05 2095.64c-22.42,-18.2 -59.93,-66.58 -59.93,-96.15 0,-10.95 10.77,-18.41 10.61,-16.23"/>
   <path class="fil0 str0" d="M1298.14 2061.93c-17.58,-19.76 -31.36,-32.98 -46.82,-54.78 -10.59,-14.95 -42.19,-33.63 -18.89,-48.8 4.75,-3.09 43.71,25.39 51.82,29.45 18.6,9.31 -28.46,55.97 -10.4,23.51 3.55,-6.38 14.64,-18.89 22.43,-7.9 3.55,5.02 21.73,23.56 19.98,23.56"/>
   <path class="fil0 str0" d="M1326.24 2021.97c-26.8,-17.81 -32.17,-58.1 -56.19,-81.16 -4.9,-4.71 -25.79,-35.15 -16.23,-44.32 23.87,-22.91 41.45,24.56 38.14,28.15 -18.61,20.12 -1.73,-16.36 13.68,7.85 4.03,6.33 34.8,32.3 28.88,38.71 -12.86,13.93 -37.29,34.92 2.18,10.04 4.96,-3.13 20.41,25.75 18.1,28.83 -2.27,3.02 -18.49,25.64 -19.19,26.95 -6.32,11.93 -17.45,14.63 -11.13,24.24l-0.74 1.3c18.23,-1.25 37.89,-49.73 43.08,-44.32 15.4,16.04 28.63,68.09 30.54,91.2 3.47,42.14 3.82,110.54 -56.76,106.75 -27.32,-1.7 -45.41,-6.99 -69.92,-18.05 -1.68,-0.76 -1.25,-0.37 -1.25,1.14 4.88,4.25 -7.3,163.25 72.01,93.85 16.13,-14.12 32.89,-71.8 32.89,-71.39 0,80.36 -121.65,283.39 -117.37,-42.24 0.73,-55.53 -5.59,75.08 -5.92,79.59 -3.07,41.24 -16.96,172.95 37.46,183.23 106.3,20.09 92.99,-146.63 108.31,-163.25 -9.38,40.7 -21.82,265.22 -121.33,215.3 -82.8,-41.53 -52.53,-173.94 -44.31,-241.53 3.41,-28.03 -1.18,-57.84 -8.85,-2.07 -13.96,101.53 -35.08,169.05 25.9,266.89"/>
   <path class="fil0 str0" d="M1285.64 1904.49c9.02,-17.01 16.87,-71.81 34.2,-100.45 9,-14.88 7.04,-10.72 32.46,-1.6 23.66,8.48 11.8,10.04 4.74,37.24 -4.94,19.03 -26.03,57 -32.46,83.66 -0.7,2.92 -5.99,19.66 -7.71,21.23"/>
   <path class="fil0 str0" d="M1339.98 1892.12c0,4.9 0.12,49.14 3.86,49.27 12.08,0.41 3.79,5.51 12.54,8.74 0.92,0.34 38.34,23.99 33.14,25.54 -5.55,1.65 -29.42,2.36 -9.37,15.5 11.57,7.57 -9.41,5.04 6.55,19.62 2.11,1.93 9.81,13.19 -4.67,4.88 -0.08,-0.05 -26.43,-8.87 -20.93,-7.33 0.68,3.28 54.17,26.29 63.33,56.71 10.13,33.64 42.92,45.03 42.92,107.17 0,1.53 -0.55,17.07 0,17.69 -13.51,22.18 -10.36,75.18 -28.18,110.5 -9.81,19.43 -18.12,83.41 -32.36,120.19 -22.03,56.9 -63.96,152.54 -144.74,123.08 -35.5,-12.94 -84.33,-71.43 -89.69,-108.42 -3.71,-25.57 20.51,-136.08 4.67,-147.34"/>
   <path class="fil0 str0" d="M1240.01 2117.56c-15.88,20.43 -89.14,252.75 -100.31,244.35 -9.34,-7.02 -44.09,-17.13 -38.92,-23.94 23.74,-31.28 99.76,-253.26 106.48,-257.75"/>
   <polyline class="fil0 str0" points="1100.77,2337.98 1100.88,2257.96 1168.31,2060.67 "/>
   <line class="fil0 str0" x1="152.31" y1="536.17" x2="154.81" y2= "637.31" />
   <line class="fil0 str0" x1="137.33" y1="642.3" x2="137.95" y2= "556.14" />
   <line class="fil0 str0" x1="124.22" y1="648.55" x2="123.59" y2= "576.75" />
   <line class="fil0 str0" x1="168.54" y1="639.81" x2="169.79" y2= "573" />
   <path class="fil0 str0" d="M191.51 658.12c1.87,-10.65 -55.1,-15.87 -63.71,-9.74 -0.22,0.16 -19.09,6.89 -19.9,6.99"/>
   <path class="fil0 str0" d="M125.32 752.53c17.51,-2.3 31.57,-9.33 51.96,-2.22"/>
   <path class="fil0 str0" d="M923.74 1581.25c-17.23,40.77 -28.76,64.3 -44.85,106.45 -23.04,60.43 -17.7,86.07 -54.23,152.45 -14.3,25.98 25.98,-18.99 40.18,-67.11 15.16,-51.4 36.58,-92.58 63.89,-136.85 3.29,-5.33 -36.38,0.58 -34.96,115.02 0.44,35.86 6.78,105.69 -6.14,134.6 -8.91,19.96 20.47,-40.26 28.93,-27.36 11.86,-3.08 22.16,-228.74 22.16,-95.9 0,34.26 30.68,175.01 -3.75,175.92 -30.31,0.79 -40.9,-25.35 -57.44,-8.85 0.35,3.04 32.08,4.97 44.74,37.57 6.83,17.6 38.16,81.12 58.9,79.8"/>
   <path class="fil0 str0" d="M808.86 1652.42c-36.15,52.19 -26.5,167.99 -52.45,233.5"/>
   <path class="fil0 str0" d="M787.63 3045.43c59.51,99.5 103.35,49.54 115.07,57.09 -1.79,5.27 -1.34,3.45 3.41,-4.97"/>
   <path class="fil0 str0" d="M878.65 2107.35c0.02,-0.25 12.24,293.49 17.84,433.92 6.85,171.53 22.1,313.96 87.62,471.99l2.07 6.42"/>
   <path class="fil0 str0" d="M921.05 2275.16c-23.47,25.91 42.09,278.85 57.63,312.49"/>
  </g>
 </g>
</svg>
