<?xml version="1.0" encoding="UTF-8"?>
<!DOCTYPE svg PUBLIC "-//W3C//DTD SVG 1.1//EN" "http://www.w3.org/Graphics/SVG/1.1/DTD/svg11.dtd">
<!-- Creator: CorelDRAW Home & Student 2018 (Nie do użytku komercyjnego) -->
<svg xmlns="http://www.w3.org/2000/svg" xml:space="preserve" width="63.2258mm" height="44.5857mm" version="1.1" style="shape-rendering:geometricPrecision; text-rendering:geometricPrecision; image-rendering:optimizeQuality; fill-rule:evenodd; clip-rule:evenodd"
viewBox="0 0 3790.62 2673.08"
 xmlns:xlink="http://www.w3.org/1999/xlink">
 <defs>
  <style type="text/css">
   <![CDATA[
    .str0 {stroke:#383A52;stroke-width:17.99;stroke-linecap:round;stroke-linejoin:round;stroke-miterlimit:22.9256}
    .fil0 {fill:none}
   ]]>
  </style>
 </defs>
 <g id="Warstwa_x0020_1">
  <metadata id="CorelCorpID_0Corel-Layer"/>
  <g id="_1039433504">
   <path class="fil0 str0" d="M1854.97 32.57c-14.89,135.99 21.75,1298.15 5.26,1650.87 444,-177.44 1471.74,-765.13 1489.62,-773.34 -189.59,-412.73 -750.75,-893.49 -1435.93,-901.11"/>
   <path class="fil0 str0" d="M1067.43 2348.02c26.19,76.32 320.56,279.29 422.47,311.24 60.25,18.89 48.77,-15.73 86.4,-130.45 50.84,-154.97 249.77,-694.69 273.96,-831.57 -89.16,61.01 -717.18,588.74 -740.39,631.91"/>
   <path class="fil0 str0" d="M1114.59 947.43c114.95,82.81 603.28,596.48 735.72,739.2 -73.57,-9.38 -987.62,-315.13 -987.73,-317.81 -3.31,-77.59 146.25,-318.42 219,-374.24"/>
   <path class="fil0 str0" d="M832.54 1376.7c-47.3,-26.89 -200.57,-70.16 -226.67,-80.93 -58.63,21.72 -137.97,453.44 -59.76,644.86l1286.59 -230.65"/>
   <path class="fil0 str0" d="M961.32 1884.1c0,106.09 98.7,320.9 177.87,386.87"/>
   <path class="fil0 str0" d="M1691.09 2270.21c156.59,50.15 329.86,-6.19 331.47,-6.19l-172.31 -566.78"/>
   <path class="fil0 str0" d="M1979.02 2120.81c199.01,-57.96 278.18,-229.82 276.79,-227.87"/>
   <path class="fil0 str0" d="M1850.25 1697.24l1131.79 476.3c157.37,-426.67 77.72,-831.09 -66.03,-1065.77"/>
   <path class="fil0 str0" d="M1862.02 1052.31c-74.7,-11.54 -197.74,7.48 -233.41,31.88l221.7 602.44"/>
   <path class="fil0 str0" d="M1663.8 1489.18c29.15,-33.27 49.79,-46.45 90.78,-62.71"/>
   <path class="fil0 str0" d="M2791.31 143.49c172.83,0 337.27,-7.07 506.94,-7.07"/>
   <path class="fil0 str0" d="M3206.3 1650.18c191.77,0 383.55,0 575.32,0"/>
   <path class="fil0 str0" d="M2225.41 2178.34c148.66,-6.2 270.1,7.6 405.56,1.95"/>
   <path class="fil0 str0" d="M3215.76 1697.17c115.39,-6.2 209.65,7.6 314.79,1.95"/>
   <path class="fil0 str0" d="M464.69 1002.65c115.38,-6.2 209.65,7.6 314.79,1.95"/>
   <path class="fil0 str0" d="M1801 2404.7c148.03,0 296.06,0 452.72,0"/>
   <path class="fil0 str0" d="M1189.23 2595.27c-0.18,0.02 -426.41,5.64 -427,5.56"/>
   <path class="fil0 str0" d="M612.62 2121.76c82.86,0 222.45,-9.79 302.99,7.07"/>
   <path class="fil0 str0" d="M8.99 1698.52c92.05,-13.33 385.03,-7.72 413.81,0"/>
   <path class="fil0 str0" d="M466.78 1049.3c4.83,0.41 402.44,1.74 426.08,-2.39"/>
   <path class="fil0 str0" d="M1607.65 933.38c108.71,0 197.13,2.39 302.95,-13.54 10.11,-1.52 32.02,-0.61 43.66,-0.61"/>
   <path class="fil0 str0" d="M1421.37 1395.52c2.36,-0.39 217.9,-14.5 221.64,-14.15"/>
  </g>
 </g>
</svg>
