<?xml version="1.0" encoding="UTF-8"?>
<!DOCTYPE svg PUBLIC "-//W3C//DTD SVG 1.1//EN" "http://www.w3.org/Graphics/SVG/1.1/DTD/svg11.dtd">
<!-- Creator: CorelDRAW Home & Student 2018 (Nie do użytku komercyjnego) -->
<svg xmlns="http://www.w3.org/2000/svg" xml:space="preserve" width="50.3616mm" height="39.9872mm" version="1.1" style="shape-rendering:geometricPrecision; text-rendering:geometricPrecision; image-rendering:optimizeQuality; fill-rule:evenodd; clip-rule:evenodd"
viewBox="0 0 2822.61 2241.16"
 xmlns:xlink="http://www.w3.org/1999/xlink">
 <defs>
  <style type="text/css">
   <![CDATA[
    .str0 {stroke:#383A52;stroke-width:16.81;stroke-linecap:round;stroke-linejoin:round;stroke-miterlimit:22.9256}
    .fil0 {fill:none}
   ]]>
  </style>
 </defs>
 <g id="Warstwa_x0020_1">
  <metadata id="CorelCorpID_0Corel-Layer"/>
  <path class="fil0 str0" d="M825.04 467.05c106.35,-5.31 157.09,-112.46 158.51,-210.01 2.89,-199.61 -330.74,-310.55 -500.11,-141.82 -108.22,107.82 -154.12,296.09 -149.66,430.08 2.76,82.85 -12.04,31.26 146.28,1.83 17.51,-40.23 -6.27,-58.52 -20.98,-7.08 -7.24,25.28 -24.99,223.59 -2.69,223.59 237.92,0 447.44,-205.84 368.31,-196.49 -100.3,11.86 31.86,307.32 29.08,314.57"/>
  <path class="fil0 str0" d="M599.95 784.86c0.38,15.05 -12.67,126.62 -22.02,128.1"/>
  <g id="_1147765864">
   <path class="fil0 str0" d="M2288.91 409.7c-286.6,16.7 -531.9,418.92 -123.04,469.69 295.22,36.65 548.24,-343.35 101.7,-350.65 -96.01,-1.57 -164.35,12.48 -50.71,-98.66 5.37,-5.25 55.9,-52.87 76.6,-61.32"/>
   <path class="fil0 str0" d="M2144.08 620.18c0.76,-49.99 152.08,-0.46 19.01,70.66 -20.12,10.75 -13.67,29.55 -13.67,53.87m4.85 33.72l-6 6.01"/>
  </g>
  <g id="_1147767136">
   <path class="fil0 str0" d="M2445.39 1132.02c184.11,0 384.69,-167.23 367.87,-299.48 -19.53,-153.59 -352.34,-268.63 -480.79,-34.16 -148.66,271.36 414.33,183.56 340.29,139.8 -62.51,-36.96 -110.5,132.45 -227.37,193.84z"/>
   <path class="fil0 str0" d="M2557.48 732.51c-0.78,7.03 -12.01,74.01 -12.01,108.2m-3.7 36.82l-2.01 6"/>
  </g>
  <path class="fil0 str0" d="M1324.29 1672.14c49.57,-3.41 106.39,0.37 131.57,3.28 395.55,45.77 381.21,508.48 -188.23,395.47 -154.84,-30.72 7.13,30.4 152.2,-15.87 41.59,-13.27 56.42,-2.62 62.92,13.52 22.13,54.93 35.41,77.51 72.16,156.08 -45.34,16.66 -197.08,3.07 -302.96,0 10.04,-47.15 164.58,-181.1 52.71,-213.06l223.49 0.04"/>
  <path class="fil0 str0" d="M1454.75 1603.99c-21.15,33.72 -127.15,251.59 -111.67,251.59 231.54,0 90.02,92.92 276.89,-218.85 40.1,-66.9 50.26,-72.7 8.2,-82.23 -25.36,-5.74 -160.5,-49.53 -156.82,-0.5 1.69,22.36 94.59,71.89 143.93,-70.69"/>
  <path class="fil0 str0" d="M650.52 400.16c74.06,-40.71 -9.8,-32.04 -9.8,-32.82 0,-16.72 0.92,-45.06 -11.84,-56.51 -22.45,-20.16 -54,-2.4 -55.73,-67.54 -1.02,-38.24 24.4,-99.68 106.62,-105.47 77.14,-5.44 105.81,61.02 96.39,101.62 -13.16,56.8 -46.18,60.57 -78.25,63.39 -0.76,2.19 0.96,27.51 0.96,30.2 -0.11,-0.04 -42.66,-46.1 -57.3,-55.5 -6.92,-4.44 2.82,-3.05 13.59,-9.56 16.7,-10.07 46.67,-51.32 41.94,-48.35 -12.17,7.63 -47.14,6.84 -55.42,1.59"/>
  <path class="fil0 str0" d="M1150.3 519.61c139.46,-30.65 379.08,-17.4 462.07,1.9 379.05,88.18 -90.24,-90.81 -11.14,-52.05 83.18,40.77 122.84,60.27 112.86,79.44 -10.84,20.77 -63.52,52.66 -148.49,61.79"/>
  <path class="fil0 str0" d="M995.58 2009.34c-259.45,-9.96 -430.51,-116.31 -547.24,-177.39m98.32 111.65c-70.69,-59.87 -103.57,-89.43 -89.05,-105.44 15.75,-17.35 74.78,-34.86 159.3,-22.16"/>
  <path class="fil0 str0" d="M2606.5 1375.04c-87.04,203.14 -303.16,372.84 -494.65,450.33 -51.98,21.03 -96.69,38.81 -102.08,42.61 76.17,4.69 291.45,-245.21 0.92,-37.93 -63.87,45.56 -93.62,86.14 122.57,50.71 44.23,-7.25 137.45,-29.31 175.46,-50.69"/>
  <path class="fil0 str0" d="M549.38 197.49c-1.31,-0.32 -108.65,-57.53 -109.86,-62.35"/>
  <path class="fil0 str0" d="M608.25 113.86c-4.95,-11.39 -47.58,-75.3 -46.51,-90.06"/>
  <path class="fil0 str0" d="M696.83 96.54c-0.19,-2.56 12.9,-78.34 16.05,-88.13"/>
  <path class="fil0 str0" d="M779.47 128.71c8.59,-2.8 44.08,-22.53 58.39,-36.62"/>
  <path class="fil0 str0" d="M806.69 229.15c22.7,3.15 60.56,-0.16 83.63,-6.93"/>
  <g id="_1147769704">
   <path class="fil0 str0" d="M646.63 1668.87c161.41,-168.85 181.64,-403.59 184.78,20.18 16.18,-168.65 -471.1,-82.37 91.84,-147.26 119.19,-13.74 -193.74,40.36 -276.62,127.08z"/>
   <path class="fil0 str0" d="M26.16 1638.69c142.45,-165.07 161.25,-360.39 167.31,46.82 5.11,-93 -180.8,-155.74 -177.44,-161.62 15.55,-27.22 63.42,38.07 269.29,14.36 109.42,-12.6 -140.97,35.61 -246.5,109.86 -34.73,24.44 -40.91,23.3 -12.65,-9.42z"/>
   <path class="fil0 str0" d="M379.02 1503.52c133.3,-167.37 161.46,-360.55 171.73,45.77 -0.78,-69.03 -114.04,-122.82 -164.66,-147.1 -33.07,-15.86 -38.67,-15.5 7.49,-25.12 62.95,-13.13 123.87,13.62 234.86,25.62 109.49,11.83 -133.53,36.5 -235.54,110.32 -34.93,25.27 -40.41,23.83 -13.87,-9.48z"/>
  </g>
 </g>
</svg>
