<?xml version="1.0" encoding="UTF-8"?>
<!DOCTYPE svg PUBLIC "-//W3C//DTD SVG 1.1//EN" "http://www.w3.org/Graphics/SVG/1.1/DTD/svg11.dtd">
<!-- Creator: CorelDRAW Home & Student 2018 (Nie do użytku komercyjnego) -->
<svg xmlns="http://www.w3.org/2000/svg" xml:space="preserve" width="34.9209mm" height="41.3863mm" version="1.1" style="shape-rendering:geometricPrecision; text-rendering:geometricPrecision; image-rendering:optimizeQuality; fill-rule:evenodd; clip-rule:evenodd"
viewBox="0 0 722.43 856.19"
 xmlns:xlink="http://www.w3.org/1999/xlink">
 <defs>
  <style type="text/css">
   <![CDATA[
    .str0 {stroke:#383A52;stroke-width:6.21;stroke-miterlimit:22.9256}
    .str1 {stroke:#383A52;stroke-width:6.21;stroke-linecap:round;stroke-linejoin:round;stroke-miterlimit:22.9256}
    .fil0 {fill:none}
   ]]>
  </style>
 </defs>
 <g id="Warstwa_x0020_1">
  <metadata id="CorelCorpID_0Corel-Layer"/>
  <g id="_1146221912">
   <path class="fil0 str0" d="M381.19 461.86c-33.57,-195.63 -238.17,-414.37 -376.99,-457.31 29.01,128.53 98.57,330.25 322.61,470.41 12.32,7.71 46,25 67.77,36.34"/>
   <path class="fil0 str0" d="M384.61 384.62c37.18,-30.43 23.4,-30.49 86.97,11.23 15.74,10.33 174.61,126.09 179.14,133.32 1.98,3.15 -4.75,1.6 -27.99,-9.51 -41.71,-19.95 -171.28,-81.87 -201.49,-100.46"/>
   <path class="fil0 str0" d="M280.88 471.62c-44.82,54.45 -56.1,6.08 13.11,133.7 11.31,20.87 96.57,170.95 86.28,145.44 -1.84,-4.57 -54.43,-150.68 -56.85,-161.91 -0.7,-3.24 -20.26,-76.06 -22.78,-62.58"/>
   <path class="fil0 str0" d="M136.62 223.51c-9.17,-42.44 139.16,-55.06 94.69,29.24 -43.17,81.82 -156.26,-48.41 -53.88,-67.35 76.47,-14.14 80.36,89.27 30.38,93.31"/>
   <path class="fil0 str1" d="M178.7 116.41c-26.64,38.41 -66.34,65.54 -106.23,82.43"/>
   <path class="fil0 str1" d="M317.36 295.41c-35,39.17 -69.35,57.56 -108.08,88.44"/>
   <path class="fil0 str0" d="M585.79 775.44c-4.63,-0.4 -9.29,-1.8 -13.07,-4.74 -22.91,-17.84 -12.75,-59.05 -3.66,-80.96 27.46,-66.2 -4.43,-134.42 -73.05,-130.25 -58.05,-6.88 -92.12,74.18 -39.16,112.87 27.38,20 65.98,-3.63 76.81,15.81 18.61,6.15 -8.29,48.37 -21.56,-38.37 -13.34,-87.21 -79.62,-38.94 -41.23,-8.68 11.12,8.77 56.55,3.65 62.02,-26.1"/>
   <path class="fil0 str0" d="M580.83 724.89c11.45,74.13 112.38,12.07 136.71,105.53 0.79,3.04 2.48,22.58 1.48,23.93"/>
  </g>
 </g>
</svg>
