<?xml version="1.0" encoding="UTF-8"?>
<!DOCTYPE svg PUBLIC "-//W3C//DTD SVG 1.1//EN" "http://www.w3.org/Graphics/SVG/1.1/DTD/svg11.dtd">
<!-- Creator: CorelDRAW Home & Student 2018 (Nie do użytku komercyjnego) -->
<svg xmlns="http://www.w3.org/2000/svg" xml:space="preserve" width="32.3889mm" height="120.493mm" version="1.1" style="shape-rendering:geometricPrecision; text-rendering:geometricPrecision; image-rendering:optimizeQuality; fill-rule:evenodd; clip-rule:evenodd"
viewBox="0 0 419.72 1561.45"
 xmlns:xlink="http://www.w3.org/1999/xlink">
 <defs>
  <style type="text/css">
   <![CDATA[
    .str0 {stroke:#383A52;stroke-width:3.89;stroke-linecap:round;stroke-linejoin:round;stroke-miterlimit:22.9256}
    .fil0 {fill:none}
   ]]>
  </style>
 </defs>
 <g id="Warstwa_x0020_1">
  <metadata id="CorelCorpID_0Corel-Layer"/>
  <g id="_1257803592">
   <path class="fil0 str0" d="M4.28 1.94c0,93.96 -22.17,130.06 69.65,167.94 2.61,1.07 65.61,-6.76 120.94,9.18 77.01,22.18 120.89,116.43 126.01,191.75 3.8,55.79 -8.89,147.9 -4.67,175.98 -7.63,-16.54 -33.84,-137.55 -64.21,-138.36 -23.01,-0.61 27.48,91.69 32.01,100.74 56.03,112.06 40.97,174.97 73.41,288.54 6.27,21.94 27.38,232.87 31.85,333.82 1.86,41.94 4.26,49.79 8.92,87.56 7.96,64.59 5.27,195.56 1.33,227.56 -9.15,74.34 -36.74,82.94 -42.69,112.15 -1.24,6.1 -13.38,-24.18 20.4,-83.51 1.75,-3.07 6.01,-67.74 2.27,-73.57"/>
   <path class="fil0 str0" d="M346.3 1535.89c-40.06,-52.85 35.01,-124.01 -16.23,-185.86 -1.18,2.87 -23.06,5.62 -20.22,71.9 0.48,11.37 -12.96,25.92 -22.46,29.21 -26.05,9.02 6.61,-40.97 -4.69,-96.42 -13.63,-66.89 38.76,-63.74 26.96,-159.72 -18.73,-152.27 -99.34,-235.58 -91.93,-408.92 0.29,-6.7 -6.18,-51.41 -2.25,-56.17"/>
   <path class="fil0 str0" d="M251.9 992.74c12.49,14.89 66.29,66.8 73.48,168.56 2.48,35.13 184.26,5.65 31.65,54.5 -135.75,43.46 -47.85,31.6 35.56,60.47 0.1,0.47 -18.89,14.06 -30.34,27.82 -16.2,19.48 -2.99,63.48 8.04,59.44 19.12,-7 -20.49,-87.19 -53.73,-70.44 -32.35,16.3 8.88,46.08 16.41,60.64"/>
   <path class="fil0 str0" d="M219.98 1248.92c-16.07,-9.73 -63.14,-201.35 -72.67,-231.03 -48.09,-149.89 11.81,-183.04 9.76,-310.25 -0.41,-25.53 0.99,-51.33 3.29,-76.98 28.47,-316.5 -43.4,-301.51 2.06,-50.96 1.96,10.76 3.79,22.21 5.82,33.87 9.08,52.06 22.25,108.13 69.71,123.65 36.5,11.93 71.04,47.65 88.77,83.44 11.39,22.98 20.18,271.85 22.43,289.47 -20.75,-56.63 -120.45,-247.5 -106.72,-280.81 41.19,-99.89 91.69,-58.52 47.2,-187.05 -43.09,-14.91 -76.33,18.14 -76.39,17.98"/>
   <path class="fil0 str0" d="M213.24 660.26c2.38,2.19 16.92,27.55 16.83,24.56 -0.36,-12.41 60.31,-28.86 57.2,19.3 -2.14,33.27 -60.37,20.92 -46.72,-9.6 0.57,-1.26 1.89,-2.04 3,-2.81"/>
   <path class="fil0 str0" d="M322.38 608.59c-53.29,-12.54 -108.8,-16.72 -149.65,28.66"/>
   <path class="fil0 str0" d="M295.57 877.64c15.6,71.19 48.11,196.76 53.57,232.5"/>
  </g>
 </g>
</svg>
