<?xml version="1.0" encoding="UTF-8"?>
<!DOCTYPE svg PUBLIC "-//W3C//DTD SVG 1.1//EN" "http://www.w3.org/Graphics/SVG/1.1/DTD/svg11.dtd">
<!-- Creator: CorelDRAW Home & Student 2018 (Nie do użytku komercyjnego) -->
<svg xmlns="http://www.w3.org/2000/svg" xml:space="preserve" width="66.8856mm" height="49.9921mm" version="1.1" style="shape-rendering:geometricPrecision; text-rendering:geometricPrecision; image-rendering:optimizeQuality; fill-rule:evenodd; clip-rule:evenodd"
viewBox="0 0 38438.33 28729.84"
 xmlns:xlink="http://www.w3.org/1999/xlink">
 <defs>
  <style type="text/css">
   <![CDATA[
    .str0 {stroke:#383A52;stroke-width:172.41;stroke-miterlimit:22.9256}
    .fil0 {fill:none}
   ]]>
  </style>
 </defs>
 <g id="Warstwa_x0020_1">
  <metadata id="CorelCorpID_0Corel-Layer"/>
  <g id="_1145299728">
   <path class="fil0 str0" d="M10014.34 3906.9c-504.06,-354.29 -1322.41,-2212.61 -3216.99,-2302.26 -1627.17,-76.89 -3181.13,533.37 -3682.25,1835.44 -21.26,4.43 60.86,3618.64 610.26,4797.44 1306.27,1398.9 3439.33,1315.98 5032.77,239.36 1227.48,-829.39 978.58,-1513.21 2492.36,-2078.47 1692.57,-632.04 2125.6,-349.58 4520.44,-581.64 687.73,-66.66 764.45,269.24 539.17,-1318.28 -280.62,-1977.9 229.42,-1469.13 -2572.36,-1211.27 -629.46,57.93 -228.84,875.25 -109.42,2432.83"/>
   <path class="fil0 str0" d="M3631.05 5088c2126.52,-502.97 4168.38,-1043.98 6259.1,-200.74 889.5,358.83 4996.39,504.46 6224.9,429.81 683.07,-41.49 1465.91,2831.6 3860.41,6440.52"/>
   <path class="fil0 str0" d="M16127.52 6240.82c989.9,1051.79 1179.72,1580.1 2407.19,3859.89 266.2,494.4 1068.23,1912.27 1056.28,1896.93"/>
   <path class="fil0 str0" d="M16798.18 5275.52c568.71,-333.55 669.22,125.28 669.22,125.28 610.03,1152.77 2522.88,4406.82 3637.31,6043.36"/>
   <path class="fil0 str0" d="M23420.99 14347.25c-2415.53,1057.6 -3989.94,1525.68 -4424,1140.01 0,-1744.29 2695.69,-1898.88 4068.62,-2446.04 2827.69,-1127.02 -833.64,154.19 -846.11,155.22 -761.29,-1569.41 1382.99,-375.33 -574.06,-43.39 -1532.52,259.99 -2096.23,163.5 -2351.45,-131.83 0,-1706.59 4113.67,-1518.67 5256.9,-1518.67 674.05,-366.48 2649.25,-217.46 3265.89,277.06 679.8,545.21 604.74,-522.28 954.56,599.11 316.14,1013.46 -597.22,2920.51 -2000.89,2978.89 -2430.76,101.15 2417.6,-26.38 -652.5,1036.33 -309.93,107.24 -1478.84,970.88 75.05,360.44 900.88,-353.84 2982.23,-671.52 732.67,233.67 -1800.73,724.57 496.99,219.88 385.5,627.44 -264.41,966.16 616.52,232.86 569,837.78 -4.14,52.53 1879,940.13 1401.84,1051.33"/>
   <path class="fil0 str0" d="M28771.34 12378.72c777.72,620.32 1113.34,2272.95 1752.34,3212.5 293.67,431.88 1617.23,2868.5 1445.17,3232.5 -946.51,2002.79 47.41,550.03 243.61,-789.28 549.17,454.18 -232.23,2234.67 452.28,954.5 256.66,-479.86 197.58,911.97 710.95,185.28 -274.99,2108.01 -248.27,881.05 -637.5,2827 -51.55,257.75 -190.51,1313.97 -428.83,289.47"/>
   <path class="fil0 str0" d="M22915.44 17168.28c1238.51,3324.34 -1467.92,7858.8 2399.78,10762.35 826.4,620.38 1214.43,949.56 2018.25,514.86 1079.44,-583.65 4858.7,-3149.81 5238.62,-3960.12 116.03,-247.46 -204.19,-415.1 -656.64,-376.42 -804.97,68.73 -6484.26,4000.86 -4263.9,2950.5 872.61,-412.74 -3226.3,-251.2 -3044.24,-124.08 2376.45,1659.7 1581.54,-162.41 2910.05,-863.18"/>
   <path class="fil0 str0" d="M24375.61 16525.83c770.83,2600.69 5945.83,1535.05 7870.23,6717.01 0.69,1.78 103.39,593.71 15.06,292.06"/>
   <path class="fil0 str0" d="M38367.82 23948.56c-263.15,-374.18 -4695.2,-5248.68 -4695.2,-4097.98 0,506.36 -403.03,2746.78 -972.72,2607.24"/>
   <path class="fil0 str0" d="M4985.47 9410.22c-1200.18,937.66 -1815.84,1644.35 -2132.38,2142.67 -908.93,1430.91 1202.36,5615.79 6177.66,1620.33 451.99,-363.03 1326.61,-2025.54 1326.61,-2006.06 0,3978.91 -1433.04,7016.3 -6288.18,6288.12 -51.84,468.08 3286.06,-92.81 1849.06,1406.89 -179.02,186.83 17.47,1078.98 -238.61,2059.34"/>
   <path class="fil0 str0" d="M2004.86 13722.16c-376.59,1203.74 -1779.41,7798.63 -1752.28,9193.62 49.54,2547.88 -841.97,2348.92 1056.39,5535.45"/>
   <path class="fil0 str0" d="M9038.63 16070.68c135.05,550.03 111.26,2379.84 -11.95,2983.09 -242.98,1189.32 -1923.19,1948.82 -2841.49,2675.63 -13.16,10.46 -77.76,54.02 -59.14,45.8"/>
   <path class="fil0 str0" d="M8348.37 3782.42c-2476.44,1479.25 467.68,3359.57 713.88,1359.88 118.21,-960.3 -561.93,-1450.63 -713.88,-1359.88z"/>
   <path class="fil0 str0" d="M23496.22 17726.07c418.95,2491.85 931.86,3701.16 505.73,6424.09 -346.88,2216.4 2234.85,2572.88 2137.03,822.26 -34.48,-619.74 -1819.92,-5212.3 -2327.37,-6514.6 -168.61,-432.91 -333.38,-838.99 -315.39,-731.75z"/>
   <path class="fil0 str0" d="M30106.05 22658.04c-1589.59,1552.17 1052.94,3398.99 1079.21,683.76 5.17,-533.43 -654.8,-1098.17 -1079.21,-683.76z"/>
   <path class="fil0 str0" d="M3482.26 3772.31c295.33,31.55 827.55,-407.45 1667.69,-307.86 1490.45,176.72 2169.56,267.4 2455.87,-1301.27 101.2,-554.57 -4298.03,-373.37 -4159.93,1579.64 0.8,11.26 30.98,28.96 36.38,29.48z"/>
   <path class="fil0 str0" d="M7582.03 1426.78c0,-1847.79 1789.75,-1781.88 1501.89,162.35"/>
   <path class="fil0 str0" d="M9855.2 2238.58c1908.31,997.43 522.1,-3273.59 -476.7,-693.48 -111.43,287.8 -10.4,967.89 -10.4,1221.21"/>
   <path class="fil0 str0" d="M9976.98 3415.83c334.3,896.86 2305.59,811.23 1552.98,-1014.84 -249.59,-605.61 449.64,-195.8 608.82,-354.87 763.82,-763.59 2716.72,1861.18 273.78,1657.34 -290.39,-24.25 -324.76,-552.16 -324.76,-734.22"/>
   <path class="fil0 str0" d="M11357.15 7596.85c1691.48,0 1840.32,-2265.25 -165.91,-947.6 -1143.57,751.12 -584.34,3246.64 571.81,2814.88"/>
   <path class="fil0 str0" d="M9936.41 7840.41c0,1227.99 67.53,1478.27 1011.28,2161.86 0,174.48 -524.63,1025.7 -590.32,1164.89"/>
   <path class="fil0 str0" d="M5187.07 9951.23c-83.79,-285.68 -33.96,237.81 -379.29,933.58 -78.79,158.9 703.99,1958.65 703.99,2922.69"/>
   <path class="fil0 str0" d="M4456.36 12264.98c-187.29,685.49 -624.46,1231.27 -690.03,1420.74"/>
   <path class="fil0 str0" d="M9733.37 10681.89c-1227.59,453.31 -4.25,1437.75 -2006.41,1106.39 -696.87,-115.28 -2564.89,270.62 -783.99,568.37 2022.44,338.15 967.83,781.98 801.4,1166.73"/>
   <path class="fil0 str0" d="M25828.36 13452.29c-383.14,1215.52 -2774.94,1254.83 -3227.1,2466.04 -354.47,949.67 2618.91,-446.53 2912.57,-608.88"/>
   <path class="fil0 str0" d="M21708.25 15593.63c-1014.5,149.25 -2296.11,2525.92 243.55,1694.41 273.95,-89.71 753.19,-525.78 852.49,-517.28"/>
   <path class="fil0 str0" d="M24939.38 14082.72c-61.89,-485.5 526.87,-635.03 838.58,-1385.11 117.24,-282.23 228.38,-488.31 436.07,-716.75"/>
   <path class="fil0 str0" d="M25889.34 19287.5c299.24,874.79 405.9,1996.81 405.9,2922.75"/>
   <path class="fil0 str0" d="M27147.67 19084.57c199.42,634.74 611.47,581.3 984.67,1664.3 193.78,562.39 760.83,1095.93 760.83,1664.3"/>
  </g>
 </g>
</svg>
