<?xml version="1.0" encoding="UTF-8"?>
<!DOCTYPE svg PUBLIC "-//W3C//DTD SVG 1.1//EN" "http://www.w3.org/Graphics/SVG/1.1/DTD/svg11.dtd">
<!-- Creator: CorelDRAW Home & Student 2018 (Nie do użytku komercyjnego) -->
<svg xmlns="http://www.w3.org/2000/svg" xml:space="preserve" width="44.9883mm" height="69.8586mm" version="1.1" style="shape-rendering:geometricPrecision; text-rendering:geometricPrecision; image-rendering:optimizeQuality; fill-rule:evenodd; clip-rule:evenodd"
viewBox="0 0 16053.39 24927.98"
 xmlns:xlink="http://www.w3.org/1999/xlink">
 <defs>
  <style type="text/css">
   <![CDATA[
    .str0 {stroke:#383A52;stroke-width:107.05;stroke-linecap:round;stroke-linejoin:round;stroke-miterlimit:22.9256}
    .fil0 {fill:none}
   ]]>
  </style>
 </defs>
 <g id="Warstwa_x0020_1">
  <metadata id="CorelCorpID_0Corel-Layer"/>
  <g id="_1148394224">
   <path class="fil0 str0" d="M699.25 24874.45c267.45,-696.79 217.17,-2239.71 32.86,-2956.38 -285.68,-1110.9 -862.36,-1737.64 -621.25,-2920.73 98.91,-485.51 38.65,-2208.91 251.46,-2507.69 120.25,-168.89 39.11,-2031.89 599.73,-2200.85 330.21,-99.59 856.26,-879.06 1116.86,-878.46"/>
   <path class="fil0 str0" d="M4016.92 24151.75c89.39,-286.57 56.99,-1517.69 385.81,-1979.29 270.02,-379.17 477.48,-1294.88 1169.35,-1951.28 284.54,-269.91 426.88,-2813.14 185.84,-2803.33 -1001.74,40.75 -0.36,1326.11 131.42,-1218.2 35.36,-683.62 166.93,-1756.27 -701.64,-912.36 -213.28,207.21 -350.09,452.22 -431.45,762.98 -153.97,588.63 -141.16,1314.69 196.87,1055.48 248.14,-190.19 -381.88,-519.3 -572.01,413.46 -21.09,103.62 -402.97,600.2 -569.62,1253.85 -68.23,267.63 -534.47,-184.59 -747.14,-8.42"/>
   <path class="fil0 str0" d="M1783.25 15184.1c615.68,-120.97 523.62,666.64 499.25,1219.41 -7.46,170.21 93.56,904.11 75.29,878.31 -143.98,-255.92 -789.5,-604.55 56.77,398.62 200.22,237.33 584.07,836.39 584.07,1149.9"/>
   <path class="fil0 str0" d="M3228.61 23067.76c0,-309.59 -127.68,-996.03 -328.5,-1182.55"/>
   <path class="fil0 str0" d="M2078.92 13410.35c352.7,-277.55 2519.32,-974.73 2496.45,-394.2 -42.89,1088.67 -1296.13,1051.41 -1289.49,1042.71 40.61,-53.56 -51.31,-673.45 -24.44,8.42 7.99,203.15 -706.07,1254.56 -1030.93,1402.57"/>
   <path class="fil0 str0" d="M2339.02 16152.48c983.97,-1035.32 1139.87,-806.8 2322.17,221.49"/>
   <path class="fil0 str0" d="M2799.08 18171.13c257.28,-913.96 1145.51,-1092.66 506.46,-1750.02 -28.37,-29.19 -294.6,583.71 612.9,898.22 25.66,8.85 226.23,136.81 229.91,197.08"/>
   <path class="fil0 str0" d="M5855.27 18823.96c590.2,465.24 343.28,1712.74 321.29,1692.86 -162.97,-146.91 -643.02,-460.5 -440.23,10.35 80.89,187.73 -108.62,234.58 -241.22,11.24"/>
   <path class="fil0 str0" d="M2366.28 15377.19l-583.03 -4693.27c646.51,540.43 3366.99,483.9 4011.86,-126.43 50.42,-47.74 112.9,-128.03 62.87,-154.87 -924.74,-496.54 -1398.04,-1413.46 -1493.18,-2575.06"/>
   <path class="fil0 str0" d="M5913.97 10510.14c14.92,302.77 -123.04,3807.21 -118.36,4413.05"/>
   <path class="fil0 str0" d="M3119.31 7604.33c-100.09,1095.59 -570.15,2117.1 -1336.06,3079.59"/>
   <g>
    <path class="fil0 str0" d="M9509.68 6229.76c-554.91,-349.7 -878.92,-459.78 -1208.39,-278.55 -1240.14,682.05 -2743.7,252.6 -3417.8,359.8 -650.15,103.34 -2123.06,35.47 -2213.66,818.79 -30.76,266.02 1732.36,739 1766.33,47.49 55.2,-1123.14 -1774.82,-110.51 -1789.21,110.73 -28.94,446.08 2227.18,584.99 2236.53,582.89 1132.49,-254.24 1527.54,-53.42 2586.55,11.28 779.36,47.49 1484.4,342.85 2176.91,696.97 489.58,-168 1055.95,-409.61 1256.99,-990.47 426.63,98.45 -551.24,868.68 -642.77,930.27 -871.64,587.03 9.1,686.62 692.72,493.04 1098.8,-311.27 -466.24,639.84 418.28,391.06 255.28,-71.76 625.32,842.56 1722.91,27.16"/>
    <path class="fil0 str0" d="M2602.22 7182.94c-578.57,-100.95 -686.44,-431.63 1107.15,-1274.54 1159.96,-545.14 1873.56,-994.32 2482.68,-1100.37 863.72,-150.41 1511.2,-164.64 3364.31,-309.3 737.9,-57.56 1114.54,-52.88 1938.9,538.96 1885.59,1353.47 2092.91,1795.59 4504.61,3005.9"/>
    <path class="fil0 str0" d="M13037.39 10338.15c-44.43,-9.92 -590.06,79.25 -637.41,67.91 -993.14,-238.22 -2609.71,-800.31 -2822.03,-1311.33 -221.99,-534.4 544.03,802.2 -755.56,238.29 -404.54,-175.49 -893.59,56.02 -717.27,-810.01 546.17,582.75 298.64,497.68 -412.07,1069.54 -185.41,149.23 -612.61,1045.2 -1047.02,1330.42 -1156.79,759.49 68.01,-1743.92 172.67,-2123.88"/>
    <path class="fil0 str0" d="M8100.22 8121.27c-783.43,116.08 -1081.03,347.66 -1292.88,494.39 -213.03,147.66 -396.34,329.79 -1039.82,876.03 -602.55,511.59 -1432.58,176.17 -435.45,-933.84 113.15,-125.96 526.87,-733.8 907.97,-796.88"/>
    <path class="fil0 str0" d="M4126.72 7800.3c-808.3,662.46 -165.07,1512.84 808.37,648.65 195.4,-173.39 473.84,-210.57 728.44,-285.79"/>
    <path class="fil0 str0" d="M2622.31 5345.85c545.74,185.7 1306.34,-51.35 1780.18,-626.53 309.88,-376.21 349.73,-861.11 359.19,-1340.7"/>
    <path class="fil0 str0" d="M2712.59 3937.53c943.36,91.24 1866.67,-462.6 1975.87,-806.87 46.42,-146.62 -192.01,-335.21 -267.7,-342.81"/>
    <path class="fil0 str0" d="M3151.28 3544.73c-479.94,-170.42 -919.6,-773.87 -277.26,-1162.35 344.24,-208.18 859.26,-361.79 1012.34,-182.27 44.25,123.89 62.05,270.62 -119.72,573.58 301.6,-188.52 922.95,-1226.8 1245.42,-1201.32 -1.43,-6.03 -682.41,-756.88 -788.43,-1316.76 -100.77,-532 -55.95,105.55 -137.06,457.07 -460.89,159.58 -1471.48,-263.49 -1471.48,1541.35"/>
    <path class="fil0 str0" d="M2712.59 3937.53c0,561.27 -171.85,1094.63 -394.12,1609.5"/>
   </g>
   <path class="fil0 str0" d="M6150.94 6365.61c1166.21,-682.77 393.59,-1100.51 336.99,-694.26 -23.98,172.67 73.15,576.29 206.71,699.32"/>
  </g>
 </g>
</svg>
