<?xml version="1.0" encoding="UTF-8"?>
<!DOCTYPE svg PUBLIC "-//W3C//DTD SVG 1.1//EN" "http://www.w3.org/Graphics/SVG/1.1/DTD/svg11.dtd">
<!-- Creator: CorelDRAW Home & Student 2018 (Nie do użytku komercyjnego) -->
<svg xmlns="http://www.w3.org/2000/svg" xml:space="preserve" width="38.3217mm" height="60.7881mm" version="1.1" style="shape-rendering:geometricPrecision; text-rendering:geometricPrecision; image-rendering:optimizeQuality; fill-rule:evenodd; clip-rule:evenodd"
viewBox="0 0 1050.54 1666.43"
 xmlns:xlink="http://www.w3.org/1999/xlink">
 <defs>
  <style type="text/css">
   <![CDATA[
    .str1 {stroke:#383A52;stroke-width:8.22;stroke-miterlimit:22.9256}
    .str0 {stroke:#383A52;stroke-width:8.22;stroke-linecap:round;stroke-linejoin:round;stroke-miterlimit:22.9256}
    .fil0 {fill:none}
   ]]>
  </style>
 </defs>
 <g id="Warstwa_x0020_1">
  <metadata id="CorelCorpID_0Corel-Layer"/>
  <path class="fil0 str0" d="M476.12 116.65c-17.1,31.08 -36.47,65.68 -47.01,82.22 -14.5,-4.67 -119,-57.33 -114.46,-67.2 23.21,-50.49 56.26,-126.08 116.58,-108.52 24.45,7.1 50.69,24.81 72.19,49.22 19.34,21.98 41.58,63.6 49.29,92.65 -21.79,7.89 -29.27,9.89 -44.09,17.33 23.55,12.22 127.32,2.95 127.6,2.86 34.23,-34.64 63.38,-102.54 80.58,-127.59 13.17,-19.2 -26.32,22.3 -60.62,38.9 -33.81,-94.31 -87.04,-94.85 -149.37,-91.45m64.34 310.56c-5.06,4.52 -78.04,121.4 -76.5,121.88 18.03,5.55 63.73,101.06 76.65,117.61 5.86,-37.07 -4.76,-59.28 15.7,-54.35 89.36,5.32 123.72,-44.04 165.13,-119.9m-103.49 -55.9c-10.44,-25.98 -33.72,-61.02 -36.78,-70.18 19.19,-7.52 90.1,-50.19 106.32,-50.8 82.76,110.28 -14.73,192.26 -129.4,177.62m-222.65 -10.05c16.88,-1.1 87.39,2.96 91.85,0.98 2.58,24.1 -3.66,111.84 -4.17,128 -5.04,-0.01 -57.92,-2.76 -69.04,-1.47m-169.69 -300.15c6.11,-1.74 138.04,-4.21 139.54,0 4.63,13.04 61.15,111.39 59.73,114.82 -0.12,0.3 -42.92,-32.06 -48.21,-24.57 -33.97,47.95 -77.89,111.42 -56.73,174.84 6.66,19.95 61.7,62.61 12.59,13.48 -26.41,-26.42 -46.27,-46.75 -66.37,-70.49 -36.08,-42.6 -51.69,-73.37 -30.33,-111.71 6.91,-12.41 30.27,-54.88 42.66,-64.25"/>
  <g id="_1270302424">
   <path class="fil0 str1" d="M480.01 1666.43c0,-103.59 17.45,-740.17 -1.37,-821.73 -12.77,-55.36 0.19,-133.72 62.15,-158.17 39.51,-15.59 171.2,-101.92 203.28,-83.41 5.11,-2.11 -20.89,-15.77 10.92,-37.72 10.46,-7.22 36.53,-45.85 51.86,-51.23"/>
   <path class="fil0 str1" d="M732.99 1590.72c14.05,-26.64 -57.7,-512.09 -60.94,-526.43 -11.43,-50.59 -31.04,-151.55 -4.16,-187.74 33,-44.42 166.56,-134.42 174.21,-147.72 7.41,-12.88 8.58,-36.67 12.58,-51.95 23.06,-88.15 35.78,-161.94 33.41,-236.43 -0.32,-10.05 21.7,-92.75 -7.86,-61.88 -10.99,5.01 -27.22,7.37 -30.93,45.89 -3.96,41.1 -34.02,97.4 -20.02,127.85 12.82,27.89 9.49,-3.43 -10.71,7.7 -17.54,9.67 -27.69,66.87 -20.8,85.56"/>
   <path class="fil0 str1" d="M899.19 551.09c5.03,-63.77 27.57,-127.26 25.85,-191.41 -0.35,-13.29 24.71,-138.97 12.45,-122.51 -26.55,35.67 -51.2,16.08 -61.85,125.57"/>
   <path class="fil0 str1" d="M891.8 599.1c31.43,-82.79 58.57,-139.66 112.31,-210.28 5.4,-7.08 41.84,-62.21 42.35,-67.19 0.36,-0.18 -48.1,-6.98 -88.83,40.93 -2.13,2.51 -17.14,28.01 -26.71,39.63"/>
   <path class="fil0 str1" d="M808.01 638.34c-10.16,-17.67 -69.32,14.15 -61.93,48.6 -9.48,-8.42 -126.41,41.58 -151.58,43.1 -27.04,1.64 -109.3,52.04 -72.02,74.5 0.76,0.46 5.49,55.33 5.54,56.77"/>
   <path class="fil0 str1" d="M731.15 634.19c-12,19.14 -19.99,27.57 -36.93,44.32"/>
  </g>
  <g id="_1270318648">
   <path class="fil0 str1" d="M443.68 929.65c-9.88,-51.5 -114.68,-71.29 -175.06,-116.57 -13.89,-10.41 -108.28,-84.82 -119.28,-75.31 18.95,-39.02 -11.8,-55.82 20.1,-145.41 8.45,-23.73 1.03,-126.23 -29.31,-22.22 -2.84,9.76 -44.34,118.5 -49.23,126.22 -5.76,9.09 -8.56,20.8 9.38,52.8 0.23,0.41 59.07,129.51 23.73,95.15 -2.14,-2.08 -1.76,-23.09 -2.6,-28.99"/>
   <path class="fil0 str1" d="M159.85 513.19c1.39,-36.2 24.73,-96.53 -28.18,-107.7 -0.6,-0.13 -27.6,111.14 -32.69,122.51 -6.75,15.06 -22.51,139.34 -20.48,153.57"/>
   <path class="fil0 str1" d="M77.18 558.16c18.34,-107.22 5.63,-96.19 7.37,-182.16 0.75,-37.17 34.44,7.79 34.92,8.22"/>
   <path class="fil0 str1" d="M70.35 533.11c-5.03,-35.18 -18.61,-93.56 -48.75,-98.03 -11.74,-14.7 -19.67,-16.07 -16.96,16.87 0.07,0.81 27.49,168.68 23.2,201.39 -0.94,7.2 10.81,51.11 33.48,81.47 60.09,80.5 15.54,109.47 58.12,133.06 29.13,16.13 162.66,95.79 176.12,128.2 39.71,95.58 2.03,12.98 52.96,41.1 14.1,7.79 -36.95,-13.9 -28.15,47.67 10.52,73.57 -8.38,306.68 17.89,490.38"/>
   <path class="fil0 str1" d="M182.5 642.43c8.07,15.82 57.85,66.34 33.41,79.33 -0.35,0.18 -50.65,40.58 -9.53,12.71 35.95,-24.37 100.75,53.93 152.07,68.7 43.76,12.59 62.85,22.36 80.01,63.82"/>
  </g>
 </g>
</svg>
