<?xml version="1.0" encoding="UTF-8"?>
<!DOCTYPE svg PUBLIC "-//W3C//DTD SVG 1.1//EN" "http://www.w3.org/Graphics/SVG/1.1/DTD/svg11.dtd">
<!-- Creator: CorelDRAW Home & Student 2018 (Nie do użytku komercyjnego) -->
<svg xmlns="http://www.w3.org/2000/svg" xml:space="preserve" width="26.9437mm" height="29.7805mm" version="1.1" style="shape-rendering:geometricPrecision; text-rendering:geometricPrecision; image-rendering:optimizeQuality; fill-rule:evenodd; clip-rule:evenodd"
viewBox="0 0 298.38 329.79"
 xmlns:xlink="http://www.w3.org/1999/xlink">
 <defs>
  <style type="text/css">
   <![CDATA[
    .str0 {stroke:#383A52;stroke-width:3.32;stroke-linecap:round;stroke-linejoin:round;stroke-miterlimit:22.9256}
    .fil0 {fill:none}
   ]]>
  </style>
 </defs>
 <g id="Warstwa_x0020_1">
  <metadata id="CorelCorpID_0Corel-Layer"/>
  <g id="_688228344">
   <path class="fil0 str0" d="M66.85 328.13c2.93,-33.17 50.69,-40.22 12.1,-34.39 -1.91,0.29 -43.8,-7.42 1.48,-7.42 43.9,0 45.69,-12.38 84.63,-39.61 14.13,-9.89 12.48,-18.73 28.27,-26.76 27.27,-13.87 16.63,-55.21 4.89,-48.57 -13.51,7.64 4.46,53.69 35.15,20.1 9.89,-10.83 22.9,-23.16 46.94,-32.79 18.15,-7.27 11.12,-31.32 -34.11,-29.71 -24.09,0.86 -22.97,8.72 -45.85,14.4 -25.27,6.28 -35.57,15.46 -44.1,15.94 -9.78,0.55 -20.5,-17.45 -23.97,-14.11 -1.52,1.46 -11.3,41.3 16.28,24.12 8.7,-5.42 23.86,-12.05 -11.29,-30.84 -20.16,-10.78 -1.1,9.52 4.12,-1.01 1.34,-2.7 -10.63,-11.07 -2.11,-30.53 10.19,-23.25 -6.04,-21.92 -5.61,-28.04 0.17,-2.36 8.59,5.29 13.59,4.48 3.46,-4.23 27.48,-21.02 35.92,-29.16 21.41,-20.65 -23.71,-58.74 -9.58,-28.06 4.28,9.3 12,21.4 23.33,19.78 9.18,-1.31 45.46,-1.96 46.99,-10.55 1.34,-7.54 -1.21,-12.85 -1.44,-17.58 -0.38,-7.86 4.68,-6.88 5.38,-0.71 0.8,7.02 -4.04,18.49 -3.27,19.78 3.54,6 34.84,6.53 41.33,1.38 7.47,-5.94 17.77,-20.88 4.09,-25.93 -11.51,-4.25 -16.86,3.48 -41.47,-8 -15.25,-7.12 -33.96,2.1 -50.33,1.93 -44.5,-0.47 -19.52,-1.38 -53.99,18.43 -6.69,3.85 -28.08,19.84 -33.1,25.06 -9.71,10.07 -28.01,-4.17 -44.84,39.26 -6.06,15.64 -12.47,13.43 -18.75,25.81 -6.65,13.11 -6.57,21.5 -11.83,36.02 -5.04,13.93 -8.44,24.09 -14.74,37.87 -2.07,4.53 -5.27,15.9 -8.58,20.91 -1.21,1.85 -8.51,17.02 -10.73,20.83"/>
   <path class="fil0 str0" d="M246.3 92.2c-5.98,-8.08 -15.31,-24.34 -25.95,-32.66 -12.04,-9.41 -35.18,-4.14 -37.16,-5.3"/>
   <path class="fil0 str0" d="M228.33 119.89c-39.69,-24.25 -4.08,-58.55 -17.89,-24.4 -11.51,28.46 -15.01,-39.06 -7.7,-18.52 1.83,5.14 -0.65,17.82 -4.12,22.01 -10.56,0 -22.77,4.65 -33.01,1.1 -0,-0 -19.1,-19.92 -13.71,-12.38 5.17,7.23 17.96,10.13 8.76,25.4 -6.24,10.34 -6.02,10.78 -0.48,24.39 8.72,21.43 16.78,3.3 18.09,-10.04 0.73,-7.49 10.07,-0.89 5.02,-10.47 -4.89,-9.28 -16.9,0.88 -13.48,-2.87 1.27,-1.38 11.19,-4.71 14.23,1.35 5.31,10.6 16.57,20.16 28.88,18.18"/>
   <path class="fil0 str0" d="M263.31 166.87c-6.74,-1.26 -16.38,-0.17 -11.6,-14.24 4.07,-12 16.89,-20.67 29.05,-17.43"/>
   <path class="fil0 str0" d="M250.63 40.14c-1.15,7.02 1.63,99.45 1.63,85.25"/>
   <path class="fil0 str0" d="M294.44 38.61c0.04,4.25 0.12,95.97 0.01,102.55 -0.94,-1.91 -6.42,1.96 -7.68,-0.45"/>
  </g>
 </g>
</svg>
