<?xml version="1.0" encoding="UTF-8"?>
<!DOCTYPE svg PUBLIC "-//W3C//DTD SVG 1.1//EN" "http://www.w3.org/Graphics/SVG/1.1/DTD/svg11.dtd">
<!-- Creator: CorelDRAW Home & Student 2018 (Nie do użytku komercyjnego) -->
<svg xmlns="http://www.w3.org/2000/svg" xml:space="preserve" width="29.7532mm" height="26.4181mm" version="1.1" style="shape-rendering:geometricPrecision; text-rendering:geometricPrecision; image-rendering:optimizeQuality; fill-rule:evenodd; clip-rule:evenodd"
viewBox="0 0 491.49 436.4"
 xmlns:xlink="http://www.w3.org/1999/xlink">
 <defs>
  <style type="text/css">
   <![CDATA[
    .str0 {stroke:#383A52;stroke-width:4.96;stroke-miterlimit:22.9256}
    .str1 {stroke:#383A52;stroke-width:4.96;stroke-linecap:round;stroke-linejoin:round;stroke-miterlimit:22.9256}
    .fil0 {fill:none}
   ]]>
  </style>
 </defs>
 <g id="Warstwa_x0020_1">
  <metadata id="CorelCorpID_0Corel-Layer"/>
  <g id="_1146215024">
   <g>
    <g>
     <path class="fil0 str0" d="M264.06 189.71c-19.67,-5.7 -36.01,-12.41 -38.7,-20.35 -2.83,-0.96 2.85,13.87 -17.91,11.43 -6.83,-0.8 -31.22,5.58 -39.38,2.29m216.82 19.31c14.82,-8.62 27.18,-22.51 34.64,-36.35 6.52,-12.1 32.67,-43.78 66.97,-83.22 22.92,-33.49 -112.91,-121.77 -90.95,-57.49 0.68,1.98 1.94,2.32 4.28,2.71"/>
     <path class="fil0 str0" d="M419.39 7.7c-13.43,24.64 -41.54,72.67 -65.39,77.77 -29.28,6.26 -115.7,-4.89 -123.57,-2.22 -7.61,2.58 -16.59,11.83 -23.67,16.61 -40.86,27.58 -72.4,53.02 -98.05,84.13 -3.46,4.2 -41.95,29.94 -18.92,27.95 6.26,1.89 13.69,6.73 28.96,-7.59 16.29,-15.28 48.62,-27.42 53.82,-44.8 4.76,-15.91 -5.08,-2 7.1,0.7 10.58,2.34 35.14,-17.28 39.02,-27.33"/>
     <path class="fil0 str0" d="M143.75 135.08c-24.83,24.11 -56.67,41.86 -78.89,68.54 -4.61,5.53 -59.69,47.64 -48.83,45.33 23.53,-5.01 26.55,11.76 69.99,-28.93"/>
     <path class="fil0 str0" d="M163.9 118.21c-42.35,22.41 -73.7,35.82 -120.76,45.32 -4.72,0.95 -39.23,10.33 -41.21,12.17 -0.21,-0.06 17.05,20.02 50.72,15.1 1.76,-0.26 16.97,-5.26 25.01,-6.56"/>
     <path class="fil0 str0" d="M211.97 132.2c-2.18,10.81 33.22,19.02 42.53,2.38 0.85,6.81 66.22,28.27 76.99,36.64 11.57,9 63,17.9 55.88,-4.54 -0.15,-0.46 17.54,-24.44 18.03,-25.05"/>
     <path class="fil0 str0" d="M241.72 161.35c11.72,-3.49 17.97,-4.06 30.84,-4.81"/>
    </g>
    <path class="fil0 str1" d="M319.49 203.16c-1.42,1.79 -37.08,-18.34 -53.69,-6.79 -15.69,10.9 -42.92,11.48 -62.2,13.78 -30.96,3.69 -18.68,27.44 8.46,21.99 39.94,-8.03 84.16,11.45 136.9,-5.42 5.49,-1.76 25.64,-15.78 25.8,-15.81"/>
    <path class="fil0 str1" d="M234.6 230.1c-7.21,2.94 -13.42,-7.69 -15.45,-12.55"/>
   </g>
   <path class="fil0 str1" d="M13.05 433.89l47.91 0c59.62,0 45.1,2.64 94.39,-43.5 15.49,-14.5 31.47,-26.1 49.36,-26.1 17.89,0 33.87,11.6 49.36,26.1 49.29,46.14 34.77,43.5 94.39,43.5l47.91 0"/>
   <path class="fil0 str1" d="M240.06 294.69c-15.42,-8.41 -51.45,-5.81 -65.56,3.2 -20.97,13.41 -11.1,41.95 11.39,35.51 6.98,-1.99 13.98,-8.83 23.61,-8 9.32,0.8 18.47,8.34 26.44,8.34 23.95,-0.01 22.22,-29.18 4.11,-39.06z"/>
  </g>
 </g>
</svg>
