<?xml version="1.0" encoding="UTF-8"?>
<!DOCTYPE svg PUBLIC "-//W3C//DTD SVG 1.1//EN" "http://www.w3.org/Graphics/SVG/1.1/DTD/svg11.dtd">
<!-- Creator: CorelDRAW Home & Student 2018 (Nie do użytku komercyjnego) -->
<svg xmlns="http://www.w3.org/2000/svg" xml:space="preserve" width="33.3393mm" height="32.7294mm" version="1.1" style="shape-rendering:geometricPrecision; text-rendering:geometricPrecision; image-rendering:optimizeQuality; fill-rule:evenodd; clip-rule:evenodd"
viewBox="0 0 4871.24 4782.12"
 xmlns:xlink="http://www.w3.org/1999/xlink">
 <defs>
  <style type="text/css">
   <![CDATA[
    .str0 {stroke:#383A52;stroke-width:43.83;stroke-miterlimit:22.9256}
    .str1 {stroke:#383A52;stroke-width:43.83;stroke-linecap:round;stroke-linejoin:round;stroke-miterlimit:22.9256}
    .fil0 {fill:none}
   ]]>
  </style>
 </defs>
 <g id="Warstwa_x0020_1">
  <metadata id="CorelCorpID_0Corel-Layer"/>
  <g id="_1259577744">
   <g>
    <g>
     <path class="fil0 str0" d="M2253.66 2902.67c195.16,56.52 357.21,123.11 383.89,201.91 28.05,9.58 -28.3,-137.61 177.73,-113.34 67.77,7.98 309.76,-55.33 390.66,-22.68m-2151.06 -191.57c-147.06,85.58 -269.6,223.32 -343.65,360.63 -64.73,120.03 -324.13,434.34 -664.4,825.63 -227.41,332.26 1120.17,1208.02 902.29,570.34 -6.72,-19.67 -19.26,-22.97 -42.49,-26.9"/>
     <path class="fil0 str0" d="M712.58 4708.38c133.25,-244.43 412.08,-720.94 648.67,-771.52 290.45,-62.1 1147.89,48.49 1225.9,22 75.54,-25.64 164.58,-117.39 234.84,-164.81 405.41,-273.61 718.25,-525.98 972.72,-834.61 34.35,-41.66 416.23,-297.01 187.65,-277.33 -62.05,-18.73 -135.84,-66.8 -287.33,75.33 -161.66,151.63 -482.39,272.03 -533.89,444.44 -47.18,157.89 50.42,19.8 -70.47,-6.93 -104.97,-23.22 -348.62,171.4 -387.15,271.17"/>
     <path class="fil0 str0" d="M3447.21 3444.71c246.31,-239.23 562.21,-415.28 782.69,-679.99 45.67,-54.84 592.2,-472.65 484.43,-449.71 -233.46,49.71 -263.39,-116.64 -694.41,286.96"/>
     <path class="fil0 str0" d="M3247.27 3612.05c420.16,-222.34 731.15,-355.4 1198.08,-449.61 46.84,-9.44 389.17,-102.5 408.85,-120.75 2.09,0.58 -169.14,-198.64 -503.15,-149.85 -17.5,2.57 -168.36,52.16 -248.13,65.11"/>
     <path class="fil0 str0" d="M2770.41 3473.25c21.65,-107.22 -329.61,-188.69 -421.94,-23.58 -8.39,-67.55 -656.94,-280.47 -763.81,-363.52 -114.84,-89.24 -625.08,-177.64 -554.39,45.05 1.46,4.56 -173.97,242.5 -178.88,248.48"/>
     <path class="fil0 str0" d="M2475.29 3184.05c-116.23,34.6 -178.31,40.25 -305.97,47.75"/>
    </g>
    <path class="fil0 str1" d="M1703.71 2769.27c14.07,-17.78 367.81,181.92 532.62,67.37 155.64,-108.14 425.85,-113.91 617.06,-136.69 307.17,-36.59 185.28,-272.25 -83.9,-218.14 -396.19,79.63 -834.92,-113.63 -1358.12,53.8 -54.43,17.4 -254.34,156.57 -255.93,156.82"/>
    <path class="fil0 str1" d="M2545.91 2501.99c71.48,-29.15 133.15,76.36 153.3,124.53"/>
   </g>
   <g>
    <path class="fil0 str1" d="M3684.29 1714.04c-200.6,-274.19 -507.75,265.38 -695.23,-451.32 -35.39,-135.34 -205.15,-169.77 -294.02,-72.4 -114.8,125.8 -182.42,398.56 34.48,695.9 85.49,117.17 231.4,204.96 463.11,221.78 230.53,16.72 673.97,-144.77 491.65,-393.96z"/>
    <path class="fil0 str1" d="M2857.59 1359.11c37.99,-325.9 205.72,-204.79 340.2,-19.4 236.47,325.97 684.79,-238.48 96.94,-465.83 -206.06,-79.67 -367.38,-281.98 -208.37,-470.89l13.68 -25.36"/>
    <path class="fil0 str1" d="M3129.24 229.42c343.9,-441.78 722.09,-42.01 722.09,-37.99 0.03,70.15 -402.71,378.82 -698.06,154.91 -251.27,-190.5 -238.91,93.93 11.02,-38.12 74.87,-39.54 197.35,-134.89 295.77,-70.05"/>
    <path class="fil0 str1" d="M2978.11 682.25c-150.09,-218.67 -370.74,-292.31 -601.35,-134.64 -114.83,78.52 -112.56,19.49 17.11,131.11 277.25,238.63 386.23,-60.78 573.35,13.37 9.45,-6.71 -153.04,-145.6 -343.45,-83.87"/>
   </g>
  </g>
 </g>
</svg>
