<?xml version="1.0" encoding="UTF-8"?>
<!DOCTYPE svg PUBLIC "-//W3C//DTD SVG 1.1//EN" "http://www.w3.org/Graphics/SVG/1.1/DTD/svg11.dtd">
<!-- Creator: CorelDRAW Home & Student 2018 (Nie do użytku komercyjnego) -->
<svg xmlns="http://www.w3.org/2000/svg" xml:space="preserve" width="37.1889mm" height="28.2658mm" version="1.1" style="shape-rendering:geometricPrecision; text-rendering:geometricPrecision; image-rendering:optimizeQuality; fill-rule:evenodd; clip-rule:evenodd"
viewBox="0 0 993.53 755.14"
 xmlns:xlink="http://www.w3.org/1999/xlink">
 <defs>
  <style type="text/css">
   <![CDATA[
    .str0 {stroke:#383A52;stroke-width:8.01;stroke-linecap:round;stroke-linejoin:round;stroke-miterlimit:22.9256}
    .fil0 {fill:none}
   ]]>
  </style>
 </defs>
 <g id="Warstwa_x0020_1">
  <metadata id="CorelCorpID_0Corel-Layer"/>
  <g id="_553216064">
   <path class="fil0 str0" d="M4.01 521.48c57.66,-16.81 140.18,-54.45 203.51,-80.73 17.66,-7.33 80.59,-24.56 73.31,-12.43 -51.9,86.43 91.25,347.25 145.01,321.22 21.1,-10.22 17.34,-27.61 -69.63,-64.63 -55.23,-23.51 -121.63,-82.48 -123.41,-148.44 -3.14,-116.63 41.74,-47.08 142.18,-138.29 66.04,-59.97 45.52,-59.73 74.21,-131.55 13.34,-33.39 22.22,-46.79 74.28,-71.62 14.34,-6.84 78,-38.12 96.05,-31.22 17.76,6.79 40.62,54.64 63.11,56.63m8.33 -21.13c-21.75,-5.95 -63.68,-6.18 -46.04,9.03 14.89,12.84 22.64,8.28 38.88,9.12m-6.43 20.34c-3.38,1.96 -7.33,4.11 -11.9,6.45 -72.04,36.99 -67.94,-60.33 -52.89,-11.64 5.52,17.86 -5.55,21.91 -6.43,24.53 -90.81,27.72 22.06,29.98 22.06,56.77"/>
   <path class="fil0 str0" d="M602.91 317.19c31.83,-15.03 71.19,-8.82 117.78,-6.99 4.65,0.18 38.75,-7.98 73.6,-27.3 75.97,-42.11 168.39,-61.88 114.83,-6.52 -29.64,30.64 -35.02,37.22 -71.66,72.2 -63.02,47.78 -161.7,75.74 -93.51,64.56 16.72,-2.74 58.54,-26.56 95,-52.47 31.57,-22.44 53.84,-49.52 58.53,-41.4 -6.4,46.97 -4.25,39.81 -20.45,61.31 -31.06,41.2 -80.8,81.58 -100.12,92.88 -0.23,0.14 -63.93,45.8 -49.02,14.36 4.34,-9.15 97.09,-41.48 132.43,-69.48 15.94,-12.98 14.65,-5.38 10.44,11.9 -4.23,17.42 -15.21,28.44 -27.57,43.45 -22.7,27.54 -61.46,59.37 -96.66,65.1 -93.16,15.17 -43.89,42.74 33.73,-19.95 19.58,-15.63 -29.32,56.14 -74.99,86.04 -30.16,19.75 -168.68,9.83 -207.62,-4.53 -47.94,-17.67 -111.02,38.06 -114.69,39.36 -8.04,2.85 -93.68,-101.25 -47.57,-175.45"/>
   <path class="fil0 str0" d="M973.67 17.15c-59.7,3.68 -157.21,13.25 -206.54,18.62 -17.54,23.68 -78,208.88 -100.82,269.08m-17.92 17.03c11.26,-32.78 93.77,-276.03 111.54,-295.75 29.29,-11 232.87,-30.75 229.71,-17.97 -41.25,166.7 -133.68,271.1 -96.93,271.44 30.77,0.28 56.57,-92.67 -88.04,-47.25 -11.1,3.28 -91.86,15.44 -96.04,-1.12 -1.45,-5.77 64.87,-181.42 65.09,-181.45 5.07,-0.53 57.41,-5.47 57.41,-1.36 0,6.2 -37.43,110.49 -43.14,130.03 -5.08,-3.54 -35.22,6.65 -28.48,-13.72 5.05,-9.52 19.47,11.96 25.2,-15.67 3.7,-17.85 -22.66,-4.08 -17.27,13.45 0.28,0.89 -5.95,-8.48 1.56,-23.71 6.13,-12.41 25.83,3.12 25.12,-18.21 -0.32,-9.57 -24.78,-2.94 -18.27,9.32 0.29,0.55 9.17,6.66 2.82,-0.25 -9.81,-10.68 4.83,-48.52 19.08,-31.72 7.91,9.32 -18.73,17.7 -17.64,4.99"/>
   <path class="fil0 str0" d="M661.97 353.58c2.25,0.81 29.94,18.39 29.94,19.96 0,11.05 -21.81,53.47 8.04,63.27 20.99,6.9 -16.77,38.59 -5.55,65.83 6.18,15.01 -17.83,19.68 -20.4,40.59 -0.72,5.83 -2.05,11.12 -2.05,17.97"/>
  </g>
 </g>
</svg>
