<?xml version="1.0" encoding="UTF-8"?>
<!DOCTYPE svg PUBLIC "-//W3C//DTD SVG 1.1//EN" "http://www.w3.org/Graphics/SVG/1.1/DTD/svg11.dtd">
<!-- Creator: CorelDRAW Home & Student 2018 (Nie do użytku komercyjnego) -->
<svg xmlns="http://www.w3.org/2000/svg" xml:space="preserve" width="17.9797mm" height="50.5854mm" version="1.1" style="shape-rendering:geometricPrecision; text-rendering:geometricPrecision; image-rendering:optimizeQuality; fill-rule:evenodd; clip-rule:evenodd"
viewBox="0 0 252.47 710.31"
 xmlns:xlink="http://www.w3.org/1999/xlink">
 <defs>
  <style type="text/css">
   <![CDATA[
    .str0 {stroke:#383A52;stroke-width:4.21;stroke-linecap:round;stroke-linejoin:round;stroke-miterlimit:22.9256}
    .fil0 {fill:none}
   ]]>
  </style>
 </defs>
 <g id="Warstwa_x0020_1">
  <metadata id="CorelCorpID_0Corel-Layer"/>
  <g id="_1270325776">
   <path class="fil0 str0" d="M46.38 661.54c-2.24,-26.91 -4.17,-128.39 -14.99,-156.67 34.84,17.57 63.11,-3.42 61.11,-4.54 -1.74,-0.98 -31.55,18.76 -63.52,-0.28 -11.43,-16.31 -28.97,-155.9 -26.67,-161.49 3.59,-8.7 15.98,-55.39 16.3,-55.92 9.93,-16.78 47.79,28.5 47.15,-21.12 -0.22,-17.49 -54.94,-1.6 -35.56,26.17 5.6,7.96 24.04,50.86 34.69,50.5 2.38,-0.08 9.72,-0.87 10.37,-3.7 27.49,16.83 0.66,2.42 -6.57,14.92 -2.25,3.88 1.08,21.67 2.38,22.63"/>
   <path class="fil0 str0" d="M33.78 313.37c19.28,20.38 11.11,55.62 40.4,59.19 7.79,0.95 16.58,2.82 21.46,-9.18"/>
   <path class="fil0 str0" d="M86.18 218.01c-18.4,6.05 -11.49,26.1 -9.98,26.23 10.45,0.9 24.64,-5.59 27.61,-15.82 3.44,-11.87 4.43,-16.39 -5.59,-16.54 -12.35,-0.19 -29.65,8.97 -36.12,18.09 -3.74,5.27 -2.58,9.98 -0.74,15.4 3.05,8.99 8.81,14.61 12.82,24.44 5.82,14.27 10.13,31.93 15.43,43.5 10.44,22.78 -4.61,48.56 21.3,67.01 1.16,0.82 3.71,1.57 8.79,1.95"/>
   <path class="fil0 str0" d="M126.75 331.89c-15.26,3.67 -19.99,8.33 -20.15,14.42 -0.15,6.02 8.41,32.66 16.34,34.67 6.73,1.7 18.96,-3.4 18.49,-11.33 -0.16,-2.75 -0.73,-5.86 -0.24,-7.39"/>
   <path class="fil0 str0" d="M161.94 199.66c-16.97,-12.51 -59.92,-4.69 -48.77,24.69 1.95,5.14 6.25,42.93 6.88,50.53 1.57,19.03 8.44,32.55 9.26,50.44 0.38,8.22 6.81,32.99 15.22,34.85 12.1,2.68 16.2,2.27 20.44,-10.59 1.13,-8.16 1.85,-39.45 -8.12,-42.78 -7.46,-2.48 -11.19,-0.87 -13.78,1.24 -9.46,7.71 -5.57,22.66 -5.57,34.22"/>
   <path class="fil0 str0" d="M223.42 273.37c-8.51,11.63 -42.1,20.87 -48.52,8.89 -15.37,-28.68 -14.39,-36.76 -15.19,-68.03 -0.22,-8.79 24.27,-25 27.13,-16.83 9.75,27.82 4.01,11.53 18.42,32.53 3.2,4.66 -1.13,0.8 -8.89,9.97 -5.71,6.75 -9.38,17.65 -17.41,1.61 -9.01,-17.99 -14.68,-38.4 8.55,-46.2 7.01,-2.35 5.81,4.43 9.97,13.33 7.7,16.5 14.03,25.76 28.8,36.91 18.98,14.34 13.8,31.21 13.8,55.32 0,33.66 0.72,39.95 9.63,72.57 3.68,13.5 -9.56,61.2 -12.66,77.59 -1.93,10.24 -5.02,15.58 -7.34,23.83 -0.83,4.84 -22.03,44.66 -28.99,47.78 -13.58,6.08 -36.2,0.82 -48.43,-8.52 -19.98,-15.26 -28.74,-33.53 -29.97,-58.06 -0.62,-12.39 -4.79,-44.7 1.11,-53.71 -3.26,0.93 10.56,-9.75 11.82,-10.84"/>
   <path class="fil0 str0" d="M37.49 463.38c23.84,-23.85 41.7,-36.58 66.3,-57.78"/>
   <path class="fil0 str0" d="M89.71 534.13c-37.8,0.76 22.54,-1.48 27.52,-1.48 2.01,0 138.74,9.73 81.4,10.31 -0.53,0.01 -166.58,10.25 -85.4,11.85 5.85,0.12 98.17,10.76 94.08,0.87 -12.84,0 -3.76,139.52 -3.51,152.54"/>
   <path class="fil0 str0" d="M174.9 282.26c-8.77,32.02 10.05,22.22 27.89,22.22 -25.19,4.44 -26.22,-14.97 -25.67,20.06 0.37,23.7 -10.06,-1.24 14.82,23.64 -8.49,-0.73 -14.13,-13.85 -20.74,0 0.21,0.78 14.44,12.76 15.56,19.26 1.53,8.95 25.34,24.1 31.85,28.15"/>
   <path class="fil0 str0" d="M86.18 218.01c2.91,-0.71 27.23,-5.96 28.01,-6.02 6.36,-0.52 6.87,4.51 14.69,4.98 4.74,0.28 21.96,-2.55 24.37,-5.24"/>
   <path class="fil0 str0" d="M124.85 300.08c-5.29,-0.39 -53.9,4.55 -19.96,2.37 46.41,-2.98 -13.37,18.73 2.79,16.78 13.46,-1.62 30.61,-34.71 47.22,-31.05"/>
   <path class="fil0 str0" d="M40.74 307.26c15.79,-4.28 6.99,5.73 28.97,-2.04"/>
   <path class="fil0 str0" d="M21.56 314.11c-6.43,18.18 -17.52,20.42 -2.16,39.39 5.93,7.32 -2.27,64.91 -2.29,78.14 -0.01,10.16 0.16,17.88 0.77,28.11"/>
   <path class="fil0 str0" d="M169.72 190.4c-11.08,-31.48 14.09,-54.14 6.12,-93.34 -3,-14.77 -5.66,-93.43 23.32,-94.88 44.34,-2.21 33.39,42.13 34.27,76.85 0.51,20 -41.82,16.63 -40.68,15.81 14.31,-10.32 38.98,-15.54 38.46,8.89 -0.21,9.95 6.37,52.6 -6.05,52.6 -27.31,0 -57.99,20.3 -28.57,12.79 41.79,-10.68 33.13,8.17 36.3,20 1.92,7.17 5.26,56.6 -0.47,62.03"/>
   <path class="fil0 str0" d="M54.15 366.71c-4.9,19.8 17.55,24.31 32.59,31.11"/>
  </g>
 </g>
</svg>
