<?xml version="1.0" encoding="UTF-8"?>
<!DOCTYPE svg PUBLIC "-//W3C//DTD SVG 1.1//EN" "http://www.w3.org/Graphics/SVG/1.1/DTD/svg11.dtd">
<!-- Creator: CorelDRAW Home & Student 2018 (Nie do użytku komercyjnego) -->
<svg xmlns="http://www.w3.org/2000/svg" xml:space="preserve" width="51.1285mm" height="57.3674mm" version="1.1" style="shape-rendering:geometricPrecision; text-rendering:geometricPrecision; image-rendering:optimizeQuality; fill-rule:evenodd; clip-rule:evenodd"
viewBox="0 0 2430.71 2727.32"
 xmlns:xlink="http://www.w3.org/1999/xlink">
 <defs>
  <style type="text/css">
   <![CDATA[
    .str0 {stroke:#383A52;stroke-width:14.26;stroke-miterlimit:22.9256}
    .fil0 {fill:none}
   ]]>
  </style>
 </defs>
 <g id="Warstwa_x0020_1">
  <metadata id="CorelCorpID_0Corel-Layer"/>
  <g id="_1140547232">
   <path class="fil0 str0" d="M1653.95 1247.12c84.63,-6.44 137.44,-57.57 210.92,-99.36 86.14,-48.99 241.71,-32.87 332.04,-2.61 98.01,32.82 70.29,-58.06 125.48,-108.63 106.95,-97.98 210.48,260.11 -145.14,-25.63 -0.79,-0.64 -123.9,-149.52 -59.49,-245.4 44.59,-66.39 129.55,-135.49 129.55,-230.27 0,-31.99 -46.01,0.48 -64.26,12.51 -112.92,74.42 -75.09,164.12 -92.77,206.47 -5.48,13.13 -71.39,-7.52 -146.18,-27.65 -181.5,-48.84 -247.36,-40.99 -397.88,53.76 -126.34,-185.73 258.85,-287.15 277.57,-326.44 40.02,-83.97 -93.69,-137.2 -153.2,-146.51 -191.4,-29.92 45.66,-159.46 -48.98,-136.41 -48.21,11.75 4.7,63.98 16.33,65.77 45.26,6.98 227.38,-99.77 369.45,-69.59 99.81,21.2 109.7,-48.29 73.88,-79.22 -61.39,-53.01 -250.17,-31.72 -324.46,-15.28 -154.38,34.17 -146.37,92.52 -232.51,148.96 0.22,70.86 11.6,142.21 14.27,220.66 3.86,113.31 -216.54,222.74 -109.88,278.36 124.81,65.1 95.99,124.35 143.78,212.43 70.23,129.43 96,-178.55 182.19,-174.86 107.95,4.62 -11.89,195.63 -40.6,230.75 -72.68,88.89 -147.21,108.04 -263.4,141.01 6.12,-71.34 -117.67,-301.4 -152.57,-378.46 -54.76,-120.91 -40.06,-214.54 0,-334.87 86.29,-259.21 618.31,-533.25 895.49,-330.05 61.87,45.35 103.15,113.68 103.15,210.12 0,67.28 11.33,241.85 -28.36,297.61 -0.81,1.14 -41.22,77.99 -62.26,112.6 -74.34,122.28 -54.88,316.38 -1.88,395.57 34.59,51.68 158.14,286.27 162.41,345.23 9.21,127.43 30.33,194.96 21.46,321.38 -12.69,180.86 -228.72,356.64 -269.01,734.35 -433.93,678.49 -272.56,-464.08 -767.66,-273.67"/>
   <path class="fil0 str0" d="M2219.82 0c0,298.34 -277.17,254.82 -312.58,344.6 -91.17,231.13 -63.12,132.5 -206.26,275.63 -21.68,21.68 -62.92,67.51 -86.82,168.02 -2.15,9.05 -5.47,87.93 -192.27,229.74"/>
   <path class="fil0 str0" d="M2038.52 485.3c-193.96,-23.98 -98.79,246.72 41.18,125.42 43.55,-37.74 -3.31,-120.74 -41.18,-125.42z"/>
   <path class="fil0 str0" d="M1384.74 353.45c-67.73,71.71 -93.26,174.43 -76.89,227.38 24.09,77.9 95.28,-134.14 113.11,-165.48 39.09,-68.69 51.25,-147.97 -36.22,-61.89z"/>
   <path class="fil0 str0" d="M1729.03 1450.4c91.44,-154.35 226.79,-261.12 412.93,-188.05 125.99,49.46 277.08,362.2 19.26,482 -246.72,114.65 -348.76,126.45 -503.67,-163.98 -60.04,-112.56 -87.4,-96.12 -226.14,-8.48 -38.95,24.6 -227.48,215.47 -165.44,215.47 176.7,0 231.61,-176.73 334.87,-108.94 -0.6,2.01 -180.75,128.18 -84.87,104.02 97.97,-24.68 126.8,-119.22 128.19,-9.1 0.54,42.28 77.28,-19.08 103.18,-92.82 27.92,-79.47 36.22,-120.08 109.57,-142.84 0,-32.78 -63.64,-173.72 138.29,-179.15 186.92,-5.03 56.9,277.76 -52.8,157.8 -91.8,-100.38 214.53,-147.82 -43.95,119.93 -9.03,9.36 -15.35,26.39 -19.02,42.88 -54.68,245.3 -737.26,672.51 -920.92,635 -61.08,-12.47 -112.28,-91.63 -92.62,-156.29 30.96,-101.78 134.24,-214.84 244.77,-214.84 51.64,0 33.92,186.2 6.12,237.6 -33.98,62.84 -23.67,104.32 -119.5,142.11 -94.45,37.24 -125.76,8.87 -151.37,-78.02 -1.43,-4.86 0.55,-13.67 -2.3,-17.84"/>
   <path class="fil0 str0" d="M990.45 1588.34c0,-45.4 -173.11,-463.47 -207.26,-497.29 -3.18,-3.14 -21.73,-29.98 -21.73,-22.54"/>
   <path class="fil0 str0" d="M761.45 1068.52c-95.59,-96.31 -154.5,-46.84 -271.46,-121.93 -21.37,-13.72 -51.52,-50.51 -82.08,-77 -54.65,-75.42 -170.38,-70.69 -54.06,45.63 23.75,23.75 87.15,109.24 93.37,139.93"/>
   <path class="fil0 str0" d="M500.71 1051.8c-15.47,-0.85 -19.1,-54.89 -32.63,-52.63 -144.58,24.12 -199.14,2.97 -315.04,-69.82 -40.44,-25.4 -64.48,-76.18 -133.86,-89.68 -36.92,-7.18 20.99,35.31 33,63.37 12.46,29.11 94.31,109.29 123.84,122.45 103.79,46.26 118.36,106.34 258.93,141.07 71.94,17.78 74.57,16.14 142.65,25.5 60.77,8.35 61.38,24.08 121.73,-51.67 46.98,-58.98 -19.29,47.93 -34.81,54.59 -6.48,2.77 12.62,72.91 13.23,86.24 0.21,4.54 19.38,95.34 21.87,121.59 6.98,73.57 34.1,113.37 22.84,188.52 8.79,225.53 46.87,353.99 130.74,632.63"/>
   <path class="fil0 str0" d="M310.16 984.94c-19.2,-13.22 -71.54,-49.67 -73.11,-55.59 -11.4,-42.95 -42.73,-83.52 -47.23,-96.51"/>
   <path class="fil0 str0" d="M189.81 832.84c-3.46,-5.45 -24.12,-99.66 -58.5,-96.95 0,76.98 7.68,124.37 36.35,193.89 2.64,6.41 0.58,5.22 -3.3,6.65"/>
   <path class="fil0 str0" d="M355.29 988.29c-48.85,-19.97 -53.09,-87.78 -74.79,-140.4 -1.86,-4.51 -6.94,-100.04 -34.51,-104.98 -5.57,-1 -9.46,12.88 -9.37,59.7 0.1,54.82 -4.87,72.06 9.03,127.5"/>
   <path class="fil0 str0" d="M944.2 1578.61c-22.13,-82.42 -97.03,-250.42 -127.59,-304.93 -28.15,-50.21 -10.03,-51.53 -10.03,-99.86 9.95,0 10.32,-2.79 13.37,1.67"/>
   <path class="fil0 str0" d="M145.13 924.13c7.53,31.99 -31.22,70.6 -23.01,59.92"/>
   <path class="fil0 str0" d="M228.05 973.65c1.64,15.1 0.69,71.42 -15.85,70.35"/>
   <path class="fil0 str0" d="M216.34 879.73c-1.76,11.06 -35.86,17.13 -43.23,18.3"/>
   <path class="fil0 str0" d="M294.06 887.82c-24.98,10.64 -38.98,11.05 -45.57,10.68"/>
   <path class="fil0 str0" d="M419.76 899.96c13.98,-8.35 -1.18,21.13 -38.77,28.66"/>
   <path class="fil0 str0" d="M816.33 1010.95c-53.11,37.22 -95.62,117.67 -109.34,178.21"/>
   <path class="fil0 str0" d="M848.37 1155.43c-61.87,-13.28 -4.44,31.7 -72.4,-43.46 -11.31,-12.51 -36.68,-23.16 -47.95,-31.76"/>
   <path class="fil0 str0" d="M236.62 1075.2c39.96,0 198.15,-17.99 212.85,15.19 30.85,69.64 89.49,39.39 13.23,73.97 -2.53,1.15 -1.84,4.56 -2.14,8.39"/>
   <path class="fil0 str0" d="M989.23 1579.06c48.09,141.29 119.27,264.1 128.44,338.15 3.09,24.92 19.71,156.41 -41.96,131.86 -21.59,-8.6 -95.71,-342.72 -119.92,-399.07 -0.61,-1.43 -11.73,-69.9 -11.58,-71.39"/>
   <path class="fil0 str0" d="M1761.99 1036.52c39.75,243.97 -163.98,467.89 -375.99,550.34 -105.7,41.1 -203.68,206.83 -239.33,229.8 -45.17,40.26 -160.39,121.83 -180.37,179.45"/>
   <path class="fil0 str0" d="M500.71 1051.81c65.71,115.21 233.15,106.89 249.19,237.34 2.49,20.26 -81.1,42 -79.95,45.13 7.31,19.68 27.99,122.64 27.99,142.08 95.89,7.58 65.81,148.86 52.5,159.96 -44.88,37.41 -85.58,434.82 34.57,552.09 143.79,113.2 362.33,14.11 469.76,-112.18 55.8,-65.61 86.9,-104.34 137.76,-171.83 41.28,-54.77 186.06,-87.85 223.73,-152.31"/>
   <path class="fil0 str0" d="M1691.5 957.76c79.03,308.84 -104.32,501.13 -305.5,629.1"/>
   <path class="fil0 str0" d="M1387.92 2147.41c38.48,147.41 28.87,250.35 28.87,401.75"/>
   <path class="fil0 str0" d="M447.65 608.65c-50.54,112.82 214.38,293.23 259.22,73.2 41.13,-201.79 -217.75,-165.8 -259.22,-73.2z"/>
   <path class="fil0 str0" d="M723.14 312.18c2.73,33.69 11.79,325.74 7.33,322.31"/>
   <path class="fil0 str0" d="M667.74 496.19c22.28,-10.77 120.75,-43.95 140.56,-43.95"/>
   <line class="fil0 str0" x1="757.81" y1="496.1" x2="695.56" y2= "438.48" />
   <path class="fil0 str0" d="M703.27 511.11c16.88,-18.52 31.52,-63.93 49.71,-80.45"/>
  </g>
 </g>
</svg>
