<?xml version="1.0" encoding="UTF-8"?>
<!DOCTYPE svg PUBLIC "-//W3C//DTD SVG 1.1//EN" "http://www.w3.org/Graphics/SVG/1.1/DTD/svg11.dtd">
<!-- Creator: CorelDRAW Home & Student 2018 (Nie do użytku komercyjnego) -->
<svg xmlns="http://www.w3.org/2000/svg" xml:space="preserve" width="27.2143mm" height="28.0758mm" version="1.1" style="shape-rendering:geometricPrecision; text-rendering:geometricPrecision; image-rendering:optimizeQuality; fill-rule:evenodd; clip-rule:evenodd"
viewBox="0 0 419.25 432.52"
 xmlns:xlink="http://www.w3.org/1999/xlink">
 <defs>
  <style type="text/css">
   <![CDATA[
    .str0 {stroke:#383A52;stroke-width:4.62;stroke-linecap:round;stroke-linejoin:round;stroke-miterlimit:22.9256}
    .fil0 {fill:none}
   ]]>
  </style>
 </defs>
 <g id="Warstwa_x0020_1">
  <metadata id="CorelCorpID_0Corel-Layer"/>
  <g id="_1144361008">
   <path class="fil0 str0" d="M309.26 277.82c-105.07,45.57 -53.26,128.51 21.44,49.82 16.15,-17.01 29.01,-89.16 63.15,-113.25 -54.57,-2.78 -115.16,11.7 -146.86,64.51 -46.28,77.11 -17.7,244.6 -13.43,84.79 1.49,-55.78 10,-102.99 -31.75,-141.93 -39.14,-36.51 -106.5,-83.33 -63.26,-60.23 118.05,63.08 95.57,77.38 53.11,80.41 -119.92,8.56 -127.77,-87.83 -189.36,-126.7 96.48,-42.83 214.85,3.97 234.83,69.61 27.04,88.83 -31.45,-183.71 47.09,-182.54 43.49,0.65 39.08,45.05 38.34,45.37 -52.37,22.4 -2.32,81.33 -8.26,110.17 -0.77,3.74 -2.49,6.97 -5.48,9.56 -3.28,2.83 -2.3,6.2 1.59,6.69 1.89,0.24 4.66,-0.85 8.66,-4.88 14.51,-14.58 78.58,-57.54 96.94,-43.68 11.19,8.45 -80.56,59.21 -85.43,57.64 -7.23,-2.34 18.75,-31.69 26.29,-26.79l13.99 23.69"/>
   <path class="fil0 str0" d="M333.11 47.55c54.37,-5.23 29.63,58.12 67.71,66.7"/>
   <line class="fil0 str0" x1="385.1" y1="141.53" x2="399.79" y2= "165.71" />
  </g>
 </g>
</svg>
