<?xml version="1.0" encoding="UTF-8"?>
<!DOCTYPE svg PUBLIC "-//W3C//DTD SVG 1.1//EN" "http://www.w3.org/Graphics/SVG/1.1/DTD/svg11.dtd">
<!-- Creator: CorelDRAW Home & Student 2018 (Nie do użytku komercyjnego) -->
<svg xmlns="http://www.w3.org/2000/svg" xml:space="preserve" width="58.2683mm" height="55.7mm" version="1.1" style="shape-rendering:geometricPrecision; text-rendering:geometricPrecision; image-rendering:optimizeQuality; fill-rule:evenodd; clip-rule:evenodd"
viewBox="0 0 2606.64 2491.74"
 xmlns:xlink="http://www.w3.org/1999/xlink">
 <defs>
  <style type="text/css">
   <![CDATA[
    .str0 {stroke:#383A52;stroke-width:13.42;stroke-linecap:round;stroke-linejoin:round;stroke-miterlimit:22.9256}
    .fil0 {fill:none}
   ]]>
  </style>
 </defs>
 <g id="Warstwa_x0020_1">
  <metadata id="CorelCorpID_0Corel-Layer"/>
  <g id="_687319352">
   <path class="fil0 str0" d="M36.66 1292.62c230.6,-71.91 544.7,-63.63 694.58,163.9 277.09,420.6 313.58,876.61 991.49,620.61"/>
   <path class="fil0 str0" d="M863.62 1019.82c495.72,-43.74 215.03,441.82 683.73,441.82 403.51,0 403.94,-138.88 865.01,231.82l16.39 7.83"/>
   <path class="fil0 str0" d="M1761.2 1966.6c10.02,55.14 73.88,568.68 36.37,515.65"/>
   <path class="fil0 str0" d="M2599.93 1564.35c0,66.75 -19.26,569.25 -19.26,483.55"/>
   <path class="fil0 str0" d="M15.27 1144.99c0,37.31 3.9,479.04 -8.56,483.55"/>
   <path class="fil0 str0" d="M965.26 836.89c3.43,120.08 -34.24,372.13 -34.24,479.27"/>
   <path class="fil0 str0" d="M6.71 1590.03c159.59,-45.59 843.3,-301.08 934.2,-320.01"/>
   <path class="fil0 str0" d="M29.32 1263.44c140.58,-34.69 730.4,-225.09 946.5,-292.02"/>
   <path class="fil0 str0" d="M1773.93 2056.9c280.36,-148.46 728.61,-348.04 823.8,-398.21"/>
   <path class="fil0 str0" d="M6.71 1590.03c-21.71,-8.94 759.48,401.64 1121.16,579.05 203.85,99.99 447.27,180.62 667.56,285.36 -0.46,2.81 661.25,-375.08 787.38,-445.04"/>
   <path class="fil0 str0" d="M75.72 1265.57c342.88,139.93 1555.55,766.26 1676.17,786.44"/>
   <path class="fil0 str0" d="M958.17 1274.1c117.99,49.71 1312.32,576.42 1601.18,729.25"/>
   <path class="fil0 str0" d="M973.08 962.1c70.16,3.41 1382.93,596.54 1591.88,689.18"/>
   <path class="fil0 str0" d="M1453.09 6.71c-62.54,437.92 34.97,725.74 34.97,1104.04 -178.94,-695.69 -256.69,-479.94 3.42,-127.64 6.4,8.67 115,-277.43 141.34,-325.96"/>
   <path class="fil0 str0" d="M501.11 1178.02c70.14,26.33 49.68,-322.2 61.17,-433.81 59.87,-581.95 -68.47,27.5 -68.47,79.96 4.98,-80.53 27.2,-547.72 88.51,-230.59 11.17,57.78 24.94,140.34 49.15,191.95"/>
   <path class="fil0 str0" d="M1299.03 1213.46c-5.08,61.05 -27.3,659.57 -52.81,494.19 -66.13,-428.56 -46.67,2.34 1.47,27.14 28.75,14.81 84.81,-126.42 119.82,-170.44"/>
  </g>
 </g>
</svg>
