<?xml version="1.0" encoding="UTF-8"?>
<!DOCTYPE svg PUBLIC "-//W3C//DTD SVG 1.1//EN" "http://www.w3.org/Graphics/SVG/1.1/DTD/svg11.dtd">
<!-- Creator: CorelDRAW Home & Student 2018 (Nie do użytku komercyjnego) -->
<svg xmlns="http://www.w3.org/2000/svg" xml:space="preserve" width="55.5407mm" height="41.798mm" version="1.1" style="shape-rendering:geometricPrecision; text-rendering:geometricPrecision; image-rendering:optimizeQuality; fill-rule:evenodd; clip-rule:evenodd"
viewBox="0 0 1128.12 848.98"
 xmlns:xlink="http://www.w3.org/1999/xlink">
 <defs>
  <style type="text/css">
   <![CDATA[
    .str0 {stroke:#383A52;stroke-width:6.09;stroke-linecap:round;stroke-linejoin:round;stroke-miterlimit:22.9256}
    .fil0 {fill:none}
   ]]>
  </style>
 </defs>
 <g id="Warstwa_x0020_1">
  <metadata id="CorelCorpID_0Corel-Layer"/>
  <g id="_1146598912">
   <path class="fil0 str0" d="M111.34 59.14c-2.61,67.4 -12.76,661.83 0,786.8"/>
   <path class="fil0 str0" d="M3.05 776.77c50.02,1.87 1112.08,5.93 1121.06,-2.53 -56.69,-36.23 -161.75,-9.71 -3.77,2.18 21.98,1.65 -38.06,41.19 -61.34,66.69"/>
   <path class="fil0 str0" d="M157.34 105.61c-52.18,-83.17 -31.01,-177.38 -65.69,-9.09 -1.59,7.73 -3.28,15.9 -5.82,19.82"/>
   <path class="fil0 str0" d="M118.45 685.61c-41.28,2.59 -14.27,0.9 0,0z"/>
   <path class="fil0 str0" d="M96.53 583.82c3.53,0.02 16.73,-0.03 20.91,0.23"/>
   <path class="fil0 str0" d="M115.91 478.5c-44.39,-0.81 1.49,0.03 0,0z"/>
   <path class="fil0 str0" d="M119.84 266.25c-46.3,1.04 -11.31,0.25 0,0z"/>
   <path class="fil0 str0" d="M310.92 767.38c-0.19,4.15 -0.76,11.48 -0.22,18.49"/>
   <path class="fil0 str0" d="M412.44 767.38c0.38,2.84 0.16,10.19 0.68,15.25"/>
   <path class="fil0 str0" d="M514.86 777.63c-0.73,-33.98 0.64,29.95 0,0z"/>
   <path class="fil0 str0" d="M616.46 775.93c0.36,35.27 -0.31,-31.09 0,0z"/>
   <path class="fil0 str0" d="M720.05 786.45c-2.89,-39.75 -0.44,-6.01 0,0z"/>
   <path class="fil0 str0" d="M821.65 776.12c-0.25,-31.46 0.28,34.83 0,0z"/>
   <path class="fil0 str0" d="M923.29 767.38c-0.04,0.69 0.01,16.87 0.24,19.16"/>
   <path class="fil0 str0" d="M1025.06 767.38c0,19.88 0,41.33 0,0z"/>
   <path class="fil0 str0" d="M208.94 767.38c0,19.88 0,41.33 0,0z"/>
   <path class="fil0 str0" d="M96.51 152.44c8.7,1.98 21.5,1.93 29.12,0"/>
   <path class="fil0 str0" d="M96.51 375.62c7.49,-1.98 18.52,-1.93 25.08,0"/>
   <path class="fil0 str0" d="M211.97 293.94c1.81,-1.52 17.49,-8.92 16.13,-6.55 -6.37,11.09 -30.8,59.54 -25.78,52.84 9.9,-13.22 23.78,-32.25 36.19,-42.48 15.74,-12.98 14.52,-13.92 1.81,4.39 -9.12,13.14 -12.96,17.61 -20.89,32.91 -5.3,10.22 -9.82,19.25 -16.76,29.6 -23.83,35.58 81.14,-80.49 78.32,-68.79 -4.48,18.55 -64.3,66.42 -81.14,104.67 -0.73,1.66 25.64,-20.87 33.07,-26.53 21.7,-16.52 41.25,-34.98 62.55,-51.5 14.36,-11.13 16.45,-11.01 -2.18,5.65 -14.42,12.9 -43.57,47.63 -55.92,64.42 -16.24,22.07 -22.03,32.64 -34.85,57.29 -1.17,2.25 56.14,-53.37 104.25,-79.46 15.96,-8.66 -12.05,13.4 -13.53,14.71 -29.77,26.25 -68.73,80.48 -89.08,121.56 -6.25,12.63 79.69,-74.24 107.41,-81.46 10.04,0.36 -92.17,126.97 -109.26,148.34 -36.07,45.1 26.11,-12.97 35.49,-20.77 4.27,-3.55 110.51,-93.21 74.62,-41.92 -38.17,54.55 -78.55,102.81 -117.68,156.85"/>
   <path class="fil0 str0" d="M849.23 361.24c-6.37,11.09 -42.72,77.26 -35.52,73.33 14.5,-7.91 58.71,-49.38 71.12,-59.61 15.74,-12.97 14.52,-13.92 1.81,4.39 -19.8,28.53 -48.11,43.11 -72.58,79.64 -23.83,35.58 87.86,-66.04 85.04,-54.34 -4.48,18.55 -71.02,51.98 -87.86,90.22 -0.73,1.65 75.06,-46.08 97.64,-63.58 14.35,-11.13 17.96,-6.14 -0.67,10.52 -42.86,38.33 -62.4,60.04 -91.84,107.73 -2.01,3.25 58.75,-55.89 106.85,-81.98 12.21,-6.62 -72.99,77.59 -105.22,142.64 -6.25,12.62 77.22,-83.44 104.95,-90.66 10.04,0.36 -92.17,126.97 -109.26,148.34 -36.07,45.1 26.11,-12.97 35.49,-20.77 4.27,-3.55 110.51,-93.21 74.62,-41.92 -35.96,51.39 -59.25,87.33 -102.59,124.96 -16.31,14.16 -9.8,-1.67 -3.62,-11.65 24.76,-39.95 110.18,-111.91 49.6,-9.17 -35.37,59.98 53.41,-66.02 27.43,-13.99 -20.99,42.03 -17.43,38.61 10.25,9.75 12.74,-13.29 2.74,4.95 -2.69,19.14"/>
   <path class="fil0 str0" d="M512.89 146.25c-6.37,11.09 -90.65,110.99 -90.66,102.62 -0.01,-11.04 21.26,-51.57 33.67,-61.79 15.74,-12.97 27.28,3.22 14.58,21.52 -15.2,21.9 -33.14,42.68 -47.89,64.69 -23.83,35.58 81.14,-76.42 78.32,-64.72 -4.47,18.55 -64.3,68.46 -81.14,106.7 -0.73,1.65 25.64,-20.87 33.07,-26.53 21.7,-16.52 41.25,-37.01 62.55,-53.53 14.35,-11.13 16.44,-11.01 -2.18,5.65 -14.41,12.89 -43.57,49.67 -55.92,66.45 -16.23,22.06 -22.04,32.64 -34.85,57.29 -1.17,2.24 56.15,-55.41 104.25,-81.49 15.95,-8.65 -12.06,13.41 -13.53,14.71 -29.77,26.24 -68.74,66.27 -89.08,107.34 -6.25,12.62 79.69,-76.27 107.41,-83.49 10.04,0.36 -95.88,96.98 -112.96,118.34 -36.06,45.09 27.47,-8.62 36.83,-16.4 4.26,-3.54 118.66,-85.25 76.97,-38.57 -41.82,46.82 -82.24,58.82 -121.37,112.86 -0.02,0.22 64.82,-53.52 78.23,-63.32 57.14,-41.77 27.86,6.57 -8.59,44.72 -121.26,126.97 -110.69,55.65 -4.59,-6.72 4.88,-2.87 59.63,-35.6 35.9,-8.73 -29.06,32.9 -87.83,97.37 -109,132.3"/>
   <path class="fil0 str0" d="M211.97 275.11c11.91,-1.28 89.54,-4.86 95.57,0 8.78,9.34 -8.29,417.55 0,462.17 0.79,2.17 -82,0 -95.57,0 6.04,-141.98 -2.08,-396.1 0,-449.46"/>
   <path class="fil0 str0" d="M823.35 365.01c-2.08,53.36 6.04,230.29 0,372.27 13.56,0 96.36,2.17 95.57,0 -8.29,-44.62 8.78,-375.65 0,-384.99 -6.03,-4.86 -83.66,-1.28 -95.57,0 -0.58,2.36 24.38,8.25 25.71,9.34"/>
   <path class="fil0 str0" d="M512.89 146.25c-11.91,-1.64 -89.54,-6.22 -95.57,0 -8.78,11.93 8.29,533.73 0,590.76 -0.79,2.77 82,0 95.57,0 -6.04,-181.48 2.08,-506.3 0,-574.5"/>
   <path class="fil0 str0" d="M714.97 429.45c2.08,68.21 -6.04,126.08 0,307.56 -13.56,0 -96.36,2.77 -95.57,0 8.29,-57.03 -8.78,-291.57 0,-303.5 6.03,-6.22 55.22,-1.64 67.13,0 -2.56,9.84 -72.36,84.35 -83.21,112.04 -15.85,40.44 149.33,-139.62 81.78,-89.35 -29.29,21.8 -80.12,141.78 -80.12,139.94"/>
   <path class="fil0 str0" d="M198.89 693.35c23.99,-23.98 106.69,-114.79 123.43,-126.52 8.83,-6.19 -91.63,121.62 -115.31,161.16 0.7,-0.44 46.37,-52.21 55.7,-60.67 87.62,-79.44 82.64,-74.31 13.43,19.37 -0.44,0.59 -55.91,68.41 -28.1,43.17 0.27,-0.25 83.86,-67.45 67.12,-47.81 -7.06,8.29 -32.16,52.44 -33.65,50.27"/>
   <path class="fil0 str0" d="M402.91 596.15c23.99,-23.98 106.69,-114.79 123.43,-126.52 8.83,-6.19 -91.63,121.62 -115.31,161.16 0.7,-0.44 46.37,-52.21 55.7,-60.67 87.62,-79.44 82.64,-74.31 13.43,19.37 -0.44,0.59 -83.45,96.62 -55.64,71.38 0.27,-0.24 111.4,-95.66 94.66,-76.02 -18.98,22.27 -99.94,137.03 -106.14,152.02 -3.04,0 76.41,-94.26 90.07,-107.93 55.82,-55.82 -10.6,30.74 -21.15,48.25 -57.76,95.89 -43.66,59.18 22.17,3.97 50.99,-42.77 -34,42.41 -29.68,59 2.84,-3.08 57.25,-59.83 40.48,-33.65 -1.52,2.37 -11.26,29.7 -10.98,23.01"/>
   <path class="fil0 str0" d="M604.99 596.15c23.99,-23.98 106.69,-114.79 123.43,-126.52 8.83,-6.19 -91.63,121.62 -115.31,161.16 0.7,-0.44 46.37,-52.21 55.7,-60.67 87.62,-79.44 82.64,-74.31 13.43,19.37 -0.44,0.59 -83.45,96.62 -55.64,71.38 0.27,-0.24 111.4,-95.66 94.66,-76.02 -18.98,22.27 -99.94,137.03 -106.14,152.02 -3.04,0 76.41,-94.26 90.07,-107.93 55.82,-55.82 -10.6,30.74 -21.15,48.25 -57.76,95.89 -43.66,59.18 22.17,3.97 50.99,-42.77 -34,42.41 -29.68,59 2.84,-3.08 57.25,-59.83 40.48,-33.65 -1.52,2.37 -11.26,29.7 -10.98,23.01"/>
   <path class="fil0 str0" d="M235.6 202.41c5.63,25.98 2.69,81.43 2.69,-6.83 0,-2.37 22.8,42.38 17.47,44.45"/>
   <path class="fil0 str0" d="M224.86 237.34c16.49,-5.96 28.72,-10.24 45.68,-14.78"/>
   <path class="fil0 str0" d="M457.28 93.59c3.16,80.14 5.63,-3.87 5.72,-4.15 2.43,-7.25 18.65,-0.95 2.11,22.5 12.56,-17.8 59.63,-19.15 -6.49,13.9"/>
   <path class="fil0 str0" d="M673.59 378.42c-24.92,-13.69 -42.34,57.5 -0.77,22.26l8.83 -7.48"/>
   <path class="fil0 str0" d="M865.06 287.75c0,14.37 4.11,22.82 4.87,33.14 0.19,2.66 -5.06,-10.18 -5.84,-11.63"/>
   <path class="fil0 str0" d="M851.87 293.91c23.52,-11.26 49.22,25.8 5.8,28.94 -2.93,0.21 -3.37,0.19 -6.38,-0.37"/>
  </g>
 </g>
</svg>
