<?xml version="1.0" encoding="UTF-8"?>
<!DOCTYPE svg PUBLIC "-//W3C//DTD SVG 1.1//EN" "http://www.w3.org/Graphics/SVG/1.1/DTD/svg11.dtd">
<!-- Creator: CorelDRAW Home & Student 2018 (Nie do użytku komercyjnego) -->
<svg xmlns="http://www.w3.org/2000/svg" xml:space="preserve" width="67.6817mm" height="46.0523mm" version="1.1" style="shape-rendering:geometricPrecision; text-rendering:geometricPrecision; image-rendering:optimizeQuality; fill-rule:evenodd; clip-rule:evenodd"
viewBox="0 0 3908.68 2659.56"
 xmlns:xlink="http://www.w3.org/1999/xlink">
 <defs>
  <style type="text/css">
   <![CDATA[
    .str0 {stroke:#383A52;stroke-width:17.33;stroke-linecap:round;stroke-linejoin:round;stroke-miterlimit:22.9256}
    .fil0 {fill:none}
   ]]>
  </style>
 </defs>
 <g id="Warstwa_x0020_1">
  <metadata id="CorelCorpID_0Corel-Layer"/>
  <g id="_1261080656">
   <path class="fil0 str0" d="M2681.93 2625.07c5.58,-63.61 40.28,-1316.37 40.28,-1441.94m-591.83 -119.47c-34.6,501.42 -56.68,1213.67 -57.9,1394.13"/>
   <path class="fil0 str0" d="M2970.14 1077.84c-111.72,-19.08 -919.45,-231.21 -1090.47,-302.35"/>
   <path class="fil0 str0" d="M2792.93 1578.15c-81.83,-20.87 -915.73,-202.99 -914.41,-205.84"/>
   <path class="fil0 str0" d="M1888.41 769.14c-102.39,33.58 -1137.09,480.09 -1151.92,484.66"/>
   <path class="fil0 str0" d="M1878.52 1372.31c-306.15,96.21 -889.65,241.79 -1150,340.37"/>
   <path class="fil0 str0" d="M1866.64 944.79c17.49,63.96 -18.16,309.35 -7.92,403.77"/>
   <path class="fil0 str0" d="M2357.49 1079.38c0,0.12 0,290.55 0,205.84"/>
   <path class="fil0 str0" d="M2563.34 1158.55c-1.73,43.3 16.01,141.47 0,182.09"/>
   <path class="fil0 str0" d="M2753.34 1388.15c-295.49,-77.62 -819.13,-201.97 -767.94,-197.93"/>
   <path class="fil0 str0" d="M2761.26 1221.89c-78.01,-29.94 -925.12,-254.49 -926.96,-257.87l32.35 -19.23"/>
   <path class="fil0 str0" d="M1850.81 857.7c38.15,-7.65 1002.39,290.12 1052.96,292.93 39.61,46.44 0,773.73 0,902.54"/>
   <path class="fil0 str0" d="M2963.14 1059.59c-53.79,22.11 -11.88,489.62 -11.88,571.94 0,65.72 -15.41,443.09 4.07,477.73l-51.57 -56.09"/>
   <path class="fil0 str0" d="M2357.49 1245.64c16.21,32.79 -4.2,176.44 -12.24,223.28"/>
   <path class="fil0 str0" d="M2563.34 1340.64c1.27,15.9 7.57,181.08 5.86,182.76"/>
   <path class="fil0 str0" d="M2754.33 1427.73c-51.13,-15.67 -620.79,-162.26 -652.39,-158.42l14.14 0.94"/>
   <path class="fil0 str0" d="M2556.41 1629.61c2.49,121.21 -5.94,291.33 -5.94,418.61"/>
   <path class="fil0 str0" d="M2358.49 1593.98c-3.16,87.17 -7.9,175.67 -7.9,264.23"/>
   <path class="fil0 str0" d="M2555.21 1608.81c-22.01,0 -427.52,-78.55 -436.46,-80.32"/>
   <path class="fil0 str0" d="M2750.38 1815.66c-25.58,0 -581.79,-76.01 -642.63,-87.06"/>
   <path class="fil0 str0" d="M1859.72 1491.06c8.25,31.57 -14.5,402.06 3.96,320.64"/>
   <path class="fil0 str0" d="M2900.79 2068.01c-89.27,-1.25 -312.1,-10.89 -391.89,-10.89"/>
   <path class="fil0 str0" d="M2325.82 1877.15c22.48,22.47 160.4,160.09 182.91,180.32"/>
   <path class="fil0 str0" d="M2301.15 1914.11c21.46,17.89 170.62,156.88 192.51,179.91"/>
   <path class="fil0 str0" d="M2946.08 2098.08c-129.28,0 -323.52,-4.07 -452.41,-4.07"/>
   <path class="fil0 str0" d="M2313.44 1863.43c-75.95,-2.82 -342.52,-20.32 -445.84,-27.36"/>
   <path class="fil0 str0" d="M1871.06 1841.67c0.36,10.26 4.64,24.34 4.49,49.2 82.65,8.76 388.28,14.73 438.41,25.23"/>
   <path class="fil0 str0" d="M1875.55 1890.87c-209.84,11.56 -664.32,111.24 -894.62,133.58"/>
   <path class="fil0 str0" d="M1867.59 1836.07c-4.54,-0.59 -863.29,151.53 -890.28,162.7"/>
   <path class="fil0 str0" d="M2779.08 1603.89c-107.96,-15.17 -879.19,-175.08 -902.76,-173.07 -90.44,3.68 -1070.8,285.93 -1159.25,318.91"/>
   <path class="fil0 str0" d="M1226.36 1130.84c-2.39,137.67 19.8,280.31 19.8,421.52"/>
   <path class="fil0 str0" d="M732.28 1707.09c2.85,-73.46 7.69,-387.69 -0.73,-433.74 0.4,29.77 108.99,76.89 130.63,102.92"/>
   <path class="fil0 str0" d="M1227.19 1205.91c-133.13,50.31 -274.56,109.99 -412.7,150.4"/>
   <path class="fil0 str0" d="M839.32 1346.53c3.14,59.63 3.15,94.08 2.96,136.81 -0.18,42.74 -0.58,93.79 1.78,186.63"/>
   <path class="fil0 str0" d="M816.88 1346.53c3.14,59.63 3.15,94.08 2.96,136.81 -0.18,42.74 -0.58,93.79 1.78,186.63"/>
   <path class="fil0 str0" d="M970.2 1316.93c4.62,71.55 18.58,241.58 19,310.23"/>
   <path class="fil0 str0" d="M1130.7 1250.64c0.39,22.33 7.72,316.99 12.72,331.42"/>
   <path class="fil0 str0" d="M1241.21 1421.69c-139.42,49.4 -261.96,93.82 -401.68,132.72"/>
   <path class="fil0 str0" d="M1744.92 917.08c-2.36,136.08 11.39,323.9 16.2,468.24"/>
   <path class="fil0 str0" d="M1985.4 1190.22c-4.57,39.59 -98.03,19.27 -127.64,13.31l3.76 -10.25c-13.5,42.59 -88.94,48.72 -125.11,69.64l19.34 -2.35"/>
   <path class="fil0 str0" d="M1837.79 2434.05c0,-133.24 1.44,-415.37 9.4,-541.22m52.11 19.81c-1.74,71.88 -11.88,421.96 -11.88,533.9"/>
   <path class="fil0 str0" d="M2322.86 2112.54c0.99,51.7 1.83,345.98 8.59,387.26l7.24 -7.24"/>
   <path class="fil0 str0" d="M2255.79 2425.26c-4.82,14.11 72.74,194.81 237.29,197.92"/>
   <path class="fil0 str0" d="M2924.33 1127.97c-18.61,-2.59 -119.13,161.44 -185.95,233.07"/>
   <path class="fil0 str0" d="M2945.75 1902.88c-46.11,0.46 -606.35,-37.52 -614.97,-44.66"/>
   <path class="fil0 str0" d="M2746.42 1597.94c-2.14,132.41 -6.51,355.2 -11.28,498.29"/>
   <line class="fil0 str0" x1="1850.81" y1="857.7" x2="736.18" y2= "1305.94" />
   <path class="fil0 str0" d="M1231.91 1292.49c-25.01,2.51 -378.03,129.47 -378.34,127"/>
   <path class="fil0 str0" d="M2493.08 2623.19c18.12,90.13 79.46,-97.36 -46.82,-127.35 -95.2,-22.62 53.21,78.59 -144.2,32.69 -77.08,-17.93 -29.81,100.16 6.33,-52.37 21.78,-91.92 -200.38,-49.47 -108.24,-3.4 60.01,-69.45 -151.91,-140.89 -117.74,45.81 22.75,124.31 118.7,18.76 10.18,-13.46 -43.79,-13 -31.91,91.32 -7.23,75.88 -2.46,-26.64 -155.87,-168.88 -165.92,-52.81 -0.12,1.31 -113.87,-46.94 -106.88,-97.6 1.88,-13.61 44.61,-77.05 -64.01,-24.09 -47.52,23.17 107.12,130.27 -82.11,94.67 -21.3,-4.01 -87.22,80.9 -68.65,-62.66 3.86,-29.86 -107.35,-57.99 -83.13,42.53 13.35,55.37 -134.79,-15.62 -87.42,-32.35 10.09,35.7 -73.09,70.69 -86.41,36.64 1.74,7.36 -28.33,99.43 -82.79,14.82 -35.42,-55.04 -191.31,79.93 87.09,91.38 -0.57,-26.24 -23.24,-571.39 -23.75,-460.2 -0.08,18 1.8,555.97 18.43,445.39 -229.25,-32.57 -173.49,49.07 -506.66,53.12l538.44 -5.87c98.56,1.22 730.52,7.4 740.5,6.16"/>
   <path class="fil0 str0" d="M1317.41 1601.9c7.31,-58.49 285.28,414.65 133.57,745.9 -154.5,337.32 -560.56,-384.02 -251.34,-685.53 102.39,-99.83 276.84,156.93 82.82,462.5 -65.73,-20.17 -92.45,-237.71 -25.98,-217.96 44.08,13.09 7.63,139.25 -56.19,110.59 -57.93,-26.01 -3.93,-123.62 -31.85,-97.09 -75.99,72.22 -96.87,-115.55 28.07,-98.04 33.02,4.63 66.33,13.09 79.16,-36.19 -28.38,-15.94 -183.98,73.62 8.91,99.17 103.55,13.72 164.15,25 121.16,144.87 -26.87,74.91 -180.29,-5.88 -274.4,84.19 -69.68,66.68 32.84,88.71 98.15,74.33 243.5,-53.63 -20.72,-63.1 -19.83,23.29 0.52,50.21 174.54,73.66 142.79,22.79 -32.64,-52.28 -101.35,110.8 15.37,74.93 88.28,-27.13 116.04,-156.34 119.78,-154.52 67.18,32.65 82.08,-32.98 62.77,53.09 -24.5,109.25 -182.18,45.68 -249.24,58.25 -20.19,3.78 -227.82,28.31 -177.75,89.98 14.07,17.33 55.24,13.94 73.62,12.8 69.06,-55.24 -235.98,-232 -186.79,-60.51 14,48.8 45.99,-57.27 -35.77,-37.32 -50.07,12.22 -64.99,114.52 -31.03,91.01 29.96,-20.73 -108.9,-66.07 -125.43,55.64 -14.18,104.33 122.99,56.09 36.05,57.47 -72.64,1.14 -75.68,118.56 -8.03,122.78l3.4 -2.69c41.84,-14.36 48.91,3.95 33.92,-56.26 -6.02,-24.15 69.97,-70.47 55.03,-7.35 -15.52,65.57 26.07,-3.47 51.43,15.16 28.4,20.87 43.82,-3.4 30.22,-32.69 -18.11,-39.01 76.29,-43.43 58.03,-14.63 -9.9,15.62 -10.7,-75.62 52.77,-62.87 31.95,6.42 40.47,84.48 16.72,83.2"/>
   <path class="fil0 str0" d="M889.89 1708.78c4.37,200.18 1.92,657.93 8.41,894.25"/>
   <path class="fil0 str0" d="M1009.58 1708.78c2.17,99.34 5.28,151.27 6.01,318.92m-10.63 -25.21c-1.02,12.33 9.75,481.49 13.03,600.54"/>
   <path class="fil0 str0" d="M323.83 2053.17c5.66,89.13 21.33,604.67 36.64,545.59 23.72,-91.54 -99.75,-473.88 -151.44,-577.26"/>
   <path class="fil0 str0" d="M458.41 2037.33c11.17,98.53 22.36,527.68 28.73,554.52 22.37,-243.32 -8.51,-221.06 63.68,-475.69 7.15,-25.21 -17.18,24.04 -17.19,24.09"/>
   <path class="fil0 str0" d="M739.47 2136.3c-3.16,17.79 -51.01,675.21 -52.48,472.64 -0.14,-18.99 50.43,-559.42 -0.34,-429.33 -131.24,336.26 -126.46,19.49 126.56,23.98 166.85,2.96 -426.1,-366.12 -614.13,-187.97 -126.32,119.68 106.71,148.93 185.82,276.98 -24.69,70.64 -386.96,-65.72 128.82,2.03 198.54,26.09 -137.2,86.63 -69.89,-45.8 16.53,-32.53 183.1,-160.63 249.15,-79.51 -101.34,92.04 -338.98,-124.29 -61.08,-264.88 139.23,-70.43 263.83,42.2 107.56,84.37 -8.3,2.24 276.64,122.87 155.4,277.77 -78.36,100.12 -261.93,55.53 -261.93,-54.74 97.91,116.3 -312.78,69.43 -201.88,-175.76 37.27,-82.4 164.94,16.56 4.29,-31.78 -249.31,-75.01 44.27,-280.93 70.92,-65.59 13.65,110.3 -126.89,355.35 -142.85,345.4 -32.1,-20.01 -107.32,-424.23 -213.42,-244.41 -107.87,182.81 140.4,168.93 -40.94,118.42 -160.26,-44.64 63.22,209.62 192.94,118.9"/>
   <path class="fil0 str0" d="M3078.93 2579.64c-17.93,-101.61 -109.55,-416.22 98.29,-436.45 156.7,-15.26 122.57,191.1 10.63,86.86 -104.52,-97.32 213.39,-136.71 179.37,-18.21 -25.14,87.57 -365.74,105.19 -240,-95.23 62.59,-99.77 133.51,-153.02 -22.17,-205.62 -144.16,-48.71 192.55,159.27 -114.91,165.24 -64.99,1.26 56.49,195.82 -49.08,129.61 -134.83,-84.56 107.44,-40.71 -83.8,9.62 -173.19,45.57 139.68,116.6 172.25,103.93 -61.66,44.54 -26.96,245.52 -49.54,331.5 -39.34,2.88 89.43,-299.63 -7.24,-281.39 -179.43,33.85 -115.46,-22.4 -46.82,3.28 -8.04,13.12 -139.1,-1.8 -155.74,-2.94"/>
   <path class="fil0 str0" d="M3057.9 2473.7c63.65,-95.24 136.93,-180.43 282.29,-116.97 168.71,73.66 -22,228.28 -71.93,86.41 55.43,-87.28 281.02,186.45 66.96,156.31 -151.73,-21.37 -203.69,-221.61 -176.44,-39.02 27.1,181.53 -207.37,43.9 -95.8,-56.21 51.02,-45.78 129.34,-61 -54.96,-113.21 -134.75,-38.17 -135.02,7.88 -285.35,22.4 -194.15,18.75 391.27,97.64 140.92,121.36l-26.13 5.31"/>
   <path class="fil0 str0" d="M484.4 1562.32c-171.73,-52.66 -325.92,-76.47 -475.73,-89.72m66.79 -1096.4c14.12,214.61 -188.33,584.36 154.71,718.7 178.28,69.82 -16.2,-179.25 52.33,-25.32 71.36,160.26 297.37,-259.36 307.3,-133.95 7.76,97.92 -208.24,0.5 72.38,-247.72 74.84,-66.19 258.41,-175.37 325.78,-46.36 35.86,-74.26 253.12,-218.49 389.49,-70.11 45.88,49.92 112.86,173.95 148.03,199.51"/>
   <path class="fil0 str0" d="M3007.68 1514.82c261.29,16.85 728.34,24.91 881.39,-240.45 66.41,-115.15 -179.97,-292.62 -371.76,-71.25 -134.3,155.01 -250.08,-13.58 -311.36,-8.6 -65.87,5.35 -231.06,-121.51 105.18,-266.23 193.96,-83.48 97.14,-382.29 -145.45,-422.54 -217.85,-36.15 142.01,-36.55 79.51,-249.39 -78.4,-267.02 -1060.4,-426.52 -774.5,100.66 236.46,436.02 97.87,282.62 -84.48,421.52"/>
   <path class="fil0 str0" d="M1804.3 1505.55c-3.4,39.81 -9.44,192.89 -9.81,214.27 -0.17,9.32 -11.64,130.33 -11.59,130.64"/>
   <path class="fil0 str0" d="M1750.84 1514.6c-0.36,119.53 -9,227.82 -15.71,344.23"/>
   <path class="fil0 str0" d="M1710.18 1522.03c-0.35,113.82 -21.18,233.58 -18.8,344.51"/>
   <path class="fil0 str0" d="M1654.89 1536.72c-3.45,44.5 -9.18,189.98 -9.55,210.79 -0.16,9.32 -11.63,130.33 -11.59,130.64"/>
   <path class="fil0 str0" d="M1601.68 1547.8c-0.6,117.37 -9.09,224.1 -15.69,338.73"/>
   <path class="fil0 str0" d="M1560.99 1555.57c-1,112.06 -21.1,229.63 -18.76,338.67"/>
   <path class="fil0 str0" d="M1505.43 1568.47c-3.47,48.65 -8.88,186.52 -9.23,206.74 -0.17,9.32 -11.64,130.33 -11.59,130.64"/>
   <path class="fil0 str0" d="M1452.52 1578.26c-0.59,94.41 -6.24,182.02 -11.84,272.49"/>
   <path class="fil0 str0" d="M1411.77 1589.86c-0.86,55.27 -6.14,111.81 -10.9,167.92"/>
   <path class="fil0 str0" d="M2011.84 1919.65c-3.81,62.01 -10.59,300.43 -11.01,333.74 -0.18,14.51 -13.05,202.99 -13,203.49"/>
   <path class="fil0 str0" d="M1987.52 1516.01c-3.76,36.31 -10.45,177.07 -10.86,196.8 -0.18,8.6 -12.88,118.81 -12.83,119.1"/>
   <path class="fil0 str0" d="M2063.65 1532.73c-2.84,27.44 -25.63,285.6 -22.55,304.05"/>
   <path class="fil0 str0" d="M2090.03 1532.73c-2.52,27.44 -22.3,285.6 -19.01,304.05"/>
   <path class="fil0 str0" d="M1968.36 1919.65c-0.76,171.4 -12.99,366.33 -17.27,535.38"/>
   <path class="fil0 str0" d="M1947.34 1507.32c-0.4,112.06 -10.09,212.21 -17.61,320.3"/>
   <path class="fil0 str0" d="M1931.58 1919.65c-0.21,169.46 -7.46,368.89 -13.82,535.53"/>
   <path class="fil0 str0" d="M1913.12 1503.3c-0.21,102.01 -7.46,221.05 -13.82,320.47"/>
   <path class="fil0 str0" d="M2051.45 1919.65c-0.2,109.54 -8.46,219.2 -13.42,327.53 -0.92,20.23 -7.62,185.63 -6.56,196.91l0 -4.23"/>
   <path class="fil0 str0" d="M2024.21 1520.67c-0.2,65.93 -8.46,130.77 -13.41,195.28 -0.92,12.05 -7.63,110.67 -6.57,117.62l0 -2.55"/>
   <path class="fil0 str0" d="M1684.32 953.67c-0.61,52.61 4.72,254.07 5.98,282.15 0.54,12.24 -2.54,172.33 -2.47,172.74"/>
   <path class="fil0 str0" d="M1626.76 972.15c8.91,156.79 7.92,299.84 9.67,453.31"/>
   <path class="fil0 str0" d="M1583.01 986.94c8.48,149.28 -4.9,308.9 6.33,454.06"/>
   <path class="fil0 str0" d="M1523.88 1013.06c-0.28,58.78 4.79,250.25 6.01,277.57 0.55,12.23 -2.54,172.32 -2.46,172.73"/>
   <path class="fil0 str0" d="M1466.76 1034.19c8.48,153.96 7.54,294.97 9.26,446.08"/>
   <path class="fil0 str0" d="M1423.02 1049.41c7.62,147.06 -5.12,303.71 5.91,446.39"/>
   <path class="fil0 str0" d="M1363.46 1073.22c0.01,64.22 4.84,245.68 6.03,272.22 0.54,12.24 -2.54,172.33 -2.47,172.73"/>
   <path class="fil0 str0" d="M1306.54 1092.61c6.71,123.86 5.39,316.63 6.32,435.94"/>
   <path class="fil0 str0" d="M1263.03 1112.87c3.37,72.58 5.97,360.13 5.15,434.31"/>
   <path class="fil0 str0" d="M1772.7 1938.36c-1.38,57.83 0.96,281.36 1.8,312.65 0.36,13.63 -3.25,126.67 -3.18,127.14"/>
   <path class="fil0 str0" d="M1715.08 1942.98c6.57,175.25 3.47,332.66 2.95,502.29"/>
   <path class="fil0 str0" d="M1671.27 1947.3c6.25,166.87 -9.43,339.14 -0.39,502.21"/>
   <path class="fil0 str0" d="M1611.98 1959.91c-1.16,64.71 1.09,277.14 1.89,307.6 0.36,13.63 -5.07,189.25 -5,189.72"/>
   <path class="fil0 str0" d="M1554.75 1967.55c6.18,172.03 3.16,327.2 2.66,494.23"/>
   <path class="fil0 str0" d="M1510.95 1972.37c5.42,164.19 -9.58,333.37 -0.69,493.65"/>
   <path class="fil0 str0" d="M1481.47 2305.74c-0.13,18.91 1.95,150.11 3.4,160.88"/>
   <path class="fil0 str0" d="M1450.85 2383.89c0.36,13.64 -2.68,89.37 -2.61,89.84"/>
   <path class="fil0 str0" d="M2087.23 1926.33c83.46,58.93 160.35,126.12 237.74,192.3 9.44,8.07 4.26,2.55 -2.1,-6.09"/>
   <path class="fil0 str0" d="M2712.9 2292.64c-29.89,0 -319.93,-19.71 -320.64,-21.78"/>
   <path class="fil0 str0" d="M2392.26 2270.86c-12.21,-24.41 -102.27,-113.99 -100.94,-116.77 -17.16,-21 -156.77,-25.73 -191.99,-25.73"/>
   <path class="fil0 str0" d="M2299.24 2316.39c-29.42,-1.28 -193.27,-11.61 -219.7,-17.82"/>
   <path class="fil0 str0" d="M2680.03 2329.31c-88.96,-11.69 -344.93,-14.96 -355.09,-23.06"/>
   <path class="fil0 str0" d="M2680.56 2374.27c-88.47,-11.75 -345.44,-15.02 -355.62,-23.13"/>
   <path class="fil0 str0" d="M2324.95 2396.02c38.67,13.6 283.01,17.72 358.3,24.4"/>
   <path class="fil0 str0" d="M2324.95 2440.9c45.01,15.83 349.52,15.51 360.97,24.65"/>
   <path class="fil0 str0" d="M2501.59 2505.34c29.43,5.54 172.05,8.01 183.1,10.87"/>
   <path class="fil0 str0" d="M2687.52 2561.4c-19.11,-4.09 -111.12,-4.27 -164.12,-7.28"/>
   <path class="fil0 str0" d="M2689.9 2599.19c-27.73,-5.84 -197.54,-4.18 -204.14,-12.99"/>
   <path class="fil0 str0" d="M2108.76 2146.88c0,48.33 3.01,81.19 -1.07,131.37 -0.09,1.18 -1.16,21.09 1.07,10.15"/>
   <path class="fil0 str0" d="M2106.78 2317.1c-2.7,37.04 -4.95,46.39 -4.95,84.85l0 -2.71"/>
   <polyline class="fil0 str0" points="2962.81,2119.18 2936.09,2135.01 2689.67,2134.02 "/>
   <path class="fil0 str0" d="M2721.34 2150.84c-2.42,14.49 -4.84,231.1 -1.98,242.45"/>
   <path class="fil0 str0" d="M2499.69 2115.45c-53.09,4.48 -95.53,-4.76 -158.35,0.82"/>
   <polyline class="fil0 str0" points="2096.43,1527.25 1875.75,1489.27 1368.56,1602.08 "/>
   <path class="fil0 str0" d="M810.95 1749c5.19,18.26 -3.45,134.43 1.98,124.69"/>
   <path class="fil0 str0" d="M1009.58 1708.78l-119.69 0c30.76,25.74 87.08,79.92 111.07,111.14l3.96 2.32"/>
   <path class="fil0 str0" d="M2077.13 1045.7c-0.55,12.59 -1.41,25.19 -1.65,37.78 -0.74,38.89 -3.27,74.69 -4.96,113.33"/>
   <path class="fil0 str0" d="M2043.51 1038.79c0.21,38.41 -1.41,74.96 -3.1,113.33 -0.55,12.61 -2.34,25.19 -3.52,37.78"/>
   <path class="fil0 str0" d="M2009.89 1031.89c-7.35,51.46 -9.46,99.52 -6.61,151.11"/>
   <path class="fil0 str0" d="M1976.26 1024.98c-0.55,12.6 -1.41,25.19 -1.66,37.78 -0.51,27.21 -1.45,48.41 -3.3,75.56 -0.86,12.6 -1.1,25.18 -1.65,37.77"/>
   <path class="fil0 str0" d="M1942.64 1018.08c-4.87,34.13 -3.49,42.68 -3.3,75.56 0.07,12.61 -1.1,25.18 -1.66,37.77 -0.55,12.6 -1.1,25.19 -1.65,37.77"/>
   <path class="fil0 str0" d="M1909.02 1011.18c-0.55,12.59 -1.11,25.18 -1.66,37.77 -0.55,12.6 -1.41,25.18 -1.65,37.77 -0.52,27.44 -0.72,47.82 -3.3,75.56"/>
   <path class="fil0 str0" d="M2428.96 1285.22c0.37,-12.6 0.95,-25.19 1.11,-37.78 0.5,-38.89 2.19,-74.69 3.33,-113.34"/>
   <path class="fil0 str0" d="M2462.73 1292.13c-0.14,-38.41 0.95,-74.97 2.08,-113.34 0.37,-12.61 1.58,-25.18 2.36,-37.77"/>
   <path class="fil0 str0" d="M2496.5 1309.39c0.37,-12.59 0.32,-25.17 1.11,-37.78 2.03,-32.47 2.35,-42.94 2.22,-75.55 -0.05,-12.61 0.74,-25.19 1.11,-37.77"/>
   <path class="fil0 str0" d="M2530.27 1319.75c0.37,-12.59 0.74,-25.18 1.11,-37.77 0.37,-12.59 0.95,-25.18 1.11,-37.77 0.35,-27.44 0.49,-47.82 2.22,-75.56"/>
   <path class="fil0 str0" d="M2394.71 1278.31c0.37,-12.59 0.74,-25.18 1.11,-37.77 0.37,-12.59 0.32,-25.17 1.11,-37.77 2.05,-32.75 3.49,-41.13 2.22,-75.56"/>
   <path class="fil0 str0" d="M2382.44 1752.19c3.91,-34.49 2.8,-42.94 2.65,-75.8 -0.06,-12.6 0.88,-25.26 1.32,-37.9 0.44,-12.63 0.88,-25.27 1.32,-37.9"/>
   <path class="fil0 str0" d="M2415.79 1758.88c-0.18,-38.39 1.13,-75.06 2.47,-113.56 0.44,-12.65 1.88,-25.35 2.82,-38.03"/>
   <path class="fil0 str0" d="M2449.12 1765.57c0.44,-12.64 0.88,-25.27 1.32,-37.9 0.44,-12.63 0.89,-25.26 1.33,-37.9 0.44,-12.64 0.88,-25.26 1.32,-37.9 0.44,-12.64 0.88,-25.27 1.32,-37.9"/>
   <path class="fil0 str0" d="M2482.44 1770.03c0.44,-12.63 0.38,-25.2 1.33,-37.9 2.42,-32.7 2.8,-43.2 2.64,-75.8 -0.06,-12.6 0.88,-25.26 1.32,-37.9"/>
   <path class="fil0 str0" d="M2515.77 1774.49c0.44,-12.63 0.39,-25.2 1.33,-37.9 2.43,-32.7 2.8,-43.2 2.64,-75.79 -0.05,-12.61 0.88,-25.27 1.32,-37.9"/>
   <path class="fil0 str0" d="M2565.52 1923.19c13.39,0.75 26.84,1.91 40.15,2.25 28.75,0.73 51.28,2 80.3,4.5 13.46,1.16 26.76,1.5 40.15,2.25"/>
   <path class="fil0 str0" d="M2566.46 1967.36c37.1,6.49 45.76,4.68 80.3,4.5 13.24,-0.07 26.76,1.5 40.14,2.25 13.39,0.74 26.77,1.5 40.15,2.24"/>
   <path class="fil0 str0" d="M2567.4 2011.54c13.38,0.74 26.76,1.5 40.14,2.25 13.38,0.74 26.84,1.91 40.15,2.25 28.99,0.74 50.49,1.05 80.3,4.5"/>
   <line class="fil0 str0" x1="2756.86" y1="1287.49" x2="2749.44" y2= "1554.07" />
  </g>
 </g>
</svg>
