<?xml version="1.0" encoding="UTF-8"?>
<!DOCTYPE svg PUBLIC "-//W3C//DTD SVG 1.1//EN" "http://www.w3.org/Graphics/SVG/1.1/DTD/svg11.dtd">
<!-- Creator: CorelDRAW Home & Student 2018 (Nie do użytku komercyjnego) -->
<svg xmlns="http://www.w3.org/2000/svg" xml:space="preserve" width="52.6436mm" height="30.4849mm" version="1.1" style="shape-rendering:geometricPrecision; text-rendering:geometricPrecision; image-rendering:optimizeQuality; fill-rule:evenodd; clip-rule:evenodd"
viewBox="0 0 2334.44 1351.83"
 xmlns:xlink="http://www.w3.org/1999/xlink">
 <defs>
  <style type="text/css">
   <![CDATA[
    .str0 {stroke:#383A52;stroke-width:13.3;stroke-linecap:round;stroke-linejoin:round;stroke-miterlimit:22.9256}
    .str1 {stroke:#383A52;stroke-width:13.3;stroke-linecap:round;stroke-linejoin:round;stroke-miterlimit:22.9256;stroke-dasharray:26.606579 39.909869}
    .fil0 {fill:none}
   ]]>
  </style>
 </defs>
 <g id="Warstwa_x0020_1">
  <metadata id="CorelCorpID_0Corel-Layer"/>
  <g id="_1145313552">
   <path class="fil0 str0" d="M1487.6 87.58c42.5,55.25 56.2,125.37 38.22,185.06 -34.61,114.93 -166.55,128.04 -269.74,133.84 -535.03,30.19 -149.34,-188.84 -105.9,-121.62 21.11,32.67 -81.04,67.31 -156.05,72.2 -121.77,7.95 -142.93,-118.77 -91.84,-205.31 31.84,-53.92 97.07,-100.58 208.56,-113.59 215.07,-25.09 327.07,35.85 358.11,135.79 39.09,125.88 -68.1,184.49 -151.97,190.69 -43.39,3.2 -146.09,12.82 -236.57,2.77 -262.04,-29.09 -244.47,-254.21 -78.14,-327.11 38.02,-16.66 85.86,-26.73 142.86,-30.89 97.32,-7.1 277.14,-6.74 342.46,78.15z"/>
   <path class="fil0 str0" d="M910.86 863.35c0,-37.12 -10.44,-197.49 -13.27,-230.62 44.51,-6.86 532.88,-3.13 617.77,0 -6.86,47.75 16.86,277.92 -5.59,273.1 -238.28,0 -339.44,-17.81 -619.57,0"/>
   <path class="fil0 str0" d="M463.19 1307.22c0,-30.47 -5.92,-162.11 -7.53,-189.31 25.26,-5.63 302.47,-2.57 350.66,0 -3.89,39.2 9.57,228.14 -3.17,224.18 -135.25,0 -192.68,-14.62 -351.68,0"/>
   <path class="fil0 str0" d="M1698.32 630.03c12.11,183.11 -2.19,249.31 4.53,284.4 97.41,7.67 620.95,6.83 624.32,-7.73 4.63,-19.99 -18.13,-128.94 -13.27,-269.13 -350.23,-4 -518.33,-8.08 -567.74,0"/>
   <path class="fil0 str0" d="M116.55 678.53c16.53,71.89 -13.49,230.79 20.77,227.3 102.54,-10.43 591.67,12.33 584.97,0 -18.75,-172.94 1.27,-257.06 -9,-273.76 -6.2,-10.09 -40.29,-3.92 -157.07,-1.28 -192.69,4.35 -298.55,-4.05 -485.81,6.55"/>
   <path class="fil0 str1" d="M1395.87 1110.82c11.02,57.71 -8.98,218.34 13.87,215.54 68.41,-8.37 394.76,9.89 390.29,0 -12.51,-138.83 0.84,-206.36 -6.01,-219.77 -4.14,-8.1 -26.88,-3.14 -104.79,-1.03 -128.56,3.49 -168.42,-3.25 -293.36,5.26z"/>
   <path class="fil0 str0" d="M911.81 1110.82c9,57.71 -7.33,218.34 11.32,215.54 55.84,-8.37 322.23,9.89 318.59,0 -10.21,-138.83 0.69,-206.36 -4.91,-219.77 -3.37,-8.1 -21.94,-3.14 -85.54,-1.03 -104.94,3.49 -137.47,-3.25 -239.46,5.26z"/>
   <path class="fil0 str0" d="M11.4 1155.5c9.38,59.01 -7.65,189.45 11.79,186.59 58.2,-8.56 335.85,10.12 332.05,0 -10.65,-141.96 0.72,-211.02 -5.11,-224.73 -3.52,-8.28 -22.86,-3.22 -89.15,-1.05 -109.38,3.57 -148.02,-3.32 -254.31,5.38"/>
   <path class="fil0 str0" d="M1983.9 1302.45c9.38,-59.01 -7.65,-189.45 11.79,-186.59 58.2,8.56 335.85,-10.12 332.04,0 -10.64,141.96 0.72,211.02 -5.11,224.73 -3.52,8.28 -22.87,3.21 -89.15,1.05 -109.38,-3.57 -148.02,3.32 -254.32,-5.38"/>
   <path class="fil0 str0" d="M1203.75 434.57c3.42,26.13 2.14,134.73 2.11,153.29"/>
   <path class="fil0 str0" d="M1985.14 592.81c0.72,-8.86 3.93,-102.45 2.94,-105.3 -5.76,-2 -1546.39,17.21 -1558.01,22.74 1.55,15.68 3.31,53.24 1.78,75.57"/>
   <path class="fil0 str0" d="M408.61 905.25c-5.41,21.61 -0.18,142.16 -0.18,129.35"/>
   <path class="fil0 str0" d="M172.65 1078.92c-2.3,-15.51 -6.37,-40.49 5.18,-44.32 10,-3.31 31.7,0 76.36,0 50.2,0 403.01,-11.04 404.36,0 0.64,5.18 -1.71,43.57 1.02,44.32"/>
   <path class="fil0 str0" d="M1328.4 929.81c-3.83,19.35 -3.2,67.76 -3.29,82.33"/>
   <path class="fil0 str0" d="M1059 1082.47c2.43,-39.1 0.34,-46.19 8.08,-48.22 8.58,-2.23 522.25,3.36 523.42,3.91 0.28,9.61 -0.51,13.85 -0.51,44.31"/>
   <path class="fil0 str0" d="M2135.14 917.9c-11.26,48.85 -2.6,159.91 -10.12,194.15l-0.28 4.98"/>
   <path class="fil0 str0" d="M1633.45 1084.24c0,-17.03 1.77,-29.72 1.77,-44.27 21.4,0 135.96,-1.83 249.3,-1.17 122.8,0.72 244.2,3.92 244.09,2.95"/>
   <g>
    <path class="fil0 str0" d="M206.69 742.12c25.17,-2.86 380.2,-6.21 379.38,-4.5"/>
    <path class="fil0 str0" d="M281.15 798.85c76.73,-5.84 143.8,3.25 202.1,-1.19"/>
   </g>
   <path class="fil0 str0" d="M989.34 1219.15c11.6,-2.86 171.23,-4.84 174.94,-4.5"/>
   <g>
    <path class="fil0 str0" d="M1532.84 1188.33c49.47,3.76 92.71,-2.09 130.29,0.77"/>
    <path class="fil0 str0" d="M1497.99 1215.13c75.94,3.76 142.31,-2.09 200,0.77"/>
    <path class="fil0 str0" d="M1524.58 1241.93c55.74,3.76 104.46,-2.09 146.81,0.77"/>
   </g>
   <g>
    <path class="fil0 str0" d="M1013.46 738.09c59.11,0 114.49,-3.54 173.74,-3.54 68.59,0 140.52,3.12 209.2,3.12"/>
    <path class="fil0 str0" d="M1087.07 772.34c107.65,-6.91 200.52,3.55 307.56,3.55l-9.73 0"/>
    <path class="fil0 str0" d="M1150.03 796.67c15.84,0 100.78,3.72 102.82,3.55"/>
   </g>
   <g>
    <path class="fil0 str0" d="M1823.36 732.28c47.23,0 371.48,-2.49 379.38,8.66 -45.78,4.24 -89,11.67 -134.73,16.86"/>
    <path class="fil0 str0" d="M1805.64 785.87c50.16,0 380.82,-6.76 414.84,5.98"/>
    <path class="fil0 str0" d="M1960.55 817.19c54.42,-1.33 52.1,-1.29 105.03,0"/>
   </g>
   <path class="fil0 str0" d="M89.33 1277.26c124.35,-135.67 23.6,-29.89 24.51,-24.51 4.3,25.51 76.46,-32.74 82.17,-8 28.42,6.73 25.91,-17.55 91.88,-2.94"/>
   <g>
    <path class="fil0 str0" d="M557.43 1245.29c33.13,-3.91 115.31,0.16 145.37,0.16"/>
    <path class="fil0 str0" d="M544.58 1211.59c38.98,3.91 135.71,-0.16 171.08,-0.16"/>
   </g>
   <path class="fil0 str0" d="M2050.07 1284.36c211.66,-158.29 10.62,-122.17 50.25,-45.79 23.86,46.01 71.23,-73.26 59.67,0 27.52,17.46 90.19,-27.6 109.91,-18.03"/>
   <path class="fil0 str0" d="M982.83 220.66c291.15,-216.82 -12.99,-76.16 53.79,-35.15 49.35,30.31 101.61,-41.08 21.27,-8.61 -85.03,34.37 433.32,-1.18 300.17,24.82 -78.37,15.31 -520.2,40.22 -134.13,40.22l46.09 31.91"/>
  </g>
 </g>
</svg>
