<?xml version="1.0" encoding="UTF-8"?>
<!DOCTYPE svg PUBLIC "-//W3C//DTD SVG 1.1//EN" "http://www.w3.org/Graphics/SVG/1.1/DTD/svg11.dtd">
<!-- Creator: CorelDRAW Home & Student 2018 (Nie do użytku komercyjnego) -->
<svg xmlns="http://www.w3.org/2000/svg" xml:space="preserve" width="29.0267mm" height="14.5215mm" version="1.1" style="shape-rendering:geometricPrecision; text-rendering:geometricPrecision; image-rendering:optimizeQuality; fill-rule:evenodd; clip-rule:evenodd"
viewBox="0 0 830.23 415.35"
 xmlns:xlink="http://www.w3.org/1999/xlink">
 <defs>
  <style type="text/css">
   <![CDATA[
    .str0 {stroke:#383A52;stroke-width:8.58;stroke-linecap:round;stroke-linejoin:round;stroke-miterlimit:22.9256}
    .fil0 {fill:none}
   ]]>
  </style>
 </defs>
 <g id="Warstwa_x0020_1">
  <metadata id="CorelCorpID_0Corel-Layer"/>
  <path class="fil0 str0" d="M41.44 82.43c-53.71,-25.04 -30.26,88.74 22.24,25.99 51.47,-61.53 -191.22,-6.34 47.98,-6.34 43.48,0 112.99,-24.76 160.66,-12.11 17.15,23.7 41.31,37.21 60.91,62.67l70.54 0m219.08 -39.32c15.91,0 14.98,0 30.9,0 0,-29.51 0.94,-51.31 18.24,-45.49 19.7,6.61 154.72,149.76 153.98,158.87 -1.11,9.21 -125.2,124.19 -155.21,148 -20.34,16.14 -17.01,10.91 -17.01,-73.2 -11.92,-0.79 -16.86,0.78 -33.71,0m-28.08 -148.86c17.38,-0.09 36.19,-0.77 56.18,0m-109.54 47.61c15.39,-1.24 31.81,0 47.75,0m-143.25 0c12.17,0 24.35,0 36.52,0m78.64 101.25c15.66,1.33 19.96,0 36.52,0m-287.71 44.26c-47.45,8.82 -28.3,67.09 7.8,65.31 52.89,-2.62 38.66,-51.68 17.74,-50.34 0.06,-0.59 42.52,-45.32 49.94,-55.69 0.54,-0.76 105.99,-3.53 127.97,-3.53m2.81 -188.18c17.12,0.35 50.45,0 67.4,0m-418.5 -102.35c-29.07,87.39 108.88,-17.12 14.05,-5.85 -0.32,0.03 -60.75,38.67 25.28,28.08 25.16,-3.1 74.75,-2.16 101.1,6.55 24.43,24.18 43.27,49.04 64.9,73.57l83.98 0m-306.15 199.41c100.97,0 97.89,3.52 125.56,1.88 5.29,-6.68 16.94,-40.99 42.96,-64.22 5.39,3.1 248.51,3.36 273.18,3.36m-525.96 53.37c-78.57,34.65 91.22,83.99 61.31,-18.05 -7.46,-25.45 -83.56,20.49 -69.73,54.56m113.41 -154.47c-77.27,-25.36 -11.37,108.03 34.97,17.57 55.26,-107.87 -157.17,40.4 -11.57,-6.69 8.45,-2.73 162.08,-2.46 186.19,-2.46m78.64 -44.93c14.98,0 29.96,0 44.94,0"/>
 </g>
</svg>
