<?xml version="1.0" encoding="UTF-8"?>
<!DOCTYPE svg PUBLIC "-//W3C//DTD SVG 1.1//EN" "http://www.w3.org/Graphics/SVG/1.1/DTD/svg11.dtd">
<!-- Creator: CorelDRAW Home & Student 2018 (Nie do użytku komercyjnego) -->
<svg xmlns="http://www.w3.org/2000/svg" xml:space="preserve" width="259.575mm" height="103.078mm" version="1.1" style="shape-rendering:geometricPrecision; text-rendering:geometricPrecision; image-rendering:optimizeQuality; fill-rule:evenodd; clip-rule:evenodd"
viewBox="0 0 25957.64 10307.89"
 xmlns:xlink="http://www.w3.org/1999/xlink">
 <defs>
  <style type="text/css">
   <![CDATA[
    .str0 {stroke:#383A52;stroke-width:10.58;stroke-linecap:round;stroke-linejoin:round;stroke-miterlimit:22.9256}
    .str1 {stroke:#383A52;stroke-width:10.58;stroke-linecap:round;stroke-linejoin:round;stroke-miterlimit:10}
    .fil0 {fill:none}
    .fil1 {fill:none;fill-rule:nonzero}
   ]]>
  </style>
 </defs>
 <g id="Warstwa_x0020_1">
  <metadata id="CorelCorpID_0Corel-Layer"/>
  <path class="fil0 str0" d="M1073.06 2582.91c-2.42,178.47 -302.1,266.22 -554.09,319.97 -258.28,55.09 -276.87,142.47 -328.96,316.04 -31.82,106.04 -82.76,236.9 -76.78,388.58 10.14,257.46 -118.53,74.07 62.38,372.44 14.93,24.64 -149.27,142.91 -83.27,302.91 150.51,364.83 -300.08,116.12 48.64,73.22 144.64,-17.79 367.58,24.24 374.68,204.33 3.68,93.4 -373.83,-65.78 -417.11,9.25 60.74,105.29 47.07,23.53 74.41,157.67 28.65,140.54 -88.07,211.57 3.84,434.41 72.83,176.58 9.97,293.6 262.7,397.87 170.34,70.26 135.6,-206.7 157.67,-211.19 45.72,-9.31 282.41,38.56 33.16,-136.13 -191.41,-134.16 -262.7,-102.28 -262.7,-443.73 0,-30.21 4.25,-202.73 -23.12,-189.65m6149.12 -2618.86c34.73,54.22 186.64,52.03 227.1,-3.09m-310.89 -8.13c0,0 3.22,-39.66 43.7,-24.2 40.48,15.46 241.85,11.19 257.68,1.41 20.65,-12.77 58.48,-8.67 57.57,7.73 -0.29,5.05 -1.49,19.16 -2.24,21.25m-1536.51 5811.9c-7.63,124.72 -147.28,375.08 -340.37,364.67 -10.13,-0.55 -241.93,-68.02 -266.43,-146.94 -12.23,-39.38 22.62,-77.8 57.22,-73.24 62,8.17 41.08,157.32 33.79,194.72 -24.46,125.66 -32.03,347.69 -90.26,712.69 -13.21,82.78 -22.95,801.7 -17.45,903.07 5.93,109.33 8.43,197.3 -9.55,265.4 -52.6,199.29 -289.1,230.29 -301.74,229.36 -25.85,-3.48 -124.16,-66.2 -116.73,-174.04 16.23,-234.4 186.68,-526.97 186.68,-912.39 0,-384.6 -44.45,-756.76 -107.54,-1084.34 -9.25,-48.08 -21.26,-82.75 -125.34,-176.83 -458.98,-415.01 -1370.84,-273.07 -1370.84,-389.25 0,-106.38 125.29,-876.03 145.48,-1235.4 21.06,-374.84 153.32,-1143.76 282.41,-1490.68 31.34,-91.69 112.33,6.22 121.38,75.36 4.78,184.71 -276.95,1635.68 -321.56,1916.92 -103.89,654.86 -198.68,1022.31 -258.3,2200.51 -8.21,162.28 -37.37,311.73 -72.37,442.53 -25.68,95.93 -109.53,445.95 -89.13,537.97 16.97,76.52 97.14,44.2 319.88,93.32 106.5,23.48 90.36,91.57 -34.37,184.22 -167.15,124.18 -282.92,6.98 -302.94,-155.7 -10.28,-83.6 113.15,20.09 394.16,-105.35 32.57,-318.86 -34.26,-580.94 -28.61,-626.98 22.62,-183.96 327.86,-1007.62 379.19,-1483.49 5.58,-51.79 61.7,-288.6 64.36,-302.39m-55.89 -3085.05c-6.91,137.93 -88.04,106.76 49.87,159.39 292.49,111.55 702.82,111.54 1087.34,-31 52.26,-19.38 214.97,732.19 242,927.76 83.17,601.76 8.84,1693.02 124.49,2156.07m1472.88 -5120.73c-1.2,-64.46 12.75,-192.54 107.88,-173.16 36.25,31.78 127.38,127.61 149.52,201.26 11.48,38.2 13.9,124.35 35.81,198.07m-342.76 -1272.89c8.18,-7.81 16.4,-139.49 33.14,-169.32 32.11,-57.19 18.97,-125.06 111.71,-190.73 87.02,-61.62 115.43,-58.39 226.44,-58.39 91.49,0 272.69,-3.76 304.89,102.65 35.93,118.72 83.81,221.21 78.36,348.88 -0.42,9.81 36.97,180.08 36.97,259.52 0,128.36 2.45,185.82 -69.4,307.01 -2.79,4.7 -2.79,2.37 -6.06,-1.25m-1197.51 299.34c94.33,18.99 546.8,-118.67 545.36,-116.52 -214.92,321.21 184.24,1455.5 83.62,1401.31 -146.23,-78.76 -550.3,-1022.12 -381.46,-1084.13 338.34,-124.24 49.34,-10.75 -6.45,-106.31 -7.05,-12.09 76.66,-152.22 95.84,-161.54m-699.34 2830.2c-8.94,186.31 -136.48,89.23 -220.38,190.44 -3.11,3.76 -203.34,-1177.45 26.47,-1170.42 92,2.82 377.61,129.8 312.07,-23.36 -26.27,-61.39 -613.42,-92.63 -409.94,-145.91 338.05,-88.52 778.69,167.73 193.29,-144.13 -143.78,-76.6 -48.45,-127.25 -31.81,-356.11 9.81,-134.98 283.83,-1066.75 374.35,-1035.41 121.3,471.68 221.01,1657.96 -40.93,2078.61 -7.18,11.54 339.56,51.17 337.43,24.02 -24.23,-309 -176.22,-161.44 -234.22,-187.51m640.04 4941.53c-37.66,-36.37 37.23,-477.73 37.23,-581.55 0,-476.72 167.11,-2022.19 54.5,-2347.59 -29.7,-62.05 -102.75,-360.67 -108.66,-433.06 -359.47,230.84 -542.76,2616.52 -553.71,3208.47 -5.72,308.9 -13.93,189.5 -450.86,256.91 -105.3,304.18 -723.98,581.69 -245.12,654.21 218.5,33.07 379.1,-56.82 448.32,-191.67 42.77,-83.31 50.04,-139.19 45.91,-34.37 -0.86,22.14 171.74,9.11 223.58,-54.76 10.47,-24.51 16.21,-79.09 11.98,-116.51 -14.99,-132.43 57.05,-299.97 -336.76,-232.87 -62.25,10.6 -20.09,-78.53 -202.41,-78.53 -25.48,-308.58 -43.87,-778.74 -33.2,-1326.2m4.55 -278.38c8.24,-1196.5 61.49,-2405.8 85.81,-2375.58 131.85,163.86 211.23,178.8 471.55,158.38 205.4,-16.12 449.9,-803.49 605.89,-1022.52m815.11 -2126.34c9.81,379.66 74.95,280.81 -65.75,263.5 -2.41,-0.29 118.31,22.14 43.14,179.06 -211.04,440.58 -191.47,408.78 -498.9,800.86 -59.95,76.47 -247.48,244.9 -265.35,322.53 -71.23,309.21 -32.09,637.65 99.64,926.41 83.71,183.48 253.05,543.82 469.32,570.2 163.03,19.88 174.8,14.05 331.2,-12.02 15.43,-2.57 -1.25,6.68 -3.9,8.12 57.6,260.17 115.13,38 -0.99,346.77 -113.19,300.96 -146.68,714.06 -192.63,1051.99 -86.55,636.6 -116.15,1785.46 -383.13,2559.27 -174.84,60.62 -396.37,-45.35 -396.37,-30.47 0,50.46 -68.88,400.15 3.89,397.03 149.58,-6.4 -28.49,104.04 224.78,184.29 99.5,31.53 335.23,140.09 404.81,-28.59 19.13,-46.39 15.02,-288.23 -145.58,-284.15 -136.61,3.47 -206.76,-8.44 -347.77,49.6 -5.96,2.45 -30.83,1 -38.92,1m-234.89 -8072.11c94.37,51.32 -30.59,176.4 253.84,107.03 51.15,-15.43 48.69,-101.97 73.66,-119.6 14.81,-7.66 52.96,-11.82 69.02,-5.81 22.49,17.52 43.56,89.24 76.48,107.25 14.57,16.14 126.5,25.01 196.28,-6.22 47.94,-21.47 53.23,-64.16 51.73,-113.07 -0.76,-24.97 -7.55,-54.17 -28.19,-92.12 -50.32,-31.37 -279.5,4.79 -298.92,62 -22.93,3.65 -44.71,2.03 -69.04,0 -62.75,-72.3 -246.97,-34.5 -298.81,-1.17 -41.04,26.39 -52.09,-13.95 -69.5,-211.73 -10.13,-115.16 99,-325.62 203.08,-358.11 130.27,-40.66 133.87,-99.22 321.29,-68.77 222.21,36.08 248.42,112.61 384.47,442.45 33.16,80.41 -90.51,135.34 0,188.85 100.01,59.11 -131.34,299.62 -130.34,324.96 0.05,1.31 -93.58,247.81 -139.46,22.68 -16.09,-78.95 -417.51,-172.35 -397.7,78.53 12.35,156.44 -310.52,-335.67 2.67,193.95 64.54,109.14 297.31,84.15 430.61,-56.49 128.76,-135.85 56.04,282.64 -59.6,323.85 -261.24,93.1 -2.18,105.77 -205.08,330.75 -124.18,137.69 -113.03,791.76 -144.58,991.38 -0.58,3.68 436.51,-470.15 467.1,-792.08 8.16,-85.92 95.03,-719.97 116.77,-696.22 77.52,84.74 651.49,325.29 699.99,296.5 88.98,79.63 65.2,440.16 76.26,569.3 22.47,262.17 85.69,711.82 77.52,951.67 -5.7,167.5 93.64,250.11 -9.11,483.67 -0.4,0.89 -54.57,184.75 -72.97,232.88 -67.61,176.88 -114.86,349.92 -205.96,513.48 -79.28,142.31 13.47,56.38 -217.98,27.91 -91.15,-11.21 105.71,28.12 39.59,-104.43 -15.71,-31.49 -61.71,-345.68 -48.71,-381.8 37.17,-103.3 72.58,-116.19 110.32,-273.03 87.84,-365.05 902.42,137.03 905.28,-217.88 0.9,-111.91 -1099.04,157.87 -929.3,-55.04 35.33,-44.32 404.48,-104.3 293.93,-176.04 -70.98,-46.06 -364.15,156.37 -288.03,29.13 54.71,-91.47 15.71,-463.45 -23.7,-583.88 -67.45,-206.21 193.63,-707.74 193.63,-731.79m-4284.8 1049.2c105.16,89.02 779.02,255 912.78,169.7 11.36,-7.27 30.28,-33.08 38.56,-44.4 84.74,-115.88 64.46,-85.63 132.33,-197.78 13.09,-21.63 -371.34,37.04 -288.07,198.72m-1568.1 559.48c28.73,80.83 298.64,145.54 266.67,-169.79 -8.92,-88.03 -110.89,-102.04 -95.8,-162.08 11.2,-44.57 149.88,-233.44 52.85,-215.51 -97.03,17.94 123.9,179.55 148.78,200.16 102.62,84.99 544.05,183.05 694.82,177.12 0.48,-0.02 146.9,3.89 105.11,3.89m-749.23 -880.89c-6.62,22.72 -53.03,95.24 -57.58,132.97m1469.27 -740.16c-77.45,70.64 -361.85,63.27 -472.73,1.13 -76.78,-43.02 -97.97,-81.44 -134.14,-113.45 -19.52,-17.27 -240.97,229.06 -319.24,417.24 -61.86,-265.29 180.5,-479.14 140.41,-485.75 -9.7,-1.59 -140.14,5.78 -145.02,7.79 0,40.58 122.15,37.75 42.49,75.52 -31.37,14.87 14.76,64.13 -84.64,63.61 -127.19,-0.66 -361.62,244.22 -429.17,347.77 -116.36,178.4 -48.68,6.53 42.81,173.82 50.32,92.01 314.16,77.72 229.67,144.03 -19.94,15.64 -58.4,81.88 -58.4,107.66m1545.48 100.7c-53.39,190.83 -187.85,433.13 -255.73,530.77 -65.64,94.44 -103.79,95.31 -179.94,161.47 -29.24,25.42 -64.23,45.73 -195.06,-8.22 -38.81,-16.02 -204.33,-30.78 -312.39,-72.4 -161.16,-62.05 -259.26,-147.08 -395.7,-229.66 -176.39,-106.74 -193.93,14.9 -460.65,-199.74 -89.3,-71.85 -400,215.68 -92.09,-160.92 15.54,-19.01 48.11,-54.5 73.62,-54.5 81.5,-7.28 256.03,121.76 298.53,143.39m1075.16 -1525.8c11.04,29.9 -52.14,264.35 -8.41,370.35 90.8,220.13 513.03,176.97 503.13,428.17 -0.09,2.28 225.03,590.26 159.93,525.16 -17.35,-17.34 -182.71,77.1 -349.33,-37.15 -97.19,-66.63 -268.49,-46.33 -336.76,76.85m-697.92 -1504.91c14.09,83.18 99.1,212.99 99.3,213.91 10.11,49.74 148.86,205.64 198.35,187.52 159.21,-58.32 180.04,-66.05 303.11,-195.8 18.62,-19.62 55,-69.99 55,-98.59m-149.86 9.73c77.68,-68 76.94,-101.59 95.37,-194.63m-659.78 233.56c-47.82,-116.94 80.68,-143.18 12.18,-251.57 -66.54,-105.28 -105.11,-250.65 -21.92,-360.06 92.77,-122 198.38,-281.48 371.73,-266.3 16.87,1.47 18.27,7.13 51.11,-14.9 64.86,-43.51 233.74,6.73 299.89,44.43 120.98,68.95 251.68,278.16 166.05,420.06 -47.55,78.78 -210.89,-0.34 4.55,-9.57 53.16,-2.28 170.41,157.74 -31.14,266.13 -37.05,19.94 -27.18,137.11 -34.86,74.46 -7.2,-58.65 -79.43,-224.18 -117.11,-268.58 -52.56,-61.93 -101.04,-68.99 -101.04,-173.21 0,128.02 38.29,172.85 112.21,259.52 21.28,24.94 -161.06,-48.54 -272.3,-214.76 -30.02,-44.84 28.12,62.2 48.65,89.69 65.78,88.04 7.45,-13.78 -60.33,34.36 -38.34,27.24 -150.38,-53.73 -177.11,-21.57 -33.65,40.52 -38.6,103.58 -99.43,-26.41 -37.52,-80.2 10.74,-247.94 -35.63,-76.07 -23.36,86.56 14.12,238.01 12.95,237.44 -84.26,-40.97 -70.07,-164.45 -70.07,27.25 0,5.59 0.96,32.05 7.78,19.46m-2084.89 502.64c-166.19,55.84 -469.91,-19.18 -531.28,-446.69 -4.99,-34.71 40.08,-63.64 36.84,-88.51 -34.32,-263.69 115.39,-29.44 62.62,-288.5 -34.49,-169.24 123.99,-210.12 273.71,-183.35 114.73,20.51 218.27,124.11 270.44,125.39 71.47,1.75 88.34,-97.51 88.28,-100.05 -2.33,-99.04 -222.74,-176.92 -314.96,-184.27 -184.25,-14.69 -411.92,69.32 -453.37,272.65 -12.11,59.42 -4.78,168.89 4.66,237.81 13,94.82 -53.06,23.86 -59.59,82.34 -2,17.99 -37.09,160.72 51.08,263.13 4.47,5.2 32.4,26.5 45.63,9.5m1584.39 2223.75c-90.19,-289.18 -292.41,24.44 -450.15,-160.45 -112.32,-131.66 505.25,142.29 170.22,-96.22 -8.76,-6.24 -190.21,-138.63 -16.11,-74 182.26,67.65 331.14,241.1 306.08,-104.15 -1.31,-18.07 -19.29,-45.94 -19.29,-92.51 62.05,-136.94 -150.46,-537.95 -185.03,-872.03 -15.48,-149.6 -76.07,-245.86 -215.58,-261 -96.76,-10.51 -218.61,-56.37 -338.59,-77.73 -150.21,-26.74 -303.07,17.2 -398.09,39.05 -207,47.61 -361.51,186.1 -380.01,255.16 -16.05,59.89 -89.32,-426.95 -6.8,-391.08 129.32,56.2 530.46,221.59 543.45,382.48 0.38,4.7 318.34,-388.12 138.77,-370.06 -104.69,10.54 -106.92,-8.58 -77.13,-126.35 9.38,-37.09 16.65,-76.84 30.08,-142.73 43.79,-214.89 242.27,-39.41 166.92,-403.51 -38.15,-13.21 -54.58,73.85 -116.99,-26.04 -40.72,-65.14 -62.18,-162.22 -46.82,-228.82 71.44,-309.75 301.09,290.06 90.2,298.36 -32.78,1.28 -58.76,-29.76 -74.41,-74.12 -19.01,-32.29 -167.39,-29.85 -217.85,-15.55 -21.02,5.96 -22.8,53.7 -44.19,54 -18.96,0.27 -36.17,-1.07 -55.47,-1.8 -24.79,-0.94 -21.43,-39.64 -48.66,-46.3 -31.84,-7.8 -195.1,-30.41 -233.67,8.67 -12.12,20.13 -23.96,55.95 -15.78,96.17 6.55,32.21 15.07,45.51 50.69,51.05 34.68,5.38 86.94,4.07 124.42,2.41 47.98,-2.1 76.52,-4.02 102.04,-67.8 2.55,-7.04 11.05,-17.31 21.52,-18.48 16.97,-1.9 36.2,-3.31 56.6,0.54 8.09,1.53 12.96,18.19 16,26.1 9.33,24.31 18.64,59.03 91.68,61.55 9.05,0.31 80.07,3.17 95.14,2.91 47.18,-0.79 49.01,-21.41 78.16,-85.93m-1213.66 2536.85c-69.9,224.14 -107.21,907.35 -87.5,1155.24 36.6,460.34 45.24,943.15 96.87,1405.54 0,200.64 27.75,418.92 27.75,666.11 0,436.81 27.63,939.72 9.26,1369.21 -18.1,423.19 529.18,-51.07 603.59,289.11 59.75,273.12 122.52,361.9 -147.99,397.32 -95.85,12.56 -108.89,105.06 -282.3,198.74 -139.9,75.57 -456.87,35.56 -380.45,-151.77 68.33,-167.52 211.58,-165.49 266.49,-239.24 95.8,-128.67 121.75,-199.77 177.53,-230.43 23.69,-13.01 322.57,-201.79 331.27,-208.74 22.46,-17.95 -19.39,-25.23 5.19,-98.31 176.34,-524.22 -74.67,-1970.88 104.41,-2471.49 61.64,-172.33 48.12,-765.32 62.37,-806.47 144.36,-49.94 198.95,767.78 194.28,914.32 -10,313.87 81.71,898.54 2.38,1236.65 -23.31,99.35 -195.04,1601.55 -104.44,1692.16 249.26,249.27 14.2,362.28 478.99,484.18 455.62,119.5 324.35,-326.67 39.38,-582.84 -111.52,-100.25 -7.52,-293.85 -205.91,-128.73 -122.7,102.13 -430.55,-243.28 86.44,-137.98 55.06,11.22 76.29,-321.64 155.68,-475.78 187.64,-364.3 252.41,-1562.04 241.33,-1998.05 -4.75,-187.08 72.75,-377.98 36.22,-623.81 -16.76,-112.79 -0.31,-888.23 -7.67,-889.73 -469.79,-95.74 100.67,-279.38 -197.45,-39.38 -44.29,35.65 -477.84,85.64 -101.77,-100.97 72.55,-36 178.13,-341.18 323.01,-34.63 122.76,259.74 220.5,-48.89 171.18,-110.41 -15.29,-19.08 -90.79,-20.09 -120.88,34.74 -17.65,32.21 -21.12,84.16 -0.03,115.9 37.53,56.48 131.99,79.01 137.93,-206.76 1.53,-73.79 177.25,-51.5 93.31,-463.36 -25.85,-126.85 -402.73,-176.13 -299.22,74.81 33.27,80.64 -58.23,429.39 -182.1,341.18 -28.95,-20.62 -471.49,136.81 -827.97,127.46 -34.48,-0.9 -410.12,-13.01 -584.23,-107.89 -68.78,-37.48 -97.51,-134.98 -55.18,-276.66"/>
  <path class="fil1 str0" d="M3855.63 2204.79c136.88,60.93 -12.1,124.16 23.99,90.03 20.19,-33.13 -60.82,-12.27 -45.12,-3.32 10.3,-0.51 11.11,53.86 -73.97,22.26 -18.66,-22.6 -60.14,32.3 -40.27,-45.02 12.42,-48.35 22.98,-134.51 8.57,-188.08"/>
  <path class="fil1 str0" d="M3729.83 2438.88c41.95,0 23.91,-34.4 104.98,-30.91 16.57,0.66 20.61,-27.57 119.23,-18.06 26.78,2.59 29.94,-7.27 49.05,-11.24 0.09,-0.43 -31.22,40.24 -102.56,37.43 -19.7,-0.77 -27.07,30.03 -118.87,26.41 -32.07,-1.26 52.03,104.92 188.12,-24.53"/>
  <path class="fil1 str0" d="M3858.26 2070.09c20.23,-18.41 33.52,-34.82 46.29,-46.34"/>
  <path class="fil1 str0" d="M3903.84 2066.79c37.87,2.77 87.15,-17.63 104.98,-29.71"/>
  <path class="fil1 str0" d="M3968.68 2016.85c1.32,3.23 2,6.68 2,10.17 0,14.96 -12.12,27.08 -27.09,27.08 -14.96,0 -27.08,-12.12 -27.08,-27.08"/>
  <path class="fil1 str0" d="M3667.62 2080.08c2.89,3.28 2.98,5.53 2.98,9.92 0,9.93 -8.05,17.98 -17.98,17.98"/>
  <path class="fil1 str0" d="M3646.17 2075.45c40.58,0.21 85.41,34.16 64.67,34.16 -25.06,0 -32.83,11.64 -55.61,16.79"/>
  <path class="fil1 str0" d="M6654.51 1490.72c12.76,-33.86 44.24,-38.59 75.5,-39.45 34.09,-0.92 104.5,-12.94 120.62,-5.63 12.81,5.82 22.39,11.62 29.3,33.81 4.13,13.28 6.42,18.3 -33.03,11.27 -41.26,-7.36 -69.55,-5.81 -111.68,3.06"/>
  <path class="fil1 str0" d="M6283.2 1521.83c26.45,-72.65 76.78,-51.37 121.11,-62.1 27.47,-6.65 43.98,-5 54.44,2.9 80.25,60.7 26.28,45.75 -26.52,43.62 -33.16,-1.35 -70.42,0.15 -95.58,12.94"/>
  <path class="fil1 str0" d="M6496.18 1802.23c1.9,-19.66 24.07,-22.03 34.03,-11.86 23.95,24.47 49.75,41.13 75.6,13.89 20.24,-21.33 63.39,-35.83 68.79,6.64 2.5,19.56 47.5,-42.34 11.92,-62.26"/>
  <path class="fil1 str0" d="M6673.46 1568.53c49.96,-28.66 27.65,-39.1 101.52,-37.66 41.27,0.82 81.63,27.78 94.45,38.67"/>
  <path class="fil1 str0" d="M6685.72 1577.24c31.66,-2.89 33.39,-28.92 69.31,-36.97 49.2,-11.04 78.75,31.31 98.21,29.64"/>
  <path class="fil1 str0" d="M6476 1592.73c-13.55,-1.95 -43.99,-21.81 -67.87,-23.04 -5.48,-0.28 -20.46,2.24 -30.43,7.22 -17.2,8.58 -29.64,23.63 -22.21,23.63 1.64,0 15.45,7.38 31.64,7.98 11.23,0.44 24.88,0.31 36.06,-1.33"/>
  <path class="fil1 str0" d="M6322.95 1596.74c7.53,-19.97 24.17,-38.82 43.09,-42.4"/>
  <path class="fil1 str0" d="M6479.05 1569.91c-11.44,-6.77 -18.43,-11.35 -35.08,-14.81"/>
  <path class="fil1 str0" d="M6833.01 1562.32c-13.6,8.7 -23.14,13.95 -39.4,16.25"/>
  <path class="fil1 str0" d="M6486.41 1742.23c-8.59,11.38 -11.54,17.32 -12.99,33.89"/>
  <path class="fil1 str0" d="M6395.21 1603.1c-3.93,-4.26 -6.12,-9.85 -6.12,-15.65 0,-5.89 2.25,-11.56 6.3,-15.84"/>
  <path class="fil1 str0" d="M6789.74 1577.61c4.47,-4.84 6.95,-11.19 6.95,-17.78 0,-7.23 -3,-14.15 -8.27,-19.1"/>
  <path class="fil1 str0" d="M6431.72 1575.19c2.31,3.68 3.53,7.93 3.53,12.26 0,4.49 -1.32,8.88 -3.78,12.64"/>
  <path class="fil1 str0" d="M6751.89 1541.34c-4.88,4.92 -7.63,11.57 -7.63,18.49 0,14.48 11.74,26.22 26.23,26.22 1.1,0 2.21,-0.08 3.32,-0.22"/>
  <path class="fil1 str0" d="M6579.35 1857.27c6.4,19.15 -1.57,29.86 -12.7,38.43"/>
  <path class="fil1 str0" d="M1424.02 2205.25c19.12,30.07 36.68,40.51 47.79,56.63 7.64,11.07 6.3,26.77 -20.72,44.32 -5.13,-20.39 -29.7,-22.55 -47.5,-9.48 -19.49,18.02 -42.92,35.34 -66.94,-4.94 -33.64,-18.04 -33.99,9.18 -54.51,5.32 -10.46,0.39 -19.25,-50.43 14.48,-56.99"/>
  <path class="fil1 str0" d="M1240.33 2422.98c16.21,-8.41 79.64,-22.11 91.14,-28.26 23.25,-12.4 19.03,22.28 76.92,-1.68 8.54,-3.54 70.67,43.39 108.5,33.34 -13.98,9.83 -77.31,57.33 -125.32,55.28 -74.69,-3.18 -72.8,14.24 -137.41,-40.88 -16.41,-13.98 162.45,-1.86 174.66,-6.87"/>
  <path class="fil1 str0" d="M1450.63 2033.83c56.18,-41.87 157.22,-28.35 216.14,-2.84"/>
  <path class="fil1 str0" d="M1306.24 2027.39c-48.92,-3.8 -64.01,-5.77 -127.29,-16.93 -38.4,-7.82 -96.4,15.86 -127.59,45.46"/>
  <path class="fil1 str0" d="M1531.34 2112.62c11.78,2.5 76.11,-13.25 59.07,-23.33 -90.19,-59.51 -109.83,5.25 -142.8,11.33"/>
  <path class="fil1 str0" d="M1541.53 2066.6c3.95,4.81 6.1,10.85 6.1,17.07 0,14.88 -12.08,26.96 -26.96,26.96 -14.89,0 -26.96,-12.08 -26.96,-26.96 0,-4.58 1.16,-9.08 3.39,-13.08"/>
  <path class="fil1 str0" d="M1228.76 2073.53c2.4,4.11 3.65,8.77 3.65,13.53 0,14.88 -12.08,26.96 -26.97,26.96 -14.88,0 -26.96,-12.08 -26.96,-26.96 0,-4.58 1.17,-9.08 3.4,-13.08"/>
  <path class="fil1 str0" d="M1464.97 2094.91c6.06,10.33 18,15.58 28.95,18.04"/>
  <path class="fil1 str0" d="M1243.28 2113.44c3.95,-1.4 27.52,-6.07 30.58,-6.75 26.45,-5.91 -32.35,-29.33 -39.08,-32.55 -31.58,-15.13 -75.2,4.66 -98.68,25.81 12.52,5.85 37.35,18.05 51.28,16.86"/>
  <path class="fil1 str0" d="M1117.17 2089.15c8.47,-12.35 25.24,-22.39 38.47,-30.39"/>
  <path class="fil1 str0" d="M9407.42 2077.95c-20,-13.59 -93.05,-52.14 -143.47,-50.02 -26.96,1.13 -78.8,32.1 -97.67,47.82"/>
  <path class="fil1 str0" d="M9370.8 2143.45c1.77,-1.35 2.65,-3.08 1.29,-4.71 -12.62,-15.22 -46.06,-47.54 -77.88,-48.16 -24.87,-0.48 -45.47,11.16 -57.35,20.08 -14.63,10.99 -36.79,17.32 -54.69,2.82"/>
  <path class="fil1 str0" d="M9227.27 2124.96c7.41,5.1 27.17,33.33 100.19,19.92"/>
  <path class="fil1 str0" d="M9591.22 2433.9c-31.47,21.2 -74.19,-11.54 -120.1,16.02 -11.98,7.19 -32.47,-10.87 -57.53,-6.36 -9.21,1.66 -104.65,9.87 -126.91,7.62 0.01,0.55 14.67,3.38 24.23,6.3 82.02,24.99 124.4,19.27 189.55,11.77 22.93,-2.63 47.58,-2.97 68.13,-15.54"/>
  <path class="fil1 str0" d="M9320.77 2467.86c22.72,4.75 54.34,63.63 153.65,53.61 43.64,-4.39 89.85,-46.21 98,-52.66"/>
  <path class="fil1 str0" d="M9503.8 2171.53c6.43,33.06 6.18,103.56 20.83,144.14 16.37,45.34 -25.82,94.65 -65.41,57.34 -11.12,-10.48 -66.22,-33.81 -46.07,-1.06 11.14,18.09 -80.83,-34.62 -29.62,-72.63"/>
  <path class="fil1 str0" d="M9540.57 2300.58c35.12,52.92 -1.77,46.14 -13.7,65.4"/>
  <path class="fil1 str0" d="M9533.89 2080.47c15.04,-3.87 66.2,-22.78 102.77,-35.61 33.72,-11.82 69.54,6.57 83.89,27.76"/>
  <path class="fil1 str0" d="M9549.27 2136.11c21.44,-12.27 15.04,-41.23 81.46,-43.77 14.06,-0.53 36.01,-0.27 56.36,24.62 9.47,11.59 37.27,11.11 51.57,-5.84"/>
  <path class="fil1 str0" d="M9681.64 2124.48c-26.44,25.27 -47.32,28.13 -84.59,23.58"/>
  <path class="fil1 str0" d="M9405.49 2099.16c-59.01,-16.44 -209.78,-29.29 -283.13,-5.27 -2.02,3.42 -3.46,23.95 0.54,35.48 4.65,4.28 15.36,7.9 18.59,9.77 13,7.49 9.9,70.95 33.13,104.77 11.81,17.24 37.45,31.08 70.61,34.74 24.42,2.69 72.98,3.04 106.9,-5.84 25.08,-6.57 38.01,-18.74 53.12,-39.19 22.36,-30.27 30.99,-64.73 33.89,-90.36 3.62,-32.27 -13.78,-38.57 -33.65,-44.1z"/>
  <path class="fil1 str0" d="M9809.99 2126.06c-9.59,-37.86 25.41,-33.7 -71.02,-44.24 -62.65,-6.84 -97.67,-0.9 -160.08,10.47 -37.22,6.77 -57.1,18.47 -62.98,41.42 -4.1,16.04 -2.67,40.06 10.68,71.83 24.24,57.68 51.52,75.95 120.63,73.74 79.88,-2.55 112.77,-18.81 123.02,-61.31 4.99,-20.63 8.69,-36 11.99,-47.4 10.03,-34.48 14.9,-30.98 27.76,-44.51z"/>
  <path class="fil1 str0" d="M9531.9 2109.56c-29.73,15.57 -83.1,12.1 -103.56,-0.79"/>
  <path class="fil1 str0" d="M9519.59 2186.19c-6.64,-12.27 -6.83,-26.65 -13.74,-33.96 -13.49,-14.25 -32.47,-15.1 -49.46,-1.89 -10.1,7.86 -20.24,40.37 -46.01,75.91"/>
  <path class="fil1 str0" d="M9257.32 2098.67c-3.04,4.67 -4.64,10.09 -4.64,15.64 0,16.04 13.18,29.04 29.42,29.04 16.25,0 29.42,-13 29.42,-29.04 0,-9.2 -4.4,-17.85 -11.89,-23.33"/>
  <path class="fil1 str0" d="M9585.5 2101.76c-1.53,3.57 -2.32,7.41 -2.32,11.29 0,16.03 13.17,29.04 29.42,29.04 16.25,0 29.43,-13.01 29.43,-29.04 0,-7.83 -3.22,-15.33 -8.9,-20.79"/>
  <path class="fil0 str0" d="M9362.23 5636.67l-16.39 3.47c-181.07,69.63 -446.77,96.35 -626.99,27.43 -511.96,-195.78 -288.84,-381.84 -508.03,-743.36 -224.34,-370.02 268.37,-212.5 136.35,-306.95 -126.69,-90.65 -194.36,72.69 -269.36,-11.58 -28.19,-31.68 -20.51,-82.77 -11.13,-97.39m62.36 -142.2c24.07,-69.54 193.43,-321.8 57.76,-162.77 -137.59,161.29 51.02,-336.7 24.02,-402.15 -67.4,-163.37 152.34,-330 142.13,-568.31 -10.63,-248.32 477.18,-272.34 644.16,-391.25 239.16,-170.33 47.96,-446.21 48.7,-465.1 7.42,-188.14 -117.47,-255.85 25.36,-363.23 192.69,-144.84 -50.34,-175.26 137.46,-213.53 233.23,-47.53 352.77,35.42 499.12,202.97 147.65,114.63 164.16,99.04 172.6,-115.5 11.94,-303.28 -522.07,-553.5 -653.59,-363.84 -3.04,78.6 -232.3,-114.8 -302.08,301.21 -29.66,176.82 -19.08,117.96 15.48,230.73 33.8,37.66 -75.5,-28.76 -23.64,149.78 94.92,326.69 138.74,37.86 43.24,35.23"/>
  <path class="fil0 str0" d="M9758.41 2302.12c-35.33,94.8 -75.64,126.58 -86.48,179.83 -24.22,118.8 -130.36,187.57 -238.11,209.52 -47,9.58 -145.42,-33.61 -160.17,-50.41"/>
  <path class="fil0 str0" d="M9724.99 2465.46c10,39.58 97.31,248.77 76.05,300.31 -59.85,145.1 -80.32,204.95 -194.63,332.2 -129.01,143.63 57.82,370.09 34.37,539.05 -20.24,145.82 -61.19,242.93 -198.84,319.86"/>
  <path class="fil0 str0" d="M9636.12 2624.88c-2.15,252.92 -128.14,179.63 -283.72,397.79 -115.35,161.75 -90.76,317.69 42.82,463.21 75.98,82.76 236.09,-106.97 70.07,-120.33 -183.8,-14.78 -226.87,231.68 -104.1,318.85 27.98,19.87 123.76,85.3 81.74,215.07"/>
  <path class="fil0 str0" d="M9868.35 2876.17c149.02,38.43 184.74,24.53 340.4,75.45 243.74,79.71 215.29,166.47 298.73,382.12 29.47,76.19 17.68,814.82 39.59,992.93 27.59,224.31 102.89,335.84 48.04,557.3 -4.68,18.92 0.32,70.36 0.73,87.11 4.14,168.98 -11.55,561.81 35.19,675.13 71.84,174.14 -128.59,-41.41 -272.47,223.76 -12.48,23.01 -288.64,437.97 -79.75,331.53 5.18,2.14 -265.99,559.41 138.24,155.15 109,-109 376.46,-441.79 170.52,-549.98 -13.47,-7.07 -72.8,16.42 10.81,145.47 31.94,49.29 264.15,17.17 332.85,-74.29 50.95,-67.84 391.79,-386.97 391.65,-404.82 -1.04,-126.09 104.06,-239.97 202.16,-320.7 77.85,-64.06 95.97,20.64 -193.19,146.86 -13.02,5.68 -12.07,5.41 -22.55,-2.71 -88.33,-84.15 -59.85,-185 -116.77,-233.56 -188.99,-161.22 -128.91,-154.89 -214.87,-275.58 -117.8,-165.41 -106.01,-335.81 -136.12,-385.47 -239.67,-395.31 -31.72,-321.12 -48.72,-519.6 -0.63,-7.51 216.66,-984.23 321.7,-1383.99 23.02,-87.6 61.34,-114.85 67.56,-134.76 32.23,-103.24 546.9,-268.91 644.9,-305.78"/>
  <path class="fil0 str0" d="M8573.56 3827.83c0.12,29.91 -12.29,217.41 5.22,242.27 67.13,95.25 59.21,-269.42 11.68,-108.32 -40.26,136.44 8.47,518.03 -67.16,610.12 -59.36,72.26 10.31,96.49 19.12,206.3 3,37.28 29.23,24.53 29.56,97.38"/>
  <path class="fil0 str0" d="M8660.54 4112.33c-5.64,52.59 -31.72,280.52 61.27,280.52 61.2,0 158.96,0.4 207.3,-34.04 126.57,-90.13 277.27,246.79 107.1,289.61 -94.08,23.67 -190.57,-43.44 -148.02,-146.59 49.25,-119.42 126.93,-127.49 250.12,-132.34 264.32,-10.41 508.43,15.57 762.6,15.57 113.44,0 159.56,1.71 177.84,9.52 31.2,13.32 17.56,283.41 41.81,328.79 29.03,54.33 25.49,167.51 102.77,289.38 60.89,96.06 -290.17,116.32 -170.28,228.99 24.7,23.21 162.48,-91.12 159.6,-23.69 -5.48,128.03 177.53,18.34 182.94,155.7 1.66,42.12 59.15,196.74 34.7,212.76 -33.81,22.15 -199.74,96.62 -237.11,103.53 -248.96,46.11 -514.92,-19.16 -719.78,-163.15 -173.91,-122.23 -220.43,-184.51 -292.28,-398.7 -13.58,-40.5 -111.45,-420.17 -112.88,-420.05"/>
  <path class="fil0 str0" d="M8708.78 4466.71c4.64,295.5 -29.2,86.6 -130,330.95 -14.77,35.83 -3.92,107 -0.99,144.03 -67.96,14.06 -112.89,160.38 -112.89,237.1 0,116.58 6.74,193.18 71.07,283.49 53.45,75.01 -140.76,-9.19 -133.34,-197.52 0.2,-5.13 -3.89,-10.39 -3.89,-27.24"/>
  <path class="fil0 str0" d="M10122.64 4067.14c17.74,181.12 23.27,461.77 85.12,629.66 28.42,77.18 70.51,287.62 74.95,369.44"/>
  <path class="fil0 str0" d="M8414.34 5622.87c-144.59,571.15 -210.23,1044.44 -210.23,1634.85 0,106.15 -123.97,439.38 134.35,165.49 70.3,-74.54 257,87.64 -72.08,186.84 -95.14,28.68 -128.73,484.78 -155.7,589.66 -25.82,100.42 -58.93,136.29 0.88,238.14"/>
  <path class="fil0 str0" d="M9322.25 6177.24c-78.22,300 -152.57,509.35 -295.59,776.88 -123.03,230.12 -187.5,479.93 -176.39,739.58 5.74,134.14 -280.36,577.42 -187.65,654.04"/>
  <path class="fil0 str0" d="M10241.02 6631.44c-29.05,405.63 -155.91,934.06 -208.1,1358.08 -37.9,307.91 -208.78,613.26 -82.96,918.64 34.77,84.39 -258.53,97.46 -346.55,40.93 -151.2,-97.12 -211.32,143.84 -177.72,-312.73 27.63,-375.5 13.22,-806.46 55.84,-1152.86 32.52,-264.36 2.33,-557.66 -8.46,-809.65 -3.94,-92.07 28.51,-198.29 -21.35,-319.18 -8.17,-19.79 -65.03,-428.62 -72.75,-373.01l-7.1 14.9"/>
  <path class="fil0 str0" d="M8111.56 8437.86c-5.93,45.51 -92.35,324.04 -49.58,356.18 89.28,67.12 494.91,220.59 484.66,90.76 -0.17,-2.23 112.55,-509.05 123.89,-544.28 4.86,-15.1 -17.33,-22.02 -26.36,-40.22"/>
  <path class="fil0 str0" d="M8233.75 8352.62c-52.76,418.8 -329.8,939.87 -341.04,1225.06 -3.49,88.51 513.52,107.2 258.91,321.84 -1.24,1.04 -375.68,117.21 -375.68,12.91 0,-511.72 482.66,97.29 482.66,-428.18 0,-64.21 5.37,-239.88 85.64,-233.55 91.07,7.19 26.23,-170.52 83.63,-251.12 48.61,-68.26 83.68,-72.42 -0.8,-28.74"/>
  <path class="fil0 str0" d="M8399.42 9137.9c-12.24,220.22 33.82,236.43 -57.85,328.11 -80.79,80.8 35.41,214.47 -124.27,303.11"/>
  <path class="fil0 str0" d="M9739.81 8425.23c-17.83,246.46 -28.53,654.33 -72.79,871.52 -77.05,378.15 286.53,354.16 -310.72,406.16 -252.51,21.98 150.31,446.35 318.5,240.66 291.65,-356.69 -302.93,-90.79 -302.93,-421.06 0,-281.16 39.96,-222.12 78.51,-411.26 23.47,-115.13 53.96,-57.33 84.95,-187.35"/>
  <path class="fil0 str0" d="M9090.24 2852.09c34.03,247.58 51.99,288.33 146.05,497.03"/>
  <path class="fil0 str0" d="M8867.13 2957.77c106.01,349.33 129.36,659.89 432.69,918.68 7.27,6.2 -118.45,336.78 -151.02,359.61"/>
  <path class="fil0 str0" d="M9868.35 2876.17c132.4,311.22 -1.05,249.26 4.64,356.78"/>
  <path class="fil0 str0" d="M9838.64 4575.85c157.11,-3.67 213.17,-29.38 264.06,1.85"/>
  <path class="fil1 str1" d="M16968.06 2751.58c-13.19,-6.59 -42,-25.99 -54.52,-35.71 -17.27,-13.42 -31.96,-29.47 -46.52,-45.55 -33.63,-37.11 -56.27,-76.47 -77.52,-120.95 -15.63,-32.66 -26.19,-64.88 -32.93,-98.89 -6.62,-33.51 -2.63,-69.37 -14.35,-101.14 -12.53,-34 -19.76,-61.07 -16.42,-98.85 3.31,-37.32 16.73,-70.92 20.38,-107.7 3.56,-35.75 2.04,-74 -0.11,-109.88 -5.48,-91.76 59.99,-173.7 82.92,-200.49 50.41,-58.93 70.64,-43.74 102.78,-27.53 57.64,29.11 129.08,33.56 191.18,20.26"/>
  <path class="fil1 str1" d="M16919.71 2413.12c9.98,26.72 20.49,32.97 46.64,36.86 13.29,2 24.94,5.26 36.85,-1.69 11.9,-6.94 13.92,-15.38 26.38,-19.78 26.1,-9.2 45.9,3.46 50.56,-32.94 1.34,-10.46 1.37,-25.49 -6,-34.08 -9.66,-11.21 -24.39,-4.63 -31.48,-12.1 -5.77,-6.07 -23.76,-87.95 -19.61,-107.7 8.74,-41.41 24.83,-65.32 57.09,-92.29 52.93,-44.27 127.47,-71.98 197.78,2.19"/>
  <path class="fil1 str1" d="M17075.74 2230.64c26.32,-54.61 114.14,-72.08 150.69,-18.53 -11.26,20.34 -57.09,24.68 -73.15,19.36 -11.12,-3.69 -18.58,-6.98 -21.55,-19.91 -5.48,-23.68 31.93,-36.8 48.59,-16.23 10.62,13.11 -7.42,28.63 -18.65,33.61"/>
  <path class="fil1 str1" d="M16750.48 2107.63c32.96,-71.42 153.59,18.88 167.02,37.37"/>
  <path class="fil1 str1" d="M16910.9 2199.49c-14.05,-41.14 -129.99,-70.19 -120.96,-0.34 18.75,5.63 45.65,15.13 65.48,10.13 6.9,-1.73 14.09,-5.58 19.67,-13.52 5.59,-7.91 1.14,-23.36 -9.88,-28.13 -12.39,-5.36 -28.09,-5.37 -35.93,9 -5.73,10.49 0.9,21.61 11.35,28.68"/>
  <path class="fil1 str1" d="M17274.09 2602.95c15.67,-10.17 41.24,-43.76 48.35,-55.66 8.54,-14.33 7.53,-36.59 8.33,-52.85 1.17,-23.03 -3.39,-49.35 8.85,-66.63 9.65,-13.6 46.54,-48.52 62.71,-52.89 22.31,-6.05 42.78,7.6 44.83,42.59 1.81,30.56 -36.36,86.59 -65.38,45.66 -45.74,-64.53 118.24,-110.74 69.79,-184.18 -20.79,-31.46 -68.8,-45.38 -96.66,-70.16 -32.7,-29.08 -29.92,-70.06 -17.59,-107.68 2.52,-7.64 4.12,-15.83 8.27,-21.96 5.88,-12.02 24.68,-35.36 36.44,-57.83 50.18,-95.85 -50.3,-163.34 -107.15,-72.93 -8.75,13.93 -62.87,127.57 -44.85,135.24 17.3,7.35 89.26,83.71 46.57,68.94"/>
  <path class="fil1 str1" d="M16840.58 2529.59c36.26,2.77 52.04,16.88 72.52,29.68 27.12,16.95 73.77,20.71 107.14,9.89 25.5,-8.26 42.43,-23.74 64.96,-35.44 25.99,-13.48 74.4,3.35 88.58,-29.43 -18.22,51.7 -135.15,-11.7 -169.46,0.05 -13.35,4.55 -14.11,14.15 -30.22,13.73 -14.89,-0.4 -26.68,-12.72 -38.76,-15.57 -30.84,-7.25 -62.73,24.24 -94.76,27.09z"/>
  <path class="fil1 str1" d="M16843.87 1768.06c-59.63,-26.06 -36.5,-103.17 26.39,-102.19 60.17,0.93 91.99,42.52 135.98,78.29 82.2,66.8 185.45,101.72 245.6,192.12 32.41,48.72 65.9,95.46 109.43,134.26 45.66,40.69 100.54,68.27 148.45,106.15 99.23,78.48 100.8,210.31 -9.1,284.57 -28.08,18.99 -59.97,30.37 -87.33,51.03 -23.75,17.93 -51.52,59.76 -74.92,70.04"/>
  <path class="fil1 str1" d="M16712.01 2513.11c-52.16,-70.19 -104.95,-122.05 -112.08,-213.55 -5.79,-74.07 -3.44,-156.73 9.08,-229.01 13.46,-77.82 28.26,-156.72 59.25,-230.04 14.17,-33.55 45.41,-55.21 67.65,-82.82 22.58,-28.04 12.71,-45.6 24.62,-73.72 17.25,-40.71 83.85,-52.44 122.18,-58.37 54.07,-8.39 116.12,9 168.12,-9.99 56.84,-20.77 103.18,-62.47 165.56,-61.9 57.04,0.53 102.74,39.16 148.42,70.21 104.14,70.76 136.15,158.92 171.47,276.02 15.27,50.67 26.49,102.82 39.56,155.02 12.15,48.57 28.34,101.65 22.96,154.79 -1.93,19.05 -7.38,34.09 -13.19,52.83"/>
  <path class="fil1 str1" d="M17694.41 3113.11c-1.49,-8.08 -9.51,-53.85 -20.51,-61.89 -24.88,-18.18 -94.6,24.14 -118.04,35.53 -108.54,52.76 -202.9,120.39 -296.59,195.21 -108.36,86.57 -241,188.55 -299.09,315.77 -13.27,29.03 -22.93,38.86 -11.7,66.58 11.86,29.28 34.23,54.84 46.33,85.06 13.27,33.2 72.87,168.54 33.12,197.86 -34.54,25.46 -61.66,-151.13 -65.36,-177.2 -3.99,-27.94 5.14,-71.06 -7.32,-96.49 -12.35,-25.23 -40.17,-22.81 -68.51,-19.04 -53.2,7.05 -116.35,16.03 -168.12,31.51 -34.96,10.44 -119.02,39.96 -131.94,70.36 35.04,-145.84 97.07,-292.57 115.29,-442.17 18.06,-148.37 246.15,44.53 283.68,-4.53 27.17,-35.52 -60.59,-91.54 -89.18,-107.54 -54.63,-30.54 -89.07,-9.25 -144.89,-13.2"/>
  <path class="fil1 str1" d="M16583.45 3765.86c-7.42,54 -59.22,75.97 -56.12,135.16 2.38,45.68 -4.47,119.39 12.26,161.55 10.17,25.59 36.08,46.25 49.7,69.96 13.43,23.33 20.55,45.99 41.05,65.01 50.17,46.55 93.08,1.65 147.62,-3.1 41.36,-3.6 83.74,23.88 125.25,9.69 62.24,-21.27 127.91,-220.25 41.14,-207.96 -73.38,15.59 38.97,131.85 45.5,166.03 30.1,5.51 38.44,-27.8 62.46,-41.11 29.81,-16.54 62.3,-28.27 94.04,-41.24 80,-32.68 140.16,-101.52 208.49,-152.47 70.35,-52.45 161.21,-89.61 221.48,-152.29 32.58,-33.92 41.42,-50.51 56.1,-94.23 32.37,-96.47 113.97,-168.36 134.52,-271.04"/>
  <path class="fil1 str1" d="M17404.32 2780.14c30.56,0.66 57.43,44.29 82.41,60.16 24.57,15.6 52.44,28.06 79.04,38.67 54.39,21.7 110.28,37.32 159.04,69.31 102.52,67.26 138.75,150.19 117.95,267.03 -19.9,112.05 -22.7,231.74 -59.33,339.55 -34.47,101.33 -83.37,191.21 -122.81,290.18 -18.9,47.46 -21.96,96.45 -39.66,144.25 -17.98,48.63 -42.5,96.51 -61.81,145.79 -19.11,48.8 -34.35,98.87 -51.82,148.34 -8.55,24.22 -15.24,45.38 -20.68,69.16 -7.1,31.22 -10.11,23.87 -46.56,30.24 -0.27,-3.9 -0.11,3.88 0,0 -50.35,-6.16 -105.96,-8.44 -157.75,-16.81 -67.84,-10.96 -134.67,2.81 -204.4,-3.46 -68.48,-6.15 -130.46,3.86 -197.79,-6.6 -78.69,-12.24 -143.32,11.09 -220.88,-6.59 -58.93,-13.43 -113.93,1.1 -174.73,0 -31.23,-102 -78.21,-332.21 -129.38,-424.55 -25.97,-46.88 -55.98,-98.08 -55.22,-152.37 0.86,-60.68 39.02,-108.93 72.54,-155.67 32.31,-45.06 75.35,-83.96 104.74,-131.14 28.31,-45.47 7.31,-103.21 -2.38,-151.65 -10.86,-54.31 -26.28,-105.53 -20.68,-161.53 6.4,-64.45 36.21,-94.86 86.43,-132.62 71.12,-53.46 157.47,-79.47 234.24,-123.71 28.7,-16.51 85.31,-48.39 99.17,-79.86 11.22,-25.43 7.28,-76.39 7.28,-106.1"/>
  <path class="fil1 str1" d="M16751.57 3188.93c0,-109.31 0.62,-215.47 79.21,-299.98 31.56,-33.95 63.54,-66 99.71,-94.8 37.95,-30.22 82.1,-46.48 120.27,-76.64 67.23,-53.16 85.95,-114.03 173.02,-100.64 68.15,10.49 189.59,40.88 181.61,97.14 -12.16,84.88 -261.78,317.46 -321.59,371.9 -44.36,40.36 -103.23,43.91 -117.23,106.32 -16.97,75.78 -19.27,155.81 -31.12,234.06 -6.13,40.64 -9.21,83.31 -9.16,125.27 0.03,26.25 4.29,109.98 -13.19,121.99"/>
  <path class="fil1 str1" d="M16798.65 9256.34c-20.13,-74.63 -6.22,-157.02 17.55,-229.7 68.37,-209.06 127.6,-413.68 154.18,-626.37 16.08,-128.41 68.26,-356.48 42.15,-489.48 -4.99,-25.43 -40.19,-293.22 -45.79,-318.81"/>
  <path class="fil1 str1" d="M17117.19 7596.07c133.32,433.62 594.52,1317.74 542.24,1760.08 -12.37,77.14 -37.27,172.2 -62.28,247.63 -29.4,88.73 -80.94,109.43 -158.39,151.34 -75.86,49.59 -118.71,89.14 -26.04,120.31 17.23,5.79 254.36,32.14 307.54,-17.52 24.1,-22.51 155.28,-332.61 280.87,-349.24 -1.1,123.52 4.55,236.66 12.88,361.14 8.23,2.48 37,1.98 45.15,-1.83 6.06,-106.09 17.42,-209.85 47.33,-308.7 25.16,-83.12 73.76,-196.91 32.97,-283.87 -31.55,-67.33 -113.92,-107.79 -165.02,-197.65 -44.48,-78.22 -87.38,-150.69 -123.8,-245.4 -31.71,-82.43 -128.17,-806.33 -218.68,-1169.2 -1.61,-6.57 -24.74,-85.73 -26.43,-92.25"/>
  <path class="fil1 str1" d="M16798.81 9255.16c8.65,28.03 14.84,44.92 36.03,85.95 44.09,85.35 -7.8,200.76 -32.96,283.87 -29.89,98.84 -41.25,202.62 -47.34,308.71 -8.14,3.81 -36.9,4.29 -45.16,1.81 -8.31,-124.47 -13.94,-237.61 -12.87,-361.13 -125.57,16.64 -256.77,326.74 -280.85,349.24 -53.2,49.66 -290.32,23.32 -307.55,17.51 -92.66,-31.16 -49.82,-70.72 26.03,-120.3 77.46,-41.9 128.98,-62.61 158.4,-151.34 25.01,-75.43 230.66,-565.38 237,-643.23 20.93,-257.03 12.24,-1180.71 -26,-1484.06"/>
  <path class="fil1 str0" d="M18070.34 9190.87c-83.07,-30.88 -216.36,262.72 -238.83,327.64 -26.51,76.6 -186.31,282.87 -275.79,193.38 -4.95,-4.94 -13.71,-10.56 -19.87,-14.79"/>
  <path class="fil0 str0" d="M12625.68 857.4c-59.87,-190.74 -540.93,-239.76 -667.76,33.42 -27.4,59.01 -89.47,69.98 -62.19,323.95 4.47,41.69 7.22,100.12 38.92,116.26 46.61,23.74 50.32,77.81 30.77,133.46 -13.82,39.32 -2.77,111.37 -24.94,115.67 -25.67,4.97 -45.11,7.78 -60.11,-7.1 -14.56,-14.46 -25.13,-46.7 -33.82,-114.07 -2.04,-15.91 -7.54,-32.38 -15.19,-51.09 -35.85,-87.68 -42.46,-162.06 29.95,-160.77"/>
  <path class="fil0 str0" d="M11972.8 1309.66c-2.92,-27.97 -15.11,-91.56 -1.26,-110.2 21.45,-28.89 40.25,-53.66 62.97,-64.51 41.2,-19.69 24.85,-49.19 21.12,-71.56 -10.53,-63.13 9.09,-98.1 51.76,-101.15 25.77,-1.83 56.33,18.43 103.68,23.97 311.67,36.42 486.91,-45.61 476.67,266.74 -1.49,45.18 -12.94,68.56 -5.75,74.31 6.83,-6.79 36.44,-23.67 57.12,-28.75 36.72,0.83 39.79,47.63 26.98,110.59 -5.57,27.4 -26.54,54.13 -36.66,85.19 -6.21,19.03 -9.03,79.61 -15.04,98.82 -11.09,35.55 -27.71,11.75 -39.11,33.71 -40.12,77.32 -20.87,107.45 -88.51,193.1 -154.2,195.27 -337.38,204.64 -564.05,-52.01 -45.5,-51.54 -45.82,-240.85 -33.3,-295.22 7.55,-12.72 -28.28,86.47 -12.79,466.35 3.28,80.61 139.43,228.98 312.57,292.83 35.28,13 87.01,211.48 90.11,220.43 1.77,0.14 237.27,-236.92 354.1,-43.41 24.85,41.17 -138.53,-430.03 -191.7,-389.18 -10.44,8.01 -42.49,56.93 -54.36,108 -26.38,113.64 -88.4,142.36 -174.12,133.86 -88.83,-8.81 -187.25,-6.8 -296.14,135.75 -19.91,26.07 -39.66,42.89 -52.97,46.99 -22.55,-33.04 -45.29,-154.41 -93.36,-235.18 -49.44,-83.06 -27.01,-243.04 84,-311.3"/>
  <path class="fil0 str0" d="M12631.25 791.83c162.13,286.67 79.6,282.85 79.6,486.94"/>
  <path class="fil0 str0" d="M11511.4 2704.31c53.6,383.37 28.79,290.68 28.79,640.79 0,59.35 -245.36,787.51 -333.25,576.33 -27.76,-66.7 23.96,-92.89 62.34,-40.59 90.22,122.91 60.75,208.42 16.07,227.75 -18.89,8.17 -40.83,5.08 -64.08,-0.58 -92.92,-22.65 -107.91,-15.89 -200.09,3.76 -30.16,6.44 -87.27,28.53 -86.52,53.56 0.76,25.02 37.5,28.24 154.99,12.09 506.62,-69.65 -88.62,246.03 94.44,318.52 140.04,55.46 43.67,-396.99 192.62,79.86 9.11,29.17 70.45,254.59 71.4,256.23 -69.2,119.95 115.31,165.01 229.55,267.36 58.55,52.48 48.39,483.38 -191.96,502.69 -79.64,6.41 -70.34,10.23 -116.78,8.46 -123.87,-4.73 -66.72,-57.55 -77.85,202.4 -2.5,58.62 -0.74,348.25 -20.24,389.81"/>
  <path class="fil0 str0" d="M11395.37 3852.23c-38.3,293.52 22.97,310.51 142.06,353.25 123.73,44.42 148.1,-12.6 149.1,-58.55 1.44,-66.51 -189.04,-95.36 -257.3,4.61 -81.18,118.87 -65.62,433.06 63.87,561.02 310.71,307.03 1059.21,302.13 1325.79,-86.77 222.28,-324.29 -108.27,-317.39 -88.25,-182.33 12.43,83.93 195.29,-91.94 195.29,-374.35 0,-160.95 -58.75,-223.25 -11.59,-445.59 6.76,-31.84 49.63,-743.78 4.14,-840.85 -20.37,-43.47 -6.37,-106.47 -16.49,-150.59"/>
  <path class="fil0 str0" d="M12665.03 2100.21c131.14,25.03 253.33,45.05 331.49,102.75 94.87,70.01 129.25,222.16 101.35,449.28 -44.99,366.13 -52.36,1104.39 82.96,1432.44 34.49,83.63 45.87,844.98 -96.7,734.91 -302.34,-233.42 348.46,43.14 -1.95,306.87"/>
  <path class="fil0 str0" d="M11270.83 6202.78c-6.71,321.02 82,413.26 -55.61,746.81 -77.89,188.8 65.88,598.04 -85.63,965.35 -18.91,45.86 -118.77,673.06 -118.77,740.26 0,267.87 95.49,357.87 91.27,519.05 -2.04,77.96 -194.88,234.43 59.62,375.41 1.22,0.67 310.01,-159 534.18,-29.67 102.28,-330.16 -331,-524.75 -327.52,-291.45 1.86,124.86 257.11,132.95 313.31,-122.45 25.09,-72.47 -68.73,-495.61 12.21,-822.59 45.28,-182.97 100.44,-360.33 171.27,-532.04 73.63,-178.49 -352.6,118.76 -159.48,-139.46 32.48,-43.43 90.07,-46.11 114.77,-117.45 53.26,-153.87 47.56,-110.48 69.4,-288.04 16.77,-136.34 142.67,-282.85 133.01,-566.3 -23.72,-696.58 338.73,-610.84 420.39,-928.43 14.97,-58.22 80.21,-321.15 46.71,-358.11"/>
  <path class="fil0 str0" d="M12246.9 6096.95c47.05,377.07 42.7,389.6 1.06,728.07 -79.57,646.91 307.15,43.83 78.53,138.12 -133.85,55.22 -14.7,772.73 -39.6,975.15 -34.34,279.15 -121.59,569.45 -108.32,879.71 2.75,64.25 -66.82,142.4 -46.04,311.4 23.87,194.1 -7.48,229.03 -7.48,452.5 0,142.06 25.45,132.67 82.34,150.96 48.41,15.57 177.39,-0.55 227.88,-4.21 168.77,-12.25 58.55,28.65 378.75,160.7 104.83,43.24 404.8,-2.62 424.76,-70.59 34.62,-117.87 4.66,-223.66 -191.51,-254.08 -218.76,-33.91 -230.72,-39.77 -325.75,-199.56 -104.01,-174.9 -420.02,-18.46 -363.89,54.33 70.96,92 389.88,42.17 373.68,-336.76 -2.7,-63.14 66.91,-431.24 -87.64,-321.19 -0.78,0.56 -162.19,-7.43 33.14,-104.32 204.73,-101.54 163.18,-497.9 187.51,-695.54 31.72,-257.74 -133.23,-169.91 48.05,-637.7 47.49,-122.56 98.9,-722.68 46.7,-849.24 -37.93,-91.98 -25.35,-520.9 -25.35,-638.37 0,-318.09 195.55,-598.37 138.8,-724.02 -88.66,-196.26 -195.99,-57.9 -172.91,-355.74 1.07,-13.8 1.27,-41.77 3.67,-53.88 2.78,-14.1 11.65,-36.06 37.65,-68.93 142.79,-180.49 312.11,-151.12 518.71,-241.66 204.92,-89.81 214.71,-79.29 423.61,-238.11 78.78,-59.9 49.57,-275.12 -25.66,-111.92 -12.14,26.32 -18.19,54.78 -26.22,82.14 -96.81,329.78 -95.16,658.67 -122.56,1008.2 -36.1,460.61 2.98,908.68 -46.71,1408.42 -39.66,398.96 -53.71,734.42 53.17,1123.72 57.89,210.87 63.07,496.87 124.56,799.2 51.58,253.64 -29.05,328.51 51.56,580.01 24.09,75.15 -11.3,218.76 54.72,218.76 85.88,-59.11 549.66,-150.62 549.66,10.87 0,74.35 85.11,400.39 0,397.03 -74.08,-2.92 -264.06,166.13 -256.91,-15.57 4.9,-124.47 -310.4,326.9 -490.45,319.19 -83.08,-3.56 -435.96,59.49 -435.96,-46.71 0,-269.33 75.16,-148.95 301.61,-353 169.61,-152.81 197.08,-168.66 389.25,-264.02 62.66,-31.1 11.4,-561.92 -29.14,-620.79"/>
  <path class="fil0 str0" d="M11651.71 9540.73c32.71,110.15 158.95,286.96 275.05,290.76 160.48,5.25 194.3,213.33 140.91,307.66 -44.66,43.86 -283.28,32.14 -399.96,19.21 -160.68,-17.79 -262.58,-39.43 -336.1,-153.12 -81.87,-126.59 -43.27,-173.42 -161.56,-206.71"/>
  <path class="fil0 str0" d="M11131.17 9569.65c0.48,134.81 -73.31,202.08 -35.58,313.81 48.88,31.96 55.44,49.52 166.84,63.04"/>
  <path class="fil1 str0" d="M12545.33 1281.59c-35.72,38.27 -129.72,5.16 -127.77,101.59 0.2,8.46 18.28,39.62 23.58,82.9m130.45 171.99c7.21,13.41 13.77,30.96 1.94,46.68"/>
  <path class="fil1 str0" d="M12478.22 1552.14c19.82,50.8 -15.43,46.75 -20.76,45.68 -30.31,-6.16 -37.3,17.02 -60.18,23.27 -5.91,1.62 -19.67,-5.68 -26.4,-13.4 -44.31,-50.72 -54.97,22.85 -86.67,-32.81 -4.52,-7.93 -13.11,-25.2 -6.88,-40.38m-92.43 142.58c9.05,7.3 22.76,14.77 50.22,10.19 51.46,-8.59 74.07,6.47 119.75,12.73 42,5.75 19.55,4.23 58.66,-0.6 23.49,-2.9 18.91,-3.68 42.77,-1.72 36.46,3 50.98,-4.32 84.17,-20.33 4.04,-1.95 3.32,-2.08 6.98,-4.63 -30.18,5.27 -70.81,55.65 -93.38,79.25 -43.34,45.35 -134.12,18.43 -154.82,5.97"/>
  <path class="fil1 str0" d="M12575.86 1367.4c-8.83,16.73 -23.01,21.23 -49.09,23.29"/>
  <path class="fil1 str0" d="M12281.8 1718c59.25,26.75 126.66,19.1 154.69,7.52"/>
  <path class="fil1 str0" d="M12314.37 1836.44c36.33,0 61.79,-16.32 108.22,-0.61 2.85,0.96 20.81,5.51 21.16,5.66l-1.22 -0.2"/>
  <path class="fil1 str0" d="M12312.55 1467.73c-1.82,-38.24 -12.4,-123.58 -55,-141.07 -0.07,-0.03 -108.05,1.19 -113.22,3.42 -22.22,9.63 -23.6,9.51 -47.93,33.51"/>
  <path class="fil1 str0" d="M12182.57 1338.62c-14.66,3.24 -28.69,6.85 -39.31,18.56 3.68,9.44 41.5,26.2 84.51,22.87"/>
  <path class="fil1 str0" d="M12354.27 1271.95c0.05,-0.12 -3.47,23.44 -31.07,46.51 -20.05,16.75 -32.42,-2.14 -48.63,-20.74 -18.01,-20.68 -4.1,-22.14 -52.09,-22.14 -47.32,0 -49.8,2.42 -98.55,20.01"/>
  <path class="fil1 str0" d="M12409.87 1313.94c-20.73,-20.26 -6.56,-29.54 -4.22,-56.54"/>
  <path class="fil1 str0" d="M12196.54 1368.07c-1.05,-2.66 -1.59,-5.48 -1.59,-8.34 0,-12.56 10.16,-22.73 22.67,-22.73 12.53,0 22.68,10.17 22.68,22.73 0,8.6 -4.85,16.47 -12.53,20.32"/>
  <path class="fil1 str0" d="M12519.83 1346.06c11.87,0 21.5,9.64 21.5,21.54 0,11.89 -9.63,21.53 -21.5,21.53 -11.86,0 -21.47,-9.64 -21.47,-21.53 0,-11.9 9.61,-21.54 21.47,-21.54z"/>
  <path class="fil1 str0" d="M12659.88 1361.73c-10.55,11.33 -34.17,18.52 -46.43,20.28 -5.24,0.75 -9.43,-0.37 -11.41,-4.6 -5.73,-12.26 -29.7,-37.57 -43.37,-37.57 -37.57,0 -82.15,-3.62 -105.46,29.54 -2.47,3.52 -12.89,25.99 -5.52,24.09"/>
  <path class="fil0 str0" d="M14294.54 597.75c-195,58.1 42.66,-54.61 -43.98,-95.55 -40.38,-19.07 99.08,-34.32 43.15,-45.71 -1.11,-0.22 -103.63,-151.62 34.69,-222.21 26.4,-13.46 -11.61,-84.61 172.27,-148.57 38.33,-13.33 -3.75,-101.69 75.86,-28.48 3.3,3.05 41.6,-51.94 109.99,-51.94 130.19,0 69.17,23.64 190.73,38.59 62.75,7.73 170.72,105.89 213.09,159.93 64.06,81.71 100.4,8.61 82.41,216.98 -10.54,122.08 13.96,195.93 -53.17,290.05 -42.31,59.32 -38.12,210.01 -62.94,88.19 -21.54,-105.65 -39.81,-217.71 -35.36,-330.53 3.14,-79.72 -146.68,-33.9 -241.35,-72.95 -29.1,-12.01 -493.23,-44.9 -405.81,77.84 24.83,34.88 -25.2,259.88 -74.3,309.07 -39.06,39.13 18.37,102.61 1,187.84 -4.88,23.99 -6.37,100.04 -51.22,-8.71 -15.59,-37.82 -3.11,-131.44 -27.43,-193.14 -31.8,-80.66 37.61,-178.49 72.21,20.47 7.7,44.33 -39.75,-3.36 5.95,107.45 6.63,16.1 16.4,76.11 16.4,97.62 -5.7,189.97 74.62,262.35 158.24,314.25 43.87,27.23 109.1,69.99 157.47,68.19 42.21,-1.58 226.48,-83.16 282.86,-111.53 53.71,-27.05 90.47,-67.89 104.01,-104.63 13.01,-35.33 60.46,-257.12 78.48,-290.84 17.32,-32.43 102.9,-286.93 126.22,-97.31 7.83,63.68 -53.04,184.12 -82.13,239.94 -18.93,36.34 -58.59,51.39 -73.9,24.74"/>
  <path class="fil0 str0" d="M15018.94 1281.59c58.7,121.74 -158.72,228.97 -235.1,296.62 -69.26,61.33 -241.33,187.13 -241.33,295.5 0,-102 -47.92,-263.71 -118.11,-341.55 -31.85,-35.3 -64.13,-296.84 82.07,-121.66 184.19,220.69 405.59,47.29 499.24,377.57 45.65,160.97 36.33,48.02 61.28,-60.27 13.07,-56.79 -4.31,-434.44 7.45,-410.73 21.98,44.32 95.48,148.35 145.36,172.61 56.73,27.6 282.62,125.81 331.53,136.23 96.25,20.53 326.21,47.82 373.68,139.14 76.13,146.46 35.92,59.6 73.29,217.98 43.08,182.64 116.77,299.17 116.77,505.68 0,33 7.68,42.48 -15.65,35.4 -11.36,-13.35 -135.29,-263.35 -101.12,-62.64 17.05,100.16 197.95,421.86 233.88,606.89 11.62,59.83 -10.05,68.06 -92.75,74.63 -201.05,15.99 -98.6,100.68 -247.89,89.53 -82.61,-6.17 -124.17,-259.94 83.74,-108.33 87.1,63.54 52.41,122.29 190.73,150.48 208.41,42.47 -30.25,136.18 50.26,164.82 66.6,23.69 -91.2,81.77 -28.57,159.59 80.49,100.03 -132.27,497.43 -58.05,668.51 15.26,35.19 -135.85,257.05 -131.35,151.8 4.4,-102.93 -84.59,-361.29 -175.17,-435.62 -338.07,-277.44 -232.36,252.99 -93.41,85.31 80.42,-97.07 -112.5,-244.04 -22.03,-454.09 102.47,-237.88 -64.45,-442.81 -19.24,-510.26 120.77,-180.16 -36.82,-129.64 -32.69,-234.55 0.36,-9.25 -80.54,-19.11 59.72,-131.01 14.22,-11.34 91.85,-153.4 58.05,-200.85 -31.52,-44.26 -53.45,-171.79 -29.24,-239 26.23,-72.8 42.8,-117.11 43.81,-195.96"/>
  <path class="fil0 str0" d="M13666.43 1864.7c-106.45,29.2 -96.67,382.49 -123.31,490.67 -37.26,151.33 29.61,457.5 -73.96,620.91 -32.48,51.26 -26.35,148.81 14.57,189.73 195.52,195.52 -208.8,166.76 -96.31,86.63 7.88,-5.59 132.09,-6.81 44.38,127.12 -105.45,161 438.73,599.95 573.53,544.3 63.59,-26.26 191.92,21.7 77.51,-108 -72.76,-82.5 -62.08,-289.25 78.19,-355.55 57.83,-27.34 89.77,-15.94 93.8,26.87"/>
  <path class="fil0 str0" d="M14156.82 3775.24c17.01,11.95 43.44,37.12 66.37,71.79 12.05,18.26 13.16,50.94 31.4,62.11 82.33,39.98 220.06,40.16 325.96,13 115.41,-29.6 220.56,-231.09 138.1,-404.06 -28.18,-59.12 -136.26,-102.64 -193.91,-131.62 -114.38,-57.5 -184.75,89.01 72.35,163.79 48.8,14.19 161.54,52.11 195,42.78 51.75,-14.45 36.73,-62.46 -7.09,-88.65 -25.23,-15.09 -86.62,-26.59 -138.28,-42.06 -141.67,-42.41 -330.94,-83.1 -422.08,-68.25 -85.77,13.98 -204.35,29.26 -250.45,13.3 0,-43.25 55.51,-125.46 97.31,-139.14 157.99,-51.66 109.04,-150.14 43.16,-160.92 -158.96,-26 -95.18,95.96 -0.34,85.64 47.7,-5.18 -18.38,-213.79 -39.92,-247.79 -37.62,-59.34 -131.71,-360.92 -145.92,-434.74 -56.78,-295.09 -71.61,-304.19 -175.17,-558.18 -79.86,-195.88 -72.29,-145.62 45.72,-194.3 210.83,-86.96 440.39,-112.69 550.4,-307.08"/>
  <path class="fil0 str0" d="M14449.79 9101.97c-5.21,-200.99 -65.14,-394.11 -55.21,-646.02 4.99,-126.57 -29.07,-741.12 -60.27,-842.79 -46.69,-152.14 29.22,-649 -110.99,-727.79 -80.95,-45.49 -152.8,-118.87 -134.65,-49.12 51.17,196.99 298.13,21.33 298.13,-124.16 0,-124.88 23.49,-520.43 -163.48,-373.67 -88.07,69.13 -150.87,-118.96 122.55,-239.34 178.47,-78.57 146.51,-245.43 235.55,-419.72 11.66,-22.81 91.97,-222.25 105.1,-280.01"/>
  <path class="fil0 str0" d="M14643.6 4870.64c-29.21,229.33 249.23,930.13 249.23,1421.07 0,395.19 96.83,1634.16 36.92,1906.66 -6.02,27.41 -21.9,730.95 -18.04,741.64"/>
  <path class="fil0 str0" d="M14864.47 8976.89c-22.23,158.17 -27.51,171.17 -31.7,205.41"/>
  <path class="fil0 str0" d="M13717.9 5003.66c-0.14,-4.67 844.17,140.18 988.07,-402.64 77.17,-291.08 148.04,-317.82 219.14,-725.53l-14.65 93.18"/>
  <path class="fil0 str0" d="M15002.18 3890.81c186.98,365.37 455.89,1002.27 980.54,1022.95 140.02,5.51 93.97,-265.03 46.19,-450.2"/>
  <path class="fil1 str0" d="M14606.36 675.43c-6.14,18.17 -23.87,46.08 -23.88,46.17"/>
  <path class="fil1 str0" d="M14645.53 644.24c70.25,175.11 -0.59,48.98 160.3,29.61 75.32,-9.05 139.39,-17.94 155.64,91.44 -129.19,-59.25 -136.79,-89.26 -233.42,-5.96 -10.87,9.38 -12.37,10.27 -13.87,11.68 32.19,-12.55 72.54,-47.29 116.76,-34.22 39.71,11.73 61.39,22.73 65.72,30.97 2.32,4.42 -78.94,3.17 -82.58,1.96"/>
  <path class="fil1 str0" d="M14582.48 721.61c-12.75,-2.38 -57.92,-32.02 -102.22,-49 -36.93,-14.15 -72.52,-20.8 -95.18,16.35 -64.27,105.27 -31.21,31.3 13.86,24.07 169.9,-27.25 176.29,51.91 167.43,53 -25.99,3.17 -131.37,-4.71 -137.61,-7.21"/>
  <path class="fil1 str0" d="M14697.35 830.22c-20.62,-9.57 -13.1,29.05 -13.1,52.28 0,100.77 3.41,27.1 32.98,41.3 37.28,17.92 -22.1,73.52 -16.5,58.76 14.15,-37.42 -75.37,64.87 -110.54,29.68 -51.38,-51.42 -51.41,-33.62 -57.88,-39.18l0.58 -11.7"/>
  <path class="fil1 str0" d="M14459.25 1097.8c66.07,0 26.52,7.98 84.06,27.04 22.37,7.39 60.52,14.77 94.36,9.69 31.97,-4.78 118.06,-3.58 133.54,-14.68 6.3,-4.53 28.85,-4.06 32.55,-5.43"/>
  <path class="fil1 str0" d="M14503.65 1103.56c25.68,-3.6 75.96,4.49 116.97,2.6 14.19,-0.65 30.52,-8.99 147.7,4.21"/>
  <path class="fil1 str0" d="M14518.91 1124.52c59.94,63.45 103.33,56.3 227.58,20.99"/>
  <path class="fil1 str0" d="M14574.06 917.74c4.36,-13.83 6.84,-41.69 4.86,-57.48l-1.12 -8.92"/>
  <path class="fil1 str0" d="M14466.84 760.76c-2.75,-4.5 -4.21,-9.69 -4.21,-14.98 0,-8.09 3.4,-15.8 9.36,-21.21"/>
  <path class="fil1 str0" d="M14796.35 765.41c-1.57,-3.63 -2.4,-7.55 -2.4,-11.52 0,-6.64 2.29,-13.07 6.49,-18.18"/>
  <path class="fil1 str0" d="M14514.44 729.94c3.1,4.7 4.74,10.2 4.74,15.84 0,6.5 -2.19,12.81 -6.24,17.89"/>
  <path class="fil1 str0" d="M14848.04 742.24c1.63,3.66 2.47,7.62 2.47,11.65 0,5.57 -1.62,11.02 -4.64,15.67"/>
  <path class="fil0 str0" d="M14130.45 1684.23c342.75,137.94 -139.42,24.39 15.15,279.89 210.78,348.39 181.91,649.3 529.39,978.93 94.53,89.67 258.72,906.28 349.84,973.09l-19.95 42.11"/>
  <path class="fil0 str0" d="M15375.13 1624.87c-44.86,117.15 27.5,71.14 139.98,150.42 74.61,52.59 -71.91,310 -64.28,406.82 17.62,223.75 -252.02,697.72 -394.37,874.6 -25.33,31.49 -100.9,223.67 -135.01,231.54 0,-110.55 -43.89,-480.21 36.92,-593.66 74.05,-103.94 156.71,-703.38 149.92,-862.14 -1.14,-26.89 32.83,-286.36 114.79,-251.59l-34.49 8"/>
  <path class="fil0 str0" d="M14548.29 1979.47c94.27,133.34 206.48,1039.58 326.37,1294.21"/>
  <path class="fil0 str0" d="M18809.49 1506.14c15.7,-102.26 -35.56,-449.22 352.67,-530.95 295.38,-62.18 602.96,188.53 520.68,562.92 -59.48,270.66 -103.48,701.09 -517.54,725.29 -212.27,12.4 -364.03,-366.48 -328.98,-615.02 31.75,-225.11 -208.39,-236.02 -70.06,40.93 31.45,62.97 -28.04,112.34 50.19,105.49 24.9,-2.18 16.53,8.74 23,34.2"/>
  <path class="fil0 str0" d="M18927.68 2144.4c-2.88,92.37 -4.08,89.26 6.28,127.03 63.29,230.55 410.51,132.4 480.46,334.5 72.06,208.2 43.7,75.72 96.09,17.58 20.93,-23.24 225.58,-656.12 7.11,-295.83 -28.03,46.22 -129.23,166.59 -188.83,161.48 -153.86,-13.19 -265.53,104.25 -296.51,256.23 -28.53,140.07 -53.81,-518.48 -165.48,-406.81 -217.64,217.64 -352.29,13.69 -180.84,250.45 15.88,21.91 -220.1,-62.39 -29.35,174.6 89.39,111.08 459.32,860.88 363.44,942.66 -76.12,64.95 -134.22,586.91 70.06,412.61 63.26,-53.97 -31.13,-631.45 -319.84,-343.21 -63.79,63.69 23.25,-502.19 -279.6,-147.25 -77.59,90.95 65.29,-182.64 80.3,-199.29 45.43,-50.36 25.87,-222.17 -16.85,-379.91"/>
  <path class="fil0 str0" d="M18800.8 2370.75c-148.9,82.99 -655.33,87.72 -655.33,297.46 0,162.34 -161.65,669.88 -23.36,646.83 189.29,-31.54 -123,-244.58 -123,148.8 0,126.07 -48.88,641.69 51.58,782.58m-1543.08 145.81c-7.59,64.3 7.37,131.53 -12.86,194.01 53.18,8.47 104.79,35.91 160.5,43.44 63,8.52 126.1,9.8 191.11,9.8 159.41,0 315.02,-41.31 475.45,-32.97 77.27,4.03 124.53,-1.25 179.84,49.99 49.19,45.55 85.47,104.21 112.79,164.87 57.56,127.71 75.64,268.83 103.23,404.92 23.41,115.47 55.14,232.76 72.72,349.44 18.53,123.26 21.49,249.08 38.85,374.01 39.95,287.53 137.36,558.49 191.37,844.28 22.92,121.4 35.87,241.96 54.4,362.3 13.2,85.91 60.29,206.28 50.26,290.93 -90.09,4.06 -157.7,2.91 -241.47,-33.63 -1002.49,-397.81 -269.42,659.23 -182.78,-132.04 0.45,-395.25 29.1,-795.06 -3.64,-1193.04 -18.24,-221.5 -43.27,-437.28 -73.64,-657.86 -20.18,-146.55 -132.71,-648.63 -131.4,-881.69 1.17,-206.12 -91.36,-86.65 -71.48,-21.73 13.21,43.12 407.06,-120.07 664.22,-167.31 197.3,-36.26 211.11,-260.9 47.57,-247.74 -136.17,10.95 -51.74,252.9 161.5,235.5 518.38,-42.32 804.64,224.17 1050.88,174 35.06,-7.14 107.73,-308.57 -31.14,-280.26 -216.8,44.18 -148.3,-92.22 -156.38,-280.93 -3.07,-71.72 31.08,-363.81 100.54,-349.65 117.52,23.95 391.4,-70.51 563.19,51.82 31.02,22.08 248.24,-3.23 413.66,54.81 332.87,116.84 140.77,550.9 27.41,-5.42 -6.53,-32.06 272.29,-430.54 -193.28,-304.29 -69.14,18.75 -174.5,230.28 -125.9,-8.46 18.72,-91.91 264.66,-493.58 140.8,-465.09 -103.91,23.9 -25.4,305.42 -160.59,228.89"/>
  <path class="fil0 str0" d="M19641.58 2284.98c24.46,14.24 39.46,115.86 271.08,149.02 87.11,12.46 437.65,56.76 428.17,171.93 -0.16,1.91 99.35,328.48 93.42,467.1 -4.23,98.92 -24.05,70.25 -84.96,95.43 0,19.84 146.56,24.92 131.67,402.81 -9.79,248.36 170.59,720.59 -311.4,739.59 -263,10.36 -249.49,-95.16 -528.7,-38.26 -97.32,19.83 -188.46,-220.88 -195.3,-47.38 -5.86,148.74 212.88,-97.05 7.11,-70.73 -119.75,15.32 72.44,163.57 53.84,217.31 -1.39,0.28 -33.12,42.35 -136.35,21.75"/>
  <path class="fil0 str0" d="M19055.17 2901.96c0.83,61.35 167.38,798.68 76.98,741.39 -3.31,-2.11 -61.74,-29.13 9.23,9.31"/>
  <path class="fil0 str0" d="M19853.33 2424.31c-93.46,136.36 7.6,86.7 -87.9,113.56 31.48,146.96 210.25,-69.63 -5.79,386.58 -59.38,125.39 -187.04,529.54 -256,625.73"/>
  <path class="fil0 str0" d="M19453.51 2827.69c-46.47,214.83 -55.58,422.88 -111.64,697.8"/>
  <path class="fil0 str0" d="M18360.19 4384.61c-108.11,212.54 -144.67,971.07 -144.67,1241.92 801.21,73.97 857.51,202.96 1035.41,-366.57 64.23,-205.61 1.84,-401.54 -15.57,-607.89 -1.24,-14.66 3.46,6.98 9.97,23.64"/>
  <path class="fil0 str0" d="M20134.66 4343.32c33.29,83.81 140.02,371.68 58.94,413.95 -275.1,143.43 -595.77,-183.65 -249.79,-197.29 170.51,-6.73 372.42,424.67 358.11,591.66 -6.62,77.1 122.97,440.5 79.74,447.13 -796.93,122.16 -813.49,206.98 -1048.16,-406.67"/>
  <path class="fil0 str0" d="M18258.76 5749.59c57.37,51.44 -27.67,877.79 -27.67,1034.91 0,290.24 13.78,398.32 47.38,671.51 18.27,148.61 158.99,14.55 -3.34,153.04 -1.47,1.24 64.95,419.58 64.95,477.55 0,258.03 2.71,207.23 31.81,443.74 26.63,216.52 -84.74,389.26 77.18,607.24 137.65,185.29 361.03,-101.62 0,23.35 -33.51,11.6 -72.71,194.62 23.36,194.62 187.89,0 306.29,-12.85 407,120.84 20.84,27.65 20.82,151.78 14.1,181 -3.17,13.77 -155.73,82.25 -160.82,94.96 -34.39,85.92 -92.24,143.99 -179.36,193.71 -13.62,7.78 -490.36,162.01 -416.35,-123.41 42.01,-162.03 125.2,-210.24 199.79,-279.16 40.51,-37.44 66.19,-122.19 109.62,-140.28 155.32,-64.73 314.31,-24.2 369.45,-9.2 33.81,9.2 28.57,8.8 -40.49,-31.35 -50.11,-29.12 71.32,26.34 152.65,-8.63 40.4,-17.37 91.43,-93.74 66,-141.27 -60.55,-113.17 -84.34,-13.92 -104.56,-118.57 -7.4,-38.32 -151.64,-113.03 -20,-96.74 185.73,22.96 -53.8,-77.83 5.78,-235.56 7.45,-19.75 -63.7,-839.96 31.14,-973.13 1.11,-1.56 16.69,-421.02 -18.68,-474.89 -55.61,-84.71 -144.8,87.64 51.82,87.64 154.99,-602.76 2.85,-914.92 395.04,-1465.59 30.07,-42.24 66.29,-287.71 41.25,-389.12"/>
  <path class="fil0 str0" d="M19328.06 6087.23c32.35,169.35 20.84,341.89 125.87,511.24 12.59,20.31 17.26,698.08 81.11,846.84 11.46,26.71 202.53,522.67 188.53,197.54 -3.19,-73.99 -108.98,-36.2 -60.71,288.72 42.83,288.25 -102.87,476.11 99.88,609.23 82.27,54.01 -169.91,206.74 -3.11,344.99 18.83,15.61 -44.66,-7.92 -56.5,88.3 -10.27,83.51 -78.47,158.78 -2.67,342.54 121.02,293.41 671.51,156.43 671.51,651.99 -22.32,19.52 -85.87,123.76 -282.99,96.57 -209.98,-28.96 -357.52,-125.83 -251.11,-330.81 28.63,-55.18 159.05,-201.19 -70.54,-271.92 -40.66,185.04 -168.58,380.32 417.8,135.1 75.58,-31.6 -70.57,-123.63 -40.93,-218.65 57.14,-183.18 148.74,-116.48 35.81,-266.7 -4.13,-5.49 101.52,-658.18 98.54,-755.81 -13.46,-440.19 10.67,-493.64 -78.52,-930.88 -0.36,-1.77 8,-337.39 -7.78,-452.19 -58.81,-427.87 115.07,-899.71 58.48,-1351.93 -3.24,-25.89 -7.25,-51.73 -12.08,-77.48 -1.97,-10.52 -17.41,-132.09 -66.98,-94.32 -28.94,22.07 -34.35,96.3 66.17,75.78 127.67,-26.06 694.02,-120.82 690.76,-82.05 -14.12,168.2 -70.78,593.21 -40.49,700.6 71.26,252.62 191.35,1298.51 181.07,1538.77 -5.9,138.19 101.2,507.93 101.2,724.01 0,79.05 -19.22,427.74 -39,498.14 -22.79,74.53 -10.82,226.53 62.35,200.51 114.12,-40.58 212.23,0.38 177.05,46.71 -203.41,267.84 -353.73,-48.31 -108.98,-13.57 178.51,25.34 -194.6,157.22 -237.34,243.34 -108.33,218.31 -428.18,200.29 -474.87,233.55 -276.32,196.78 464.63,143.89 511.8,145.91 170.15,7.29 198.73,-102.57 233.54,-101.2 132.26,5.21 54.07,-69.49 95.43,30.46 203.39,-43.58 214.11,34.14 246.45,-124.56 26.51,-130.06 -40.35,-203.05 -38.26,-256.23 6.19,-156.95 102.86,15.94 46.71,-202.41 -78.45,-305.11 -1.61,-296.77 55.17,-575.42 58.61,-287.59 120.51,-321.21 53.82,-595.55 -40.59,-167.01 -168.54,-90.77 -76.58,-46.71 195.69,93.74 -99.87,-315.01 -24.46,-324.64 169.16,-21.61 50.84,-94.82 19.3,-185.94 -60.84,-175.82 60.81,-108.44 62.28,-108.32 76.49,6.34 110.15,-909.34 131.12,-1004.95"/>
  <path class="fil0 str0" d="M19590.68 2222.16c-10.05,-57.09 -22.35,-338.79 71.89,-379.16 35.27,-15.11 15.55,-46.37 33.26,-81.78 51.01,-101.99 109.48,-266.07 -9.95,-237.79"/>
  <path class="fil1 str0" d="M19132.02 1535c63.46,-20.4 92.71,5.5 102.7,11.85 -14.19,85.43 8.65,169.51 122.36,184.2 63.65,8.22 124.97,-28.42 145.49,-110.6 9.71,-38.9 2.12,-81.62 -42.01,-102.85 -75.36,-36.26 -140.04,-32.02 -219.78,12.47"/>
  <path class="fil1 str0" d="M19499.89 1551.51c51.57,6.62 138.26,-28.33 188.83,-32.06"/>
  <path class="fil1 str0" d="M19543.81 1606.15c-14.57,22.82 -107.88,-46.77 -134.35,-54.89 -44.79,-13.71 -104.67,15.05 -151.77,33.71 42.97,5.79 48.16,1.62 95.88,14.75 35.54,9.76 92.17,-11.53 103.18,-10.6"/>
  <path class="fil1 str0" d="M19260.33 1603.89c39.32,16.68 117.99,88.04 216.76,27.11"/>
  <path class="fil1 str0" d="M18838.15 1585.32c69.18,0 88.55,-58.36 175.79,-48.67 34.81,3.86 59.27,30.58 87.82,42.26 -22.43,6.21 -147.92,12.15 -174.76,-5.67"/>
  <path class="fil1 str0" d="M19088.14 1597.08c-57.87,7.28 -27.25,62.69 -183.19,30.27"/>
  <path class="fil1 str0" d="M19044.22 1746.95c-17.74,10.61 -22.33,17.38 -39.12,34.16"/>
  <path class="fil1 str0" d="M19044.22 1746.95c20.06,49.1 -4.93,43.46 56.15,55.88 6.88,1.4 27.28,66.6 99.78,36.2 28.35,-11.89 17.79,-34.13 78.73,-31.53 19.18,0.82 26.49,-35.69 28.76,-40.87"/>
  <path class="fil1 str0" d="M19011.41 1938.21c-0.01,-0.02 129.55,-10.81 147.55,-0.25 16.67,-13.5 149.17,-6.1 190.1,-11.17 62.26,-7.7 33.5,-8.46 -8.03,29.82 -29.42,27.13 -97.34,43.87 -132.83,50.08 -70.53,12.34 -94.22,3.99 -136.56,-36.49 -11.8,-11.29 -32.37,-30.33 -57.31,-31.75 -1.03,-0.05 -1.85,-0.16 -2.92,-0.24z"/>
  <path class="fil1 str0" d="M18904.95 1627.35c-22.98,2.22 -22.99,-5.91 -37.98,4.85"/>
  <path class="fil1 str0" d="M19124.48 2100.61c10.39,0 33.88,-9.36 56.47,-9.2 24.13,0.17 47.27,9.85 52.54,8.83"/>
  <path class="fil1 str0" d="M18997.51 1535.61c13.6,0 24.6,11.01 24.6,24.6 0,13.59 -11,24.61 -24.6,24.61 -13.58,0 -24.6,-11.02 -24.6,-24.61 0,-13.59 11.02,-24.6 24.6,-24.6z"/>
  <path class="fil1 str0" d="M19403.32 1549.75c4.33,4.57 6.74,10.61 6.74,16.9 0,13.59 -11.02,24.6 -24.59,24.6 -13.6,0 -24.61,-11.01 -24.61,-24.6 0,-6.14 2.29,-12.05 6.42,-16.59"/>
  <path class="fil1 str0" d="M19082.73 1957.26c56.26,15.95 127.57,12.03 216.87,-1.45"/>
  <path class="fil1 str0" d="M18827.84 1525.32c2.47,-1.54 45.37,-14.16 48.59,-15.57 62.13,-27.18 258.19,-28.65 254.9,49.73 -1.9,44.91 -10.31,79.2 -25.79,102.76 -66.77,101.69 -236.04,43.71 -241.6,-47.15 -1.87,-30.51 -11.55,-72.27 14.14,-96.36"/>
  <path class="fil0 str0" d="M22124.01 2058.2c22.1,-23.42 71.51,-306.09 122.92,-431.25 15.37,-37.41 40.31,-47.3 46.98,-47.24 7.13,0.05 19.98,59.03 11.52,128 -8.77,71.44 -33.85,170.54 -89.58,191.98 -53.46,20.55 -10.06,-21.66 -10.06,-180.31 0,-141.44 120.95,-364.38 2,-531.39 -51.84,-72.79 -6.4,-137.35 -242.66,-185.51 -181.97,-37.08 -421.06,-91.07 -421.06,171.94 79.98,2.45 146.19,110.48 307.02,57.4 96.4,-31.81 297.95,-19.12 243.96,153.89 -40.64,130.56 55.05,67.89 47.97,248.03 -1.08,27.43 30.01,35.96 47.15,17.67"/>
  <path class="fil0 str0" d="M21425.11 2524.73c-258.49,85.01 -278.88,-38.55 -420.21,346.82 -27.12,73.95 -7.1,864.86 -112.77,1121.05 -101.18,245.28 -79.16,587.94 84.03,817.14 13.21,18.54 -4.88,101.31 1.47,136.52 -2.39,31.25 42.93,277.78 -66.8,388.86 -84.75,85.8 -158.56,-19.89 -163.41,-156.68 -4.96,-140.13 60.69,-313.13 112.88,-362.99 31.9,-30.48 102.84,9.1 319.87,226.13 118.45,118.44 284.59,-78.09 171.28,196.63 -29.53,71.58 -76.35,755.15 231.54,755.15 403.16,0 436.51,-152.47 675.29,-391.25 128.61,-128.6 245.03,-652.91 330.98,-591.66 130.11,92.74 -34.67,-208.69 145.91,-224.43 34.91,-3.03 -36.11,-188.37 179.05,-290.04 299.8,-141.65 -94.35,-347.72 -78.36,-163.08 20.58,237.72 483.4,-161.22 31.66,-161.22 -285.18,0 -94.15,-34.92 -208.2,-311.4 -94.5,-229.1 -202.53,-442.52 -126.56,-661.72"/>
  <path class="fil0 str0" d="M21880.5 2829.4c-169.54,402.25 -287.88,546.11 -398.71,1015.96 -78.14,331.23 -193.14,822.62 -118.72,1173.01"/>
  <path class="fil0 str0" d="M21497.23 2757.86c14.41,57.38 -176.82,579.81 -171.14,757.85 8.53,267.76 -246.71,1146.47 -134.35,1304.12 25.74,36.11 48.71,60.27 110.99,60.27"/>
  <path class="fil0 str0" d="M22207.28 5776.24c53.41,-30.62 64.73,193.65 276.76,-104.07 99.79,-140.1 -309.49,-171.54 19.58,15.57 186.7,106.16 578.13,-669.38 743.37,-825.22 176.7,-166.66 358.25,-419.58 175.94,-646.15 -32.31,-40.15 -95.02,-196.87 -93.71,-243.41l10.06 -29.96c-70.25,-288.8 -233.72,-392.89 -285.59,-814.54 -60.39,-491.03 -335.84,-437.39 -441.07,-516.47 -94.73,-71.21 -357.07,-224.71 -412.6,-318.53 -5.06,-8.53 -240.54,385.66 -360.11,428.18 -2.45,0.87 -124.79,-173.28 -150.58,-197.75 -191.65,-181.79 -106.35,-354.45 -147.25,-259.63 -26.27,60.9 -153.34,537.53 -31.81,280.32 114.81,-242.96 694.94,-305.86 601.51,-476.65 -3.56,-1.4 -280.86,225.35 -455.95,158.86 -228.21,-108.09 -186.34,-240.75 -222.03,-304.17 -60.57,-37.08 -58.92,-118.16 -60.59,-192.64 -0.81,-35.96 -21.86,-91.64 -12.11,-118.47 12.74,-35.04 37.33,25.67 52.65,26.82 -62.39,-339.05 -1.23,-435.81 134.53,-519.7"/>
  <path class="fil0 str0" d="M22646.46 5787.69c24.88,30.48 -7.87,849.45 102.28,1116.52 37.68,91.32 -8.76,606.26 62.29,778.51 108.01,261.86 110.99,831.43 110.99,1136.62 0,101.04 -18.83,697.57 -115.44,717.56 -4.85,14 53.16,95.69 53.16,193.29 0,59.34 1.04,109.92 0.14,152.92 -1.97,92.94 -26.26,233.57 -345.24,213.17 -75.56,-4.83 -174.5,10.98 -202.82,-35.59 -32.28,-53.09 -6.66,-101.37 14.64,-143.99 20.75,-41.52 107.37,-34.7 206.31,-30.81 369.41,14.56 347.71,-268.55 7.12,-210.87 -31.53,5.34 -303.91,412.38 -145.24,-14.89 15.05,-40.55 51.63,-91.82 60.27,-116.78 131.09,0 443.75,25.07 217.98,-68.06 -135.85,-56.04 -380.33,214.78 -304.29,-158.37 52.78,-258.94 -146.58,-1762.45 -254.22,-2023.44 -130.49,-316.36 11.48,-540.75 -248.46,-1027.63 -47.66,-89.28 -79.85,-207.25 -115.38,-278.3"/>
  <path class="fil1 str0" d="M21473.44 1654.56c16.69,-29.79 78.68,-74.11 128.89,-51.98 13.46,5.94 59.73,38.54 3.38,38.93"/>
  <path class="fil1 str0" d="M21832.78 1638.01c110.23,-85.34 149.8,-35.62 182.96,-3.09"/>
  <path class="fil1 str0" d="M21930.76 1869.2c-14.64,-25.05 -60.56,-53.58 -77.88,-74.19 -44.91,-53.42 -5.55,0.3 -7.64,27.1 -3.77,48.53 -55.3,5.47 -69.62,18.38 -12.43,11.2 -25.31,19.11 -32.23,21.76 -11.48,4.39 -20.39,5.59 -42.88,1.39 -11.65,-0.57 -44.7,-44.64 -60.82,-22.08 -5.23,7.33 16.72,19 27.03,19"/>
  <path class="fil1 str0" d="M21604.07 1822.83c-15.23,36.87 -32.94,39.52 -47.6,55.99"/>
  <path class="fil1 str0" d="M21589.24 1980.46c30.75,8.99 123,-5.86 179.26,0.92 18.12,2.18 120.88,9.86 143.37,-8.98"/>
  <path class="fil1 str0" d="M21680.71 2018.78c23.1,6.32 71.91,8.03 110.03,-3.71"/>
  <path class="fil1 str0" d="M21695.43 2080.44c15.22,-4.18 47.4,-5.31 72.52,2.43"/>
  <path class="fil1 str0" d="M21701.74 1943.98c22.04,15.75 53.74,8.06 66.76,2.48"/>
  <path class="fil1 str0" d="M21960.48 1540.9c39.56,0 101.9,42.69 96.04,30.66 -13.08,-26.82 -31.52,-44.92 -48.91,-57.47 -48.05,-18.19 -133.09,-2.2 -185.97,29.64 -49.12,42.76 -68.72,31.15 -61.88,138.22 2.53,39.78 -40.1,34.52 -3.09,83.85 7.01,9.33 0.95,42.23 -4.39,45.54"/>
  <path class="fil1 str0" d="M21933.04 1593.06c15.04,0 27.21,12.17 27.21,27.2 0,15.02 -12.17,27.19 -27.21,27.19 -15.01,0 -27.18,-12.17 -27.18,-27.19 0,-15.03 12.17,-27.2 27.18,-27.2z"/>
  <path class="fil1 str0" d="M21564.59 1596.81c13.42,0 24.3,10.88 24.3,24.28 0,13.42 -10.88,24.3 -24.3,24.3 -13.4,0 -24.28,-10.88 -24.28,-24.3 0,-13.4 10.88,-24.28 24.28,-24.28z"/>
  <path class="fil1 str0" d="M21449.34 1603.68c43.35,-28.3 96.49,-44.27 146.44,-24.24 14.44,5.79 27.87,11.62 27.87,5.38 0,-29.19 -52.17,-56.97 -77.88,-56.97"/>
  <path class="fil0 str0" d="M21528.68 1195.22c-125.36,72.4 -99.56,325.65 -97.23,392.24"/>
  <path class="fil1 str0" d="M25833.64 9794.75c-46.09,70.35 -73.48,78.31 -95.68,70.86 -367.04,-123.04 -132.88,-657.53 -384.52,-681.38 -36.98,-242.15 755.37,-387.48 544.1,-530.77 -63.77,-43.27 -493.54,-7.76 -493.54,-58.36m-601.04 -6365.04c109.76,-82.03 146.48,2.04 141.67,5.97 6.4,4.1 16.03,4.71 25.8,4.05 8.82,-0.58 19.1,-3.66 31.51,0.47m-435.66 314.94c56.57,20.15 109.05,58.12 171.45,56.8 58.08,-1.23 103.5,-26.2 151.88,-68.39 -53.34,25.27 -215.39,45.84 -307.42,4.96m265.1 -303.54c28.72,16.94 87.05,1.21 97.34,-9.3m-163.61 103.41c-31.59,-60.29 -29.15,13.22 -29.15,-98.08 0,-25.54 -10.66,-61.91 11.92,-63.64 65.02,-5.02 175.57,-106.01 230.65,5.42m-363.21 201.37c-23.28,9.36 25.52,59.62 22.42,34.46 -2.68,-21.93 45.76,-36.19 51.71,0.11 3.24,19.82 37.66,24.25 55.18,-1.44 20.39,-29.86 47.66,-2.84 50.11,-2.72 27.7,1.49 27.15,-18.46 11.5,-65.42m-177.66 -11.39c-38.55,2.88 -33.64,58.93 -67.56,96.68m58.89 -188.77c-5.94,32.79 -56.64,44.57 -85.37,44.57m-76.45 -65.74c38.19,-34.82 103.33,-50.08 136.05,-3.64 9.35,13.26 20.76,8.98 -24.84,20.67 -38.86,9.95 -74.35,-9.82 -67.73,-9.29m56.68 -37.82c2.39,4.07 3.65,8.71 3.65,13.42 0,14.66 -11.87,26.53 -26.53,26.53 -14.64,0 -26.51,-11.87 -26.51,-26.53 0,-4.47 1.14,-8.89 3.29,-12.81m118.96 -38.03c-46.64,-15.93 -87.78,-60.02 -177.7,-39m425.74 78.45c2.93,3.7 4.84,8.11 5.48,12.78 2.05,14.5 -8.06,27.92 -22.56,29.97 -14.49,2.04 -27.92,-8.07 -29.96,-22.57 -0.62,-4.44 -0.1,-8.96 1.48,-13.16m46.8 325.13c-17.05,0 -74.11,-31.26 -110.58,-37.64 -7.42,-1.3 -12.66,-2.57 -14.96,-1.22 -51.02,29.85 -55.51,-11.68 -103.24,13.92 -45.03,24.13 -81.61,26.81 -103.64,33.7 0.14,-0.13 31.48,0.79 66.19,1.67 37.89,0.97 69.22,-15.32 79.31,-15.72 17.23,-0.67 42.44,-3.81 64.47,-0.58 37.92,5.6 70.52,12.64 102.61,11.21m-553.94 6185.58c35.24,116.55 25,397.98 80.93,529.17 54.04,126.75 -47.83,289.41 -24.23,474.92 9.44,74.26 25.4,108.45 107.18,171.38 29.86,22.97 51.06,50.28 71.84,49.81 40.6,-0.96 181.67,-92.13 193.62,-143.31 4.61,-19.8 5.99,-43.73 5.41,-69.78 -2.09,-94.01 -29.89,-218.11 -22.04,-295.71 23.8,-235.2 -23.49,-298.4 -50.84,-289.58 -20.48,6.59 -26.31,65.74 15.98,168.47 0.51,1.25 25.1,340.05 11.96,349.95 -73.52,55.42 -302.21,85.07 -302.21,-116.66 0,-430.44 390.23,-381.58 199.65,-544.29 -23.5,-20.08 -23.58,-377.37 -24.22,-429.84m328.79 -2886.72c-117.96,6.81 -334.8,23.82 -430.6,99.45 1.38,5.05 364.28,-67.26 305.09,-22.34 -74.8,56.74 -278.76,89.09 -147.18,108.69 87.15,12.99 349.41,889.71 417.2,1083.68 86.33,246.99 147.26,485.61 167.65,793.3 20.67,312.15 181.34,611.52 169.66,884.44 -9.72,228.03 249.67,105.51 386.8,110.89 31.01,1.21 10.59,-593.93 10.59,-662.65 0,-468.24 -177.27,-749.78 -183.6,-1256.36 -2.16,-172.91 -42.28,-853.52 -91.66,-1208.55 -15.86,-113.97 25.15,-173.12 -30.04,-273.67m-1666.95 -218.68c-25.29,29.55 -113.02,137.65 -98.76,172.33 13.2,32.14 41.33,426.9 74,506.35 1.54,3.72 0.69,2.37 0.69,2.65l214.72 1110.82 90.14 708.83 68.92 949.08c19.05,-12.77 677.39,79.78 421.74,-137.39 -94.77,-80.51 -352.72,42.31 -351.31,43.32 1.49,1.04 476.31,90.33 389.78,-55.74 -37.1,-62.65 16.32,-754.43 -53.01,-843.05 -9.6,-12.26 -19.21,-1635.33 35.75,-1714.87m-328.71 -2379.38c83.21,249.59 245.83,518.81 466.13,665.35 -17.61,-3.83 -5.15,-3.25 -26.05,-2.57m-15.9 632.28c0,115.08 141.51,379.91 230.87,466.36 159.66,154.46 237.83,183.63 449.04,140.71 63.3,-12.86 159.03,-61.68 122.39,-146.04 -3,-6.94 -27.56,-144.94 -48.39,-143.15m-958.05 -1705.75c0,96.71 127.58,497.55 166.34,609.74 51.29,148.48 107.57,133.21 130.36,318.14 20.86,169.31 35.98,167.1 -28.25,324.33 -2.77,6.8 -9.49,26.39 -13.94,15m710.48 -489.09c13.91,166.87 -57.17,196.96 12.56,365.84m406.31 230.65c-23.41,99.82 -24.61,116.7 -34.24,216.7 -4.3,44.6 -56.2,261.52 -61.19,252.54m-1958.29 -444.95c-40.57,-183.08 23.11,-122.95 17.66,-167.37 -6,-48.73 -45.8,10.96 -0.91,-98.32 19.47,-47.41 -29.86,-34.8 42.4,-85.5 82.73,-58.06 -32.9,-118.46 42.2,-253.6 54.37,-97.83 -27.46,-175.12 75.83,-243 10.58,-6.97 43.33,-43.18 57.29,-38.89m-234.47 886.69c-88.27,102.95 -178.93,-3.9 -245.02,68.58 4.61,19.51 124.37,-7.06 164.36,31.81m1246.29 -3083.43c134.24,103.58 171.72,242.37 174.61,408.59m-1314.87 824.38c-87.36,35.74 -27.3,3.8 -77.55,115.74 -44.97,100.19 -32.72,44.93 -54.32,77.79 -2.01,3.06 -17.83,112.98 -0.9,95.67 1.73,-1.77 39.69,3.04 60.38,-21.41 31.68,-37.43 42.97,-81.37 -13.37,-61.32 -81.04,28.87 -98.71,405.92 -128.28,477.51 -9.02,21.83 -8.94,100.67 -31.83,161.49 -0.61,1.61 -31.28,182.07 -32.7,193.75 -26.51,215 -142.28,101.5 -106.08,221.15 121.75,0 134.33,-65.33 309.75,24.72 28.34,14.54 207.5,92.79 131.26,154.67 -71.48,58.03 -49.94,-183.1 -356.15,-130.81 -50.01,8.54 -62.48,15.89 -64.17,26.07 -3.53,21.25 45.8,43.4 20.23,53.47 -82.76,32.56 -8.65,37.94 -38.92,119.06 -11.27,30.22 28.56,485.75 50.6,539.08 21.83,52.89 62.14,194.69 120.2,206.55 331.03,67.59 -306.75,-146.31 97.87,-278.82 20.3,-6.64 99.61,-2.39 73.55,-46.35 -13.49,-22.73 -50.52,3.47 -62.94,-16.59m848.27 -3235.94c-237.82,23.04 -447.02,414.5 -433.09,654.52 9.73,167.75 -133.29,313.58 -64.98,479.01 38.39,92.98 -329.25,195.24 -60.42,338.97m1049.3 -297.88c68.85,60.98 217.38,39.89 299.12,101.41 78.72,59.22 276.99,93.77 310.44,162.46 24.22,49.74 39.26,114.07 25.6,291.63 1.54,5.18 102.38,731.36 101.8,744.87 -4.71,110.26 135.28,182.34 43.12,405.61 -29.37,-129.81 -598.38,-7.58 -277.09,14.62 238.5,76.79 -15.3,184.04 -27.4,183.22 -29.21,-1.99 -52.44,4.75 -43.26,52.28 12.5,45.22 113.6,-9.85 17.42,79.29 -86.2,79.89 132.35,-19.36 168.68,59.3 -17.61,2.68 -215.98,-71.66 -202.16,-7.05 4.6,21.45 109.94,-7.38 65.82,60.3 20.99,35.91 119.97,-0.35 119.97,270.41 0,61.37 -131.11,165.57 -180.65,165.57 8.95,43.25 221.63,-165.25 16.29,-241.55 -0.33,-0.12 -12.01,-3.62 -13.25,-5.98m-548.51 -2549.52c-17.19,15.34 -47.04,188.95 -2.29,226.14l0 0c0.27,0.08 -102.98,113.94 -201.11,136.96 -95.59,22.42 -198.94,-127.02 -197.46,-128.78m-58.33 254.5c100.55,166.61 37.57,40.8 199.06,-54.76 76.07,-45 60.75,1.8 60.75,-64.54 -39.12,0 -25.92,46.51 23.86,42.42 59.93,-4.93 129.47,100.94 140.29,164.59 5.7,33.59 104.63,-73.91 106.27,-79.76 136.94,-98.72 114.68,-391.21 30.97,-72.94 -61.5,233.88 -106.06,495.5 -220.11,709.22 -12.15,22.76 -133.01,255.29 -136.95,259.79m-22.52 -2237.13c58.68,-30.03 109.27,-12.68 169.4,10.82 98.88,-41.01 156.71,-133.49 -72.73,-144.22 -330.59,-15.46 -407.12,699.52 -291.55,973.39 74.33,176.16 153.56,562.83 -171.5,498.39 -189.25,-37.51 187.7,-229.97 61.97,26.97 -125.99,257.46 -7.42,80.28 35.75,180.73 41.19,95.83 -343.98,25.59 -185.31,177.95m679.28 -1704.64c46.33,31.87 140.61,131.55 147.26,185.57 2.22,17.99 -81.26,-49.08 -37.68,17.34 9.78,14.91 68.61,102.64 66.85,111.35 -19.25,94.8 -28.5,90.32 -28.5,185.4 0,61.54 -10.68,89.91 -20.77,157.69 -10.08,67.56 -54.03,157.5 -109.75,199.38 -77.66,58.38 -260.44,213.88 -406,-12.49m2.05 -911.59c-53.82,7.27 -221.45,280.44 -242.39,346.91 -102.72,326.02 214.86,469.04 -56.13,671.63 -162.12,121.21 115.79,167.26 -13.45,249.62 -61.43,39.14 -183.53,-31.03 -104.52,-56.85 57.66,-18.84 85.48,129.89 38.44,171.25 -103.84,91.31 -2.61,115.24 51.34,159.4m-237.61 -307.58c-130.08,23.9 -107.91,3.37 -71.62,207.38 53.74,302.06 151.19,438.95 160.72,559.66 5.18,65.73 25.33,358.87 -8.72,401.22 -180.4,224.36 468.4,377.99 468.83,367.59 4.4,-102.86 -376.81,-120.39 -487.72,-166.1 -51.02,-21.02 4.65,151.46 -88.32,254.5 -7.79,8.61 -152.52,184.15 -97.32,187.77 264.31,17.33 136.4,-9.58 387.51,72.41 205.09,66.95 605.78,-360.63 311.92,-14.55 -158.4,186.55 -352.62,318.38 -609.29,286.78 -74.14,-9.13 -217.69,-187.71 -153.77,-212.55m1306.23 -2816.81c0.15,5.39 36.87,39.14 50.17,74.48 3.25,8.64 25.03,64.12 11.36,54.11 -37.26,-27.24 -28.87,12.37 -38.43,25.94 41.2,-58.41 72.92,23.86 10.36,92.91 -41,45.27 -9.21,115.25 -55.34,104.82m-313.68 1655.37c33.78,-47.21 117.95,-106.99 181.9,-202.19 129.94,-193.43 210.31,-267.93 312.6,-494.46 60.3,-133.56 127.23,-244.36 133.23,-396.75 0.5,-12.47 14.73,-70.08 13.49,-88.39m-633.61 1686.08c112.6,266.84 293.24,438.39 598.29,459.11 150.25,10.21 162.36,-55.94 -58.78,-79.99 -270.22,-29.37 -170.56,-103.72 -156.03,-85.29 44.98,57.04 388.37,160.58 285.85,-89.23 -34.07,-83.05 -96.9,-409.95 -91.76,-487.01 7.82,-117.16 44.51,-298.87 107.68,-451.92 35.32,-85.6 -98.03,-153.13 77.4,-311.01 42.39,-38.14 14.28,29.79 14.1,30 101.42,166.61 -66.66,533.09 -65.6,399 34.14,-279.33 149.98,-642.96 149.98,-888.06m-252.81 6218.01c-100.06,181.88 52.44,276.95 102.44,386 30.19,65.83 46.05,131.96 62.68,220.65 21.45,114.28 114.27,106.13 209.08,118.48 240.07,31.27 238.14,-74.29 171.25,-179.02 -93.52,-146.42 -73.57,-90.59 -79.82,-249.11 -3.67,-92.89 -64.33,-251.87 -81.3,-293.01 -7.95,-19.31 -17.55,-443.93 -7.45,-451.22m-318.02 -191.65c-6.73,42.96 13.93,149.59 11.93,181.58 -8.77,140.87 26.87,290.61 -95.56,483.95 -17.03,26.91 -15.69,120.27 13.75,211.16 48.69,150.35 63.82,353.27 86.72,405.34 7.15,0.87 16.2,-0.15 20.58,-0.15 0,-66.27 4.08,-249.82 12.72,-257.15"/>
  <path class="fil0 str0" d="M14890.68 8939.02c6.1,-0.69 416.24,-32.17 477.03,162.42 37.05,118.59 161.87,149.11 210.19,288.71 137.62,397.56 -465.34,184.85 -490.45,186.84 -27.3,-131.83 -15.76,-393.9 -232.88,-349.65 -19.32,3.93 -34.14,89.37 101.2,131.67 209.5,65.49 -53.23,-98.98 272.48,-147.24 87.36,-12.95 -94.63,-241.25 153.03,-188.19 49.67,-120.02 211.34,-1322.34 183.05,-1418.2 -31.42,-106.5 45.06,-245.96 -38.91,-449.53 -12.28,-29.77 100.47,-945.49 99.54,-1159.36 -0.07,-24.17 4.29,-19.42 12.06,-41.24 51.06,-143.07 29.17,-664.28 31.44,-899.28 5.37,-563.61 355.61,-380.47 760.82,-348 116.9,9.38 85.59,-94.16 42.07,-79.83 -40.68,13.39 -105.06,283.3 -118.35,412.23 -12.44,120.81 -324.53,2194.54 -347.96,2273.93 -14.52,49.26 -18.37,36.52 26.55,68.81 102.28,77.17 190.86,78.16 413.39,149.4 84.78,22.96 107.94,-34.31 291.57,18.29 49.2,14.09 112.06,-2.94 163.36,1.49 73.45,80.09 376.49,37.43 433.62,-17.44"/>
  <path class="fil0 str0" d="M1347.32 2960.9c19.88,246.71 -69.89,326.79 -69.89,422.39 0,95.82 25.5,419.17 -25.05,472.09 -95.73,100.23 5.48,208.85 5.48,367.41 0,205.33 3.58,306.47 23.75,504.86 5,49.23 3.74,109.59 10.39,169.12l4.99 130.32"/>
  <path class="fil0 str0" d="M548.89 4353.46c37.16,-88.73 39.67,-211.66 22.32,-334.32 -11.89,-84.06 -7.41,-144.43 4.56,-183.95 26.58,-87.73 90.1,-72.74 93.53,13.99 6.23,157.01 -200.95,-73.96 -76.75,-280.29"/>
 </g>
</svg>
