<?xml version="1.0" encoding="UTF-8"?>
<!DOCTYPE svg PUBLIC "-//W3C//DTD SVG 1.1//EN" "http://www.w3.org/Graphics/SVG/1.1/DTD/svg11.dtd">
<!-- Creator: CorelDRAW Home & Student 2018 (Nie do użytku komercyjnego) -->
<svg xmlns="http://www.w3.org/2000/svg" xml:space="preserve" width="53.2036mm" height="40.9273mm" version="1.1" style="shape-rendering:geometricPrecision; text-rendering:geometricPrecision; image-rendering:optimizeQuality; fill-rule:evenodd; clip-rule:evenodd"
viewBox="0 0 1192.47 917.32"
 xmlns:xlink="http://www.w3.org/1999/xlink">
 <defs>
  <style type="text/css">
   <![CDATA[
    .str0 {stroke:#383A52;stroke-width:6.72;stroke-linecap:round;stroke-linejoin:round;stroke-miterlimit:22.9256}
    .fil0 {fill:none}
   ]]>
  </style>
 </defs>
 <g id="Warstwa_x0020_1">
  <metadata id="CorelCorpID_0Corel-Layer"/>
  <g id="_1147067392">
   <path class="fil0 str0" d="M568.23 367.19l4.15 142.33c0,7.89 2.88,25.01 13.9,22.82 3.89,10.53 -1.19,-111.02 -1.19,-143.51 0,-9.75 -107.5,-1.92 -119.79,0 0,51.96 -1.19,103.86 -1.19,155.37 31.01,18.53 153,-4.07 153,-1.19 0,14.79 1.47,116.97 -3.46,120.2 -31.15,20.43 -109.93,19.72 -143.61,5.83 -12.13,-5 -73.74,9.2 -70.38,-5.73 3.25,-14.46 -0.99,-111.96 0.41,-114.27 35.25,-3.17 28.74,2.17 30.94,52.97 2.66,61.49 -13.41,71.29 43.68,60.59 -2.17,-18.81 -22.13,-97.07 13.15,-108.61 15.2,-4.97 20.72,121.12 -2.37,128.67 -9.4,3.08 -16.01,4.25 -11.96,24.13 3.6,17.66 17.89,-0.61 17.89,59.2 0,14.98 28.63,-8.07 27.28,26.09 -0.01,0.24 50.19,24.17 34.7,-17.89 -2.92,-7.94 -41.12,13.94 -38.36,-4.74 2.92,-19.77 77.2,16.2 72.35,-16.4 -4.67,-31.38 2.88,-36.61 -58.9,-30.06 -63.06,6.69 65.07,19 62.56,-11.56 -0.21,-2.58 4.74,-1.23 4.74,-17.79 0,-3.47 0.43,-20.49 -1.19,-22.53"/>
   <path class="fil0 str0" d="M399.67 663.31c-46.92,27.19 -20.75,-12.45 -30.13,-51.3 -4.72,-19.55 -15.46,-179.3 -5.05,-179.3 33.3,0 51.66,9.86 87.97,4.54l-0.2 2.58"/>
   <line class="fil0 str0" x1="586.32" y1="457.02" x2="963.44" y2= "460.91" />
   <line class="fil0 str0" x1="588.08" y1="508.21" x2="965.21" y2= "504.44" />
   <line class="fil0 str0" x1="617.74" y1="545.95" x2="977.1" y2= "532.73" />
   <line class="fil0 str0" x1="617.74" y1="559.4" x2="977.1" y2= "546.18" />
   <line class="fil0 str0" x1="617.74" y1="594.21" x2="977.1" y2= "566.48" />
   <line class="fil0 str0" x1="616.05" y1="646.31" x2="969.06" y2= "606.71" />
   <path class="fil0 str0" d="M364.49 432.71l-53.37 1.19 14.23 228.91c1.2,0.15 29.27,4.89 29.65,5.93"/>
   <path class="fil0 str0" d="M336.03 252.43c-6.13,23.48 2.37,144.87 2.37,177.2 0.13,-4.51 -0.27,0.21 -0.59,3.68"/>
   <path class="fil0 str0" d="M360.93 258.36c0,52.68 0,105.37 0,158.05 0,2.67 0,-2.28 0,-2.68"/>
   <path class="fil0 str0" d="M355 668.73c0,14.17 1.19,29.51 1.19,41.51"/>
   <path class="fil0 str0" d="M380.53 671.95c0.62,10.9 1.75,29.58 1.75,39.48"/>
   <path class="fil0 str0" d="M411.93 363.92c0,25.01 0,50.02 0,75.03 2.36,0.76 -3.14,-1.7 -3.51,-1.83"/>
   <path class="fil0 str0" d="M435.65 360.36c-2.47,14.03 -1.19,54.46 -1.19,71.64l0 -2.85"/>
   <path class="fil0 str0" d="M372.79 318.85c20.05,16.44 5.31,-5.93 22.74,-5.93 40.52,0 87.61,-8.84 70.08,49.51 -1.81,6.02 -41.12,-19.63 -70.18,-0.68 -7.86,-3.1 -12.19,-3.76 -20.26,-3.76"/>
   <path class="fil0 str0" d="M487.84 269.04c0,34.04 -0.9,84.79 1.45,117.61"/>
   <path class="fil0 str0" d="M512.75 271.41c0,37.79 1.13,76.19 1.18,113.73"/>
   <path class="fil0 str0" d="M360.93 258.36c15.87,-21.3 23.76,18.44 13.93,-31.45 -6.06,-30.74 33.51,-41.14 33.51,-10.88 0,85.55 -15.63,23.03 -29.65,44.9 -11.3,17.63 32.18,-5.77 23.92,15.22 -0.04,0.11 -6.65,29.06 4.44,23.82 16.64,-7.86 37.7,19.71 37.07,-30.73 -0.02,-1.57 -39.11,-14.21 -4.07,-12.17 22.12,1.29 -7.1,18.34 32.02,8.71 31.91,-7.86 64.24,27.13 63.17,-14.54 -0.14,-5.45 -16.02,-6.26 -28.06,-9.08 -16.19,-3.79 -79.21,-20.57 -90.55,-20.57"/>
   <path class="fil0 str0" d="M568.49 223.97l-220.61 -37.95 -90.14 10.67c-1.59,3.85 -0.02,24.2 1.39,28.26 10.39,3.61 4.54,-4.09 4.54,10.88l27.28 502.88c32.8,26.47 -6.31,-23.39 29.85,-27.38 22.27,-2.46 -13.72,32 38.94,29.75 10.7,-0.46 53.44,0.4 52.09,-12.07 -3.68,-33.76 -7.99,2.19 -55.75,-12.54 -64.46,-19.88 22.58,-7.37 54.35,-16.6 34.9,-10.14 -1.36,20.42 17.22,31.41 0.3,0.18 47.92,-4.62 47.14,-5.63"/>
   <line class="fil0 str0" x1="299.26" y1="709.06" x2="277.91" y2= "218.04" />
   <path class="fil0 str0" d="M320.86 590.51c6.13,-0.07 34.14,-0.91 34.14,4.68"/>
   <path class="fil0 str0" d="M277.91 218.04c9.78,-0.86 78.29,-7.44 77.97,-8.3 -5.35,-14.53 3.65,-18.58 -8,-23.72"/>
   <path class="fil0 str0" d="M302.82 191.35c20.33,-16.91 -16.34,-30.9 60.49,-27.87 0.21,0.01 7.41,-30.35 -36.67,-21.25 0.11,1.24 1.27,17.43 2.27,17.69"/>
   <path class="fil0 str0" d="M336.03 118.41l1.29 5.66c-1.28,-38.1 -5.55,-66.49 -2.47,-106.47 15.56,-3.58 43.22,-14.23 58.12,-14.23 -0.57,0.99 1.19,201.8 1.19,181.47"/>
   <path class="fil0 str0" d="M392.96 3.36c9.55,9.27 20.62,5.09 32.02,8.3 0,58.8 1.19,118.32 1.19,176.72"/>
   <path class="fil0 str0" d="M424.98 11.66l67.61 20.16c0,53.08 -2.37,106.84 -2.37,160.12"/>
   <path class="fil0 str0" d="M426.17 188.38c17.24,-15.74 36.17,4.59 58.12,3.56 49.37,-2.31 15.19,35.5 40.43,18.09 10,-6.9 -8.41,-36.43 -8.41,-13.35"/>
   <path class="fil0 str0" d="M512.82 289.2l246.62 30.84c51.59,10.24 48.08,73.08 33.51,112.67 -2.78,7.55 -9.14,21.77 -18.09,22.53"/>
   <path class="fil0 str0" d="M512.98 304.62l241.72 28.47c40.88,1.32 37.46,120.38 -4.74,117.42"/>
   <path class="fil0 str0" d="M337.81 433.3c-6.22,16.78 3.77,170.68 0.12,159.51"/>
   <path class="fil0 str0" d="M371.61 450.5c-1.34,37.6 22.02,-24.23 0.1,-0.88 -13.05,13.9 15.21,0.87 15.32,0.88"/>
   <path class="fil0 str0" d="M275.44 452.62c-7.89,-1.82 -43.78,-5.98 -43.78,2.62 0,8.71 1.19,17.98 1.19,24.91"/>
   <path class="fil0 str0" d="M167.61 471.85c9.31,0.56 73.34,0.01 75.27,2.29 32.04,37.74 -35.38,26.18 -61.04,26.18"/>
   <path class="fil0 str0" d="M238.63 502.04c13.66,34.94 41.5,-32.29 8.54,-37.52"/>
   <path class="fil0 str0" d="M190.14 528.78c4.61,-1.17 51.16,0.22 51,5.42 -0.12,3.97 0,8.34 0,12.37"/>
   <path class="fil0 str0" d="M193.7 548.94c7.43,0 54.56,-6.12 54.56,3.46 0,10.95 9.88,58.81 1.19,55.54 -5.01,-1.89 -13.31,-0.88 -18.98,-0.88"/>
   <path class="fil0 str0" d="M244.7 633.15c4.88,-2.02 29.65,-7.04 29.65,6.3 0,9.2 8.29,58.93 -2.37,58.93 -38.06,0 -27.09,-14.76 -24.91,-9.49"/>
   <path class="fil0 str0" d="M225.72 653.31c11.11,-2.06 59.29,-2.86 43,24.02 -4.23,6.98 -28.01,-0.15 -35.89,4.44"/>
   <polyline class="fil0 str0" points="178.6,521.38 266.96,521.38 266.96,454.36 "/>
   <line class="fil0 str0" x1="249.54" y1="565.21" x2="281.45" y2= "565.21" />
   <line class="fil0 str0" x1="252.26" y1="586.9" x2="282.63" y2= "586.9" />
   <line class="fil0 str0" x1="215.96" y1="631.08" x2="284.91" y2= "631.08" />
   <line class="fil0 str0" x1="278.23" y1="822.63" x2="491.72" y2= "781.12" />
   <polyline class="fil0 str0" points="602.02,758.58 896.16,698.1 1189.11,720.63 "/>
   <line class="fil0 str0" x1="946.27" y1="657.18" x2="946.86" y2= "702" />
   <path class="fil0 str0" d="M3.36 417.6c5.28,-9.02 70.69,-8.48 110.02,-6.9 25.35,1.01 20.74,-2.86 34.68,17.28l162.19 485.98"/>
   <path class="fil0 str0" d="M727.76 348.81c34.65,14.54 36.46,41.4 20.16,71.76 -3.32,6.19 -10.44,13.64 -18.39,13.64l-143.62 -4.68"/>
   <polyline class="fil0 str0" points="938.92,610.09 940.66,657.18 1004.11,657.18 1005.89,443.69 1040.88,444.29 1145.78,717.3 "/>
   <line class="fil0 str0" x1="535.61" y1="798.06" x2="535.61" y2= "835.09" />
   <circle class="fil0 str0" cx="427.17" cy="455.07" r="5.85"/>
   <circle class="fil0 str0" cx="430.25" cy="520.73" r="5.85"/>
   <circle class="fil0 str0" cx="378.57" cy="523.1" r="5.85"/>
   <circle class="fil0 str0" cx="382.21" cy="647.04" r="5.85"/>
   <circle class="fil0 str0" cx="447.36" cy="644.07" r="5.85"/>
   <circle class="fil0 str0" cx="985.61" cy="451.64" r="5.85"/>
   <circle class="fil0 str0" cx="988.59" cy="641.71" r="5.85"/>
  </g>
 </g>
</svg>
