<?xml version="1.0" encoding="UTF-8"?>
<!DOCTYPE svg PUBLIC "-//W3C//DTD SVG 1.1//EN" "http://www.w3.org/Graphics/SVG/1.1/DTD/svg11.dtd">
<!-- Creator: CorelDRAW Home & Student 2018 (Nie do użytku komercyjnego) -->
<svg xmlns="http://www.w3.org/2000/svg" xml:space="preserve" width="64.3742mm" height="89.0175mm" version="1.1" style="shape-rendering:geometricPrecision; text-rendering:geometricPrecision; image-rendering:optimizeQuality; fill-rule:evenodd; clip-rule:evenodd"
viewBox="0 0 3675.04 5081.89"
 xmlns:xlink="http://www.w3.org/1999/xlink">
 <defs>
  <style type="text/css">
   <![CDATA[
    .str0 {stroke:#383A52;stroke-width:17.13;stroke-linecap:round;stroke-linejoin:round;stroke-miterlimit:22.9256}
    .fil0 {fill:none}
   ]]>
  </style>
 </defs>
 <g id="Warstwa_x0020_1">
  <metadata id="CorelCorpID_0Corel-Layer"/>
  <path class="fil0 str0" d="M1010.43 4287.42c-3.76,-14.37 -0.43,-722.94 6.44,-823.95 0.73,-10.82 -17.5,128.63 -7.63,117.24 33,-38.07 423.75,-6.38 495.5,-21.23 6.98,-20.19 9.4,-76.86 8.71,-76.86l-525.97 0c-12.05,-58.53 14.33,-229.82 12.52,-339.86 -2.19,-132.27 12.62,9.31 18.79,45.39 1.84,10.76 56.95,60.98 60.35,-22.78 6.92,-171.07 14.67,-26.84 21.59,16.04 10.72,66.45 61.52,-55.12 47.83,41.5 -5.75,40.62 24.14,-19.28 31.31,-47.47 14.23,-55.99 82.97,-127.86 150.46,-57.37 80.5,84.07 -5.73,98.12 88.56,79.14 14.03,-2.82 13.18,41.87 13.18,-32.38 0,-0.12 -1.51,20.87 19.8,-2.75 16.47,-18.25 -21.47,120.69 49.07,25.88 43.21,-58.06 -13.78,-22.28 9.72,60.89 6.26,22.14 -6.05,10.44 -63.63,10.44 -29.99,0 -466.61,-19.19 -459.36,12.16 38.02,7.88 540.06,-0.21 540.4,12.53 1.95,73.07 -52.69,-0.42 -52.69,34.26 0,6.83 -5.3,107.17 -9.58,150.18"/>
  <path class="fil0 str0" d="M2736.07 4254.2c3.76,-14.37 -0.63,-689.72 -7.5,-790.74 -0.73,-10.81 17.5,128.63 7.63,117.24 -33,-38.07 -423.75,-6.38 -495.5,-21.23 -6.98,-20.19 -9.4,-76.86 -8.71,-76.86l525.97 0c12.05,-58.53 -14.33,-229.82 -12.52,-339.86 2.19,-132.27 -12.62,9.31 -18.79,45.39 -1.84,10.76 -56.95,60.98 -60.35,-22.78 -6.92,-171.07 -14.67,-26.84 -21.59,16.04 -10.72,66.45 -61.52,-55.12 -47.83,41.5 5.75,40.62 -24.14,-19.28 -31.31,-47.47 -14.23,-55.99 -82.97,-127.86 -150.46,-57.37 -80.5,84.07 5.73,98.12 -88.56,79.14 -14.03,-2.82 -13.18,41.87 -13.18,-32.38 0,-0.12 1.51,20.87 -19.8,-2.75 -16.47,-18.25 21.47,120.69 -49.07,25.88 -43.21,-58.06 13.78,-22.28 -9.72,60.89 -6.26,22.14 6.05,10.44 63.63,10.44 29.99,0 466.61,-19.19 459.36,12.16 -38.02,7.88 -540.06,-0.21 -540.4,12.53 -1.95,73.07 52.69,-0.42 52.69,34.26 0,6.83 5.3,107.17 9.58,150.18"/>
  <path class="fil0 str0" d="M1448.68 3574.5c1.31,173.13 -6.25,221.36 -4.71,392.15"/>
  <path class="fil0 str0" d="M2296.77 3574.5c-1.31,173.13 6.25,221.36 4.71,392.15"/>
  <path class="fil0 str0" d="M1268.9 3618.74l-7.74 647.15m93.01 -648.45l-8.2 357.57"/>
  <path class="fil0 str0" d="M2476.54 3618.74l7.64 246.19m-92.91 -247.49l8.2 357.57"/>
  <path class="fil0 str0" d="M1118.16 3618.74l-7.74 647.15m93.01 -648.45l-8.2 649.6"/>
  <path class="fil0 str0" d="M2627.29 3618.74l7.62 637.33m-92.89 -638.63l8.08 639.78"/>
  <path class="fil0 str0" d="M1623.25 1908.13l-2.45 228.88m74.27 -229.34l-2.81 229.75"/>
  <path class="fil0 str0" d="M1727.03 1908.13l-2.4 228.88m73.03 -229.34l-2.77 229.75"/>
  <path class="fil0 str0" d="M1719.47 1373.21l-1.2 96.89m36.51 -97.08l-1.38 97.26"/>
  <path class="fil0 str0" d="M1784.91 1373.21l-1.2 96.89m36.51 -97.08l-1.38 97.26"/>
  <path class="fil0 str0" d="M1850.35 1373.21l-1.2 96.89m36.51 -97.08l-1.38 97.26"/>
  <path class="fil0 str0" d="M1915.79 1373.21l-1.2 96.89m36.51 -97.08l-1.38 97.26"/>
  <path class="fil0 str0" d="M1981.24 1373.21l-1.2 96.89m36.51 -97.08l-1.38 97.26"/>
  <path class="fil0 str0" d="M1833.41 1908.13l-2.4 228.88m73.03 -229.34l-2.77 229.75"/>
  <path class="fil0 str0" d="M1939.78 1908.13l-2.4 228.88m73.03 -229.34l-2.77 229.75"/>
  <path class="fil0 str0" d="M2046.15 1908.13l-2.4 228.88m73.03 -229.34l-2.77 229.75"/>
  <path class="fil0 str0" d="M1106.25 3447.61l4.14 -132.92m81.1 133.19l3.73 -133.43"/>
  <path class="fil0 str0" d="M2639.2 3447.61l-4.14 -132.92m-81.1 133.19l-3.73 -133.43"/>
  <path class="fil0 str0" d="M1258.71 3447.61l4.14 -132.92m81.1 133.19l3.73 -133.43"/>
  <path class="fil0 str0" d="M2486.74 3447.61l-4.14 -132.92m-81.1 133.19l-3.73 -133.43"/>
  <path class="fil0 str0" d="M2205.4 4022.12l-0.7 -66.46m-84.55 66.59l-0.27 -66.71"/>
  <path class="fil0 str0" d="M1390.46 3009.89l-6.27 -1236.55 1009.75 3.75c-7.22,-16.54 -44.56,-16.52 -48.48,-31.87 -27.91,-109.26 -31.2,-212.79 -32.16,-211.98 -0.89,0.75 0.19,96.86 -14.24,207 -70.02,-93.6 -48.03,-215.12 -139.26,-7.07 -7.95,-50.47 -21.97,-133.76 -23.75,-199.92 -13.19,60.89 -4.85,196.21 -36.06,204.75 -3.61,0.99 -33.15,5.03 -37.66,-3.52 -6.5,-140.31 -0.73,-696.4 -10.97,-591.16 -5.64,57.94 -15.38,71.99 -44.34,72.63 -32.86,0.71 -311.62,7.91 -311.62,5.98 0,-169.39 -20.87,-22.42 -20.87,39.35 0,43.39 -4.74,190.21 13.3,252.85 35.27,-6.84 302.82,-28.18 383.02,-8.34 41.22,10.2 19.1,46.85 -11.62,51.51 -51.83,7.87 -377.89,-1.76 -374.74,12.09 6.58,28.9 -1.85,171.54 -19.94,169.6 -3.15,-0.34 -34.24,7.78 -39.75,-3.53 -25.46,-52.27 -27.73,-156.94 -25.83,-168.61 -8.07,84.81 -12.8,169.76 -20.2,165.91 -11.17,-5.81 -23.75,-130.7 -64.21,-124.24 -41.92,6.7 -55.77,116.81 -61.1,119.33 -22.98,10.9 -0.33,-83.19 -15.84,-159.92 -11.9,74.05 -23.52,162.44 -48.08,178.1"/>
  <path class="fil0 str0" d="M1750.71 1226.4c0.23,-27.83 -16.88,-208.45 5.91,-207.96 24.67,0.54 256.6,7.64 255.71,-20.88 -4.92,-157.52 2.35,-187.45 -35.62,-108.17 -76.77,-28.62 -90.78,-85.54 -87.98,-96.37 29.18,-112.97 100.88,-76.81 19.83,-149.32 -22.01,-19.7 -32.19,-579.11 -28.01,-630.22 8.17,-99.87 -23.96,593.07 -49.72,622.1 -89.8,101.21 2.98,44.73 11.79,157.43 4.07,52.02 -92.75,132.36 -91.83,94.94 2.5,-101.64 -25.11,-60.69 -16.34,23.02 2.69,25.66 -1.97,67.19 9.88,73.42 5.6,2.93 128.46,13.67 176.94,2.43"/>
  <path class="fil0 str0" d="M1796.71 1101.93c-14.96,20.67 16.69,83.75 61.19,85.43 30.61,1.16 69.71,3.56 79.67,-72.91 5.34,-41.03 -86.68,-84.95 -140.85,-12.52z"/>
  <path class="fil0 str0" d="M2153.37 3743.14l0 -1472.67 213.43 10.01c-14.57,-47.33 -9.41,-97.1 -19.65,-123.8 -26.95,5.1 -66.46,-10.22 -208.9,-2.68 -37.83,2 -10.67,45.72 -15.49,81.51l-500.12 -3.21c0,-86.33 12.07,-91.82 8.87,-92.46 -1.53,-0.31 -141.23,2.17 -208.89,-10.72 -18.53,-3.53 -13.88,-3.39 10.2,11.22 36.52,27.53 -2.43,128.36 8.71,-271.77 0.05,0.01 78.65,3.78 79.44,2.5l0 220.53m-158.4 -268.49l999.64 13.46c34.81,0.46 46.33,4.84 24.67,8.18 -88.75,13.71 -43.86,309.01 -54.75,250.47 -71.93,-386.7 -49.52,33.83 -71.75,34.77l-50.64 -2.12 -4.53 -244.37 63.44 0"/>
  <path class="fil0 str0" d="M1437.65 2274.36c0,4.54 141.99,3.03 141.99,7.55 0.21,524.5 12.45,976.3 12.45,1496.2"/>
  <line class="fil0 str0" x1="2346.54" y1="2315.88" x2="2345.32" y2= "3107.58" />
  <path class="fil0 str0" d="M1696.52 2306.16c4.11,301.09 6.3,1039.16 30.21,1425.8"/>
  <path class="fil0 str0" d="M1821.75 2302.37c0,139.48 -5.98,1325.02 11.45,1360.2"/>
  <path class="fil0 str0" d="M1930.28 2302.37c0,321.59 12.85,1321.55 12.53,1374.11"/>
  <path class="fil0 str0" d="M2051.34 2287.24c0,108.39 25.24,1444.06 17.89,1455.73"/>
  <path class="fil0 str0" d="M1490.12 5062.86c-27.99,-39.24 -22.01,-695.81 -22.01,-797.33 0,-85.24 21.17,-246.06 -62.62,-217.07 -5.66,35.87 908.8,-7.97 914.67,2.59 -64.04,48.1 -72.41,-36.57 -63.1,181.08 3.34,78.06 25.94,830.73 -7.55,830.73 -55.36,0 -93.24,13.48 -108.83,0 -36.21,-31.31 1.35,-603.71 -35.59,-556.61 -35.61,4.61 -31.94,4.26 -62.34,-2.24 -1.83,4.42 13.94,98.45 13.94,120.51 0,59.53 37.06,375.67 -7.99,438.34l-52.56 0c-30.13,-21.64 -14.59,-105.35 -14.59,-187.87 0,-68.28 39.27,-374 -78.59,-333.24 -9.61,46.33 182.99,-46.63 3.45,-46.63 -34.49,0 12.52,32.53 12.52,111.63 0,58 25.38,456.11 -19.73,456.11 -25.17,0 -41.83,5.17 -52.7,0 -31.63,-15.06 -19.4,-89.78 -19.4,-192.05 0,-39.35 -10.16,-343.9 -8.71,-351 11.96,-51.41 -148.09,-0.94 -68.03,20 1.37,0.22 4.84,57.73 4.84,73.84 0,62.91 7.72,335.1 -1.83,449.21l-55.69 0c-14.95,-18.26 -29.41,-450.15 -24.99,-483.72 5.57,-42.26 15.86,-71.5 33.34,-71.5 -1.01,-1.03 -79.24,-9.74 -109.21,-0.02 -7.7,32.18 1.83,137.82 4.6,188.74 6.73,123.71 17.24,342.14 4.86,366.5 -36.87,-1.62 -78.05,0 -116.17,0z"/>
  <path class="fil0 str0" d="M1559.94 4386.58c76.48,-6.75 624.68,-22.23 614.35,0 -11.99,25.83 -30.74,31.86 -56.81,31.54 -189.19,-2.36 -560.99,6.03 -560.99,6.03 194.91,0 -72.93,45.92 120.7,45.92 97.8,0 335.88,-6.26 408.73,-12.52"/>
  <path class="fil0 str0" d="M1472.34 4059.23c-0.21,-43.47 -5.63,-301.26 15.56,-322.42 33.19,46.96 -88.12,110.73 65.38,122.77 32.34,2.53 106.84,39.8 106.84,-78.29 0,40.3 -2.52,68.98 9.69,82.46 12.21,13.47 40.43,26.88 99.39,6.45 3.57,-101.95 31.37,-148.43 104.38,-148.43 73,0 94.33,95.26 98.8,149.69 5.37,8.69 82.02,-5.02 85.65,-6.46 34.35,-13.66 18.53,74.39 37.58,-63.69 0.11,-0.78 87.2,191.24 153.11,0.86 1.39,0 59.05,131.83 -15.27,129.4 -223.27,-7.27 -795.25,-8.35 -768.8,-8.35 257.9,0 149.95,62.98 172.84,121.46 61.4,-74.44 -56,-96.41 152.05,-96.41 -3.78,48.99 -4.19,39.29 -5.69,88.68 79.06,-7.95 170.6,6.07 181.81,1.77 6.83,-2.62 5.75,-25.86 7.19,-69.58 0.32,-9.49 56.7,-36.69 77.65,-1.66 6.26,10.47 2.88,27.64 2.03,47.58"/>
  <path class="fil0 str0" d="M1498.4 4123.17c118.34,-13.75 698.95,13.78 728.78,0"/>
  <path class="fil0 str0" d="M1498.4 4100.34c121.87,-13.87 698.95,13.78 728.78,0"/>
  <path class="fil0 str0" d="M144.83 5069.63c0,-56.97 13.19,-512.27 -20.87,-508.08 -129.29,15.92 195.16,29.58 196.19,29.58 219.94,0 708.56,15.03 901.66,-8.71 219.24,-26.93 78.8,38.18 55.34,-9.06 -1.14,-2.29 -1.42,-156.27 23.98,-167.34 25.67,-11.19 11.24,-26.49 -32.39,-26.77l-1203.94 -7.93c-162.63,-1.07 71.03,11.79 60.94,57.37 39.03,0 23.26,51.23 23.26,112.34 0,-41.51 -21.16,-229.59 25.04,-229.59 81.52,0 1102.13,24.25 1117.3,12.52 0,-20.3 1.27,-311.89 0,-313.07 -8.16,-7.6 -80.42,1.99 47.73,5.84 52.57,1.58 95.99,-4.42 132.81,-1.71"/>
  <path class="fil0 str0" d="M270.06 4495.12c0,194.62 2.8,297.48 3.81,505.09m881.15 -505.09c-13.19,57.3 -6.69,467.55 -8.35,505.09m-75.14 -505.09c-12.54,33.52 0,417.29 0,505.09m-179.5 -505.09c-7.77,65.67 8.43,478.48 -12.52,505.09m-67.66 -505.09c0,75.15 4.87,492.39 5.04,505.09m-192.02 -505.09c0,30.44 -4.85,498.84 4.53,505.09m-88.03 -505.09c0.39,32.99 7.52,457.72 8.35,505.09m-183.67 -505.09c0,174.83 1.63,309.59 7.99,505.09"/>
  <path class="fil0 str0" d="M2595.52 4595.92c0,194.62 2.8,196.68 3.81,404.29m881.15 -505.09c-13.19,57.3 -6.69,467.55 -8.35,505.09m-75.14 -505.09c-12.54,33.52 0,417.29 0,505.09m-179.5 -505.09c-7.77,65.67 8.43,478.48 -12.52,505.09m-67.66 -505.09c0,75.15 4.87,492.39 5.04,505.09m-192.02 -505.09c0,30.44 -4.85,498.84 4.53,505.09m-88.03 -505.09c0.39,32.99 7.52,457.72 8.35,505.09m-183.67 -404.29c0,174.83 1.63,208.79 7.99,404.29"/>
  <path class="fil0 str0" d="M2259.21 4109.08c59.18,-24.75 453.35,-0.67 156.48,-49.52 -84.87,-13.97 -139.86,5.51 42.1,1.43 68.05,-1.52 3.4,28.62 7.99,-130.84 0.59,-20.51 -39.05,55.38 -7.63,93.63 18.2,22.16 7.73,314.77 -4.89,322.14 -78.83,46 -36.53,23.37 -22.3,21.94 -57.45,5.73 44.39,23.87 25.4,55.22 -1.33,2.2 -19.08,651.18 0,639.75 76.36,-9.53 75.39,4.08 116.56,-1.83 11.76,-12.04 -2.78,-100.86 -2.78,-374.22 0,-77.86 21.07,-145.37 -100.54,-82.41 141.66,-27.43 1334,25.68 1165.37,-31 -86.93,-29.22 -29.66,39.83 -37.93,-153.38 -77.33,-0.55 -1000.97,-6.32 -1073.42,-10.66"/>
  <path class="fil0 str0" d="M2465.66 4271.74c269.88,6.35 1173.47,-10.61 1149.23,11.18 -51.23,46.05 101.97,18.37 33.75,58.81 -13.31,7.89 -36.57,-1.44 -46.19,-11.14l-1113.39 -10.47"/>
  <path class="fil0 str0" d="M3227.96 4488.8c-21.59,1.26 -44.43,-11.66 -114.81,2.69"/>
  <path class="fil0 str0" d="M892.96 4488.8c-21.59,1.26 -44.43,-11.66 -114.81,2.69"/>
  <path class="fil0 str0" d="M3490.03 4488.8c-21.59,1.26 -44.43,-11.66 -114.81,2.69"/>
  <path class="fil0 str0" d="M1155.02 4488.8c-21.59,1.26 -44.43,-11.66 -114.81,2.69"/>
  <path class="fil0 str0" d="M2955.23 4494.84c93.35,-22.56 -88,-20.59 -126.29,-20.59"/>
  <path class="fil0 str0" d="M620.23 4494.84c93.35,-22.56 -88,-20.59 -126.29,-20.59"/>
  <path class="fil0 str0" d="M368.46 4494.84c93.35,-22.56 -88,-20.59 -126.29,-20.59"/>
  <path class="fil0 str0" d="M2691.54 4595.92c-35.61,-165.49 116.39,-88.76 1.9,-97.98 -11.68,-0.94 -169.03,-7.55 -94.78,0.15"/>
  <path class="fil0 str0" d="M3599.81 4595.12c1.26,28.35 15.37,467.8 -17.57,468.14 -137.04,1.43 -842.91,-4.39 -936.07,-1.94"/>
  <path class="fil0 str0" d="M144.83 5069.63c151.6,9.29 1008.41,-18.01 1251.99,3.7"/>
  <path class="fil0 str0" d="M2348.9 4173.69c0,119.87 -15.01,711.51 -12.17,844.62"/>
  <path class="fil0 str0" d="M2390.64 4173.69c0,80.3 -13.18,843.66 -10.41,849.21l-43.5 -4.6"/>
  <path class="fil0 str0" d="M1342.87 4186.21c0,253.22 -16.7,568.51 -16.7,810.48m66.79 -814.66c0,147.54 -26.81,689.13 -7.99,814.66"/>
  <path class="fil0 str0" d="M1685.37 4125.95c-12.55,123.44 -32.36,412.48 -39.15,70.09 -0.94,-47.45 123.04,-51.82 104.07,4.83 -9.27,27.67 -9.22,132.69 -5.17,145.59l56.12 -1.26c20.95,-36.42 5,-65.97 5,-140.86 0,-56.04 15.47,-18.13 103.93,-18.13 -9.71,37.74 -34.88,158.99 -4.18,158.99l53.91 0c18.59,-52.05 3.96,-130.38 10.08,-161.3 11.94,-11.63 34.44,-1.87 74.2,-1.87 1.39,0 -0.52,153.16 -0.94,163.17"/>
  <line class="fil0 str0" x1="1714.21" y1="1345.25" x2="2023.11" y2= "1345.25" />
  <line class="fil0 str0" x1="1714.21" y1="1276.74" x2="2023.11" y2= "1276.74" />
  <line class="fil0 str0" x1="1261.16" y1="4265.89" x2="179.53" y2= "4265.89" />
  <line class="fil0 str0" x1="1490.75" y1="2349.92" x2="1490.75" y2= "3026.24" />
  <line class="fil0 str0" x1="2252.03" y1="2349.92" x2="2252.03" y2= "3026.24" />
 </g>
</svg>
