<?xml version="1.0" encoding="UTF-8"?>
<!DOCTYPE svg PUBLIC "-//W3C//DTD SVG 1.1//EN" "http://www.w3.org/Graphics/SVG/1.1/DTD/svg11.dtd">
<!-- Creator: CorelDRAW Home & Student 2018 (Nie do użytku komercyjnego) -->
<svg xmlns="http://www.w3.org/2000/svg" xml:space="preserve" width="60.4273mm" height="36.0766mm" version="1.1" style="shape-rendering:geometricPrecision; text-rendering:geometricPrecision; image-rendering:optimizeQuality; fill-rule:evenodd; clip-rule:evenodd"
viewBox="0 0 3052.16 1822.21"
 xmlns:xlink="http://www.w3.org/1999/xlink">
 <defs>
  <style type="text/css">
   <![CDATA[
    .str0 {stroke:#383A52;stroke-width:15.15;stroke-linecap:round;stroke-linejoin:round;stroke-miterlimit:22.9256}
    .str1 {stroke:#383A52;stroke-width:15.15;stroke-linecap:round;stroke-linejoin:round;stroke-miterlimit:22.9256;stroke-dasharray:30.305729 75.764322}
    .fil0 {fill:none}
   ]]>
  </style>
 </defs>
 <g id="Warstwa_x0020_1">
  <metadata id="CorelCorpID_0Corel-Layer"/>
  <g id="_1270300000">
   <path class="fil0 str0" d="M162.58 1812.97c0,142.43 -50,-1403.11 0,-1797.71 -13.19,-15.76 -53.67,74.32 -55.55,84.44 3.83,-1.83 58.57,-101.56 59.54,-92.42 0.61,5.8 30.06,111.73 28.9,113.6"/>
   <path class="fil0 str0" d="M54.95 1713.66c954.46,15.94 1930.68,-15.62 2973.64,0 -4.09,-9.14 -32.02,-21.85 -42.36,-25.91 3.93,1.83 80.78,33.65 51.85,38.86 -20.95,3.78 -81.15,34.76 -85.36,31.52"/>
   <path class="fil0 str1" d="M54.95 1523.84c954.46,15.94 1749.9,-15.62 2792.86,0"/>
   <path class="fil0 str1" d="M2847.81 1126.11c-954.46,15.94 -1749.9,-15.62 -2792.86,0"/>
   <path class="fil0 str1" d="M2847.81 528.55c-954.46,-15.94 -1749.9,15.62 -2792.86,0"/>
   <path class="fil0 str1" d="M2847.81 1325.13c-954.46,-15.94 -1749.9,15.62 -2792.86,0"/>
   <path class="fil0 str1" d="M2847.81 329.53c-954.46,15.94 -1749.9,-15.62 -2792.86,0"/>
   <path class="fil0 str1" d="M54.95 927.4c954.46,-15.94 1749.9,15.62 2792.86,0"/>
   <path class="fil0 str1" d="M54.95 727.26c954.46,15.94 1749.9,-15.62 2792.86,0"/>
   <path class="fil0 str0" d="M76.98 1644.38c236.09,-236.54 623.45,-1231.02 721.89,-925.64 63.52,197.08 2.02,588.73 274.13,393.28 491.8,-353.24 38.48,716.03 762.93,-192.61 85.11,-106.75 562.98,-761.13 635.37,-340.64 98.92,574.54 -80.26,559.52 559.42,424.54"/>
   <path class="fil0 str0" d="M7.57 1453.59c153.24,-114.01 361.08,-520.42 502.24,-706.48 267.31,-352.33 302.07,-74.45 380.04,147.77 58.7,167.28 58.41,417.03 377.31,155.41 238.52,-195.68 138.01,-32.72 314.9,102.38 316.3,241.56 465.08,-673.85 826.14,-668.75 220.5,3.12 119.88,394.5 192.93,529.82 84.84,157.16 256.38,139.72 399.29,139.72"/>
  </g>
 </g>
</svg>
