<?xml version="1.0" encoding="UTF-8"?>
<!DOCTYPE svg PUBLIC "-//W3C//DTD SVG 1.1//EN" "http://www.w3.org/Graphics/SVG/1.1/DTD/svg11.dtd">
<!-- Creator: CorelDRAW Home & Student 2018 (Nie do użytku komercyjnego) -->
<svg xmlns="http://www.w3.org/2000/svg" xml:space="preserve" width="62.3049mm" height="20.9415mm" version="1.1" style="shape-rendering:geometricPrecision; text-rendering:geometricPrecision; image-rendering:optimizeQuality; fill-rule:evenodd; clip-rule:evenodd"
viewBox="0 0 3263.77 1097"
 xmlns:xlink="http://www.w3.org/1999/xlink">
 <defs>
  <style type="text/css">
   <![CDATA[
    .str0 {stroke:#383A52;stroke-width:15.72;stroke-linecap:round;stroke-linejoin:round;stroke-miterlimit:22.9256}
    .fil0 {fill:none}
   ]]>
  </style>
 </defs>
 <g id="Warstwa_x0020_1">
  <metadata id="CorelCorpID_0Corel-Layer"/>
  <g id="_1145948576">
   <path class="fil0 str0" d="M111.31 368.3c-14.39,40.26 -118.57,410.83 -101.67,403.53 43.71,-18.86 292.85,-9.56 262.64,-9.56"/>
   <path class="fil0 str0" d="M52.01 351.35c86.21,21.98 184.09,0 270.02,0l-11.62 0"/>
   <path class="fil0 str0" d="M53.7 569.32c23.8,-2.96 159.5,3.01 146.56,-6.15"/>
   <path class="fil0 str0" d="M574.32 284.83c-37.84,71.79 -50.98,121.88 -70.52,198.44"/>
   <path class="fil0 str0" d="M495.4 276.06c368.87,0 199.24,253.07 -65.78,245.54"/>
   <path class="fil0 str0" d="M482.31 683.41c-36,41.17 -70.02,225.17 -79.32,243.98"/>
   <path class="fil0 str0" d="M418.33 672.12c396.72,-26.34 192.26,191.67 20.92,125.86"/>
   <path class="fil0 str0" d="M866.55 588.54c54.74,0 190.51,8.05 236.53,0.79"/>
   <path class="fil0 str0" d="M865.79 679.89c64.71,-5.25 209.25,-2.51 234.22,-2.26"/>
   <path class="fil0 str0" d="M1370.34 631.54c20.17,-5.74 181.45,0 221.17,0"/>
   <path class="fil0 str0" d="M1748.17 628.47c167.83,0 317.33,18.52 500.45,12.03 68.72,-2.44 988.01,4.97 1007.29,10.01"/>
   <path class="fil0 str0" d="M2132.15 32.54c-40.5,42.51 -287.31,314.38 -292.61,342.03"/>
   <path class="fil0 str0" d="M1910.98 97.05c-140.46,-51.52 -155.25,203.33 -36.6,119.02 112.87,-80.22 27.19,-182.7 -84.17,-45.91 -15.41,18.94 -22.06,30.09 -14.12,49.77l15.09 3.07"/>
   <path class="fil0 str0" d="M2055.36 269.06c-92.3,-53.21 -97.7,216.39 13.34,100.59 82.3,-85.83 -1.05,-190.99 -102.43,-5.36"/>
   <path class="fil0 str0" d="M2175.16 402.69c29.72,-26.39 174.89,-315.58 185.09,-284.67 44.9,136.1 34.33,146.56 122.88,267.51 11.48,15.69 -279.22,-8.37 -307.97,17.16z"/>
   <path class="fil0 str0" d="M2841.74 118.55c-84.4,-154.34 -387.02,292.4 -103.65,279.8 61.47,-2.73 176.53,-146.53 103.65,-279.8z"/>
   <path class="fil0 str0" d="M2718.87 352.01c37.41,-8.66 46.69,27.88 49.74,67.92 1.89,24.78 -5.99,77.36 37.38,62.84 9.98,-3.34 20.28,-11.25 35.76,-20.17"/>
   <path class="fil0 str0" d="M3050.63 14.11c-12.39,31.23 -67.98,169.05 -71.18,191.77l3.6 -19.75"/>
   <path class="fil0 str0" d="M2973.83 11.04c45.11,1.22 207.75,-33.17 193.79,98.3 -13.17,123.97 -225.7,95.03 -224.51,92.15"/>
   <path class="fil0 str0" d="M2255.02 735.99c-7.51,14.13 -237.25,359.97 -239.6,356.34"/>
   <path class="fil0 str0" d="M2073.79 769.78c-48.08,-98.1 -199.65,137.6 -56,130.07 118.3,-6.2 138.28,-246.58 -10.8,-104.27l-19.22 20.28"/>
   <path class="fil0 str0" d="M2239.67 951.02c-110.27,-34.2 -97.2,214.34 -1.75,113.66 65.86,-69.48 33.85,-209.25 -102.69,-70.66"/>
   <path class="fil0 str0" d="M2359.85 1064.29c27.57,-70.61 174.8,-281.54 174.72,-279.42 -1.07,27.4 113.2,243.09 106.98,273.13 -8.19,3.4 -212.98,-12.14 -260.58,-5.62"/>
   <path class="fil0 str0" d="M2887.82 772.85c-14.5,21.63 -77.64,253.14 -88.2,287.28"/>
   <path class="fil0 str0" d="M2826.38 751.35c58.23,0 288.01,-18.09 198.88,101.11 -44.44,59.43 -144.94,59.34 -212.92,45.84l7.05 15.8"/>
  </g>
 </g>
</svg>
