<?xml version="1.0" encoding="UTF-8"?>
<!DOCTYPE svg PUBLIC "-//W3C//DTD SVG 1.1//EN" "http://www.w3.org/Graphics/SVG/1.1/DTD/svg11.dtd">
<!-- Creator: CorelDRAW Home & Student 2018 (Nie do użytku komercyjnego) -->
<svg xmlns="http://www.w3.org/2000/svg" xml:space="preserve" width="24.8126mm" height="19.48mm" version="1.1" style="shape-rendering:geometricPrecision; text-rendering:geometricPrecision; image-rendering:optimizeQuality; fill-rule:evenodd; clip-rule:evenodd"
viewBox="0 0 240.46 188.78"
 xmlns:xlink="http://www.w3.org/1999/xlink">
 <defs>
  <style type="text/css">
   <![CDATA[
    .str0 {stroke:#383A52;stroke-width:2.91;stroke-linecap:round;stroke-linejoin:round;stroke-miterlimit:22.9256}
    .fil0 {fill:none}
   ]]>
  </style>
 </defs>
 <g id="Warstwa_x0020_1">
  <metadata id="CorelCorpID_0Corel-Layer"/>
  <path class="fil0 str0" d="M121.96 1.45c-25.56,1.86 -47.01,6.38 -64.06,13.85 -74.58,32.68 -82.05,130.35 35.04,146.66 92.38,12.88 117.4,-38.76 111.93,-75.44 -10.85,-72.69 -77.47,-83.65 -137.08,-61.79 -26.9,9.86 -44.66,23.5 -54.71,40.53 -22.91,38.8 -13.42,95.62 41.18,92.05 69.2,-4.51 37.16,-51.24 -6.05,-17.08 -38.59,30.51 45.54,45.45 64.31,46.72 53.72,3.61 105.15,-19.61 124.88,-55.36 4.98,4.6 -2.85,30.93 -6.18,37.75m-1.44 -38.47c-5.09,6.59 -18.77,15.57 -29.01,14.61"/>
  <path class="fil0 str0" d="M61.4 72.3c10.16,-15 43.18,-15.83 1.5,12.26 -12.15,8.19 36.08,-15.83 26.25,5.67 -5.67,12.41 -39.17,25.1 -45.82,8.63m105.38 5.63c-3.61,-13.31 -16.2,19.15 3.1,5.49 4.66,-3.3 9.32,-14.94 -9.47,-5.49m-1.59 -40.97c-18.19,4.01 5.47,19.85 4.83,-2.31 -0.14,-4.68 -13.83,2.12 -11.73,11.87m28.15 -12.69c-3.5,4.05 -34.38,49.91 -34,53.65m-30.88 -26.56c11.27,-2.14 23.69,-4.14 29.41,-5.09m-29.54 -13.29c-14.49,-15.62 22.79,-0.55 22.8,-14.21 -7.44,6.67 -13.83,58.51 -18.01,55.11"/>
 </g>
</svg>
