<?xml version="1.0" encoding="UTF-8"?>
<svg xmlns="http://www.w3.org/2000/svg" viewBox="25 204 762 347">
 <style>
  .fil0 {fill:none}
  .str0 {stroke:#383A52;stroke-width:2.5}
 </style>
  <path d="M 392,364 L 556.5,365.5 Q 721.0,367.0 740.5,369.0 Q 760.0,371.0 759.5,372.5 Q 759.0,374.0 749.5,378.0 Q 740.0,382.0 702.0,380.0 Q 664.0,378.0 502.0,376.5 Q 340.0,375.0 335.0,374.0 Q 330.0,373.0 332.5,371.0 Q 335.0,369.0 354.5,367.0 L 374,365" class="fil0 str0"/>
  <path d="M 402,363 L 373.0,365.0 Q 344.0,367.0 336.0,368.5 Q 328.0,370.0 326.5,371.5 Q 325.0,373.0 340.5,375.0 Q 356.0,377.0 409.0,378.0 Q 462.0,379.0 463.5,377.5 Q 465.0,376.0 592.0,378.0 Q 719.0,380.0 726.5,381.0 Q 734.0,382.0 734.0,384.0 Q 734.0,386.0 704.5,393.0 Q 675.0,400.0 675.5,401.5 Q 676.0,403.0 718.5,410.0 Q 761.0,417.0 762.5,419.5 Q 764.0,422.0 759.0,424.5 Q 754.0,427.0 744.0,429.0 Q 734.0,431.0 691.5,435.0 Q 649.0,439.0 516.5,442.0 Q 384.0,445.0 322.5,448.0 Q 261.0,451.0 232.0,454.5 Q 203.0,458.0 195.0,461.5 Q 187.0,465.0 197.5,468.0 Q 208.0,471.0 241.5,473.0 Q 275.0,475.0 429.0,474.5 Q 583.0,474.0 603.5,475.0 Q 624.0,476.0 623.5,477.5 Q 623.0,479.0 537.5,482.5 Q 452.0,486.0 255.5,487.0 Q 59.0,488.0 58.0,489.0 Q 57.0,490.0 141.5,493.0 Q 226.0,496.0 424.5,497.0 Q 623.0,498.0 659.5,499.0 Q 696.0,500.0 716.5,502.0 Q 737.0,504.0 736.5,505.5 Q 736.0,507.0 731.5,508.0 Q 727.0,509.0 658.5,512.5 Q 590.0,516.0 418.5,517.0 Q 247.0,518.0 178.5,522.0 Q 110.0,526.0 90.0,528.5 Q 70.0,531.0 63.0,533.5 Q 56.0,536.0 65.5,538.0 Q 75.0,540.0 112.0,540.5 Q 149.0,541.0 287.5,536.5 Q 426.0,532.0 514.0,531.5 Q 602.0,531.0 664.5,535.0 Q 727.0,539.0 695.5,536.0 Q 664.0,533.0 622.5,531.5 Q 581.0,530.0 511.0,530.5 Q 441.0,531.0 303.5,535.5 Q 166.0,540.0 128.0,540.0 Q 90.0,540.0 75.5,538.5 Q 61.0,537.0 62.5,535.0 Q 64.0,533.0 75.5,531.0 Q 87.0,529.0 139.5,525.0 Q 192.0,521.0 262.5,519.0 Q 333.0,517.0 476.0,516.5 Q 619.0,516.0 667.0,513.5 Q 715.0,511.0 728.0,508.5 Q 741.0,506.0 739.5,504.5 Q 738.0,503.0 693.5,500.5 Q 649.0,498.0 422.5,496.5 Q 196.0,495.0 140.5,493.0 Q 85.0,491.0 85.5,489.5 Q 86.0,488.0 255.5,487.5 Q 425.0,487.0 522.0,483.5 Q 619.0,480.0 626.0,478.0 Q 633.0,476.0 620.0,475.0 Q 607.0,474.0 432.0,474.0 Q 257.0,474.0 234.5,472.5 Q 212.0,471.0 200.5,468.5 Q 189.0,466.0 189.5,464.0 Q 190.0,462.0 200.5,459.5 Q 211.0,457.0 245.5,453.5 Q 280.0,450.0 436.0,446.0 Q 592.0,442.0 644.0,439.0 Q 696.0,436.0 719.5,433.0 Q 743.0,430.0 752.0,427.5 Q 761.0,425.0 763.0,422.5 Q 765.0,420.0 756.0,416.5 Q 747.0,413.0 722.0,410.0 Q 697.0,407.0 687.0,404.5 Q 677.0,402.0 679.0,400.0 Q 681.0,398.0 708.5,392.5 Q 736.0,387.0 738.5,384.5 Q 741.0,382.0 744.5,383.0 Q 748.0,384.0 748.0,381.5 Q 748.0,379.0 753.5,377.0 Q 759.0,375.0 760.0,372.5 Q 761.0,370.0 612.0,366.5 L 463,363" class="fil0 str0"/>
  <path d="M 289,359 L 296.0,360.5 Q 303.0,362.0 306.5,364.0 Q 310.0,366.0 310.0,368.0 Q 310.0,370.0 297.5,368.5 Q 285.0,367.0 284.0,365.0 Q 283.0,363.0 285.0,361.5 L 287,360" class="fil0 str0"/>
  <path d="M 289,348 L 299.0,352.5 Q 309.0,357.0 311.5,359.5 Q 314.0,362.0 313.5,364.0 Q 313.0,366.0 301.0,359.0 L 289,352" class="fil0 str0"/>
  <path d="M 283,304 L 284.5,304.5 Q 286.0,305.0 284.5,310.5 Q 283.0,316.0 281.5,315.5 Q 280.0,315.0 280.5,312.0 L 281,309" class="fil0 str0"/>
  <path d="M 172,293 L 176.0,293.0 Q 180.0,293.0 184.0,295.0 Q 188.0,297.0 206.5,311.0 Q 225.0,325.0 225.5,327.5 Q 226.0,330.0 219.5,329.5 Q 213.0,329.0 205.0,322.5 Q 197.0,316.0 191.0,315.5 Q 185.0,315.0 180.5,313.0 Q 176.0,311.0 169.5,305.0 Q 163.0,299.0 163.5,297.0 Q 164.0,295.0 166.5,294.0 L 169,293" class="fil0 str0"/>
  <path d="M 271,291 L 272.5,290.5 Q 274.0,290.0 275.5,293.5 Q 277.0,297.0 273.5,303.0 Q 270.0,309.0 268.5,308.5 Q 267.0,308.0 268.5,300.5 L 270,293" class="fil0 str0"/>
  <path d="M 146,288 L 150.0,289.0 Q 154.0,290.0 155.5,291.5 Q 157.0,293.0 156.5,295.0 Q 156.0,297.0 145.5,300.5 Q 135.0,304.0 129.5,304.0 Q 124.0,304.0 133.5,296.5 L 143,289" class="fil0 str0"/>
  <path d="M 473,285 L 474.5,285.5 Q 476.0,286.0 475.5,287.5 Q 475.0,289.0 470.5,291.5 Q 466.0,294.0 464.0,293.5 Q 462.0,293.0 463.5,291.0 L 465,289" class="fil0 str0"/>
  <path d="M 393,285 L 395.0,285.5 Q 397.0,286.0 397.5,290.0 Q 398.0,294.0 395.0,291.5 L 392,289" class="fil0 str0"/>
  <path d="M 255,277 L 259.0,278.0 Q 263.0,279.0 266.5,282.5 Q 270.0,286.0 266.0,293.5 Q 262.0,301.0 260.0,301.0 Q 258.0,301.0 258.0,295.5 Q 258.0,290.0 256.0,285.0 L 254,280" class="fil0 str0"/>
  <path d="M 229,277 L 230.5,277.5 Q 232.0,278.0 233.0,286.5 Q 234.0,295.0 238.5,303.0 Q 243.0,311.0 242.5,312.5 Q 242.0,314.0 228.0,311.0 Q 214.0,308.0 211.0,306.0 Q 208.0,304.0 208.5,301.0 Q 209.0,298.0 216.0,290.0 L 223,282" class="fil0 str0"/>
  <path d="M 138,269 L 142.0,270.5 Q 146.0,272.0 155.5,282.5 Q 165.0,293.0 162.5,294.0 Q 160.0,295.0 156.0,291.5 Q 152.0,288.0 148.0,288.0 Q 144.0,288.0 137.0,292.0 Q 130.0,296.0 124.0,301.5 Q 118.0,307.0 111.0,310.0 Q 104.0,313.0 102.0,312.5 Q 100.0,312.0 101.5,309.5 Q 103.0,307.0 119.5,294.0 Q 136.0,281.0 136.5,279.5 Q 137.0,278.0 130.5,278.5 Q 124.0,279.0 130.0,274.5 L 136,270" class="fil0 str0"/>
  <path d="M 368,265 L 369.5,265.5 Q 371.0,266.0 370.0,270.5 Q 369.0,275.0 365.0,274.0 Q 361.0,273.0 355.5,275.5 Q 350.0,278.0 348.0,277.5 Q 346.0,277.0 349.0,274.0 Q 352.0,271.0 358.5,268.5 L 365,266" class="fil0 str0"/>
  <path d="M 115,260 L 121.0,260.5 Q 127.0,261.0 131.0,263.0 Q 135.0,265.0 135.5,267.5 Q 136.0,270.0 116.0,279.5 Q 96.0,289.0 92.0,289.0 Q 88.0,289.0 99.0,279.5 Q 110.0,270.0 104.0,271.5 Q 98.0,273.0 96.5,272.5 Q 95.0,272.0 95.5,270.5 Q 96.0,269.0 103.0,265.5 L 110,262" class="fil0 str0"/>
  <path d="M 657,259 L 659.0,260.5 Q 661.0,262.0 651.5,269.5 Q 642.0,277.0 639.0,277.0 Q 636.0,277.0 644.5,269.5 L 653,262" class="fil0 str0"/>
  <path d="M 683,242 L 687.5,242.5 Q 692.0,243.0 683.0,251.5 Q 674.0,260.0 669.5,259.0 Q 665.0,258.0 665.5,255.5 Q 666.0,253.0 673.5,248.0 L 681,243" class="fil0 str0"/>
  <path d="M 580,240 L 581.5,240.5 Q 583.0,241.0 582.0,245.0 Q 581.0,249.0 573.5,250.5 Q 566.0,252.0 568.5,249.0 L 571,246" class="fil0 str0"/>
  <path d="M 582,231 L 584.0,231.5 Q 586.0,232.0 584.0,235.0 Q 582.0,238.0 564.5,249.5 Q 547.0,261.0 544.5,261.0 Q 542.0,261.0 545.5,257.0 Q 549.0,253.0 563.0,243.5 L 577,234" class="fil0 str0"/>
  <path d="M 227,223 L 228.5,223.5 Q 230.0,224.0 229.0,234.5 Q 228.0,245.0 229.5,248.0 Q 231.0,251.0 235.0,254.0 Q 239.0,257.0 238.5,263.5 Q 238.0,270.0 240.5,272.5 Q 243.0,275.0 248.0,275.5 Q 253.0,276.0 255.5,284.0 Q 258.0,292.0 258.0,296.5 Q 258.0,301.0 255.0,308.5 Q 252.0,316.0 249.0,315.5 Q 246.0,315.0 241.0,307.0 Q 236.0,299.0 234.0,287.0 Q 232.0,275.0 227.0,278.5 Q 222.0,282.0 220.0,281.5 Q 218.0,281.0 221.0,272.5 Q 224.0,264.0 221.0,265.0 Q 218.0,266.0 216.5,264.5 Q 215.0,263.0 217.5,260.5 Q 220.0,258.0 220.5,255.0 Q 221.0,252.0 203.5,263.5 Q 186.0,275.0 184.5,274.5 Q 183.0,274.0 203.5,252.0 Q 224.0,230.0 216.0,235.0 Q 208.0,240.0 206.0,240.0 Q 204.0,240.0 204.5,238.5 Q 205.0,237.0 215.0,230.5 L 225,224" class="fil0 str0"/>
  <path d="M 587,222 L 588.5,222.5 Q 590.0,223.0 588.5,225.5 Q 587.0,228.0 576.5,233.0 Q 566.0,238.0 575.5,230.5 L 585,223" class="fil0 str0"/>
  <path d="M 233,222 L 248.5,236.5 Q 264.0,251.0 278.0,251.5 Q 292.0,252.0 305.5,265.5 Q 319.0,279.0 340.5,296.5 Q 362.0,314.0 361.5,315.5 Q 361.0,317.0 332.0,299.5 Q 303.0,282.0 297.0,282.5 Q 291.0,283.0 287.0,291.0 Q 283.0,299.0 278.0,293.5 Q 273.0,288.0 276.0,282.0 Q 279.0,276.0 275.5,280.5 Q 272.0,285.0 265.5,279.0 Q 259.0,273.0 250.5,273.5 Q 242.0,274.0 240.5,272.5 Q 239.0,271.0 239.5,264.0 Q 240.0,257.0 234.5,251.0 Q 229.0,245.0 230.0,234.5 L 231,224" class="fil0 str0"/>
  <path d="M 234,220 L 228.5,222.0 Q 223.0,224.0 202.0,238.5 Q 181.0,253.0 174.0,251.5 Q 167.0,250.0 154.5,258.0 Q 142.0,266.0 134.0,262.0 Q 126.0,258.0 119.0,258.5 Q 112.0,259.0 86.0,270.0 Q 60.0,281.0 58.5,283.5 Q 57.0,286.0 46.0,289.5 Q 35.0,293.0 66.5,283.0 Q 98.0,273.0 100.5,273.5 Q 103.0,274.0 92.0,282.5 Q 81.0,291.0 83.0,292.5 Q 85.0,294.0 84.5,295.5 Q 84.0,297.0 78.5,298.5 Q 73.0,300.0 100.0,290.0 Q 127.0,280.0 130.5,280.0 Q 134.0,280.0 115.0,297.0 Q 96.0,314.0 128.0,305.5 Q 160.0,297.0 167.5,304.0 Q 175.0,311.0 179.0,313.0 Q 183.0,315.0 189.0,315.5 Q 195.0,316.0 204.0,323.0 Q 213.0,330.0 223.0,331.0 Q 233.0,332.0 245.5,340.5 Q 258.0,349.0 264.5,350.5 Q 271.0,352.0 259.5,346.0 Q 248.0,340.0 248.0,338.0 Q 248.0,336.0 255.5,337.0 Q 263.0,338.0 278.5,346.5 Q 294.0,355.0 294.0,357.0 Q 294.0,359.0 291.0,359.0 Q 288.0,359.0 284.5,362.0 Q 281.0,365.0 285.5,367.0 Q 290.0,369.0 296.0,369.0 Q 302.0,369.0 303.0,371.5 Q 304.0,374.0 225.5,375.0 Q 147.0,376.0 100.5,379.0 Q 54.0,382.0 94.0,382.5 Q 134.0,383.0 180.0,382.0 Q 226.0,381.0 226.0,382.5 Q 226.0,384.0 273.0,382.0 Q 320.0,380.0 200.0,381.0 Q 80.0,382.0 80.5,380.5 Q 81.0,379.0 199.5,376.0 Q 318.0,373.0 318.5,368.5 Q 319.0,364.0 314.5,360.5 Q 310.0,357.0 288.5,347.5 Q 267.0,338.0 252.0,336.0 Q 237.0,334.0 211.5,314.5 Q 186.0,295.0 176.5,293.5 Q 167.0,292.0 155.0,280.5 Q 143.0,269.0 144.5,266.5 Q 146.0,264.0 157.5,257.0 Q 169.0,250.0 172.5,251.5 Q 176.0,253.0 182.0,252.5 Q 188.0,252.0 184.5,255.5 Q 181.0,259.0 178.0,258.0 Q 175.0,257.0 168.0,263.0 Q 161.0,269.0 158.0,270.0 Q 155.0,271.0 160.5,269.0 Q 166.0,267.0 169.5,263.0 Q 173.0,259.0 175.5,259.5 Q 178.0,260.0 182.5,258.0 Q 187.0,256.0 198.0,248.0 Q 209.0,240.0 210.5,241.5 Q 212.0,243.0 192.5,263.0 Q 173.0,283.0 194.5,269.0 Q 216.0,255.0 217.5,255.5 Q 219.0,256.0 203.5,271.5 Q 188.0,287.0 202.0,277.0 Q 216.0,267.0 219.5,266.5 Q 223.0,266.0 221.0,271.5 Q 219.0,277.0 211.5,287.0 Q 204.0,297.0 207.0,302.0 Q 210.0,307.0 223.5,310.0 Q 237.0,313.0 246.5,320.5 Q 256.0,328.0 253.5,323.0 Q 251.0,318.0 257.0,309.0 Q 263.0,300.0 265.5,299.5 Q 268.0,299.0 265.5,308.5 Q 263.0,318.0 263.5,320.5 Q 264.0,323.0 270.5,310.0 Q 277.0,297.0 278.5,296.5 Q 280.0,296.0 281.5,299.0 Q 283.0,302.0 279.5,316.5 Q 276.0,331.0 277.0,333.0 Q 278.0,335.0 281.5,324.0 Q 285.0,313.0 287.0,313.0 Q 289.0,313.0 290.5,316.5 Q 292.0,320.0 289.5,312.5 Q 287.0,305.0 287.5,297.0 Q 288.0,289.0 290.0,286.0 Q 292.0,283.0 296.5,282.5 Q 301.0,282.0 337.5,304.5 Q 374.0,327.0 372.5,329.0 Q 371.0,331.0 346.0,340.5 Q 321.0,350.0 347.5,344.0 Q 374.0,338.0 433.5,319.0 Q 493.0,300.0 496.0,300.5 Q 499.0,301.0 499.0,302.5 Q 499.0,304.0 507.5,304.5 Q 516.0,305.0 538.0,300.5 Q 560.0,296.0 568.5,301.5 Q 577.0,307.0 606.0,315.0 Q 635.0,323.0 636.0,322.0 Q 637.0,321.0 636.0,317.0 Q 635.0,313.0 625.5,305.5 Q 616.0,298.0 616.0,296.0 Q 616.0,294.0 624.5,290.0 Q 633.0,286.0 643.0,279.0 Q 653.0,272.0 656.5,272.0 Q 660.0,272.0 677.0,258.0 Q 694.0,244.0 695.5,246.0 Q 697.0,248.0 690.0,259.0 Q 683.0,270.0 683.5,272.5 Q 684.0,275.0 695.0,268.0 Q 706.0,261.0 707.5,261.5 Q 709.0,262.0 710.0,265.0 Q 711.0,268.0 714.5,268.5 Q 718.0,269.0 719.0,267.5 Q 720.0,266.0 716.5,267.5 Q 713.0,269.0 710.0,264.5 Q 707.0,260.0 698.5,266.0 Q 690.0,272.0 687.0,272.0 Q 684.0,272.0 686.0,267.0 Q 688.0,262.0 695.5,251.5 Q 703.0,241.0 703.5,237.0 Q 704.0,233.0 707.0,231.0 Q 710.0,229.0 712.5,229.5 Q 715.0,230.0 724.5,238.5 Q 734.0,247.0 741.0,248.0 Q 748.0,249.0 760.5,257.5 Q 773.0,266.0 772.5,267.5 Q 772.0,269.0 763.5,267.5 Q 755.0,266.0 733.0,258.0 Q 711.0,250.0 731.5,258.0 Q 752.0,266.0 764.5,268.0 Q 777.0,270.0 766.0,261.0 Q 755.0,252.0 744.5,249.0 Q 734.0,246.0 724.5,237.5 Q 715.0,229.0 711.5,229.0 Q 708.0,229.0 700.0,235.5 Q 692.0,242.0 687.5,241.5 Q 683.0,241.0 675.0,246.5 Q 667.0,252.0 660.0,249.0 Q 653.0,246.0 646.5,241.0 Q 640.0,236.0 637.0,235.5 Q 634.0,235.0 640.5,239.0 Q 647.0,243.0 645.5,244.5 Q 644.0,246.0 652.0,249.0 Q 660.0,252.0 660.0,254.5 Q 660.0,257.0 644.5,268.5 Q 629.0,280.0 631.5,281.0 Q 634.0,282.0 633.5,283.5 Q 633.0,285.0 624.0,289.5 Q 615.0,294.0 607.5,295.5 Q 600.0,297.0 606.0,296.5 Q 612.0,296.0 616.5,298.5 Q 621.0,301.0 628.0,308.0 Q 635.0,315.0 634.5,318.5 Q 634.0,322.0 627.0,321.0 Q 620.0,320.0 597.0,312.5 Q 574.0,305.0 568.0,300.5 Q 562.0,296.0 556.5,296.0 Q 551.0,296.0 536.0,300.0 Q 521.0,304.0 512.5,303.5 Q 504.0,303.0 506.0,301.0 Q 508.0,299.0 530.5,295.5 Q 553.0,292.0 559.0,288.5 Q 565.0,285.0 570.5,288.5 Q 576.0,292.0 579.5,292.0 Q 583.0,292.0 588.5,289.5 Q 594.0,287.0 586.0,289.5 Q 578.0,292.0 571.0,288.5 Q 564.0,285.0 555.5,289.0 Q 547.0,293.0 533.5,294.0 Q 520.0,295.0 520.5,293.5 Q 521.0,292.0 537.0,286.5 Q 553.0,281.0 562.0,275.5 Q 571.0,270.0 572.5,270.5 Q 574.0,271.0 573.5,273.0 Q 573.0,275.0 576.0,272.5 Q 579.0,270.0 581.5,270.5 Q 584.0,271.0 591.0,277.5 Q 598.0,284.0 593.0,278.5 Q 588.0,273.0 582.5,270.5 Q 577.0,268.0 580.5,263.0 Q 584.0,258.0 583.5,256.5 Q 583.0,255.0 579.0,255.0 Q 575.0,255.0 578.0,252.0 Q 581.0,249.0 588.0,252.0 Q 595.0,255.0 602.0,261.0 Q 609.0,267.0 612.5,262.5 Q 616.0,258.0 624.0,261.0 Q 632.0,264.0 635.5,263.0 Q 639.0,262.0 640.0,259.5 Q 641.0,257.0 640.0,251.0 Q 639.0,245.0 639.5,251.5 Q 640.0,258.0 638.0,260.5 Q 636.0,263.0 625.5,260.5 Q 615.0,258.0 611.0,262.0 Q 607.0,266.0 601.5,260.5 Q 596.0,255.0 589.5,251.5 Q 583.0,248.0 584.0,242.5 Q 585.0,237.0 590.5,231.5 Q 596.0,226.0 596.0,224.0 Q 596.0,222.0 592.5,221.0 Q 589.0,220.0 557.5,241.0 Q 526.0,262.0 522.0,263.0 Q 518.0,264.0 514.0,262.5 Q 510.0,261.0 496.0,271.0 Q 482.0,281.0 465.0,288.5 Q 448.0,296.0 447.0,299.0 Q 446.0,302.0 448.0,300.0 Q 450.0,298.0 463.0,295.0 Q 476.0,292.0 476.5,290.0 Q 477.0,288.0 491.5,276.0 Q 506.0,264.0 510.0,263.0 Q 514.0,262.0 518.0,263.5 Q 522.0,265.0 535.0,256.5 Q 548.0,248.0 549.5,248.5 Q 551.0,249.0 550.5,250.5 Q 550.0,252.0 534.0,264.0 Q 518.0,276.0 534.5,268.5 Q 551.0,261.0 552.5,261.5 Q 554.0,262.0 553.5,263.5 Q 553.0,265.0 545.5,270.0 Q 538.0,275.0 557.0,266.0 Q 576.0,257.0 579.0,257.0 Q 582.0,257.0 578.5,262.0 Q 575.0,267.0 568.5,271.5 Q 562.0,276.0 541.5,284.0 Q 521.0,292.0 431.5,319.0 Q 342.0,346.0 340.5,345.5 Q 339.0,345.0 339.5,343.5 Q 340.0,342.0 366.0,332.5 Q 392.0,323.0 395.0,323.5 Q 398.0,324.0 411.0,318.5 Q 424.0,313.0 433.5,306.0 Q 443.0,299.0 419.0,310.5 Q 395.0,322.0 393.5,321.5 Q 392.0,321.0 391.5,311.5 Q 391.0,302.0 391.0,309.5 Q 391.0,317.0 389.5,317.0 Q 388.0,317.0 382.5,311.5 Q 377.0,306.0 373.0,296.5 Q 369.0,287.0 373.5,298.0 Q 378.0,309.0 384.0,314.0 Q 390.0,319.0 390.0,321.5 Q 390.0,324.0 382.5,325.5 Q 375.0,327.0 372.0,322.5 Q 369.0,318.0 349.5,302.0 Q 330.0,286.0 331.5,284.0 Q 333.0,282.0 348.5,278.0 Q 364.0,274.0 365.5,278.0 Q 367.0,282.0 373.5,281.0 Q 380.0,280.0 384.0,287.0 Q 388.0,294.0 389.5,295.0 Q 391.0,296.0 393.0,295.0 Q 395.0,294.0 401.5,299.0 Q 408.0,304.0 405.0,301.0 Q 402.0,298.0 398.5,289.5 Q 395.0,281.0 393.5,281.0 Q 392.0,281.0 391.0,286.5 Q 390.0,292.0 385.5,286.0 Q 381.0,280.0 375.5,279.5 Q 370.0,279.0 370.5,271.5 Q 371.0,264.0 365.0,265.0 Q 359.0,266.0 362.0,263.0 Q 365.0,260.0 371.5,258.5 Q 378.0,257.0 383.5,263.5 Q 389.0,270.0 399.0,273.0 Q 409.0,276.0 414.0,281.0 Q 419.0,286.0 427.5,286.0 Q 436.0,286.0 441.0,290.0 Q 446.0,294.0 441.0,289.5 Q 436.0,285.0 428.5,285.5 Q 421.0,286.0 416.0,281.5 Q 411.0,277.0 400.5,273.5 Q 390.0,270.0 384.0,263.0 Q 378.0,256.0 374.0,256.5 Q 370.0,257.0 346.5,268.5 Q 323.0,280.0 308.0,266.0 Q 293.0,252.0 277.5,250.5 Q 262.0,249.0 249.0,235.0 L 236,221" class="fil0 str0"/>
  <path d="M 595,215 L 594.0,216.5 Q 593.0,218.0 595.0,216.0 Q 597.0,214.0 600.0,214.5 Q 603.0,215.0 608.5,219.5 Q 614.0,224.0 617.5,224.0 Q 621.0,224.0 623.0,225.5 Q 625.0,227.0 623.0,225.0 Q 621.0,223.0 617.5,223.0 Q 614.0,223.0 608.0,218.5 L 602,214" class="fil0 str0"/>
</svg>